G04 Layer_Color=8388736*
%FSLAX25Y25*%
%MOIN*%
G70*
G01*
G75*
%ADD128R,0.08768X0.12311*%
%ADD129R,0.03650X0.06799*%
%ADD130R,0.04043X0.02153*%
%ADD131R,0.07193X0.09831*%
%ADD132R,0.11400X0.03300*%
%ADD133R,0.20185X0.08374*%
%ADD134R,0.03020X0.03020*%
%ADD135R,0.03020X0.03020*%
%ADD136R,0.02862X0.02665*%
%ADD137R,0.06209X0.05618*%
%ADD138R,0.14004X0.07705*%
%ADD139O,0.01287X0.04043*%
%ADD140O,0.04043X0.01287*%
%ADD141R,0.11524X0.11524*%
%ADD142R,0.02665X0.02862*%
%ADD143R,0.03453X0.04437*%
%ADD144O,0.04043X0.01484*%
%ADD145O,0.01484X0.04043*%
%ADD146P,0.04270X4X180.0*%
%ADD147O,0.06012X0.02272*%
%ADD148R,0.05618X0.07587*%
%ADD149R,0.04831X0.04437*%
%ADD150R,0.14083X0.14083*%
%ADD151O,0.03847X0.01484*%
%ADD152O,0.01484X0.03847*%
%ADD153O,0.01484X0.03650*%
%ADD154R,0.07587X0.05618*%
%ADD155P,0.23535X4X180.0*%
G04:AMPARAMS|DCode=156|XSize=16.81mil|YSize=52.24mil|CornerRadius=0mil|HoleSize=0mil|Usage=FLASHONLY|Rotation=135.000|XOffset=0mil|YOffset=0mil|HoleType=Round|Shape=Round|*
%AMOVALD156*
21,1,0.03543,0.01681,0.00000,0.00000,225.0*
1,1,0.01681,0.01253,0.01253*
1,1,0.01681,-0.01253,-0.01253*
%
%ADD156OVALD156*%

G04:AMPARAMS|DCode=157|XSize=16.81mil|YSize=52.24mil|CornerRadius=0mil|HoleSize=0mil|Usage=FLASHONLY|Rotation=225.000|XOffset=0mil|YOffset=0mil|HoleType=Round|Shape=Round|*
%AMOVALD157*
21,1,0.03543,0.01681,0.00000,0.00000,315.0*
1,1,0.01681,-0.01253,0.01253*
1,1,0.01681,0.01253,-0.01253*
%
%ADD157OVALD157*%

%ADD158R,0.03300X0.11400*%
%ADD159R,0.04437X0.04831*%
%ADD160R,0.04437X0.02862*%
%ADD161R,0.04043X0.02862*%
%ADD162P,0.04270X4X90.0*%
G04:AMPARAMS|DCode=163|XSize=16.81mil|YSize=75.87mil|CornerRadius=0mil|HoleSize=0mil|Usage=FLASHONLY|Rotation=45.000|XOffset=0mil|YOffset=0mil|HoleType=Round|Shape=Round|*
%AMOVALD163*
21,1,0.05905,0.01681,0.00000,0.00000,135.0*
1,1,0.01681,0.02088,-0.02088*
1,1,0.01681,-0.02088,0.02088*
%
%ADD163OVALD163*%

G04:AMPARAMS|DCode=164|XSize=16.81mil|YSize=75.87mil|CornerRadius=0mil|HoleSize=0mil|Usage=FLASHONLY|Rotation=315.000|XOffset=0mil|YOffset=0mil|HoleType=Round|Shape=Round|*
%AMOVALD164*
21,1,0.05905,0.01681,0.00000,0.00000,45.0*
1,1,0.01681,-0.02088,-0.02088*
1,1,0.01681,0.02088,0.02088*
%
%ADD164OVALD164*%

%ADD165O,0.05028X0.02862*%
%ADD166R,0.05028X0.03256*%
%ADD167R,0.05421X0.03256*%
%ADD168R,0.16642X0.08256*%
%ADD169R,0.06012X0.15067*%
%ADD170R,0.02862X0.04437*%
%ADD171R,0.08374X0.02468*%
%ADD172R,0.07587X0.14870*%
%ADD173R,0.10539X0.06602*%
%ADD174R,0.09831X0.07193*%
%ADD175R,0.02153X0.04043*%
%ADD176R,0.04240X0.02862*%
%ADD177R,0.07193X0.06209*%
%ADD178R,0.06012X0.05224*%
%ADD179R,0.10736X0.10736*%
%ADD180O,0.04240X0.01484*%
%ADD181O,0.01484X0.04240*%
%ADD182R,0.04437X0.03453*%
%ADD183R,0.09752X0.20579*%
%ADD184C,0.03000*%
%ADD185C,0.26091*%
%ADD186C,0.23728*%
%ADD187C,0.04043*%
%ADD188C,0.08500*%
%ADD189R,0.08500X0.08500*%
%ADD190C,0.07587*%
%ADD191C,0.08768*%
%ADD192C,0.06799*%
%ADD193C,0.07980*%
%ADD194C,0.07193*%
G04:AMPARAMS|DCode=195|XSize=123.11mil|YSize=123.11mil|CornerRadius=61.55mil|HoleSize=0mil|Usage=FLASHONLY|Rotation=0.000|XOffset=0mil|YOffset=0mil|HoleType=Round|Shape=RoundedRectangle|*
%AMROUNDEDRECTD195*
21,1,0.12311,0.00000,0,0,0.0*
21,1,0.00000,0.12311,0,0,0.0*
1,1,0.12311,0.00000,0.00000*
1,1,0.12311,0.00000,0.00000*
1,1,0.12311,0.00000,0.00000*
1,1,0.12311,0.00000,0.00000*
%
%ADD195ROUNDEDRECTD195*%
%ADD196C,0.09949*%
%ADD197C,0.04831*%
%ADD198C,0.11130*%
%ADD199C,0.02468*%
%ADD200C,0.17429*%
%ADD201C,0.00500*%
%ADD202C,0.03256*%
%ADD203C,0.02862*%
%ADD204C,0.03162*%
%ADD205C,0.05500*%
G36*
X-138779Y158465D02*
X-176181D01*
Y166339D01*
X-138779D01*
Y158465D01*
D02*
G37*
D128*
X114862Y160433D02*
D03*
X80020D02*
D03*
D129*
X104823Y149016D02*
D03*
X99902D02*
D03*
X94980D02*
D03*
X90059D02*
D03*
D130*
X-202815Y100886D02*
D03*
Y98327D02*
D03*
Y95768D02*
D03*
Y93209D02*
D03*
X-190886Y100886D02*
D03*
Y98327D02*
D03*
Y95768D02*
D03*
Y93209D02*
D03*
X-143642Y77461D02*
D03*
Y80020D02*
D03*
Y82579D02*
D03*
Y85138D02*
D03*
X-155571Y77461D02*
D03*
Y80020D02*
D03*
Y82579D02*
D03*
Y85138D02*
D03*
X-175256D02*
D03*
Y82579D02*
D03*
Y80020D02*
D03*
Y77461D02*
D03*
X-163327Y85138D02*
D03*
Y82579D02*
D03*
Y80020D02*
D03*
Y77461D02*
D03*
Y19390D02*
D03*
Y21949D02*
D03*
Y24508D02*
D03*
Y27067D02*
D03*
X-175256Y19390D02*
D03*
Y21949D02*
D03*
Y24508D02*
D03*
Y27067D02*
D03*
X-155571D02*
D03*
Y24508D02*
D03*
Y21949D02*
D03*
Y19390D02*
D03*
X-143642Y27067D02*
D03*
Y24508D02*
D03*
Y21949D02*
D03*
Y19390D02*
D03*
X-81555Y23524D02*
D03*
Y20965D02*
D03*
Y18406D02*
D03*
Y15846D02*
D03*
X-69626Y23524D02*
D03*
Y20965D02*
D03*
Y18406D02*
D03*
Y15846D02*
D03*
D131*
X-195177Y97047D02*
D03*
X-151279Y81299D02*
D03*
X-170965D02*
D03*
Y23228D02*
D03*
X-151279D02*
D03*
X-77264Y19685D02*
D03*
D132*
X177000Y55000D02*
D03*
X193000D02*
D03*
X177000Y50000D02*
D03*
X193000D02*
D03*
X177000Y45000D02*
D03*
X193000D02*
D03*
X177000Y40000D02*
D03*
X193000D02*
D03*
X177000Y35000D02*
D03*
X193000D02*
D03*
X247905Y-17559D02*
D03*
Y-22559D02*
D03*
Y-27559D02*
D03*
X263906Y-17559D02*
D03*
Y-27559D02*
D03*
Y-32559D02*
D03*
Y-22559D02*
D03*
X247905Y-32559D02*
D03*
Y-37559D02*
D03*
X263906D02*
D03*
X177000Y17500D02*
D03*
Y12500D02*
D03*
Y7500D02*
D03*
X193000Y17500D02*
D03*
Y7500D02*
D03*
Y2500D02*
D03*
Y12500D02*
D03*
X177000Y2500D02*
D03*
Y-2500D02*
D03*
X193000D02*
D03*
X247905Y37559D02*
D03*
Y32559D02*
D03*
Y27559D02*
D03*
X263906Y37559D02*
D03*
Y27559D02*
D03*
Y22559D02*
D03*
Y32559D02*
D03*
X247905Y22559D02*
D03*
Y17559D02*
D03*
X263906D02*
D03*
D133*
X46063Y-99606D02*
D03*
Y-60236D02*
D03*
D134*
X-111378Y127559D02*
D03*
X-115000D02*
D03*
X-91693D02*
D03*
X-95315D02*
D03*
X-156063Y56693D02*
D03*
X-159685D02*
D03*
X108425Y-34449D02*
D03*
X112047D02*
D03*
X43937Y165551D02*
D03*
X40315D02*
D03*
X125157Y146653D02*
D03*
X128779D02*
D03*
X107126Y143701D02*
D03*
X103504D02*
D03*
X134016Y131496D02*
D03*
X137638D02*
D03*
X147795Y72047D02*
D03*
X151417D02*
D03*
X224252Y16732D02*
D03*
X220630D02*
D03*
X35394Y-156102D02*
D03*
X39016D02*
D03*
X-91378Y155512D02*
D03*
X-87756D02*
D03*
X-91378Y151575D02*
D03*
X-87756D02*
D03*
X-115315Y155512D02*
D03*
X-118937D02*
D03*
X-115315Y151575D02*
D03*
X-118937D02*
D03*
X-198976Y87402D02*
D03*
X-202598D02*
D03*
X-165512Y-114567D02*
D03*
X-169134D02*
D03*
X-222284Y-136811D02*
D03*
X-218661D02*
D03*
X-173071D02*
D03*
X-169449D02*
D03*
X-123858D02*
D03*
X-120236D02*
D03*
X-74646D02*
D03*
X-71024D02*
D03*
X-191890Y75197D02*
D03*
X-195512D02*
D03*
X-196221Y66535D02*
D03*
X-199843D02*
D03*
X-200945Y56299D02*
D03*
X-204567D02*
D03*
X-193071Y42520D02*
D03*
X-196693D02*
D03*
X-193071Y51181D02*
D03*
X-196693D02*
D03*
X-193071Y46850D02*
D03*
X-196693D02*
D03*
X-191890Y79528D02*
D03*
X-195512D02*
D03*
X-91693Y96063D02*
D03*
X-95315D02*
D03*
X45906Y151772D02*
D03*
X42283D02*
D03*
X116811Y-13000D02*
D03*
X113189D02*
D03*
D135*
X-92520Y139921D02*
D03*
Y143543D02*
D03*
X-114173Y139921D02*
D03*
Y143543D02*
D03*
X-163386Y47087D02*
D03*
Y43465D02*
D03*
X-161417Y70551D02*
D03*
Y66929D02*
D03*
X-187992Y30669D02*
D03*
Y34291D02*
D03*
X117126Y-53307D02*
D03*
Y-56929D02*
D03*
X105315Y-62165D02*
D03*
Y-65787D02*
D03*
X51968Y140984D02*
D03*
Y137362D02*
D03*
X175984Y87638D02*
D03*
Y84016D02*
D03*
X151307Y88976D02*
D03*
Y92598D02*
D03*
X112992Y50551D02*
D03*
Y54173D02*
D03*
X105000Y53000D02*
D03*
Y56622D02*
D03*
X85000Y56811D02*
D03*
Y53189D02*
D03*
X81000Y56811D02*
D03*
Y53189D02*
D03*
X82000Y14189D02*
D03*
Y17811D02*
D03*
X175197Y-135000D02*
D03*
Y-138622D02*
D03*
X127165Y-117087D02*
D03*
Y-120709D02*
D03*
X123228Y-117087D02*
D03*
Y-120709D02*
D03*
X116929Y-117087D02*
D03*
Y-120709D02*
D03*
X112992Y-117087D02*
D03*
Y-120709D02*
D03*
X105905Y-117087D02*
D03*
Y-120709D02*
D03*
X101969Y-117087D02*
D03*
Y-120709D02*
D03*
X95669Y-117087D02*
D03*
Y-120709D02*
D03*
X60039Y-155945D02*
D03*
Y-152323D02*
D03*
X-209842Y97087D02*
D03*
Y93465D02*
D03*
X-233465Y28898D02*
D03*
Y32520D02*
D03*
X-161417Y-11654D02*
D03*
Y-8032D02*
D03*
X-200787Y-1142D02*
D03*
Y-4764D02*
D03*
X-185039Y-8032D02*
D03*
Y-11654D02*
D03*
X-95000Y-689D02*
D03*
Y-4311D02*
D03*
X91732Y-117087D02*
D03*
Y-120709D02*
D03*
X116142Y112047D02*
D03*
Y108425D02*
D03*
X112205Y112047D02*
D03*
Y108425D02*
D03*
X74213Y-160276D02*
D03*
Y-156653D02*
D03*
X-173228Y113622D02*
D03*
Y110000D02*
D03*
X-178150Y113622D02*
D03*
Y110000D02*
D03*
X-93504Y89567D02*
D03*
Y85945D02*
D03*
X-102362Y85473D02*
D03*
Y81850D02*
D03*
X-98425Y81535D02*
D03*
Y77913D02*
D03*
D136*
Y144587D02*
D03*
Y140847D02*
D03*
X-103347D02*
D03*
Y144587D02*
D03*
X-108268D02*
D03*
Y140847D02*
D03*
X-125984Y102854D02*
D03*
Y99114D02*
D03*
Y110728D02*
D03*
Y106988D02*
D03*
X-177165Y35531D02*
D03*
Y39272D02*
D03*
X-181496Y35531D02*
D03*
Y39272D02*
D03*
X32677Y138681D02*
D03*
Y134941D02*
D03*
X200472Y139370D02*
D03*
Y143110D02*
D03*
X195472Y139370D02*
D03*
Y143110D02*
D03*
X190472Y139370D02*
D03*
Y143110D02*
D03*
X245472Y139469D02*
D03*
Y143209D02*
D03*
X240472Y139469D02*
D03*
Y143209D02*
D03*
X250472Y103110D02*
D03*
Y99370D02*
D03*
X254331Y103051D02*
D03*
Y99311D02*
D03*
X245472Y103110D02*
D03*
Y99370D02*
D03*
X240472Y103110D02*
D03*
Y99370D02*
D03*
X200472Y103110D02*
D03*
Y99370D02*
D03*
X195472Y103110D02*
D03*
Y99370D02*
D03*
X190472Y103110D02*
D03*
Y99370D02*
D03*
X157480Y133760D02*
D03*
Y130020D02*
D03*
X162402Y120177D02*
D03*
Y123917D02*
D03*
X157480Y120177D02*
D03*
Y123917D02*
D03*
X143307Y75098D02*
D03*
Y71358D02*
D03*
X250472Y-103110D02*
D03*
Y-99370D02*
D03*
X245472Y-103110D02*
D03*
Y-99370D02*
D03*
X240472Y-103110D02*
D03*
Y-99370D02*
D03*
X200472Y-103110D02*
D03*
Y-99370D02*
D03*
X195472Y-103110D02*
D03*
Y-99370D02*
D03*
X190472Y-103110D02*
D03*
Y-99370D02*
D03*
X242913Y-142421D02*
D03*
Y-138681D02*
D03*
X237972Y-142480D02*
D03*
Y-138740D02*
D03*
X200472Y-138435D02*
D03*
Y-142175D02*
D03*
X195472Y-138484D02*
D03*
Y-142224D02*
D03*
X190472Y-138484D02*
D03*
Y-142224D02*
D03*
X170276Y-134941D02*
D03*
Y-138681D02*
D03*
Y-147539D02*
D03*
Y-143799D02*
D03*
X-63386Y20965D02*
D03*
Y24705D02*
D03*
X-53150Y5118D02*
D03*
Y8858D02*
D03*
X-29528Y65059D02*
D03*
Y68799D02*
D03*
X-95472Y151673D02*
D03*
Y155413D02*
D03*
X-111221Y151673D02*
D03*
Y155413D02*
D03*
X-209842Y88878D02*
D03*
Y85138D02*
D03*
X-116000Y-9130D02*
D03*
Y-12870D02*
D03*
X-146850Y3051D02*
D03*
Y-689D02*
D03*
X-232283Y-141831D02*
D03*
Y-145571D02*
D03*
X235827Y-31398D02*
D03*
Y-27657D02*
D03*
X-32480Y2165D02*
D03*
Y5906D02*
D03*
X-39370Y15945D02*
D03*
Y19685D02*
D03*
X-106299Y81890D02*
D03*
Y85630D02*
D03*
X-98425Y89468D02*
D03*
Y85728D02*
D03*
X32677Y146949D02*
D03*
Y143209D02*
D03*
X55000Y43130D02*
D03*
Y46870D02*
D03*
Y28130D02*
D03*
Y31870D02*
D03*
Y13130D02*
D03*
Y16870D02*
D03*
D137*
X-132874Y108071D02*
D03*
Y101772D02*
D03*
X-112205Y88779D02*
D03*
Y82480D02*
D03*
D138*
X-136811Y41850D02*
D03*
Y63661D02*
D03*
D139*
X-172638Y65059D02*
D03*
X-174213D02*
D03*
X-175787D02*
D03*
X-177362D02*
D03*
X-178937D02*
D03*
X-180512D02*
D03*
X-182087D02*
D03*
X-183661D02*
D03*
Y49114D02*
D03*
X-182087D02*
D03*
X-180512D02*
D03*
X-178937D02*
D03*
X-177362D02*
D03*
X-175787D02*
D03*
X-174213D02*
D03*
X-172638D02*
D03*
D140*
X-186122Y62598D02*
D03*
Y61024D02*
D03*
Y59449D02*
D03*
Y57874D02*
D03*
Y56299D02*
D03*
Y54724D02*
D03*
Y53150D02*
D03*
Y51575D02*
D03*
X-170177D02*
D03*
Y53150D02*
D03*
Y54724D02*
D03*
Y56299D02*
D03*
Y57874D02*
D03*
Y59449D02*
D03*
Y61024D02*
D03*
Y62598D02*
D03*
D141*
X-178150Y57087D02*
D03*
D142*
X-172047Y71260D02*
D03*
X-168307D02*
D03*
X-193012Y38189D02*
D03*
X-196752D02*
D03*
X131004Y47244D02*
D03*
X134744D02*
D03*
X133957Y127559D02*
D03*
X137697D02*
D03*
X176083Y97638D02*
D03*
X179823D02*
D03*
X151476Y76378D02*
D03*
X147736D02*
D03*
X138610Y75827D02*
D03*
X134870D02*
D03*
X243209Y-88583D02*
D03*
X239469D02*
D03*
X156398Y-104331D02*
D03*
X152657D02*
D03*
X156398Y-108268D02*
D03*
X152657D02*
D03*
X51279Y-143110D02*
D03*
X47539D02*
D03*
X-75689Y151575D02*
D03*
X-71949D02*
D03*
X-131004D02*
D03*
X-134744D02*
D03*
X-175098Y-21654D02*
D03*
X-171358D02*
D03*
X-140130Y10000D02*
D03*
X-143870D02*
D03*
X-139130Y3000D02*
D03*
X-142870D02*
D03*
X-165453Y-118898D02*
D03*
X-169193D02*
D03*
X-165453Y-123228D02*
D03*
X-169193D02*
D03*
Y-127559D02*
D03*
X-165453D02*
D03*
X187106Y-164370D02*
D03*
X190847D02*
D03*
X193012Y-159449D02*
D03*
X196752D02*
D03*
X-191929Y70866D02*
D03*
X-195669D02*
D03*
X-200886Y61024D02*
D03*
X-204626D02*
D03*
X-191831Y83858D02*
D03*
X-195571D02*
D03*
X-200886Y51181D02*
D03*
X-204626D02*
D03*
X-200886Y46850D02*
D03*
X-204626D02*
D03*
X-171358Y103937D02*
D03*
X-175098D02*
D03*
X-180118D02*
D03*
X-183858D02*
D03*
X-118316Y91748D02*
D03*
X-122057D02*
D03*
X-75689Y72835D02*
D03*
X-71949D02*
D03*
X-34350Y-115157D02*
D03*
X-30610D02*
D03*
X128839Y-11811D02*
D03*
X125098D02*
D03*
X-34350Y-100394D02*
D03*
X-30610D02*
D03*
X41240Y121850D02*
D03*
X37500D02*
D03*
X73917D02*
D03*
X77658D02*
D03*
X83760Y122047D02*
D03*
X87500D02*
D03*
D143*
X-216496Y49563D02*
D03*
Y38626D02*
D03*
X-220512Y49563D02*
D03*
Y38626D02*
D03*
D144*
X96586Y-43602D02*
D03*
Y-45571D02*
D03*
Y-47539D02*
D03*
Y-49508D02*
D03*
Y-51476D02*
D03*
Y-53445D02*
D03*
X112334D02*
D03*
Y-51476D02*
D03*
Y-49508D02*
D03*
Y-47539D02*
D03*
Y-45571D02*
D03*
Y-43602D02*
D03*
D145*
X99539Y-56398D02*
D03*
X101507D02*
D03*
X103476D02*
D03*
X105444D02*
D03*
X107413D02*
D03*
X109381D02*
D03*
Y-40650D02*
D03*
X107413D02*
D03*
X105444D02*
D03*
X103476D02*
D03*
X101507D02*
D03*
X99539D02*
D03*
D146*
X150887Y18997D02*
D03*
X148326Y16436D02*
D03*
X150100Y10336D02*
D03*
X147538Y7774D02*
D03*
X84000Y36000D02*
D03*
X81439Y33439D02*
D03*
D147*
X37598Y76575D02*
D03*
Y74016D02*
D03*
Y71457D02*
D03*
Y68898D02*
D03*
Y66339D02*
D03*
Y63779D02*
D03*
Y61221D02*
D03*
X60827Y76575D02*
D03*
Y74016D02*
D03*
Y71457D02*
D03*
Y68898D02*
D03*
Y66339D02*
D03*
Y63779D02*
D03*
Y61221D02*
D03*
X37598Y101181D02*
D03*
Y98622D02*
D03*
Y96063D02*
D03*
Y93504D02*
D03*
Y90945D02*
D03*
Y88386D02*
D03*
Y85827D02*
D03*
X60827Y101181D02*
D03*
Y98622D02*
D03*
Y96063D02*
D03*
Y93504D02*
D03*
Y90945D02*
D03*
Y88386D02*
D03*
Y85827D02*
D03*
D148*
X47638Y158465D02*
D03*
X36614D02*
D03*
X229921Y26575D02*
D03*
X218898D02*
D03*
X-195472Y127953D02*
D03*
X-184449D02*
D03*
X-195472Y118110D02*
D03*
X-184449D02*
D03*
X-195472Y137795D02*
D03*
X-184449D02*
D03*
X-195472Y147638D02*
D03*
X-184449D02*
D03*
D149*
X55118Y153937D02*
D03*
Y147244D02*
D03*
X76000Y25346D02*
D03*
Y18654D02*
D03*
X-151575Y-23819D02*
D03*
Y-30512D02*
D03*
X-232283Y-152165D02*
D03*
Y-158858D02*
D03*
X183858Y91535D02*
D03*
Y84842D02*
D03*
D150*
X118110Y127953D02*
D03*
X-103347Y111811D02*
D03*
D151*
X108366Y121063D02*
D03*
Y123031D02*
D03*
Y125000D02*
D03*
Y126969D02*
D03*
Y128937D02*
D03*
Y130905D02*
D03*
Y132874D02*
D03*
Y134843D02*
D03*
X127854D02*
D03*
Y132874D02*
D03*
Y130905D02*
D03*
Y128937D02*
D03*
Y126969D02*
D03*
Y125000D02*
D03*
Y123031D02*
D03*
Y121063D02*
D03*
X-93602Y104921D02*
D03*
Y106890D02*
D03*
Y108858D02*
D03*
Y110827D02*
D03*
Y112795D02*
D03*
Y114764D02*
D03*
Y116732D02*
D03*
Y118701D02*
D03*
X-113091D02*
D03*
Y116732D02*
D03*
Y114764D02*
D03*
Y112795D02*
D03*
Y110827D02*
D03*
Y108858D02*
D03*
Y106890D02*
D03*
Y104921D02*
D03*
D152*
X111221Y137697D02*
D03*
X113189D02*
D03*
X115157D02*
D03*
X117126D02*
D03*
X119095D02*
D03*
X121063D02*
D03*
X123031D02*
D03*
X125000D02*
D03*
X123031Y118209D02*
D03*
X121063D02*
D03*
X119095D02*
D03*
X117126D02*
D03*
X115157D02*
D03*
X113189D02*
D03*
X111221D02*
D03*
X-110236Y102067D02*
D03*
X-108268D02*
D03*
X-106299D02*
D03*
X-104331D02*
D03*
X-102362D02*
D03*
X-100394D02*
D03*
X-98425D02*
D03*
X-96457Y121555D02*
D03*
X-98425D02*
D03*
X-100394D02*
D03*
X-102362D02*
D03*
X-104331D02*
D03*
X-106299D02*
D03*
X-108268D02*
D03*
X-110236D02*
D03*
D153*
X125000Y118209D02*
D03*
X-96457Y102067D02*
D03*
D154*
X262795Y81299D02*
D03*
Y70276D02*
D03*
X168827Y80354D02*
D03*
Y91378D02*
D03*
X158984D02*
D03*
Y80354D02*
D03*
X125520D02*
D03*
Y91378D02*
D03*
X196063Y-27165D02*
D03*
Y-38189D02*
D03*
X205512Y-27165D02*
D03*
Y-38189D02*
D03*
X67126Y-161614D02*
D03*
Y-150591D02*
D03*
X-152559Y126181D02*
D03*
Y115157D02*
D03*
X-161614Y136221D02*
D03*
Y125197D02*
D03*
X-170669Y136221D02*
D03*
Y125197D02*
D03*
X-183071Y23228D02*
D03*
Y12205D02*
D03*
X-191929Y23228D02*
D03*
Y12205D02*
D03*
X-200787Y23228D02*
D03*
Y12205D02*
D03*
X-192913Y0D02*
D03*
Y-11024D02*
D03*
X265748Y-98819D02*
D03*
Y-109843D02*
D03*
X-100000Y9488D02*
D03*
Y20512D02*
D03*
X-90000Y9488D02*
D03*
Y20512D02*
D03*
X-110000Y9488D02*
D03*
Y20512D02*
D03*
X-45079Y136221D02*
D03*
Y125197D02*
D03*
X-36024Y136221D02*
D03*
Y125197D02*
D03*
X-54134Y125984D02*
D03*
Y114961D02*
D03*
X115677Y80354D02*
D03*
Y91378D02*
D03*
X-45079Y98425D02*
D03*
Y87402D02*
D03*
X-36024Y98425D02*
D03*
Y87402D02*
D03*
X-54134Y108661D02*
D03*
Y97638D02*
D03*
X-88583Y43701D02*
D03*
Y54724D02*
D03*
X-78740Y43701D02*
D03*
Y54724D02*
D03*
X-68898Y43701D02*
D03*
Y54724D02*
D03*
D155*
X220472Y78740D02*
D03*
Y-78740D02*
D03*
D156*
X217967Y65377D02*
D03*
X216157Y67187D02*
D03*
X214348Y68997D02*
D03*
X212538Y70806D02*
D03*
X210729Y72616D02*
D03*
X208919Y74425D02*
D03*
X207110Y76235D02*
D03*
X222978Y92103D02*
D03*
X224787Y90293D02*
D03*
X226597Y88484D02*
D03*
X228407Y86674D02*
D03*
X230216Y84865D02*
D03*
X232026Y83055D02*
D03*
X233835Y81246D02*
D03*
X207110Y-81246D02*
D03*
X208919Y-83055D02*
D03*
X210729Y-84865D02*
D03*
X212538Y-86674D02*
D03*
X214348Y-88484D02*
D03*
X216157Y-90293D02*
D03*
X217967Y-92103D02*
D03*
X233835Y-76235D02*
D03*
X232026Y-74425D02*
D03*
X230216Y-72616D02*
D03*
X228407Y-70806D02*
D03*
X226597Y-68997D02*
D03*
X224787Y-67187D02*
D03*
X222978Y-65377D02*
D03*
D157*
X207110Y81246D02*
D03*
X208919Y83055D02*
D03*
X210729Y84865D02*
D03*
X212538Y86674D02*
D03*
X214348Y88484D02*
D03*
X216157Y90293D02*
D03*
X217967Y92103D02*
D03*
X233835Y76235D02*
D03*
X232026Y74425D02*
D03*
X230216Y72616D02*
D03*
X228407Y70806D02*
D03*
X226597Y68997D02*
D03*
X224787Y67187D02*
D03*
X222978Y65377D02*
D03*
X217967Y-65377D02*
D03*
X216157Y-67187D02*
D03*
X214348Y-68997D02*
D03*
X212538Y-70806D02*
D03*
X210729Y-72616D02*
D03*
X208919Y-74425D02*
D03*
X207110Y-76235D02*
D03*
X222978Y-92103D02*
D03*
X224787Y-90293D02*
D03*
X226597Y-88484D02*
D03*
X228407Y-86674D02*
D03*
X230216Y-84865D02*
D03*
X232026Y-83055D02*
D03*
X233835Y-81246D02*
D03*
D158*
X255472Y129240D02*
D03*
Y113240D02*
D03*
X250472Y129240D02*
D03*
Y113240D02*
D03*
X245472Y129240D02*
D03*
Y113240D02*
D03*
X240472Y129240D02*
D03*
Y113240D02*
D03*
X235472Y129240D02*
D03*
Y113240D02*
D03*
X205472Y129240D02*
D03*
Y113240D02*
D03*
X200472Y129240D02*
D03*
Y113240D02*
D03*
X195472Y129240D02*
D03*
Y113240D02*
D03*
X190472Y129240D02*
D03*
Y113240D02*
D03*
X185472Y129240D02*
D03*
Y113240D02*
D03*
X235472Y-129240D02*
D03*
Y-113240D02*
D03*
X240472Y-129240D02*
D03*
Y-113240D02*
D03*
X245472Y-129240D02*
D03*
Y-113240D02*
D03*
X250472Y-129240D02*
D03*
Y-113240D02*
D03*
X255472Y-129240D02*
D03*
Y-113240D02*
D03*
X185472Y-129240D02*
D03*
Y-113240D02*
D03*
X190472Y-129240D02*
D03*
Y-113240D02*
D03*
X195472Y-129240D02*
D03*
Y-113240D02*
D03*
X200472Y-129240D02*
D03*
Y-113240D02*
D03*
X205472Y-129240D02*
D03*
Y-113240D02*
D03*
D159*
X158465Y138583D02*
D03*
X165157D02*
D03*
X56299Y-162402D02*
D03*
X49606D02*
D03*
X-203346Y130512D02*
D03*
X-210039D02*
D03*
X-203346Y123622D02*
D03*
X-210039D02*
D03*
X-203346Y116732D02*
D03*
X-210039D02*
D03*
X-203346Y109843D02*
D03*
X-210039D02*
D03*
X-180512Y0D02*
D03*
X-173819D02*
D03*
X201378Y-19685D02*
D03*
X208071D02*
D03*
X-97047Y57087D02*
D03*
X-103740D02*
D03*
X-97047Y49213D02*
D03*
X-103740D02*
D03*
X-97047Y41339D02*
D03*
X-103740D02*
D03*
D160*
X142913Y134646D02*
D03*
X152362Y138386D02*
D03*
Y130905D02*
D03*
X40276Y45000D02*
D03*
X49724Y48740D02*
D03*
Y41260D02*
D03*
X40276Y30000D02*
D03*
X49724Y33740D02*
D03*
Y26260D02*
D03*
X40276Y15000D02*
D03*
X49724Y18740D02*
D03*
Y11260D02*
D03*
X181890Y-158465D02*
D03*
X172441Y-162205D02*
D03*
Y-154724D02*
D03*
X54823Y-155905D02*
D03*
Y-152165D02*
D03*
Y-148425D02*
D03*
X43996D02*
D03*
Y-155905D02*
D03*
X-54080Y18701D02*
D03*
X-44631Y22441D02*
D03*
Y14961D02*
D03*
X-47047Y3937D02*
D03*
X-37598Y7677D02*
D03*
Y197D02*
D03*
X-178642Y-8071D02*
D03*
Y-11811D02*
D03*
Y-15551D02*
D03*
X-167815D02*
D03*
Y-8071D02*
D03*
X-130724Y-9000D02*
D03*
X-121276Y-5260D02*
D03*
Y-12740D02*
D03*
X-109724Y-10000D02*
D03*
X-100276Y-6260D02*
D03*
Y-13740D02*
D03*
X-112724Y-28000D02*
D03*
X-103276Y-24260D02*
D03*
Y-31740D02*
D03*
X-127165Y-38583D02*
D03*
X-136614Y-42323D02*
D03*
Y-34843D02*
D03*
X-130724Y-24000D02*
D03*
X-121276Y-20260D02*
D03*
Y-27740D02*
D03*
X134870Y89606D02*
D03*
Y85866D02*
D03*
Y82126D02*
D03*
X145697D02*
D03*
Y85866D02*
D03*
Y89606D02*
D03*
D161*
X143110Y120866D02*
D03*
X152165Y124606D02*
D03*
Y117126D02*
D03*
D162*
X123281Y52719D02*
D03*
X120719Y55281D02*
D03*
X83719Y9281D02*
D03*
X86281Y6719D02*
D03*
X212000Y62000D02*
D03*
X214561Y59439D02*
D03*
X227719Y-61719D02*
D03*
X230281Y-64281D02*
D03*
D163*
X139498Y13597D02*
D03*
X140890Y14989D02*
D03*
X136714Y10813D02*
D03*
X138106Y12205D02*
D03*
X131147Y5245D02*
D03*
X132538Y6637D02*
D03*
X129755Y3853D02*
D03*
X135322Y9421D02*
D03*
X133930Y8029D02*
D03*
X126971Y1070D02*
D03*
X128363Y2461D02*
D03*
X121403Y-4498D02*
D03*
X122795Y-3106D02*
D03*
X120011Y-5890D02*
D03*
X125579Y-322D02*
D03*
X124187Y-1714D02*
D03*
X109989Y45890D02*
D03*
X108597Y44498D02*
D03*
X107205Y43106D02*
D03*
X105813Y41714D02*
D03*
X100245Y36147D02*
D03*
X101637Y37538D02*
D03*
X98853Y34755D02*
D03*
X104421Y40322D02*
D03*
X103029Y38930D02*
D03*
X97461Y33363D02*
D03*
X96070Y31971D02*
D03*
X90502Y26403D02*
D03*
X91894Y27795D02*
D03*
X89110Y25011D02*
D03*
X94678Y30579D02*
D03*
X93286Y29187D02*
D03*
D164*
X140890Y25011D02*
D03*
X139498Y26403D02*
D03*
X136714Y29187D02*
D03*
X135322Y30579D02*
D03*
X138106Y27795D02*
D03*
X132538Y33363D02*
D03*
X133930Y31971D02*
D03*
X131147Y34755D02*
D03*
X129755Y36147D02*
D03*
X128363Y37538D02*
D03*
X101637Y2461D02*
D03*
X100245Y3853D02*
D03*
X103029Y1070D02*
D03*
X97461Y6637D02*
D03*
X98853Y5245D02*
D03*
X108597Y-4498D02*
D03*
X107205Y-3106D02*
D03*
X109989Y-5890D02*
D03*
X104421Y-322D02*
D03*
X105813Y-1714D02*
D03*
X125579Y40322D02*
D03*
X124187Y41714D02*
D03*
X126971Y38930D02*
D03*
X120011Y45890D02*
D03*
X122795Y43106D02*
D03*
X121403Y44498D02*
D03*
X94678Y9421D02*
D03*
X90502Y13597D02*
D03*
X96070Y8029D02*
D03*
X91894Y12205D02*
D03*
X89110Y14989D02*
D03*
X93286Y10813D02*
D03*
D165*
X244390Y7500D02*
D03*
Y2500D02*
D03*
Y-2500D02*
D03*
Y-7500D02*
D03*
D166*
X267421Y7500D02*
D03*
Y-2500D02*
D03*
Y-7500D02*
D03*
D167*
Y2500D02*
D03*
D168*
X257165Y5000D02*
D03*
Y-5000D02*
D03*
D169*
X227953Y-23622D02*
D03*
X216929D02*
D03*
X134772Y104567D02*
D03*
X145795D02*
D03*
D170*
X91732Y-134646D02*
D03*
X99213D02*
D03*
X95472Y-125197D02*
D03*
X45866Y146161D02*
D03*
X42126D02*
D03*
X38386D02*
D03*
Y135335D02*
D03*
X45866D02*
D03*
D171*
X-77559Y-82284D02*
D03*
Y-79134D02*
D03*
Y-72835D02*
D03*
Y-69685D02*
D03*
X-60236Y-91732D02*
D03*
Y-88583D02*
D03*
Y-82284D02*
D03*
Y-79134D02*
D03*
Y-72835D02*
D03*
Y-69685D02*
D03*
Y-12992D02*
D03*
Y-9843D02*
D03*
Y-16142D02*
D03*
Y-3543D02*
D03*
D03*
Y-6693D02*
D03*
Y-41339D02*
D03*
Y-38189D02*
D03*
Y-47638D02*
D03*
Y-19291D02*
D03*
Y-22441D02*
D03*
Y-35039D02*
D03*
Y-31890D02*
D03*
Y-44488D02*
D03*
Y-25591D02*
D03*
Y-28740D02*
D03*
Y-63386D02*
D03*
Y-60236D02*
D03*
Y-66535D02*
D03*
Y-53937D02*
D03*
Y-50787D02*
D03*
Y-57087D02*
D03*
Y-75984D02*
D03*
Y-85433D02*
D03*
Y-94882D02*
D03*
X-77559Y-3543D02*
D03*
Y-6693D02*
D03*
Y-12992D02*
D03*
Y-9843D02*
D03*
Y-16142D02*
D03*
Y-41339D02*
D03*
Y-38189D02*
D03*
Y-44488D02*
D03*
Y-19291D02*
D03*
Y-22441D02*
D03*
Y-25591D02*
D03*
Y-28740D02*
D03*
Y-31890D02*
D03*
Y-35039D02*
D03*
Y-50787D02*
D03*
Y-47638D02*
D03*
Y-57087D02*
D03*
Y-53937D02*
D03*
Y-60236D02*
D03*
Y-63386D02*
D03*
Y-66535D02*
D03*
Y-85433D02*
D03*
Y-88583D02*
D03*
Y-75984D02*
D03*
Y-91732D02*
D03*
Y-94882D02*
D03*
D172*
X-49213Y59842D02*
D03*
Y38583D02*
D03*
D173*
X-221555Y143701D02*
D03*
X-205610D02*
D03*
D174*
X-224410Y22933D02*
D03*
D175*
X-228248Y18642D02*
D03*
X-225689D02*
D03*
X-223130D02*
D03*
X-220571D02*
D03*
X-228248Y30571D02*
D03*
X-225689D02*
D03*
X-223130D02*
D03*
X-220571D02*
D03*
D176*
X-125374Y6000D02*
D03*
X-134626Y2260D02*
D03*
Y9740D02*
D03*
X-136374Y-13150D02*
D03*
X-145626Y-16890D02*
D03*
Y-9410D02*
D03*
D177*
X-222342Y-142717D02*
D03*
X-191043D02*
D03*
X-222342Y-160433D02*
D03*
X-191043D02*
D03*
X-173130Y-142717D02*
D03*
X-141831D02*
D03*
X-173130Y-160433D02*
D03*
X-141831D02*
D03*
X-123917Y-142717D02*
D03*
X-92618D02*
D03*
X-123917Y-160433D02*
D03*
X-92618D02*
D03*
X-74705Y-142717D02*
D03*
X-43406D02*
D03*
X-74705Y-160433D02*
D03*
X-43406D02*
D03*
D178*
X99331Y58150D02*
D03*
Y51850D02*
D03*
X90669Y58150D02*
D03*
Y51850D02*
D03*
D179*
X222441Y-1969D02*
D03*
D180*
X214665Y-6890D02*
D03*
Y-4921D02*
D03*
Y-2953D02*
D03*
Y-984D02*
D03*
Y984D02*
D03*
Y2953D02*
D03*
X230217D02*
D03*
Y984D02*
D03*
Y-984D02*
D03*
Y-2953D02*
D03*
Y-4921D02*
D03*
Y-6890D02*
D03*
D181*
X217520Y5807D02*
D03*
X219488D02*
D03*
X221457D02*
D03*
X223425D02*
D03*
X225394D02*
D03*
X227362D02*
D03*
Y-9744D02*
D03*
X225394D02*
D03*
X223425D02*
D03*
X221457D02*
D03*
X219488D02*
D03*
X217520D02*
D03*
D182*
X-172091Y99252D02*
D03*
Y95236D02*
D03*
X-183028Y99252D02*
D03*
Y95236D02*
D03*
D183*
X-66043Y135039D02*
D03*
X-82382D02*
D03*
X-66043Y88583D02*
D03*
X-82382D02*
D03*
X-140650Y135039D02*
D03*
X-124311D02*
D03*
D184*
X17500Y-7500D02*
D03*
Y-2500D02*
D03*
Y22500D02*
D03*
Y27500D02*
D03*
X-17500Y-47500D02*
D03*
Y-42500D02*
D03*
X17500Y-52500D02*
D03*
Y-47500D02*
D03*
Y-67500D02*
D03*
Y-62500D02*
D03*
Y117500D02*
D03*
Y122500D02*
D03*
Y102500D02*
D03*
Y112500D02*
D03*
Y107500D02*
D03*
X12500Y122500D02*
D03*
Y107500D02*
D03*
X17500Y77500D02*
D03*
Y82500D02*
D03*
Y67500D02*
D03*
Y72500D02*
D03*
Y92500D02*
D03*
Y97500D02*
D03*
Y87500D02*
D03*
X12500Y112500D02*
D03*
Y117500D02*
D03*
Y97500D02*
D03*
Y102500D02*
D03*
X7500Y97500D02*
D03*
X12500Y72500D02*
D03*
Y77500D02*
D03*
Y67500D02*
D03*
Y87500D02*
D03*
Y92500D02*
D03*
Y82500D02*
D03*
X17500Y42500D02*
D03*
Y47500D02*
D03*
Y32500D02*
D03*
Y37500D02*
D03*
Y57500D02*
D03*
Y62500D02*
D03*
Y52500D02*
D03*
Y7500D02*
D03*
Y12500D02*
D03*
Y2500D02*
D03*
Y17500D02*
D03*
X12500Y42500D02*
D03*
Y47500D02*
D03*
Y32500D02*
D03*
Y37500D02*
D03*
Y57500D02*
D03*
Y62500D02*
D03*
Y52500D02*
D03*
Y12500D02*
D03*
Y17500D02*
D03*
Y7500D02*
D03*
Y27500D02*
D03*
X7500D02*
D03*
X12500Y22500D02*
D03*
X7500Y117500D02*
D03*
Y122500D02*
D03*
Y102500D02*
D03*
Y112500D02*
D03*
Y107500D02*
D03*
Y72500D02*
D03*
Y77500D02*
D03*
Y67500D02*
D03*
Y87500D02*
D03*
Y92500D02*
D03*
Y82500D02*
D03*
X2500Y112500D02*
D03*
Y117500D02*
D03*
Y102500D02*
D03*
Y107500D02*
D03*
Y122500D02*
D03*
Y77500D02*
D03*
Y82500D02*
D03*
Y72500D02*
D03*
Y92500D02*
D03*
Y97500D02*
D03*
Y87500D02*
D03*
X7500Y42500D02*
D03*
Y47500D02*
D03*
Y32500D02*
D03*
Y37500D02*
D03*
Y57500D02*
D03*
Y62500D02*
D03*
Y52500D02*
D03*
Y17500D02*
D03*
Y22500D02*
D03*
Y12500D02*
D03*
Y2500D02*
D03*
Y7500D02*
D03*
X2500Y2500D02*
D03*
Y47500D02*
D03*
Y52500D02*
D03*
Y37500D02*
D03*
Y42500D02*
D03*
Y62500D02*
D03*
Y67500D02*
D03*
Y57500D02*
D03*
Y12500D02*
D03*
Y17500D02*
D03*
Y7500D02*
D03*
Y27500D02*
D03*
Y32500D02*
D03*
Y22500D02*
D03*
X17500Y-22500D02*
D03*
Y-17500D02*
D03*
Y-32500D02*
D03*
Y-27500D02*
D03*
Y-12500D02*
D03*
Y-57500D02*
D03*
Y-42500D02*
D03*
Y-37500D02*
D03*
X12500Y-17500D02*
D03*
Y-12500D02*
D03*
Y-27500D02*
D03*
Y-22500D02*
D03*
Y-2500D02*
D03*
Y2500D02*
D03*
Y-7500D02*
D03*
Y-52500D02*
D03*
Y-47500D02*
D03*
Y-57500D02*
D03*
Y-37500D02*
D03*
Y-32500D02*
D03*
Y-42500D02*
D03*
X17500Y-82500D02*
D03*
Y-77500D02*
D03*
Y-92500D02*
D03*
Y-87500D02*
D03*
Y-72500D02*
D03*
Y-117500D02*
D03*
Y-112500D02*
D03*
Y-122500D02*
D03*
Y-102500D02*
D03*
Y-97500D02*
D03*
Y-107500D02*
D03*
X12500Y-82500D02*
D03*
Y-77500D02*
D03*
Y-92500D02*
D03*
Y-87500D02*
D03*
Y-67500D02*
D03*
Y-62500D02*
D03*
Y-72500D02*
D03*
Y-122500D02*
D03*
Y-117500D02*
D03*
Y-102500D02*
D03*
Y-97500D02*
D03*
Y-112500D02*
D03*
X7500Y-22500D02*
D03*
Y-17500D02*
D03*
Y-32500D02*
D03*
Y-27500D02*
D03*
Y-7500D02*
D03*
Y-2500D02*
D03*
Y-12500D02*
D03*
Y-57500D02*
D03*
Y-52500D02*
D03*
Y-62500D02*
D03*
Y-42500D02*
D03*
Y-37500D02*
D03*
Y-47500D02*
D03*
X2500Y-17500D02*
D03*
Y-12500D02*
D03*
Y-27500D02*
D03*
Y-22500D02*
D03*
Y-2500D02*
D03*
Y-7500D02*
D03*
Y-52500D02*
D03*
Y-47500D02*
D03*
Y-57500D02*
D03*
Y-37500D02*
D03*
Y-32500D02*
D03*
Y-42500D02*
D03*
X7500Y-87500D02*
D03*
Y-82500D02*
D03*
Y-97500D02*
D03*
Y-92500D02*
D03*
Y-72500D02*
D03*
Y-67500D02*
D03*
Y-77500D02*
D03*
Y-107500D02*
D03*
Y-102500D02*
D03*
X12500Y-107500D02*
D03*
X7500Y-117500D02*
D03*
Y-112500D02*
D03*
Y-122500D02*
D03*
X2500Y-82500D02*
D03*
Y-77500D02*
D03*
Y-92500D02*
D03*
Y-87500D02*
D03*
Y-67500D02*
D03*
Y-62500D02*
D03*
Y-72500D02*
D03*
Y-117500D02*
D03*
Y-112500D02*
D03*
Y-122500D02*
D03*
Y-102500D02*
D03*
Y-97500D02*
D03*
Y-107500D02*
D03*
X-2500Y112500D02*
D03*
Y122500D02*
D03*
Y117500D02*
D03*
Y107500D02*
D03*
Y82500D02*
D03*
Y87500D02*
D03*
Y72500D02*
D03*
Y77500D02*
D03*
Y97500D02*
D03*
Y102500D02*
D03*
Y92500D02*
D03*
X-7500Y117500D02*
D03*
Y122500D02*
D03*
Y107500D02*
D03*
Y112500D02*
D03*
Y102500D02*
D03*
Y77500D02*
D03*
Y82500D02*
D03*
Y72500D02*
D03*
Y92500D02*
D03*
Y97500D02*
D03*
Y87500D02*
D03*
X-2500Y47500D02*
D03*
Y52500D02*
D03*
Y37500D02*
D03*
Y42500D02*
D03*
Y62500D02*
D03*
Y67500D02*
D03*
Y57500D02*
D03*
Y12500D02*
D03*
Y17500D02*
D03*
Y7500D02*
D03*
Y27500D02*
D03*
Y32500D02*
D03*
Y22500D02*
D03*
X-7500Y47500D02*
D03*
Y52500D02*
D03*
Y37500D02*
D03*
Y42500D02*
D03*
Y62500D02*
D03*
Y67500D02*
D03*
Y57500D02*
D03*
Y12500D02*
D03*
Y17500D02*
D03*
X-2500Y2500D02*
D03*
X-7500Y27500D02*
D03*
Y32500D02*
D03*
Y22500D02*
D03*
X-12500Y102500D02*
D03*
Y107500D02*
D03*
Y92500D02*
D03*
Y97500D02*
D03*
Y117500D02*
D03*
Y122500D02*
D03*
Y112500D02*
D03*
Y67500D02*
D03*
Y72500D02*
D03*
Y62500D02*
D03*
Y82500D02*
D03*
Y87500D02*
D03*
Y77500D02*
D03*
X-17500Y102500D02*
D03*
Y107500D02*
D03*
Y92500D02*
D03*
Y97500D02*
D03*
Y117500D02*
D03*
Y122500D02*
D03*
Y112500D02*
D03*
Y67500D02*
D03*
Y72500D02*
D03*
Y62500D02*
D03*
Y82500D02*
D03*
Y87500D02*
D03*
Y77500D02*
D03*
X-12500Y37500D02*
D03*
Y42500D02*
D03*
Y27500D02*
D03*
Y32500D02*
D03*
Y52500D02*
D03*
Y57500D02*
D03*
Y47500D02*
D03*
X-7500Y7500D02*
D03*
X-12500Y12500D02*
D03*
X-7500Y2500D02*
D03*
X-12500Y7500D02*
D03*
Y22500D02*
D03*
Y2500D02*
D03*
X-17500Y37500D02*
D03*
Y42500D02*
D03*
Y27500D02*
D03*
Y32500D02*
D03*
Y52500D02*
D03*
Y57500D02*
D03*
Y47500D02*
D03*
Y17500D02*
D03*
Y22500D02*
D03*
X-12500Y17500D02*
D03*
X-17500Y7500D02*
D03*
Y12500D02*
D03*
Y2500D02*
D03*
X-2500Y-22500D02*
D03*
Y-17500D02*
D03*
Y-32500D02*
D03*
Y-27500D02*
D03*
Y-7500D02*
D03*
Y-2500D02*
D03*
Y-12500D02*
D03*
Y-57500D02*
D03*
Y-52500D02*
D03*
Y-62500D02*
D03*
Y-42500D02*
D03*
Y-37500D02*
D03*
Y-47500D02*
D03*
X-7500Y-22500D02*
D03*
Y-17500D02*
D03*
Y-32500D02*
D03*
Y-27500D02*
D03*
Y-7500D02*
D03*
Y-2500D02*
D03*
Y-12500D02*
D03*
Y-57500D02*
D03*
Y-52500D02*
D03*
Y-62500D02*
D03*
Y-42500D02*
D03*
Y-37500D02*
D03*
Y-47500D02*
D03*
X-2500Y-87500D02*
D03*
Y-82500D02*
D03*
Y-97500D02*
D03*
Y-92500D02*
D03*
Y-67500D02*
D03*
Y-77500D02*
D03*
Y-107500D02*
D03*
Y-102500D02*
D03*
Y-112500D02*
D03*
Y-122500D02*
D03*
Y-117500D02*
D03*
X-7500Y-122500D02*
D03*
Y-87500D02*
D03*
Y-82500D02*
D03*
Y-97500D02*
D03*
Y-92500D02*
D03*
Y-72500D02*
D03*
Y-67500D02*
D03*
Y-77500D02*
D03*
Y-117500D02*
D03*
Y-107500D02*
D03*
Y-102500D02*
D03*
Y-112500D02*
D03*
X-12500Y-22500D02*
D03*
Y-17500D02*
D03*
Y-32500D02*
D03*
Y-27500D02*
D03*
Y-7500D02*
D03*
Y-2500D02*
D03*
Y-12500D02*
D03*
Y-42500D02*
D03*
Y-37500D02*
D03*
Y-47500D02*
D03*
Y-52500D02*
D03*
X-17500D02*
D03*
X-12500Y-57500D02*
D03*
X-17500Y-22500D02*
D03*
Y-17500D02*
D03*
Y-32500D02*
D03*
Y-27500D02*
D03*
Y-7500D02*
D03*
Y-2500D02*
D03*
Y-12500D02*
D03*
Y-37500D02*
D03*
Y-57500D02*
D03*
X-12500Y-82500D02*
D03*
Y-77500D02*
D03*
Y-92500D02*
D03*
Y-87500D02*
D03*
Y-67500D02*
D03*
Y-62500D02*
D03*
Y-72500D02*
D03*
Y-117500D02*
D03*
Y-112500D02*
D03*
Y-122500D02*
D03*
Y-102500D02*
D03*
Y-97500D02*
D03*
Y-107500D02*
D03*
X-17500Y-82500D02*
D03*
Y-77500D02*
D03*
Y-92500D02*
D03*
Y-87500D02*
D03*
Y-72500D02*
D03*
Y-117500D02*
D03*
Y-112500D02*
D03*
Y-122500D02*
D03*
Y-102500D02*
D03*
Y-97500D02*
D03*
Y-107500D02*
D03*
X-2500Y-72500D02*
D03*
X-17500Y-62500D02*
D03*
Y-67500D02*
D03*
D185*
X262205Y151575D02*
D03*
Y-151575D02*
D03*
X-249606Y151575D02*
D03*
Y-151575D02*
D03*
D186*
X-13386Y155512D02*
D03*
Y-155512D02*
D03*
X151969D02*
D03*
Y155512D02*
D03*
D187*
X-259126Y62992D02*
D03*
X-258858Y111811D02*
D03*
D188*
X-230315Y74803D02*
D03*
Y62992D02*
D03*
Y51181D02*
D03*
X-242126Y74803D02*
D03*
Y62992D02*
D03*
D189*
Y51181D02*
D03*
D190*
X-252953Y-120079D02*
D03*
X-242953D02*
D03*
X-252953Y-60879D02*
D03*
X-242953D02*
D03*
X-232953D02*
D03*
X47087Y113189D02*
D03*
X57087D02*
D03*
X67087D02*
D03*
X37087D02*
D03*
X77087D02*
D03*
X87087D02*
D03*
D191*
X-217953Y-109479D02*
D03*
Y-71479D02*
D03*
Y-125079D02*
D03*
Y-55879D02*
D03*
D192*
X-181953Y-66479D02*
D03*
Y-74479D02*
D03*
Y-82479D02*
D03*
Y-98479D02*
D03*
Y-106479D02*
D03*
Y-114479D02*
D03*
X-191953Y-70479D02*
D03*
Y-78479D02*
D03*
Y-86479D02*
D03*
Y-94479D02*
D03*
Y-102479D02*
D03*
Y-110479D02*
D03*
D193*
X135531Y-145669D02*
D03*
X92815D02*
D03*
D194*
X135531Y-163386D02*
D03*
X92815D02*
D03*
D195*
X-229528Y130512D02*
D03*
X-248031D02*
D03*
X-246063Y111811D02*
D03*
X-229528Y93110D02*
D03*
X-248031D02*
D03*
D196*
X-222441Y111811D02*
D03*
D197*
X-210630Y-33465D02*
D03*
Y-25591D02*
D03*
Y-1969D02*
D03*
Y-9843D02*
D03*
Y-17717D02*
D03*
X-216535Y-13780D02*
D03*
Y-21654D02*
D03*
Y-31496D02*
D03*
Y-3937D02*
D03*
D198*
X-224410Y8150D02*
D03*
Y-43583D02*
D03*
D199*
X-68898Y6299D02*
D03*
Y-104724D02*
D03*
D200*
X-249606Y25591D02*
D03*
D201*
X0Y132050D02*
D03*
X12000Y-132050D02*
D03*
D202*
X-63976Y75055D02*
D03*
X183366Y-16929D02*
D03*
X-197146Y99016D02*
D03*
X-193209D02*
D03*
X-197146Y95079D02*
D03*
X-193209D02*
D03*
X-149311Y79331D02*
D03*
X-153248D02*
D03*
X-149311Y83268D02*
D03*
X-153248D02*
D03*
X-172933D02*
D03*
X-168996D02*
D03*
X-172933Y79331D02*
D03*
X-168996D02*
D03*
X-175984Y59252D02*
D03*
Y54921D02*
D03*
X-180315Y59252D02*
D03*
Y54921D02*
D03*
X-168996Y21260D02*
D03*
X-172933D02*
D03*
X-168996Y25197D02*
D03*
X-172933D02*
D03*
X272933Y139370D02*
D03*
X247724Y71457D02*
D03*
X156496Y-14764D02*
D03*
X121063Y150590D02*
D03*
X124016Y142945D02*
D03*
X113189Y144685D02*
D03*
X118110Y143701D02*
D03*
X100394Y133858D02*
D03*
X113779Y123622D02*
D03*
Y127953D02*
D03*
Y132283D02*
D03*
X118110Y123622D02*
D03*
Y127953D02*
D03*
Y132283D02*
D03*
X122441Y123622D02*
D03*
Y127953D02*
D03*
Y132283D02*
D03*
X-99016Y116142D02*
D03*
Y111811D02*
D03*
Y107480D02*
D03*
X-103347Y116142D02*
D03*
Y111811D02*
D03*
Y107480D02*
D03*
X-107677Y116142D02*
D03*
Y111811D02*
D03*
Y107480D02*
D03*
X-226378Y20965D02*
D03*
Y24902D02*
D03*
X-222441Y20965D02*
D03*
Y24902D02*
D03*
X224606Y197D02*
D03*
Y-4134D02*
D03*
X220276Y197D02*
D03*
Y-4134D02*
D03*
X-153248Y25197D02*
D03*
X-149311D02*
D03*
X-153248Y21260D02*
D03*
X-149311D02*
D03*
X-75295Y21654D02*
D03*
X-79232D02*
D03*
X-75295Y17717D02*
D03*
X-79232D02*
D03*
X-121063Y-23622D02*
D03*
X187992Y-158465D02*
D03*
X196850Y-154527D02*
D03*
X191929Y-154528D02*
D03*
X164370Y-145669D02*
D03*
X166339Y-135827D02*
D03*
X4921Y-147638D02*
D03*
X13780Y-151575D02*
D03*
X10827Y-148622D02*
D03*
X-116142Y-32480D02*
D03*
X-234252Y-79724D02*
D03*
X-115157Y-36417D02*
D03*
X-234252Y-84646D02*
D03*
X109449Y-130709D02*
D03*
X-241142Y-136811D02*
D03*
X-161000Y-114000D02*
D03*
X-92520Y-8858D02*
D03*
X-95472Y-11811D02*
D03*
X-86614Y34449D02*
D03*
X-63976Y35433D02*
D03*
X-60039D02*
D03*
X-67913D02*
D03*
X275984Y-42913D02*
D03*
X-70000Y-54090D02*
D03*
Y-50634D02*
D03*
X-34000Y-50509D02*
D03*
X-92519Y-21654D02*
D03*
X-92000Y-25744D02*
D03*
X-91172Y-31737D02*
D03*
Y-35192D02*
D03*
X-96457Y3937D02*
D03*
X-44291Y-89573D02*
D03*
X-44488Y-93307D02*
D03*
X28450Y21560D02*
D03*
X31496Y24606D02*
D03*
X-47244Y118110D02*
D03*
Y114173D02*
D03*
X-43307Y118110D02*
D03*
Y105315D02*
D03*
X-47244D02*
D03*
X266732Y132874D02*
D03*
X259842Y132874D02*
D03*
X252953Y138779D02*
D03*
X265748Y95472D02*
D03*
X250000Y66929D02*
D03*
X262795Y62992D02*
D03*
X239764Y32677D02*
D03*
Y37402D02*
D03*
X234646Y-17717D02*
D03*
X74803Y-6890D02*
D03*
X-30512Y-143701D02*
D03*
X-27559Y-140748D02*
D03*
X88795Y-125879D02*
D03*
X79528Y-121949D02*
D03*
X271654Y-132874D02*
D03*
X132874Y-134843D02*
D03*
X110630Y24016D02*
D03*
X156920Y61584D02*
D03*
X151969Y61811D02*
D03*
X135039Y51575D02*
D03*
X132239Y59360D02*
D03*
X119291Y28346D02*
D03*
X87500Y17500D02*
D03*
X173622Y62205D02*
D03*
X197244Y68110D02*
D03*
X200394Y72441D02*
D03*
X194504Y73867D02*
D03*
X98425Y113189D02*
D03*
X191929Y85630D02*
D03*
X156496Y106299D02*
D03*
X152559Y105629D02*
D03*
X161417Y105315D02*
D03*
X166339Y106288D02*
D03*
X159449Y-115157D02*
D03*
X-156693Y-116142D02*
D03*
X-160236Y-118898D02*
D03*
X56299Y-142913D02*
D03*
X34252Y-161417D02*
D03*
X61811Y-143307D02*
D03*
X-154331Y394D02*
D03*
X54724Y70472D02*
D03*
X142913Y131102D02*
D03*
X125000Y-148622D02*
D03*
X136811Y-113976D02*
D03*
X147638Y-96457D02*
D03*
X136811Y-119095D02*
D03*
X146653Y-119094D02*
D03*
X142224Y-98425D02*
D03*
X138189Y-100984D02*
D03*
X64862Y-111909D02*
D03*
X78740Y-131299D02*
D03*
X79035Y-126476D02*
D03*
X61622Y-114362D02*
D03*
X66535Y-108071D02*
D03*
X69488Y-105217D02*
D03*
X62000Y-99000D02*
D03*
X32480Y-39370D02*
D03*
X29724Y-36319D02*
D03*
X69095Y-156905D02*
D03*
X-43000Y-78981D02*
D03*
Y-82437D02*
D03*
X-46000Y-76000D02*
D03*
X-100000Y-42520D02*
D03*
X-99606Y-90551D02*
D03*
X-107480Y-37402D02*
D03*
X-92000Y-82437D02*
D03*
Y-78981D02*
D03*
X-94000Y-91885D02*
D03*
Y-88429D02*
D03*
X-93000Y-54000D02*
D03*
X-83661Y-9843D02*
D03*
X-57087Y23622D02*
D03*
X-69021Y-10827D02*
D03*
X51181Y-138779D02*
D03*
X47244Y-108268D02*
D03*
X34449Y29528D02*
D03*
X75787Y90551D02*
D03*
X72835Y93504D02*
D03*
X44094Y64961D02*
D03*
Y68898D02*
D03*
X273622Y-112205D02*
D03*
X268898Y-85827D02*
D03*
X274016Y-94488D02*
D03*
Y-102756D02*
D03*
Y-85433D02*
D03*
X175590Y-10630D02*
D03*
X175197Y-14379D02*
D03*
X171260Y-21080D02*
D03*
X165354Y-20669D02*
D03*
X181496Y69685D02*
D03*
X170795Y75039D02*
D03*
X188189Y71260D02*
D03*
X144882Y19291D02*
D03*
X114961Y-787D02*
D03*
X116142Y11811D02*
D03*
X121063Y-11811D02*
D03*
X109252Y-12795D02*
D03*
X166339Y124016D02*
D03*
X-181102Y6890D02*
D03*
X-185039D02*
D03*
X-189961D02*
D03*
X-193898D02*
D03*
X-198819D02*
D03*
X-202756D02*
D03*
X-209646Y17717D02*
D03*
X-179134Y123031D02*
D03*
Y132874D02*
D03*
Y142717D02*
D03*
Y147638D02*
D03*
Y137795D02*
D03*
Y127953D02*
D03*
X-162500Y56299D02*
D03*
X-188500Y43000D02*
D03*
X-196457Y59449D02*
D03*
X-188500Y77500D02*
D03*
X131024Y63976D02*
D03*
X123031Y14764D02*
D03*
X98000Y122500D02*
D03*
X46850Y129724D02*
D03*
X91000Y-2000D02*
D03*
X89000Y1000D02*
D03*
X84942Y-13097D02*
D03*
X82000Y-10000D02*
D03*
X79970Y-6890D02*
D03*
X87000Y-16390D02*
D03*
X70866Y-8858D02*
D03*
X161417Y-20669D02*
D03*
X162402Y-9843D02*
D03*
X160433Y-5906D02*
D03*
X147638Y59449D02*
D03*
X179126Y113240D02*
D03*
X-67913Y31496D02*
D03*
X-63976D02*
D03*
X-60039D02*
D03*
X-69500Y-46000D02*
D03*
X-96457Y-27559D02*
D03*
X-129000Y-78000D02*
D03*
X-120768Y-36319D02*
D03*
X-58000Y67500D02*
D03*
X-34500Y66000D02*
D03*
X-33465Y61311D02*
D03*
X-35000Y53000D02*
D03*
X-85000Y-2500D02*
D03*
X-66929Y-8858D02*
D03*
X-70000Y-65000D02*
D03*
X-165354Y-134252D02*
D03*
X-120000Y-94000D02*
D03*
X-104000Y-101000D02*
D03*
X-212000Y-119000D02*
D03*
X-38000Y-103000D02*
D03*
X-31000Y-127465D02*
D03*
X-191732Y-152756D02*
D03*
X-141732Y-153150D02*
D03*
X-42913Y-154331D02*
D03*
X-92126Y-151575D02*
D03*
X-39370Y-136811D02*
D03*
X231890Y12598D02*
D03*
X238583Y-22677D02*
D03*
X216535Y9449D02*
D03*
X220079Y10236D02*
D03*
X224016D02*
D03*
X272047Y-37795D02*
D03*
X216000Y-127000D02*
D03*
X228000Y-126000D02*
D03*
X179000Y-119000D02*
D03*
X228000Y-120000D02*
D03*
X181114Y-113366D02*
D03*
X154331Y27953D02*
D03*
X164370Y-2953D02*
D03*
X216535Y16929D02*
D03*
X263779Y87598D02*
D03*
X214000Y138000D02*
D03*
X226000Y124000D02*
D03*
X210000Y118000D02*
D03*
X209972Y114000D02*
D03*
X132000Y119000D02*
D03*
X113709Y96693D02*
D03*
X117646D02*
D03*
X138000Y119000D02*
D03*
X123551Y96693D02*
D03*
X84000Y97000D02*
D03*
X87500Y98500D02*
D03*
X100394Y104331D02*
D03*
X131890Y72835D02*
D03*
X125000Y74803D02*
D03*
X108793Y10302D02*
D03*
X84646Y87598D02*
D03*
X76772Y-1969D02*
D03*
X126969Y11811D02*
D03*
X105315Y16732D02*
D03*
X149530Y54195D02*
D03*
X145000Y54000D02*
D03*
X42900Y156700D02*
D03*
X-41000Y-48000D02*
D03*
X-125000Y9000D02*
D03*
X-123574Y60574D02*
D03*
X-133858Y28543D02*
D03*
Y24606D02*
D03*
X-137795D02*
D03*
X-133858Y20669D02*
D03*
X-135000Y-4000D02*
D03*
X-103000Y-19000D02*
D03*
X-116247Y101165D02*
D03*
X-119000Y97000D02*
D03*
X-113000Y39000D02*
D03*
X-114000Y58000D02*
D03*
X-126000Y49000D02*
D03*
Y56000D02*
D03*
X-152000Y53000D02*
D03*
X-117000Y71000D02*
D03*
X-121000Y68000D02*
D03*
X-106299Y91535D02*
D03*
X-137795Y28543D02*
D03*
X-96457Y35433D02*
D03*
X-100394D02*
D03*
Y31496D02*
D03*
X-104331Y35433D02*
D03*
X-169587Y68110D02*
D03*
X-194488Y88189D02*
D03*
X-229331Y34449D02*
D03*
X-185039Y87598D02*
D03*
X-36013Y-139184D02*
D03*
X-189961Y89370D02*
D03*
X-190945Y55118D02*
D03*
X111771Y8283D02*
D03*
X-192520Y60630D02*
D03*
X-202756Y40945D02*
D03*
X-171653Y35827D02*
D03*
X-129921Y92520D02*
D03*
X-103347Y155512D02*
D03*
X-67913Y156496D02*
D03*
X-75787Y155512D02*
D03*
X-130905D02*
D03*
X-63976Y150591D02*
D03*
X-100394Y135827D02*
D03*
X-106299D02*
D03*
X-125000Y151575D02*
D03*
X-79724Y72835D02*
D03*
X-100000Y72000D02*
D03*
X-113189Y94488D02*
D03*
X-94000Y-44628D02*
D03*
Y-41172D02*
D03*
X-63976Y11811D02*
D03*
Y16732D02*
D03*
X59000Y28000D02*
D03*
X60000Y43000D02*
D03*
X40000Y34000D02*
D03*
Y49000D02*
D03*
X86982Y33018D02*
D03*
X83000Y30000D02*
D03*
X77000Y14000D02*
D03*
X84000Y25000D02*
D03*
X81000Y22000D02*
D03*
X101000Y25000D02*
D03*
X78740Y75787D02*
D03*
X109252Y56102D02*
D03*
X-89000Y-95000D02*
D03*
X-88000Y-86000D02*
D03*
X-90000Y-49500D02*
D03*
X-88000Y-39000D02*
D03*
X-87500Y-28500D02*
D03*
X-36000Y-40000D02*
D03*
X-52000Y-57000D02*
D03*
X39567Y-162402D02*
D03*
X44291D02*
D03*
X-47244Y79921D02*
D03*
X-43307D02*
D03*
X-39370D02*
D03*
X-47244Y109252D02*
D03*
X108110Y112047D02*
D03*
X104331Y127953D02*
D03*
X-162401Y60040D02*
D03*
X-166142Y63976D02*
D03*
X166858Y75039D02*
D03*
X160953D02*
D03*
X240915Y1742D02*
D03*
X127488Y96693D02*
D03*
X238976Y-7087D02*
D03*
X-96457Y31496D02*
D03*
X-104331D02*
D03*
X51181Y129724D02*
D03*
X54724Y160433D02*
D03*
X-161811Y88583D02*
D03*
X-157480Y49213D02*
D03*
X-167717Y44488D02*
D03*
X-163386Y35039D02*
D03*
X-143307Y90551D02*
D03*
X-138583Y33858D02*
D03*
X-137795Y78740D02*
D03*
Y82677D02*
D03*
Y86614D02*
D03*
X-133858Y78740D02*
D03*
Y82677D02*
D03*
Y86614D02*
D03*
X-137795Y20669D02*
D03*
X-35433Y143701D02*
D03*
X-39370D02*
D03*
X-43307D02*
D03*
X-47244D02*
D03*
X-62992Y108268D02*
D03*
X-66929D02*
D03*
X-70866D02*
D03*
X-74803D02*
D03*
X-62992Y116142D02*
D03*
X-66929D02*
D03*
X-70866D02*
D03*
X-74803D02*
D03*
X-143701D02*
D03*
X-139764D02*
D03*
X-135827D02*
D03*
X-131890D02*
D03*
X-159449Y143701D02*
D03*
X-163386D02*
D03*
X-167323D02*
D03*
X-171260D02*
D03*
X-173228Y118110D02*
D03*
X-165354D02*
D03*
X-177165D02*
D03*
X-169291D02*
D03*
X-161417D02*
D03*
X-211417Y69685D02*
D03*
X-208268Y65354D02*
D03*
X-203543Y74803D02*
D03*
X-203921Y81995D02*
D03*
X-35433Y79921D02*
D03*
X42795Y95000D02*
D03*
X157016Y75039D02*
D03*
X210000Y133768D02*
D03*
X177076Y124016D02*
D03*
X240158Y-32677D02*
D03*
Y-37716D02*
D03*
Y17323D02*
D03*
X272047Y-32677D02*
D03*
X271654Y22559D02*
D03*
X240158Y22441D02*
D03*
X271654Y17717D02*
D03*
X185039Y55118D02*
D03*
X181102Y122047D02*
D03*
X111221Y66929D02*
D03*
X177165Y129921D02*
D03*
X173228Y132874D02*
D03*
X269685Y94488D02*
D03*
X271654Y-44291D02*
D03*
X263779Y108268D02*
D03*
X265748Y-70866D02*
D03*
X264961Y-116929D02*
D03*
X-181000Y-19500D02*
D03*
X-34000Y-54215D02*
D03*
X-98032Y-79528D02*
D03*
X-35893Y-66361D02*
D03*
X-32187Y-66500D02*
D03*
X-43307Y-73228D02*
D03*
X-43000Y-69522D02*
D03*
X-97000Y-54000D02*
D03*
X-101575Y-54528D02*
D03*
X49000Y-113000D02*
D03*
X182087Y28543D02*
D03*
X184055Y-6890D02*
D03*
X207677Y65945D02*
D03*
X264764Y41339D02*
D03*
X262795Y46260D02*
D03*
X267717D02*
D03*
X261024Y-13386D02*
D03*
X133071Y138976D02*
D03*
X92000Y100000D02*
D03*
X97000Y101000D02*
D03*
X49213Y121063D02*
D03*
X70500Y42500D02*
D03*
X73000Y46000D02*
D03*
X82677Y82677D02*
D03*
X53150Y88583D02*
D03*
X47244Y95256D02*
D03*
X49213Y87598D02*
D03*
X160433Y-103347D02*
D03*
X134843Y-90551D02*
D03*
X93504Y64961D02*
D03*
X111221Y150591D02*
D03*
X31496Y100394D02*
D03*
X39764Y80709D02*
D03*
X53000Y75000D02*
D03*
X63976Y57087D02*
D03*
X107283Y63976D02*
D03*
X76500Y44500D02*
D03*
X-29528Y154528D02*
D03*
Y150591D02*
D03*
X984Y165354D02*
D03*
Y161417D02*
D03*
X107480Y75984D02*
D03*
X259842Y-126969D02*
D03*
X264764Y-93504D02*
D03*
X230315Y-104331D02*
D03*
X-38189Y33071D02*
D03*
X196457Y-79528D02*
D03*
X-67000Y-68000D02*
D03*
X-52756Y-66535D02*
D03*
X-69291Y-59055D02*
D03*
X-120866Y-1181D02*
D03*
X-190157Y-30315D02*
D03*
X25984Y164173D02*
D03*
X101181Y139370D02*
D03*
X165354Y134646D02*
D03*
X246063Y-81496D02*
D03*
X245669Y146850D02*
D03*
X272638Y134843D02*
D03*
X105118Y-148155D02*
D03*
D203*
X118504Y-124409D02*
D03*
X64961Y-5906D02*
D03*
X169291Y-14764D02*
D03*
X150591Y-19685D02*
D03*
X28732Y-66656D02*
D03*
Y-63344D02*
D03*
X31496Y-44884D02*
D03*
Y-48196D02*
D03*
X-29998Y-36974D02*
D03*
X-32340Y-39316D02*
D03*
X-35079Y-43937D02*
D03*
X-37421Y-46279D02*
D03*
X228898Y31905D02*
D03*
X125984Y-77756D02*
D03*
X182087Y-83661D02*
D03*
X173228Y-123031D02*
D03*
X46063Y85039D02*
D03*
X160433Y97441D02*
D03*
X164370D02*
D03*
X168827Y97638D02*
D03*
X100394Y-124409D02*
D03*
X100787Y-113386D02*
D03*
X90551D02*
D03*
X96850D02*
D03*
X107087D02*
D03*
X128347D02*
D03*
X122047D02*
D03*
X-187008Y80610D02*
D03*
X118110Y-113386D02*
D03*
X111811D02*
D03*
X-68110Y-33465D02*
D03*
X-68504Y-22047D02*
D03*
X-49606Y-28740D02*
D03*
X-51181Y-16535D02*
D03*
X-46457Y-38583D02*
D03*
X34449Y34350D02*
D03*
X37992Y-42126D02*
D03*
X120079Y-149311D02*
D03*
X99114Y-148130D02*
D03*
D204*
X64961Y35433D02*
D03*
X61024Y13780D02*
D03*
D205*
X-167323Y-984D02*
D03*
X-160433D02*
D03*
M02*
