G04 Layer_Color=32896*
%FSLAX25Y25*%
%MOIN*%
G70*
G01*
G75*
%ADD70C,0.01000*%
%ADD122C,0.00394*%
%ADD123C,0.00984*%
%ADD124C,0.02362*%
%ADD125C,0.00787*%
%ADD126C,0.00500*%
%ADD225C,0.00200*%
D70*
X-4134Y155512D02*
G03*
X-4134Y155512I-9252J0D01*
G01*
X173067Y110319D02*
Y151657D01*
Y110319D02*
X243933D01*
Y151657D01*
X182909Y161500D02*
X234090D01*
X71063Y-152165D02*
X79724D01*
Y-157677D02*
Y-152165D01*
X26575D02*
X30512D01*
X26575Y-157677D02*
Y-152165D01*
X79724Y-168307D02*
Y-167520D01*
X26575Y-168307D02*
X79724D01*
X26575D02*
Y-167520D01*
X44685Y-152165D02*
X56890D01*
X48228Y-168307D02*
Y-152165D01*
X32658Y121063D02*
Y158465D01*
Y121063D02*
X36201D01*
X46831D02*
X59823D01*
X70453D02*
X79902D01*
Y122638D01*
Y129724D02*
Y137205D01*
Y144291D02*
Y160039D01*
X71634Y165945D02*
X73602D01*
X274606Y49213D02*
X279528D01*
X274606D02*
Y52165D01*
X257874D02*
X274606D01*
X279528Y49213D02*
Y132874D01*
X274606D02*
X279528D01*
X274606Y52165D02*
Y128937D01*
Y132874D01*
X257874Y52165D02*
Y128937D01*
X274606D01*
Y-131890D02*
X279528D01*
X274606D02*
Y-128937D01*
X257874D02*
X274606D01*
X279528Y-131890D02*
Y-48228D01*
X274606D02*
X279528D01*
X274606Y-128937D02*
Y-52165D01*
Y-48228D01*
X257874Y-128937D02*
Y-52165D01*
X274606D01*
X92126Y-171260D02*
Y-167717D01*
Y-171260D02*
X136221D01*
Y-167717D01*
X92126Y-159055D02*
Y-150394D01*
Y-140945D02*
Y-140157D01*
X98425D01*
X129921D02*
X136221D01*
Y-140945D02*
Y-140157D01*
Y-159055D02*
Y-150394D01*
X42087Y108189D02*
Y118189D01*
X32087Y108189D02*
X92087D01*
Y118189D01*
X32087D02*
X92087D01*
X32087Y108189D02*
Y118189D01*
X27087Y110189D02*
Y116189D01*
X30087Y113189D01*
X27087Y110189D02*
X30087Y113189D01*
X-33480Y165218D02*
Y159220D01*
X-35480Y161219D01*
X-37479Y159220D01*
Y165218D01*
X-39478Y159220D02*
Y163218D01*
X-41478Y165218D01*
X-43477Y163218D01*
Y159220D01*
Y162219D01*
X-39478D01*
X-45476Y159220D02*
Y165218D01*
X-48476D01*
X-49475Y164218D01*
Y162219D01*
X-48476Y161219D01*
X-45476D01*
X-47476D02*
X-49475Y159220D01*
X-51474D02*
Y165218D01*
X-55473Y159220D01*
Y165218D01*
X-57473Y161219D02*
Y166218D01*
Y160219D02*
Y159220D01*
X-33480Y155620D02*
Y149622D01*
X-35480Y151621D01*
X-37479Y149622D01*
Y155620D01*
X-39478Y149622D02*
Y153621D01*
X-41478Y155620D01*
X-43477Y153621D01*
Y149622D01*
Y152621D01*
X-39478D01*
X-49475Y154620D02*
X-48476Y155620D01*
X-46476D01*
X-45476Y154620D01*
Y153621D01*
X-46476Y152621D01*
X-48476D01*
X-49475Y151621D01*
Y150622D01*
X-48476Y149622D01*
X-46476D01*
X-45476Y150622D01*
X-51474Y155620D02*
Y149622D01*
Y152621D01*
X-55473D01*
Y155620D01*
Y149622D01*
X-61471Y155620D02*
X-57473D01*
Y149622D01*
X-61471D01*
X-57473Y152621D02*
X-59472D01*
X-63471Y149622D02*
Y155620D01*
X-66470D01*
X-67469Y154620D01*
Y152621D01*
X-66470Y151621D01*
X-63471D01*
X-65470D02*
X-67469Y149622D01*
X-88169Y-109633D02*
Y-115631D01*
X-90169Y-113632D01*
X-92168Y-115631D01*
Y-109633D01*
X-98166D02*
X-94168D01*
Y-115631D01*
X-98166D01*
X-94168Y-112632D02*
X-96167D01*
X-106164Y-109633D02*
Y-115631D01*
X-109163D01*
X-110162Y-114632D01*
Y-110633D01*
X-109163Y-109633D01*
X-106164D01*
X-115161D02*
X-113161D01*
X-112162Y-110633D01*
Y-114632D01*
X-113161Y-115631D01*
X-115161D01*
X-116160Y-114632D01*
Y-110633D01*
X-115161Y-109633D01*
X-124158D02*
Y-115631D01*
X-126157Y-113632D01*
X-128156Y-115631D01*
Y-109633D01*
X-130156D02*
Y-115631D01*
Y-112632D01*
X-134155D01*
Y-109633D01*
Y-115631D01*
X-136154D02*
Y-111633D01*
X-138153Y-109633D01*
X-140153Y-111633D01*
Y-115631D01*
Y-112632D01*
X-136154D01*
X-142152Y-109633D02*
X-146151D01*
X-144151D01*
Y-115631D01*
X-52181Y-119231D02*
Y-125229D01*
X-54180Y-123230D01*
X-56180Y-125229D01*
Y-119231D01*
X-62178D02*
X-58179D01*
Y-125229D01*
X-62178D01*
X-58179Y-122230D02*
X-60179D01*
X-70175Y-125229D02*
Y-119231D01*
X-72175Y-121230D01*
X-74174Y-119231D01*
Y-125229D01*
X-76173Y-119231D02*
Y-124229D01*
X-77173Y-125229D01*
X-79172D01*
X-80172Y-124229D01*
Y-119231D01*
X-86170Y-120231D02*
X-85170Y-119231D01*
X-83171D01*
X-82171Y-120231D01*
Y-121230D01*
X-83171Y-122230D01*
X-85170D01*
X-86170Y-123230D01*
Y-124229D01*
X-85170Y-125229D01*
X-83171D01*
X-82171Y-124229D01*
X-88169Y-119231D02*
X-92168D01*
X-90169D01*
Y-125229D01*
X-95167Y-126229D02*
X-96167Y-125229D01*
Y-124229D01*
X-95167D01*
Y-125229D01*
X-96167D01*
X-95167Y-126229D01*
X-94168Y-127228D01*
X-106164Y-119231D02*
Y-125229D01*
X-109163D01*
X-110162Y-124229D01*
Y-123230D01*
X-109163Y-122230D01*
X-106164D01*
X-109163D01*
X-110162Y-121230D01*
Y-120231D01*
X-109163Y-119231D01*
X-106164D01*
X-116160D02*
X-112162D01*
Y-125229D01*
X-116160D01*
X-112162Y-122230D02*
X-114161D01*
X-122159Y-120231D02*
X-121159Y-119231D01*
X-119159D01*
X-118160Y-120231D01*
Y-124229D01*
X-119159Y-125229D01*
X-121159D01*
X-122159Y-124229D01*
X-124158Y-125229D02*
Y-121230D01*
X-126157Y-119231D01*
X-128156Y-121230D01*
Y-125229D01*
Y-122230D01*
X-124158D01*
X-130156Y-119231D02*
Y-124229D01*
X-131156Y-125229D01*
X-133155D01*
X-134155Y-124229D01*
Y-119231D01*
X-140153Y-120231D02*
X-139153Y-119231D01*
X-137154D01*
X-136154Y-120231D01*
Y-121230D01*
X-137154Y-122230D01*
X-139153D01*
X-140153Y-123230D01*
Y-124229D01*
X-139153Y-125229D01*
X-137154D01*
X-136154Y-124229D01*
X-146151Y-119231D02*
X-142152D01*
Y-125229D01*
X-146151D01*
X-142152Y-122230D02*
X-144151D01*
X-109163Y-128829D02*
Y-134827D01*
X-111162Y-132827D01*
X-113161Y-134827D01*
Y-128829D01*
X-119159D02*
X-115161D01*
Y-134827D01*
X-119159D01*
X-115161Y-131828D02*
X-117160D01*
X-131156Y-129828D02*
X-130156Y-128829D01*
X-128156D01*
X-127157Y-129828D01*
Y-133827D01*
X-128156Y-134827D01*
X-130156D01*
X-131156Y-133827D01*
X-133155Y-134827D02*
Y-130828D01*
X-135154Y-128829D01*
X-137154Y-130828D01*
Y-134827D01*
Y-131828D01*
X-133155D01*
X-139153Y-134827D02*
Y-128829D01*
X-143152Y-134827D01*
Y-128829D01*
X-145151Y-134827D02*
Y-133827D01*
X-146151D01*
Y-134827D01*
X-145151D01*
D122*
X22638Y160236D02*
G03*
X22638Y160236I-197J0D01*
G01*
X30709Y146850D02*
G03*
X30709Y146850I-197J0D01*
G01*
X128347Y-125000D02*
G03*
X128347Y-125000I-197J0D01*
G01*
X68898Y-141535D02*
G03*
X68898Y-141535I-197J0D01*
G01*
X-192913Y-30906D02*
G03*
X-192913Y-30906I-197J0D01*
G01*
X43504Y-146457D02*
G03*
X43504Y-146457I-197J0D01*
G01*
X-192913Y-12008D02*
G03*
X-192913Y-12008I-197J0D01*
G01*
X106693Y-133661D02*
G03*
X106693Y-133661I-197J0D01*
G01*
X112598Y-126181D02*
G03*
X112598Y-126181I-197J0D01*
G01*
D123*
X-65256Y76575D02*
G03*
X-65256Y76575I-492J0D01*
G01*
X-197421Y61374D02*
G03*
X-197421Y61374I-492J0D01*
G01*
X-140453Y146850D02*
G03*
X-140453Y146850I-492J0D01*
G01*
X-65256Y132677D02*
G03*
X-65256Y132677I-492J0D01*
G01*
X46878Y70110D02*
G03*
X46878Y70110I-492J0D01*
G01*
X79278Y53272D02*
G03*
X79278Y53272I-492J0D01*
G01*
X137008Y-90354D02*
G03*
X137008Y-90354I-492J0D01*
G01*
X143799Y-124016D02*
G03*
X143799Y-124016I-492J0D01*
G01*
X140484Y69126D02*
G03*
X140484Y69126I-492J0D01*
G01*
D124*
X55835Y74835D02*
G03*
X55835Y74835I-1181J0D01*
G01*
X88235Y57898D02*
G03*
X88235Y57898I-1181J0D01*
G01*
X142323Y-98622D02*
G03*
X142323Y-98622I-1181J0D01*
G01*
X132905Y63614D02*
G03*
X132905Y63614I-1181J0D01*
G01*
D125*
X-58268Y77756D02*
Y80905D01*
X-62205Y77756D02*
X-58268D01*
Y86417D02*
Y89567D01*
X-62205D02*
X-58268D01*
X16535Y148819D02*
X20866D01*
X16535Y160236D02*
X20866D01*
X24606Y135433D02*
X28937D01*
X24606Y146850D02*
X28937D01*
X-202244Y68756D02*
X-199094D01*
Y64819D02*
Y68756D01*
X-210906D02*
X-207756D01*
X-210906Y64819D02*
Y68756D01*
X-148425Y142520D02*
Y145669D01*
X-144488D01*
X-148425Y133858D02*
Y137008D01*
Y133858D02*
X-144488D01*
X-58268D02*
Y137008D01*
X-62205Y133858D02*
X-58268D01*
Y142520D02*
Y145669D01*
X-62205D02*
X-58268D01*
X50717Y70898D02*
Y83102D01*
X65284Y70898D02*
Y83102D01*
X50717Y70898D02*
X65284D01*
X50717Y83102D02*
X65284D01*
X83117Y53961D02*
Y74039D01*
X97684Y53961D02*
Y74039D01*
X83117Y53961D02*
X97684D01*
X83117Y74039D02*
X97684D01*
X137205Y-94685D02*
X157283D01*
X137205Y-109252D02*
X157283D01*
X137205D02*
Y-94685D01*
X157283Y-109252D02*
Y-94685D01*
X144488Y-131496D02*
Y-127559D01*
Y-131496D02*
X147638D01*
X156299D02*
Y-127559D01*
X153150Y-131496D02*
X156299D01*
X139567Y-130905D02*
Y-126575D01*
X128150Y-130905D02*
Y-126575D01*
X57284Y-139961D02*
Y-135630D01*
X68701Y-139961D02*
Y-135630D01*
X-199016Y-30906D02*
X-194685D01*
X-199016Y-42323D02*
X-194685D01*
X135661Y36449D02*
Y67551D01*
X121095Y36449D02*
Y67551D01*
X135661D01*
X121095Y36449D02*
X135661D01*
X31890Y-144882D02*
Y-140551D01*
X43307Y-144882D02*
Y-140551D01*
X-199016Y-23425D02*
X-194685D01*
X-199016Y-12008D02*
X-194685D01*
X95079Y-132087D02*
Y-127756D01*
X106496Y-132087D02*
Y-127756D01*
X123819Y-132087D02*
Y-127756D01*
X112402Y-132087D02*
Y-127756D01*
D126*
X159789Y53715D02*
X160289D01*
X161289Y52715D01*
X160289Y51716D01*
X159789D01*
X161289Y52715D02*
X162788D01*
X159789Y49216D02*
Y50216D01*
X160289Y50716D01*
X162288D01*
X162788Y50216D01*
Y49216D01*
X162288Y48717D01*
X160289D01*
X159789Y49216D01*
Y47717D02*
X162288D01*
X162788Y47217D01*
Y46217D01*
X162288Y45718D01*
X159789D01*
Y41719D02*
Y40719D01*
Y41219D01*
X162788D01*
Y41719D01*
Y40719D01*
Y39220D02*
X159789D01*
X162788Y37220D01*
X159789D01*
X160289Y34221D02*
X159789Y34721D01*
Y35721D01*
X160289Y36221D01*
X160789D01*
X161289Y35721D01*
Y34721D01*
X161789Y34221D01*
X162288D01*
X162788Y34721D01*
Y35721D01*
X162288Y36221D01*
X159789Y33222D02*
Y31222D01*
Y32222D01*
X162788D01*
Y30223D02*
X160789D01*
X159789Y29223D01*
X160789Y28223D01*
X162788D01*
X161289D01*
Y30223D01*
X159789Y27224D02*
X162788D01*
Y25224D01*
X159789Y24225D02*
X162788D01*
Y22225D01*
X159789Y19226D02*
Y21226D01*
X162788D01*
Y19226D01*
X161289Y21226D02*
Y20226D01*
X159789Y18226D02*
X162788D01*
Y16727D01*
X162288Y16227D01*
X160289D01*
X159789Y16727D01*
Y18226D01*
Y12228D02*
Y10229D01*
Y11229D01*
X162788D01*
X159789Y9229D02*
X162788D01*
X161289D01*
Y7230D01*
X159789D01*
X162788D01*
X159789Y6230D02*
Y5231D01*
Y5731D01*
X162788D01*
Y6230D01*
Y5231D01*
X160289Y1732D02*
X159789Y2232D01*
Y3231D01*
X160289Y3731D01*
X160789D01*
X161289Y3231D01*
Y2232D01*
X161789Y1732D01*
X162288D01*
X162788Y2232D01*
Y3231D01*
X162288Y3731D01*
X165088Y61213D02*
X167587D01*
X168087Y60713D01*
Y59713D01*
X167587Y59213D01*
X165088D01*
X168087Y58214D02*
X165088D01*
Y56714D01*
X165588Y56214D01*
X166587D01*
X167087Y56714D01*
Y58214D01*
X165588Y53215D02*
X165088Y53715D01*
Y54715D01*
X165588Y55215D01*
X166088D01*
X166587Y54715D01*
Y53715D01*
X167087Y53215D01*
X167587D01*
X168087Y53715D01*
Y54715D01*
X167587Y55215D01*
X165088Y52215D02*
Y51216D01*
Y51716D01*
X168087D01*
Y52215D01*
Y51216D01*
X165088Y49716D02*
X168087D01*
Y48217D01*
X167587Y47717D01*
X165588D01*
X165088Y48217D01*
Y49716D01*
Y44718D02*
Y46717D01*
X168087D01*
Y44718D01*
X166587Y46717D02*
Y45718D01*
X165088Y40719D02*
X168087D01*
Y39220D01*
X167587Y38720D01*
X165588D01*
X165088Y39220D01*
Y40719D01*
Y36221D02*
Y37220D01*
X165588Y37720D01*
X167587D01*
X168087Y37220D01*
Y36221D01*
X167587Y35721D01*
X165588D01*
X165088Y36221D01*
Y34721D02*
X168087D01*
X167087Y33722D01*
X168087Y32722D01*
X165088D01*
X168087Y31722D02*
X165088D01*
X168087Y29723D01*
X165088D01*
X168587Y28223D02*
X168087Y27723D01*
X167587D01*
Y28223D01*
X168087D01*
Y27723D01*
X168587Y28223D01*
X169087Y28723D01*
X165088Y22725D02*
X168087D01*
Y21226D01*
X167587Y20726D01*
X165588D01*
X165088Y21226D01*
Y22725D01*
Y19726D02*
X167587D01*
X168087Y19226D01*
Y18226D01*
X167587Y17727D01*
X165088D01*
X168087Y16727D02*
X165088D01*
X166088Y15727D01*
X165088Y14728D01*
X168087D01*
X165088Y13728D02*
X168087D01*
Y12228D01*
X167587Y11729D01*
X167087D01*
X166587Y12228D01*
Y13728D01*
Y12228D01*
X166088Y11729D01*
X165588D01*
X165088Y12228D01*
Y13728D01*
X168087Y10729D02*
X166088D01*
X165088Y9729D01*
X166088Y8730D01*
X168087D01*
X166587D01*
Y10729D01*
X165588Y5731D02*
X165088Y6230D01*
Y7230D01*
X165588Y7730D01*
X166088D01*
X166587Y7230D01*
Y6230D01*
X167087Y5731D01*
X167587D01*
X168087Y6230D01*
Y7230D01*
X167587Y7730D01*
X165588Y2732D02*
X165088Y3231D01*
Y4231D01*
X165588Y4731D01*
X166088D01*
X166587Y4231D01*
Y3231D01*
X167087Y2732D01*
X167587D01*
X168087Y3231D01*
Y4231D01*
X167587Y4731D01*
X167087Y1732D02*
X164588D01*
X167587D02*
X168087D01*
X197189Y135486D02*
X199188D01*
X198189D01*
Y138485D01*
X200188D02*
Y136485D01*
X201188Y135486D01*
X202187Y136485D01*
Y138485D01*
Y136985D01*
X200188D01*
X203187Y138485D02*
Y135486D01*
X204687D01*
X205186Y135985D01*
Y136985D01*
X204687Y137485D01*
X203187D01*
X208185Y135486D02*
X206186D01*
Y138485D01*
X208185D01*
X206186Y136985D02*
X207186D01*
X197189Y140284D02*
Y143283D01*
Y141784D01*
X199188D01*
Y140284D01*
Y143283D01*
X202187Y140284D02*
X200188D01*
Y143283D01*
X202187D01*
X200188Y141784D02*
X201188D01*
X203187Y143283D02*
Y140284D01*
X204687D01*
X205186Y140784D01*
Y141784D01*
X204687Y142284D01*
X203187D01*
X204187D02*
X205186Y143283D01*
X208185Y140284D02*
X206186D01*
Y143283D01*
X208185D01*
X206186Y141784D02*
X207186D01*
X-193191Y-24961D02*
Y-27960D01*
X-194691D01*
X-195191Y-27460D01*
Y-25461D01*
X-194691Y-24961D01*
X-193191D01*
X-196190Y-27960D02*
X-197190D01*
X-196690D01*
Y-24961D01*
X-196190Y-25461D01*
X-200689Y-24961D02*
X-199689Y-25461D01*
X-198690Y-26460D01*
Y-27460D01*
X-199189Y-27960D01*
X-200189D01*
X-200689Y-27460D01*
Y-26960D01*
X-200189Y-26460D01*
X-198690D01*
X43609Y-119761D02*
X44109Y-119261D01*
X45109D01*
X45609Y-119761D01*
Y-121760D01*
X45109Y-122260D01*
X44109D01*
X43609Y-121760D01*
X42610D02*
X42110Y-122260D01*
X41110D01*
X40610Y-121760D01*
Y-119761D01*
X41110Y-119261D01*
X42110D01*
X42610Y-119761D01*
Y-120261D01*
X42110Y-120760D01*
X40610D01*
X39611Y-119261D02*
X37611D01*
Y-119761D01*
X39611Y-121760D01*
Y-122260D01*
X33434Y-127422D02*
X33934Y-126922D01*
X34933D01*
X35433Y-127422D01*
Y-129421D01*
X34933Y-129921D01*
X33934D01*
X33434Y-129421D01*
X32434D02*
X31934Y-129921D01*
X30935D01*
X30435Y-129421D01*
Y-127422D01*
X30935Y-126922D01*
X31934D01*
X32434Y-127422D01*
Y-127922D01*
X31934Y-128422D01*
X30435D01*
X27436Y-126922D02*
X28435Y-127422D01*
X29435Y-128422D01*
Y-129421D01*
X28935Y-129921D01*
X27935D01*
X27436Y-129421D01*
Y-128922D01*
X27935Y-128422D01*
X29435D01*
X213309Y-139961D02*
X214309D01*
X213809D01*
Y-142460D01*
X214309Y-142960D01*
X214809D01*
X215309Y-142460D01*
X212310Y-142960D02*
X211310D01*
X211810D01*
Y-139961D01*
X212310Y-140461D01*
X207811Y-139961D02*
X208811Y-140461D01*
X209810Y-141460D01*
Y-142460D01*
X209311Y-142960D01*
X208311D01*
X207811Y-142460D01*
Y-141960D01*
X208311Y-141460D01*
X209810D01*
X21654Y132874D02*
Y135873D01*
X20154D01*
X19654Y135373D01*
Y134373D01*
X20154Y133874D01*
X21654D01*
X20654D02*
X19654Y132874D01*
X18654D02*
X17655D01*
X18155D01*
Y135873D01*
X18654Y135373D01*
X14156Y132874D02*
X16155D01*
X14156Y134873D01*
Y135373D01*
X14656Y135873D01*
X15655D01*
X16155Y135373D01*
X13156Y135873D02*
X11157D01*
Y135373D01*
X13156Y133374D01*
Y132874D01*
X21654Y128937D02*
Y131936D01*
X20154D01*
X19654Y131436D01*
Y130437D01*
X20154Y129937D01*
X21654D01*
X20654D02*
X19654Y128937D01*
X18654D02*
X17655D01*
X18155D01*
Y131936D01*
X18654Y131436D01*
X14156Y128937D02*
X16155D01*
X14156Y130936D01*
Y131436D01*
X14656Y131936D01*
X15655D01*
X16155Y131436D01*
X11157Y131936D02*
X12157Y131436D01*
X13156Y130437D01*
Y129437D01*
X12656Y128937D01*
X11657D01*
X11157Y129437D01*
Y129937D01*
X11657Y130437D01*
X13156D01*
X11811Y145669D02*
Y148668D01*
X10311D01*
X9812Y148169D01*
Y147169D01*
X10311Y146669D01*
X11811D01*
X10811D02*
X9812Y145669D01*
X8812D02*
X7812D01*
X8312D01*
Y148668D01*
X8812Y148169D01*
X4313Y145669D02*
X6313D01*
X4313Y147669D01*
Y148169D01*
X4813Y148668D01*
X5813D01*
X6313Y148169D01*
X1314Y148668D02*
X3314D01*
Y147169D01*
X2314Y147669D01*
X1814D01*
X1314Y147169D01*
Y146169D01*
X1814Y145669D01*
X2814D01*
X3314Y146169D01*
X11811Y141732D02*
Y144731D01*
X10311D01*
X9812Y144231D01*
Y143232D01*
X10311Y142732D01*
X11811D01*
X10811D02*
X9812Y141732D01*
X6813D02*
X8812D01*
X6813Y143732D01*
Y144231D01*
X7312Y144731D01*
X8312D01*
X8812Y144231D01*
X3814Y144731D02*
X4813Y144231D01*
X5813Y143232D01*
Y142232D01*
X5313Y141732D01*
X4313D01*
X3814Y142232D01*
Y142732D01*
X4313Y143232D01*
X5813D01*
X143670Y-136765D02*
X144670D01*
X144170D01*
Y-139264D01*
X144670Y-139764D01*
X145169D01*
X145669Y-139264D01*
X142670Y-139764D02*
X141671D01*
X142170D01*
Y-136765D01*
X142670Y-137265D01*
X140171Y-139764D02*
X139171D01*
X139671D01*
Y-136765D01*
X140171Y-137265D01*
X84615Y149653D02*
X85615D01*
X85115D01*
Y147153D01*
X85615Y146653D01*
X86114D01*
X86614Y147153D01*
X83615D02*
X83115Y146653D01*
X82116D01*
X81616Y147153D01*
Y149153D01*
X82116Y149653D01*
X83115D01*
X83615Y149153D01*
Y148653D01*
X83115Y148153D01*
X81616D01*
X166339Y-95426D02*
Y-97925D01*
X165839Y-98425D01*
X164839D01*
X164339Y-97925D01*
Y-95426D01*
X163340Y-97925D02*
X162840Y-98425D01*
X161840D01*
X161340Y-97925D01*
Y-95926D01*
X161840Y-95426D01*
X162840D01*
X163340Y-95926D01*
Y-96426D01*
X162840Y-96926D01*
X161340D01*
X66929Y89613D02*
Y87114D01*
X66429Y86614D01*
X65430D01*
X64930Y87114D01*
Y89613D01*
X61931D02*
X63930D01*
Y88114D01*
X62930Y88613D01*
X62431D01*
X61931Y88114D01*
Y87114D01*
X62431Y86614D01*
X63430D01*
X63930Y87114D01*
X93504Y78786D02*
Y76287D01*
X93004Y75787D01*
X92004D01*
X91505Y76287D01*
Y78786D01*
X89005Y75787D02*
Y78786D01*
X90505Y77287D01*
X88506D01*
X143309Y75639D02*
Y73140D01*
X142809Y72640D01*
X141809D01*
X141309Y73140D01*
Y75639D01*
X140310Y75139D02*
X139810Y75639D01*
X138810D01*
X138310Y75139D01*
Y74639D01*
X138810Y74140D01*
X139310D01*
X138810D01*
X138310Y73640D01*
Y73140D01*
X138810Y72640D01*
X139810D01*
X140310Y73140D01*
X223394Y106830D02*
X223894Y107330D01*
X224894D01*
X225394Y106830D01*
Y106330D01*
X224894Y105830D01*
X223894D01*
X223394Y105330D01*
Y104831D01*
X223894Y104331D01*
X224894D01*
X225394Y104831D01*
X222395Y104331D02*
Y107330D01*
X220895D01*
X220395Y106830D01*
Y105830D01*
X220895Y105330D01*
X222395D01*
X219396Y107330D02*
Y104331D01*
Y105330D01*
X217396Y107330D01*
X218896Y105830D01*
X217396Y104331D01*
X216397D02*
X215397D01*
X215897D01*
Y107330D01*
X216397Y106830D01*
X-198819Y83661D02*
Y86660D01*
X-200318D01*
X-200818Y86161D01*
Y85161D01*
X-200318Y84661D01*
X-198819D01*
X-199819D02*
X-200818Y83661D01*
X-201818Y86161D02*
X-202318Y86660D01*
X-203317D01*
X-203817Y86161D01*
Y85661D01*
X-203317Y85161D01*
X-203817Y84661D01*
Y84161D01*
X-203317Y83661D01*
X-202318D01*
X-201818Y84161D01*
Y84661D01*
X-202318Y85161D01*
X-201818Y85661D01*
Y86161D01*
X-202318Y85161D02*
X-203317D01*
X-204817Y86660D02*
X-206816D01*
Y86161D01*
X-204817Y84161D01*
Y83661D01*
X-198819Y77756D02*
Y80755D01*
X-200318D01*
X-200818Y80255D01*
Y79255D01*
X-200318Y78756D01*
X-198819D01*
X-199819D02*
X-200818Y77756D01*
X-201818Y80255D02*
X-202318Y80755D01*
X-203317D01*
X-203817Y80255D01*
Y79755D01*
X-203317Y79255D01*
X-203817Y78756D01*
Y78256D01*
X-203317Y77756D01*
X-202318D01*
X-201818Y78256D01*
Y78756D01*
X-202318Y79255D01*
X-201818Y79755D01*
Y80255D01*
X-202318Y79255D02*
X-203317D01*
X-206816Y80755D02*
X-205817Y80255D01*
X-204817Y79255D01*
Y78256D01*
X-205317Y77756D01*
X-206316D01*
X-206816Y78256D01*
Y78756D01*
X-206316Y79255D01*
X-204817D01*
X-198819Y89567D02*
Y92566D01*
X-200318D01*
X-200818Y92066D01*
Y91066D01*
X-200318Y90567D01*
X-198819D01*
X-199819D02*
X-200818Y89567D01*
X-201818Y92066D02*
X-202318Y92566D01*
X-203317D01*
X-203817Y92066D01*
Y91566D01*
X-203317Y91066D01*
X-203817Y90567D01*
Y90067D01*
X-203317Y89567D01*
X-202318D01*
X-201818Y90067D01*
Y90567D01*
X-202318Y91066D01*
X-201818Y91566D01*
Y92066D01*
X-202318Y91066D02*
X-203317D01*
X-206816Y92566D02*
X-204817D01*
Y91066D01*
X-205817Y91566D01*
X-206316D01*
X-206816Y91066D01*
Y90067D01*
X-206316Y89567D01*
X-205317D01*
X-204817Y90067D01*
X-215551Y62008D02*
Y65007D01*
X-217051D01*
X-217550Y64507D01*
Y63507D01*
X-217051Y63008D01*
X-215551D01*
X-216551D02*
X-217550Y62008D01*
X-218550Y64507D02*
X-219050Y65007D01*
X-220050D01*
X-220550Y64507D01*
Y64007D01*
X-220050Y63507D01*
X-220550Y63008D01*
Y62508D01*
X-220050Y62008D01*
X-219050D01*
X-218550Y62508D01*
Y63008D01*
X-219050Y63507D01*
X-218550Y64007D01*
Y64507D01*
X-219050Y63507D02*
X-220050D01*
X-223049Y62008D02*
Y65007D01*
X-221549Y63507D01*
X-223549D01*
X-214567Y48228D02*
Y51227D01*
X-216066D01*
X-216566Y50727D01*
Y49728D01*
X-216066Y49228D01*
X-214567D01*
X-215567D02*
X-216566Y48228D01*
X-217566Y50727D02*
X-218066Y51227D01*
X-219065D01*
X-219565Y50727D01*
Y50228D01*
X-219065Y49728D01*
X-219565Y49228D01*
Y48728D01*
X-219065Y48228D01*
X-218066D01*
X-217566Y48728D01*
Y49228D01*
X-218066Y49728D01*
X-217566Y50228D01*
Y50727D01*
X-218066Y49728D02*
X-219065D01*
X-220565Y50727D02*
X-221065Y51227D01*
X-222064D01*
X-222564Y50727D01*
Y50228D01*
X-222064Y49728D01*
X-221565D01*
X-222064D01*
X-222564Y49228D01*
Y48728D01*
X-222064Y48228D01*
X-221065D01*
X-220565Y48728D01*
X-45276Y133858D02*
Y136857D01*
X-46775D01*
X-47275Y136357D01*
Y135358D01*
X-46775Y134858D01*
X-45276D01*
X-46275D02*
X-47275Y133858D01*
X-50274Y136857D02*
X-49274Y136357D01*
X-48275Y135358D01*
Y134358D01*
X-48774Y133858D01*
X-49774D01*
X-50274Y134358D01*
Y134858D01*
X-49774Y135358D01*
X-48275D01*
X-53273Y136857D02*
X-51274D01*
Y135358D01*
X-52273Y135858D01*
X-52773D01*
X-53273Y135358D01*
Y134358D01*
X-52773Y133858D01*
X-51774D01*
X-51274Y134358D01*
X-39370Y82677D02*
Y85676D01*
X-40870D01*
X-41369Y85176D01*
Y84177D01*
X-40870Y83677D01*
X-39370D01*
X-40370D02*
X-41369Y82677D01*
X-44368Y85676D02*
X-42369D01*
Y84177D01*
X-43369Y84676D01*
X-43869D01*
X-44368Y84177D01*
Y83177D01*
X-43869Y82677D01*
X-42869D01*
X-42369Y83177D01*
X-45368D02*
X-45868Y82677D01*
X-46868D01*
X-47368Y83177D01*
Y85176D01*
X-46868Y85676D01*
X-45868D01*
X-45368Y85176D01*
Y84676D01*
X-45868Y84177D01*
X-47368D01*
X-153543Y147638D02*
Y150637D01*
X-155043D01*
X-155543Y150137D01*
Y149137D01*
X-155043Y148637D01*
X-153543D01*
X-154543D02*
X-155543Y147638D01*
X-158542Y150637D02*
X-156542D01*
Y149137D01*
X-157542Y149637D01*
X-158042D01*
X-158542Y149137D01*
Y148138D01*
X-158042Y147638D01*
X-157042D01*
X-156542Y148138D01*
X-161541Y150637D02*
X-159541D01*
Y149137D01*
X-160541Y149637D01*
X-161041D01*
X-161541Y149137D01*
Y148138D01*
X-161041Y147638D01*
X-160041D01*
X-159541Y148138D01*
X126969Y-84646D02*
X129967D01*
Y-83146D01*
X129468Y-82646D01*
X128468D01*
X127968Y-83146D01*
Y-84646D01*
Y-83646D02*
X126969Y-82646D01*
X129967Y-79647D02*
Y-81647D01*
X128468D01*
X128968Y-80647D01*
Y-80147D01*
X128468Y-79647D01*
X127468D01*
X126969Y-80147D01*
Y-81147D01*
X127468Y-81647D01*
X129468Y-78648D02*
X129967Y-78148D01*
Y-77148D01*
X129468Y-76648D01*
X128968D01*
X128468Y-77148D01*
Y-77648D01*
Y-77148D01*
X127968Y-76648D01*
X127468D01*
X126969Y-77148D01*
Y-78148D01*
X127468Y-78648D01*
X122047Y-84646D02*
X125046D01*
Y-83146D01*
X124546Y-82646D01*
X123547D01*
X123047Y-83146D01*
Y-84646D01*
Y-83646D02*
X122047Y-82646D01*
X125046Y-79647D02*
Y-81647D01*
X123547D01*
X124047Y-80647D01*
Y-80147D01*
X123547Y-79647D01*
X122547D01*
X122047Y-80147D01*
Y-81147D01*
X122547Y-81647D01*
X122047Y-76648D02*
Y-78648D01*
X124047Y-76648D01*
X124546D01*
X125046Y-77148D01*
Y-78148D01*
X124546Y-78648D01*
X116142Y-84646D02*
X119141D01*
Y-83146D01*
X118641Y-82646D01*
X117641D01*
X117141Y-83146D01*
Y-84646D01*
Y-83646D02*
X116142Y-82646D01*
X119141Y-79647D02*
Y-81647D01*
X117641D01*
X118141Y-80647D01*
Y-80147D01*
X117641Y-79647D01*
X116642D01*
X116142Y-80147D01*
Y-81147D01*
X116642Y-81647D01*
X116142Y-78648D02*
Y-77648D01*
Y-78148D01*
X119141D01*
X118641Y-78648D01*
X111221Y-84646D02*
X114219D01*
Y-83146D01*
X113720Y-82646D01*
X112720D01*
X112220Y-83146D01*
Y-84646D01*
Y-83646D02*
X111221Y-82646D01*
X114219Y-79647D02*
Y-81647D01*
X112720D01*
X113220Y-80647D01*
Y-80147D01*
X112720Y-79647D01*
X111720D01*
X111221Y-80147D01*
Y-81147D01*
X111720Y-81647D01*
X113720Y-78648D02*
X114219Y-78148D01*
Y-77148D01*
X113720Y-76648D01*
X111720D01*
X111221Y-77148D01*
Y-78148D01*
X111720Y-78648D01*
X113720D01*
X104331Y-84646D02*
X107330D01*
Y-83146D01*
X106830Y-82646D01*
X105830D01*
X105330Y-83146D01*
Y-84646D01*
Y-83646D02*
X104331Y-82646D01*
Y-80147D02*
X107330D01*
X105830Y-81647D01*
Y-79647D01*
X104831Y-78648D02*
X104331Y-78148D01*
Y-77148D01*
X104831Y-76648D01*
X106830D01*
X107330Y-77148D01*
Y-78148D01*
X106830Y-78648D01*
X106330D01*
X105830Y-78148D01*
Y-76648D01*
X82677Y-97441D02*
X79678D01*
Y-98940D01*
X80178Y-99440D01*
X81178D01*
X81678Y-98940D01*
Y-97441D01*
Y-98441D02*
X82677Y-99440D01*
Y-101939D02*
X79678D01*
X81178Y-100440D01*
Y-102439D01*
X80178Y-103439D02*
X79678Y-103939D01*
Y-104938D01*
X80178Y-105438D01*
X80678D01*
X81178Y-104938D01*
X81678Y-105438D01*
X82177D01*
X82677Y-104938D01*
Y-103939D01*
X82177Y-103439D01*
X81678D01*
X81178Y-103939D01*
X80678Y-103439D01*
X80178D01*
X81178Y-103939D02*
Y-104938D01*
X78740Y-97441D02*
X75741D01*
Y-98940D01*
X76241Y-99440D01*
X77241D01*
X77741Y-98940D01*
Y-97441D01*
Y-98441D02*
X78740Y-99440D01*
Y-101939D02*
X75741D01*
X77241Y-100440D01*
Y-102439D01*
X75741Y-103439D02*
Y-105438D01*
X76241D01*
X78240Y-103439D01*
X78740D01*
X87598Y-97441D02*
X84599D01*
Y-98940D01*
X85099Y-99440D01*
X86099D01*
X86599Y-98940D01*
Y-97441D01*
Y-98441D02*
X87598Y-99440D01*
Y-101939D02*
X84599D01*
X86099Y-100440D01*
Y-102439D01*
X84599Y-105438D02*
X85099Y-104439D01*
X86099Y-103439D01*
X87099D01*
X87598Y-103939D01*
Y-104938D01*
X87099Y-105438D01*
X86599D01*
X86099Y-104938D01*
Y-103439D01*
X88583Y-115157D02*
X85584D01*
Y-116657D01*
X86084Y-117157D01*
X87083D01*
X87583Y-116657D01*
Y-115157D01*
Y-116157D02*
X88583Y-117157D01*
Y-119656D02*
X85584D01*
X87083Y-118157D01*
Y-120156D01*
X85584Y-123155D02*
Y-121156D01*
X87083D01*
X86583Y-122155D01*
Y-122655D01*
X87083Y-123155D01*
X88083D01*
X88583Y-122655D01*
Y-121655D01*
X88083Y-121156D01*
X84646Y-115157D02*
X81647D01*
Y-116657D01*
X82147Y-117157D01*
X83146D01*
X83646Y-116657D01*
Y-115157D01*
Y-116157D02*
X84646Y-117157D01*
Y-119656D02*
X81647D01*
X83146Y-118157D01*
Y-120156D01*
X84646Y-122655D02*
X81647D01*
X83146Y-121156D01*
Y-123155D01*
X76772Y-115157D02*
X73773D01*
Y-116657D01*
X74273Y-117157D01*
X75272D01*
X75772Y-116657D01*
Y-115157D01*
Y-116157D02*
X76772Y-117157D01*
Y-119656D02*
X73773D01*
X75272Y-118157D01*
Y-120156D01*
X74273Y-121156D02*
X73773Y-121655D01*
Y-122655D01*
X74273Y-123155D01*
X74772D01*
X75272Y-122655D01*
Y-122155D01*
Y-122655D01*
X75772Y-123155D01*
X76272D01*
X76772Y-122655D01*
Y-121655D01*
X76272Y-121156D01*
X72835Y-115157D02*
X69836D01*
Y-116657D01*
X70336Y-117157D01*
X71335D01*
X71835Y-116657D01*
Y-115157D01*
Y-116157D02*
X72835Y-117157D01*
Y-119656D02*
X69836D01*
X71335Y-118157D01*
Y-120156D01*
X72835Y-123155D02*
Y-121156D01*
X70835Y-123155D01*
X70336D01*
X69836Y-122655D01*
Y-121655D01*
X70336Y-121156D01*
X130905Y-113189D02*
X133905D01*
Y-111689D01*
X133405Y-111190D01*
X132405D01*
X131905Y-111689D01*
Y-113189D01*
Y-112189D02*
X130905Y-111190D01*
X133405Y-110190D02*
X133905Y-109690D01*
Y-108690D01*
X133405Y-108191D01*
X132905D01*
X132405Y-108690D01*
Y-109190D01*
Y-108690D01*
X131905Y-108191D01*
X131405D01*
X130905Y-108690D01*
Y-109690D01*
X131405Y-110190D01*
Y-107191D02*
X130905Y-106691D01*
Y-105691D01*
X131405Y-105192D01*
X133405D01*
X133905Y-105691D01*
Y-106691D01*
X133405Y-107191D01*
X132905D01*
X132405Y-106691D01*
Y-105192D01*
X74803Y-97441D02*
X71804D01*
Y-98940D01*
X72304Y-99440D01*
X73304D01*
X73804Y-98940D01*
Y-97441D01*
Y-98441D02*
X74803Y-99440D01*
X72304Y-100440D02*
X71804Y-100940D01*
Y-101939D01*
X72304Y-102439D01*
X72804D01*
X73304Y-101939D01*
Y-101440D01*
Y-101939D01*
X73804Y-102439D01*
X74303D01*
X74803Y-101939D01*
Y-100940D01*
X74303Y-100440D01*
X72304Y-103439D02*
X71804Y-103939D01*
Y-104938D01*
X72304Y-105438D01*
X72804D01*
X73304Y-104938D01*
X73804Y-105438D01*
X74303D01*
X74803Y-104938D01*
Y-103939D01*
X74303Y-103439D01*
X73804D01*
X73304Y-103939D01*
X72804Y-103439D01*
X72304D01*
X73304Y-103939D02*
Y-104938D01*
X152559Y-76772D02*
Y-73773D01*
X151059D01*
X150560Y-74273D01*
Y-75272D01*
X151059Y-75772D01*
X152559D01*
X151559D02*
X150560Y-76772D01*
X149560Y-74273D02*
X149060Y-73773D01*
X148061D01*
X147561Y-74273D01*
Y-74772D01*
X148061Y-75272D01*
X148560D01*
X148061D01*
X147561Y-75772D01*
Y-76272D01*
X148061Y-76772D01*
X149060D01*
X149560Y-76272D01*
X146561Y-74273D02*
X146061Y-73773D01*
X145062D01*
X144562Y-74273D01*
Y-74772D01*
X145062Y-75272D01*
X145561D01*
X145062D01*
X144562Y-75772D01*
Y-76272D01*
X145062Y-76772D01*
X146061D01*
X146561Y-76272D01*
X139764Y-76772D02*
Y-73773D01*
X138264D01*
X137764Y-74273D01*
Y-75272D01*
X138264Y-75772D01*
X139764D01*
X138764D02*
X137764Y-76772D01*
X136765Y-74273D02*
X136265Y-73773D01*
X135265D01*
X134765Y-74273D01*
Y-74772D01*
X135265Y-75272D01*
X135765D01*
X135265D01*
X134765Y-75772D01*
Y-76272D01*
X135265Y-76772D01*
X136265D01*
X136765Y-76272D01*
X131766Y-76772D02*
X133766D01*
X131766Y-74772D01*
Y-74273D01*
X132266Y-73773D01*
X133266D01*
X133766Y-74273D01*
X171260Y-129921D02*
Y-126922D01*
X169760D01*
X169261Y-127422D01*
Y-128422D01*
X169760Y-128922D01*
X171260D01*
X170260D02*
X169261Y-129921D01*
X168261Y-127422D02*
X167761Y-126922D01*
X166761D01*
X166261Y-127422D01*
Y-127922D01*
X166761Y-128422D01*
X167261D01*
X166761D01*
X166261Y-128922D01*
Y-129421D01*
X166761Y-129921D01*
X167761D01*
X168261Y-129421D01*
X165262Y-127422D02*
X164762Y-126922D01*
X163762D01*
X163262Y-127422D01*
Y-129421D01*
X163762Y-129921D01*
X164762D01*
X165262Y-129421D01*
Y-127422D01*
X161417Y-141732D02*
Y-138733D01*
X159918D01*
X159418Y-139233D01*
Y-140233D01*
X159918Y-140733D01*
X161417D01*
X160418D02*
X159418Y-141732D01*
X156419D02*
X158418D01*
X156419Y-139733D01*
Y-139233D01*
X156919Y-138733D01*
X157919D01*
X158418Y-139233D01*
X155419D02*
X154919Y-138733D01*
X153920D01*
X153420Y-139233D01*
Y-139733D01*
X153920Y-140233D01*
X153420Y-140733D01*
Y-141232D01*
X153920Y-141732D01*
X154919D01*
X155419Y-141232D01*
Y-140733D01*
X154919Y-140233D01*
X155419Y-139733D01*
Y-139233D01*
X154919Y-140233D02*
X153920D01*
X11811Y137795D02*
Y140794D01*
X10311D01*
X9812Y140295D01*
Y139295D01*
X10311Y138795D01*
X11811D01*
X10811D02*
X9812Y137795D01*
X6813D02*
X8812D01*
X6813Y139795D01*
Y140295D01*
X7312Y140794D01*
X8312D01*
X8812Y140295D01*
X3814Y140794D02*
X5813D01*
Y139295D01*
X4813Y139795D01*
X4313D01*
X3814Y139295D01*
Y138295D01*
X4313Y137795D01*
X5313D01*
X5813Y138295D01*
X100394Y87598D02*
X103393D01*
Y89098D01*
X102893Y89598D01*
X101893D01*
X101393Y89098D01*
Y87598D01*
Y88598D02*
X100394Y89598D01*
Y92597D02*
Y90597D01*
X102393Y92597D01*
X102893D01*
X103393Y92097D01*
Y91097D01*
X102893Y90597D01*
X100394Y93597D02*
Y94596D01*
Y94096D01*
X103393D01*
X102893Y93597D01*
X105315Y87598D02*
X108314D01*
Y89098D01*
X107814Y89598D01*
X106815D01*
X106315Y89098D01*
Y87598D01*
Y88598D02*
X105315Y89598D01*
Y92597D02*
Y90597D01*
X107314Y92597D01*
X107814D01*
X108314Y92097D01*
Y91097D01*
X107814Y90597D01*
Y93597D02*
X108314Y94096D01*
Y95096D01*
X107814Y95596D01*
X105815D01*
X105315Y95096D01*
Y94096D01*
X105815Y93597D01*
X107814D01*
X116142Y78740D02*
X119141D01*
Y80240D01*
X118641Y80739D01*
X117641D01*
X117141Y80240D01*
Y78740D01*
Y79740D02*
X116142Y80739D01*
Y81739D02*
Y82739D01*
Y82239D01*
X119141D01*
X118641Y81739D01*
X116142Y86238D02*
Y84238D01*
X118141Y86238D01*
X118641D01*
X119141Y85738D01*
Y84738D01*
X118641Y84238D01*
X120079Y78740D02*
X123078D01*
Y80240D01*
X122578Y80739D01*
X121578D01*
X121078Y80240D01*
Y78740D01*
Y79740D02*
X120079Y80739D01*
Y81739D02*
Y82739D01*
Y82239D01*
X123078D01*
X122578Y81739D01*
X120079Y84238D02*
Y85238D01*
Y84738D01*
X123078D01*
X122578Y84238D01*
X209055Y79035D02*
Y82034D01*
X207556D01*
X207056Y81535D01*
Y80535D01*
X207556Y80035D01*
X209055D01*
X208055D02*
X207056Y79035D01*
X206056D02*
X205056D01*
X205556D01*
Y82034D01*
X206056Y81535D01*
X203557D02*
X203057Y82034D01*
X202057D01*
X201557Y81535D01*
Y79535D01*
X202057Y79035D01*
X203057D01*
X203557Y79535D01*
Y81535D01*
X190453Y79134D02*
Y82133D01*
X188953D01*
X188453Y81633D01*
Y80633D01*
X188953Y80133D01*
X190453D01*
X189453D02*
X188453Y79134D01*
X187454Y79634D02*
X186954Y79134D01*
X185954D01*
X185454Y79634D01*
Y81633D01*
X185954Y82133D01*
X186954D01*
X187454Y81633D01*
Y81133D01*
X186954Y80633D01*
X185454D01*
X-54165Y144201D02*
Y146200D01*
X-53665Y146700D01*
X-52665D01*
X-52165Y146200D01*
Y144201D01*
X-52665Y143701D01*
X-53665D01*
X-53165Y144701D02*
X-54165Y143701D01*
X-53665D02*
X-54165Y144201D01*
X-55164Y146700D02*
X-57164D01*
Y146200D01*
X-55164Y144201D01*
Y143701D01*
X-56133Y73334D02*
Y75334D01*
X-55633Y75834D01*
X-54634D01*
X-54134Y75334D01*
Y73334D01*
X-54634Y72835D01*
X-55633D01*
X-55133Y73834D02*
X-56133Y72835D01*
X-55633D02*
X-56133Y73334D01*
X-59132Y75834D02*
X-58133Y75334D01*
X-57133Y74334D01*
Y73334D01*
X-57633Y72835D01*
X-58632D01*
X-59132Y73334D01*
Y73834D01*
X-58632Y74334D01*
X-57133D01*
X-146684Y149122D02*
Y151121D01*
X-146185Y151621D01*
X-145185D01*
X-144685Y151121D01*
Y149122D01*
X-145185Y148622D01*
X-146185D01*
X-145685Y149622D02*
X-146684Y148622D01*
X-146185D02*
X-146684Y149122D01*
X-149683Y151621D02*
X-147684D01*
Y150122D01*
X-148684Y150621D01*
X-149184D01*
X-149683Y150122D01*
Y149122D01*
X-149184Y148622D01*
X-148184D01*
X-147684Y149122D01*
X161387Y-120563D02*
Y-118564D01*
X161886Y-118064D01*
X162886D01*
X163386Y-118564D01*
Y-120563D01*
X162886Y-121063D01*
X161886D01*
X162386Y-120063D02*
X161387Y-121063D01*
X161886D02*
X161387Y-120563D01*
X158887Y-121063D02*
Y-118064D01*
X160387Y-119563D01*
X158387D01*
X76741Y-146607D02*
X77741D01*
X77241D01*
Y-149107D01*
X77741Y-149606D01*
X78240D01*
X78740Y-149107D01*
X75741Y-149606D02*
X74741D01*
X75241D01*
Y-146607D01*
X75741Y-147107D01*
X71243Y-146607D02*
X73242D01*
Y-148107D01*
X72242Y-147607D01*
X71742D01*
X71243Y-148107D01*
Y-149107D01*
X71742Y-149606D01*
X72742D01*
X73242Y-149107D01*
X255875Y50243D02*
X256874D01*
X256375D01*
Y47744D01*
X256874Y47244D01*
X257374D01*
X257874Y47744D01*
X252876Y50243D02*
X254875D01*
Y48744D01*
X253875Y49243D01*
X253376D01*
X252876Y48744D01*
Y47744D01*
X253376Y47244D01*
X254375D01*
X254875Y47744D01*
X262764Y-47198D02*
X263764D01*
X263264D01*
Y-49697D01*
X263764Y-50197D01*
X264264D01*
X264764Y-49697D01*
X260265Y-50197D02*
Y-47198D01*
X261765Y-48697D01*
X259765D01*
X90109Y124139D02*
X91109D01*
X90609D01*
Y121640D01*
X91109Y121140D01*
X91609D01*
X92109Y121640D01*
X87110Y121140D02*
X89110D01*
X87110Y123140D01*
Y123639D01*
X87610Y124139D01*
X88610D01*
X89110Y123639D01*
X23576Y157480D02*
X26575D01*
Y155981D01*
X26075Y155481D01*
X24076D01*
X23576Y155981D01*
Y157480D01*
X26575Y154481D02*
Y153482D01*
Y153981D01*
X23576D01*
X24076Y154481D01*
X23576Y149983D02*
Y151982D01*
X25075D01*
X24576Y150982D01*
Y150483D01*
X25075Y149983D01*
X26075D01*
X26575Y150483D01*
Y151482D01*
X26075Y151982D01*
X31496Y133905D02*
Y130905D01*
X29996D01*
X29497Y131405D01*
Y133405D01*
X29996Y133905D01*
X31496D01*
X28497Y130905D02*
X27497D01*
X27997D01*
Y133905D01*
X28497Y133405D01*
X24498Y130905D02*
Y133905D01*
X25998Y132405D01*
X23999D01*
X68898Y-129875D02*
Y-132874D01*
X67398D01*
X66898Y-132374D01*
Y-130375D01*
X67398Y-129875D01*
X68898D01*
X65899Y-132874D02*
X64899D01*
X65399D01*
Y-129875D01*
X65899Y-130375D01*
X63399D02*
X62900Y-129875D01*
X61900D01*
X61400Y-130375D01*
Y-130875D01*
X61900Y-131375D01*
X62400D01*
X61900D01*
X61400Y-131874D01*
Y-132374D01*
X61900Y-132874D01*
X62900D01*
X63399Y-132374D01*
X43309Y-133561D02*
Y-136560D01*
X41809D01*
X41309Y-136060D01*
Y-134061D01*
X41809Y-133561D01*
X43309D01*
X40310Y-136560D02*
X39310D01*
X39810D01*
Y-133561D01*
X40310Y-134061D01*
X35811Y-136560D02*
X37810D01*
X35811Y-134561D01*
Y-134061D01*
X36311Y-133561D01*
X37311D01*
X37810Y-134061D01*
X-188189Y-544D02*
Y-3543D01*
X-189689D01*
X-190188Y-3043D01*
Y-1044D01*
X-189689Y-544D01*
X-188189D01*
X-191188Y-3543D02*
X-192188D01*
X-191688D01*
Y-544D01*
X-191188Y-1044D01*
X-193687Y-3543D02*
X-194687D01*
X-194187D01*
Y-544D01*
X-193687Y-1044D01*
X-197835Y76818D02*
Y73819D01*
X-199334D01*
X-199834Y74319D01*
Y76318D01*
X-199334Y76818D01*
X-197835D01*
X-200834Y74319D02*
X-201333Y73819D01*
X-202333D01*
X-202833Y74319D01*
Y76318D01*
X-202333Y76818D01*
X-201333D01*
X-200834Y76318D01*
Y75818D01*
X-201333Y75318D01*
X-202833D01*
X102362Y-134796D02*
Y-137795D01*
X100863D01*
X100363Y-137295D01*
Y-135296D01*
X100863Y-134796D01*
X102362D01*
X99363Y-135296D02*
X98863Y-134796D01*
X97864D01*
X97364Y-135296D01*
Y-135796D01*
X97864Y-136296D01*
X98364D01*
X97864D01*
X97364Y-136796D01*
Y-137295D01*
X97864Y-137795D01*
X98863D01*
X99363Y-137295D01*
X118110Y-134796D02*
Y-137795D01*
X116611D01*
X116111Y-137295D01*
Y-135296D01*
X116611Y-134796D01*
X118110D01*
X113112Y-137795D02*
X115111D01*
X113112Y-135796D01*
Y-135296D01*
X113612Y-134796D01*
X114611D01*
X115111Y-135296D01*
X129921Y-133812D02*
Y-136811D01*
X128422D01*
X127922Y-136311D01*
Y-134312D01*
X128422Y-133812D01*
X129921D01*
X126922Y-136811D02*
X125923D01*
X126422D01*
Y-133812D01*
X126922Y-134312D01*
X133468Y140729D02*
X133967Y141229D01*
X134967D01*
X135467Y140729D01*
Y138730D01*
X134967Y138230D01*
X133967D01*
X133468Y138730D01*
X132468D02*
X131968Y138230D01*
X130968D01*
X130469Y138730D01*
Y140729D01*
X130968Y141229D01*
X131968D01*
X132468Y140729D01*
Y140229D01*
X131968Y139729D01*
X130469D01*
X129469Y138730D02*
X128969Y138230D01*
X127969D01*
X127470Y138730D01*
Y140729D01*
X127969Y141229D01*
X128969D01*
X129469Y140729D01*
Y140229D01*
X128969Y139729D01*
X127470D01*
X107309Y130039D02*
X107809Y130539D01*
X108809D01*
X109309Y130039D01*
Y128040D01*
X108809Y127540D01*
X107809D01*
X107309Y128040D01*
X106310D02*
X105810Y127540D01*
X104810D01*
X104310Y128040D01*
Y130039D01*
X104810Y130539D01*
X105810D01*
X106310Y130039D01*
Y129540D01*
X105810Y129040D01*
X104310D01*
X103311Y130039D02*
X102811Y130539D01*
X101811D01*
X101311Y130039D01*
Y129540D01*
X101811Y129040D01*
X101311Y128540D01*
Y128040D01*
X101811Y127540D01*
X102811D01*
X103311Y128040D01*
Y128540D01*
X102811Y129040D01*
X103311Y129540D01*
Y130039D01*
X102811Y129040D02*
X101811D01*
X-185365Y-19351D02*
X-184866Y-18851D01*
X-183866D01*
X-183366Y-19351D01*
Y-21351D01*
X-183866Y-21850D01*
X-184866D01*
X-185365Y-21351D01*
X-186365D02*
X-186865Y-21850D01*
X-187865D01*
X-188365Y-21351D01*
Y-19351D01*
X-187865Y-18851D01*
X-186865D01*
X-186365Y-19351D01*
Y-19851D01*
X-186865Y-20351D01*
X-188365D01*
X-189364Y-21850D02*
X-190364D01*
X-189864D01*
Y-18851D01*
X-189364Y-19351D01*
X-184480Y-6851D02*
X-183980Y-6351D01*
X-182980D01*
X-182480Y-6851D01*
Y-8850D01*
X-182980Y-9350D01*
X-183980D01*
X-184480Y-8850D01*
X-185479D02*
X-185979Y-9350D01*
X-186979D01*
X-187479Y-8850D01*
Y-6851D01*
X-186979Y-6351D01*
X-185979D01*
X-185479Y-6851D01*
Y-7351D01*
X-185979Y-7851D01*
X-187479D01*
X-188478Y-6851D02*
X-188978Y-6351D01*
X-189978D01*
X-190478Y-6851D01*
Y-8850D01*
X-189978Y-9350D01*
X-188978D01*
X-188478Y-8850D01*
Y-6851D01*
X92066Y-92489D02*
X92566Y-92989D01*
Y-93988D01*
X92066Y-94488D01*
X90067D01*
X89567Y-93988D01*
Y-92989D01*
X90067Y-92489D01*
X92066Y-91489D02*
X92566Y-90989D01*
Y-89990D01*
X92066Y-89490D01*
X91566D01*
X91066Y-89990D01*
Y-90490D01*
Y-89990D01*
X90567Y-89490D01*
X90067D01*
X89567Y-89990D01*
Y-90989D01*
X90067Y-91489D01*
X89567Y-88490D02*
Y-87490D01*
Y-87990D01*
X92566D01*
X92066Y-88490D01*
X96987Y-92489D02*
X97487Y-92989D01*
Y-93988D01*
X96987Y-94488D01*
X94988D01*
X94488Y-93988D01*
Y-92989D01*
X94988Y-92489D01*
X96987Y-91489D02*
X97487Y-90989D01*
Y-89990D01*
X96987Y-89490D01*
X96487D01*
X95988Y-89990D01*
Y-90490D01*
Y-89990D01*
X95488Y-89490D01*
X94988D01*
X94488Y-89990D01*
Y-90989D01*
X94988Y-91489D01*
X96987Y-88490D02*
X97487Y-87990D01*
Y-86991D01*
X96987Y-86491D01*
X94988D01*
X94488Y-86991D01*
Y-87990D01*
X94988Y-88490D01*
X96987D01*
X102893Y-92489D02*
X103393Y-92989D01*
Y-93988D01*
X102893Y-94488D01*
X100893D01*
X100394Y-93988D01*
Y-92989D01*
X100893Y-92489D01*
X100394Y-89490D02*
Y-91489D01*
X102393Y-89490D01*
X102893D01*
X103393Y-89990D01*
Y-90989D01*
X102893Y-91489D01*
X100893Y-88490D02*
X100394Y-87990D01*
Y-86991D01*
X100893Y-86491D01*
X102893D01*
X103393Y-86991D01*
Y-87990D01*
X102893Y-88490D01*
X102393D01*
X101893Y-87990D01*
Y-86491D01*
X106830Y-92489D02*
X107330Y-92989D01*
Y-93988D01*
X106830Y-94488D01*
X104831D01*
X104331Y-93988D01*
Y-92989D01*
X104831Y-92489D01*
X104331Y-89490D02*
Y-91489D01*
X106330Y-89490D01*
X106830D01*
X107330Y-89990D01*
Y-90989D01*
X106830Y-91489D01*
Y-88490D02*
X107330Y-87990D01*
Y-86991D01*
X106830Y-86491D01*
X106330D01*
X105830Y-86991D01*
X105330Y-86491D01*
X104831D01*
X104331Y-86991D01*
Y-87990D01*
X104831Y-88490D01*
X105330D01*
X105830Y-87990D01*
X106330Y-88490D01*
X106830D01*
X105830Y-87990D02*
Y-86991D01*
X113720Y-93473D02*
X114219Y-93973D01*
Y-94973D01*
X113720Y-95472D01*
X111720D01*
X111221Y-94973D01*
Y-93973D01*
X111720Y-93473D01*
X111221Y-90474D02*
Y-92473D01*
X113220Y-90474D01*
X113720D01*
X114219Y-90974D01*
Y-91974D01*
X113720Y-92473D01*
X114219Y-89474D02*
Y-87475D01*
X113720D01*
X111720Y-89474D01*
X111221D01*
X118641Y-93473D02*
X119141Y-93973D01*
Y-94973D01*
X118641Y-95472D01*
X116642D01*
X116142Y-94973D01*
Y-93973D01*
X116642Y-93473D01*
X116142Y-90474D02*
Y-92473D01*
X118141Y-90474D01*
X118641D01*
X119141Y-90974D01*
Y-91974D01*
X118641Y-92473D01*
X119141Y-87475D02*
X118641Y-88475D01*
X117641Y-89474D01*
X116642D01*
X116142Y-88974D01*
Y-87975D01*
X116642Y-87475D01*
X117141D01*
X117641Y-87975D01*
Y-89474D01*
X124546Y-92489D02*
X125046Y-92989D01*
Y-93988D01*
X124546Y-94488D01*
X122547D01*
X122047Y-93988D01*
Y-92989D01*
X122547Y-92489D01*
X122047Y-89490D02*
Y-91489D01*
X124047Y-89490D01*
X124546D01*
X125046Y-89990D01*
Y-90989D01*
X124546Y-91489D01*
X125046Y-86491D02*
Y-88490D01*
X123547D01*
X124047Y-87490D01*
Y-86991D01*
X123547Y-86491D01*
X122547D01*
X122047Y-86991D01*
Y-87990D01*
X122547Y-88490D01*
X128483Y-92489D02*
X128983Y-92989D01*
Y-93988D01*
X128483Y-94488D01*
X126484D01*
X125984Y-93988D01*
Y-92989D01*
X126484Y-92489D01*
X125984Y-89490D02*
Y-91489D01*
X127984Y-89490D01*
X128483D01*
X128983Y-89990D01*
Y-90989D01*
X128483Y-91489D01*
X125984Y-86991D02*
X128983D01*
X127484Y-88490D01*
Y-86491D01*
X113720Y80739D02*
X114219Y80240D01*
Y79240D01*
X113720Y78740D01*
X111720D01*
X111221Y79240D01*
Y80240D01*
X111720Y80739D01*
X111221Y81739D02*
Y82739D01*
Y82239D01*
X114219D01*
X113720Y81739D01*
Y84238D02*
X114219Y84738D01*
Y85738D01*
X113720Y86238D01*
X113220D01*
X112720Y85738D01*
X112220Y86238D01*
X111720D01*
X111221Y85738D01*
Y84738D01*
X111720Y84238D01*
X112220D01*
X112720Y84738D01*
X113220Y84238D01*
X113720D01*
X112720Y84738D02*
Y85738D01*
X67109Y74039D02*
X67609Y74539D01*
X68609D01*
X69109Y74039D01*
Y72040D01*
X68609Y71540D01*
X67609D01*
X67109Y72040D01*
X66110Y71540D02*
X65110D01*
X65610D01*
Y74539D01*
X66110Y74039D01*
X63610D02*
X63111Y74539D01*
X62111D01*
X61611Y74039D01*
Y73540D01*
X62111Y73040D01*
X62611D01*
X62111D01*
X61611Y72540D01*
Y72040D01*
X62111Y71540D01*
X63111D01*
X63610Y72040D01*
X124409Y7039D02*
X124909Y7539D01*
X125909D01*
X126409Y7039D01*
Y5040D01*
X125909Y4540D01*
X124909D01*
X124409Y5040D01*
X123410Y7039D02*
X122910Y7539D01*
X121910D01*
X121410Y7039D01*
Y6539D01*
X121910Y6040D01*
X121410Y5540D01*
Y5040D01*
X121910Y4540D01*
X122910D01*
X123410Y5040D01*
Y5540D01*
X122910Y6040D01*
X123410Y6539D01*
Y7039D01*
X122910Y6040D02*
X121910D01*
X99410Y36417D02*
Y39416D01*
X97910D01*
X97410Y38917D01*
Y37917D01*
X97910Y37417D01*
X99410D01*
X98410D02*
X97410Y36417D01*
X94411D02*
X96410D01*
X94411Y38417D01*
Y38917D01*
X94911Y39416D01*
X95911D01*
X96410Y38917D01*
X91412Y36417D02*
X93411D01*
X91412Y38417D01*
Y38917D01*
X91912Y39416D01*
X92911D01*
X93411Y38917D01*
X99410Y40354D02*
Y43353D01*
X97910D01*
X97410Y42854D01*
Y41854D01*
X97910Y41354D01*
X99410D01*
X98410D02*
X97410Y40354D01*
X96410D02*
X95411D01*
X95911D01*
Y43353D01*
X96410Y42854D01*
X91912Y40354D02*
X93911D01*
X91912Y42354D01*
Y42854D01*
X92412Y43353D01*
X93411D01*
X93911Y42854D01*
X90912D02*
X90412Y43353D01*
X89413D01*
X88913Y42854D01*
Y42354D01*
X89413Y41854D01*
X88913Y41354D01*
Y40854D01*
X89413Y40354D01*
X90412D01*
X90912Y40854D01*
Y41354D01*
X90412Y41854D01*
X90912Y42354D01*
Y42854D01*
X90412Y41854D02*
X89413D01*
X99410Y44291D02*
Y47290D01*
X97910D01*
X97410Y46791D01*
Y45791D01*
X97910Y45291D01*
X99410D01*
X98410D02*
X97410Y44291D01*
X96410D02*
X95411D01*
X95911D01*
Y47290D01*
X96410Y46791D01*
X91912Y44291D02*
X93911D01*
X91912Y46291D01*
Y46791D01*
X92412Y47290D01*
X93411D01*
X93911Y46791D01*
X90912Y44791D02*
X90412Y44291D01*
X89413D01*
X88913Y44791D01*
Y46791D01*
X89413Y47290D01*
X90412D01*
X90912Y46791D01*
Y46291D01*
X90412Y45791D01*
X88913D01*
X99410Y48228D02*
Y51227D01*
X97910D01*
X97410Y50727D01*
Y49728D01*
X97910Y49228D01*
X99410D01*
X98410D02*
X97410Y48228D01*
X96410D02*
X95411D01*
X95911D01*
Y51227D01*
X96410Y50727D01*
X93911D02*
X93411Y51227D01*
X92412D01*
X91912Y50727D01*
Y50228D01*
X92412Y49728D01*
X92911D01*
X92412D01*
X91912Y49228D01*
Y48728D01*
X92412Y48228D01*
X93411D01*
X93911Y48728D01*
X90912Y50727D02*
X90412Y51227D01*
X89413D01*
X88913Y50727D01*
Y48728D01*
X89413Y48228D01*
X90412D01*
X90912Y48728D01*
Y50727D01*
X130905Y-122047D02*
X133905D01*
Y-120548D01*
X133405Y-120048D01*
X132405D01*
X131905Y-120548D01*
Y-122047D01*
Y-121048D02*
X130905Y-120048D01*
Y-117549D02*
X133905D01*
X132405Y-119048D01*
Y-117049D01*
X130905Y-116049D02*
Y-115050D01*
Y-115549D01*
X133905D01*
X133405Y-116049D01*
X130905Y-103347D02*
X133905D01*
Y-101847D01*
X133405Y-101347D01*
X132405D01*
X131905Y-101847D01*
Y-103347D01*
Y-102347D02*
X130905Y-101347D01*
Y-98848D02*
X133905D01*
X132405Y-100347D01*
Y-98348D01*
X133405Y-97348D02*
X133905Y-96849D01*
Y-95849D01*
X133405Y-95349D01*
X131405D01*
X130905Y-95849D01*
Y-96849D01*
X131405Y-97348D01*
X133405D01*
X48012Y143473D02*
Y144973D01*
X48512Y145472D01*
X50011D01*
Y143473D01*
X53010Y142973D02*
X52510Y142473D01*
X51511D01*
X51011Y142973D01*
Y143473D01*
X51511Y143973D01*
X52510D01*
X53010Y144473D01*
Y144973D01*
X52510Y145472D01*
X51511D01*
X51011Y144973D01*
X54010Y142473D02*
Y145472D01*
X55509D01*
X56009Y144973D01*
Y142973D01*
X55509Y142473D01*
X54010D01*
X40323Y-162658D02*
X40823Y-162158D01*
X41823D01*
X42323Y-162658D01*
Y-163158D01*
X41823Y-163658D01*
X40823D01*
X40323Y-164158D01*
Y-164658D01*
X40823Y-165157D01*
X41823D01*
X42323Y-164658D01*
X37325Y-162658D02*
X37824Y-162158D01*
X38824D01*
X39324Y-162658D01*
Y-163158D01*
X38824Y-163658D01*
X37824D01*
X37325Y-164158D01*
Y-164658D01*
X37824Y-165157D01*
X38824D01*
X39324Y-164658D01*
D225*
X-190161Y86394D02*
X-189961D01*
X-190361Y86594D02*
X-189961D01*
X-190561Y86794D02*
X-189961D01*
X-190761Y86994D02*
X-189961D01*
X-190961Y87194D02*
X-189961D01*
X-191161Y87394D02*
X-189961D01*
X-191361Y87594D02*
X-189961D01*
X-191561Y87794D02*
X-189961D01*
X-191761Y87994D02*
X-189961D01*
X-191961Y88194D02*
X-189961D01*
X-192161Y88394D02*
X-189961D01*
X-192361Y88594D02*
X-189961D01*
X-192561Y88794D02*
X-189961D01*
X-192761Y88994D02*
X-189961D01*
X-192961Y89194D02*
X-189961D01*
X-193161Y89394D02*
X-189961D01*
X-193361Y89594D02*
X-189961D01*
X-193561Y89794D02*
X-189961D01*
X-193761Y89994D02*
X-189961D01*
X-193961Y90194D02*
X-189961D01*
X-194161Y90394D02*
X-189961D01*
X-185961D02*
X-185761D01*
X-82161D02*
X-79961D01*
X-42961D02*
X-40761D01*
X-194361Y90594D02*
X-189961D01*
X-185961D02*
X-185561D01*
X-82161D02*
X-79961D01*
X-42961D02*
X-40761D01*
X-194561Y90794D02*
X-189961D01*
X-185961D02*
X-185361D01*
X-161361D02*
X-158161D01*
X-82161D02*
X-79961D01*
X-42961D02*
X-40761D01*
X-194761Y90994D02*
X-189961D01*
X-185961D02*
X-185161D01*
X-162561D02*
X-157161D01*
X-82161D02*
X-79961D01*
X-42961D02*
X-40761D01*
X-194961Y91194D02*
X-189961D01*
X-185961D02*
X-184961D01*
X-163161D02*
X-156361D01*
X-149161D02*
X-142161D01*
X-131761D02*
X-128961D01*
X-112361D02*
X-105361D01*
X-82161D02*
X-79961D01*
X-42961D02*
X-40761D01*
X-195161Y91394D02*
X-189961D01*
X-185961D02*
X-184761D01*
X-163761D02*
X-155761D01*
X-149161D02*
X-141161D01*
X-131761D02*
X-128961D01*
X-112361D02*
X-104361D01*
X-82161D02*
X-79961D01*
X-42961D02*
X-40761D01*
X-195361Y91594D02*
X-189961D01*
X-185961D02*
X-184561D01*
X-164161D02*
X-155161D01*
X-149161D02*
X-140561D01*
X-131961D02*
X-128761D01*
X-112361D02*
X-103761D01*
X-82161D02*
X-79961D01*
X-52361D02*
X-50161D01*
X-42961D02*
X-40761D01*
X-195561Y91794D02*
X-189961D01*
X-185961D02*
X-184361D01*
X-164561D02*
X-154761D01*
X-149161D02*
X-140161D01*
X-131961D02*
X-128761D01*
X-112361D02*
X-103361D01*
X-82161D02*
X-79961D01*
X-52361D02*
X-50161D01*
X-42961D02*
X-40761D01*
X-195761Y91994D02*
X-189961D01*
X-185961D02*
X-184161D01*
X-164961D02*
X-154361D01*
X-149161D02*
X-139761D01*
X-131961D02*
X-128761D01*
X-112361D02*
X-102961D01*
X-82161D02*
X-79961D01*
X-52361D02*
X-50161D01*
X-42961D02*
X-40761D01*
X-195961Y92194D02*
X-189961D01*
X-185961D02*
X-183961D01*
X-165161D02*
X-153961D01*
X-149161D02*
X-139561D01*
X-132161D02*
X-128561D01*
X-112361D02*
X-102561D01*
X-82161D02*
X-79961D01*
X-52361D02*
X-50161D01*
X-42961D02*
X-40761D01*
X-196161Y92394D02*
X-189961D01*
X-185961D02*
X-183761D01*
X-165361D02*
X-153761D01*
X-149161D02*
X-139361D01*
X-132161D02*
X-128561D01*
X-112361D02*
X-102361D01*
X-82161D02*
X-79961D01*
X-52361D02*
X-50161D01*
X-42961D02*
X-40761D01*
X-196361Y92594D02*
X-189961D01*
X-185961D02*
X-183561D01*
X-165761D02*
X-153761D01*
X-149161D02*
X-139161D01*
X-132361D02*
X-128361D01*
X-112361D02*
X-102161D01*
X-82161D02*
X-79961D01*
X-52361D02*
X-50161D01*
X-42961D02*
X-40761D01*
X-196561Y92794D02*
X-189961D01*
X-185961D02*
X-183361D01*
X-165961D02*
X-161161D01*
X-158361D02*
X-153761D01*
X-149161D02*
X-138961D01*
X-132361D02*
X-128361D01*
X-112361D02*
X-101961D01*
X-82161D02*
X-79961D01*
X-52361D02*
X-50161D01*
X-42961D02*
X-40761D01*
X-196761Y92994D02*
X-189961D01*
X-185961D02*
X-183161D01*
X-166161D02*
X-161961D01*
X-157361D02*
X-153761D01*
X-149161D02*
X-138761D01*
X-132361D02*
X-128361D01*
X-112361D02*
X-101761D01*
X-82161D02*
X-79961D01*
X-52361D02*
X-50161D01*
X-42961D02*
X-40761D01*
X-196961Y93194D02*
X-189961D01*
X-185961D02*
X-182961D01*
X-166361D02*
X-162561D01*
X-156761D02*
X-153761D01*
X-149161D02*
X-146761D01*
X-142561D02*
X-138561D01*
X-132561D02*
X-128161D01*
X-112361D02*
X-109961D01*
X-105761D02*
X-101761D01*
X-82161D02*
X-79961D01*
X-52361D02*
X-50161D01*
X-197161Y93394D02*
X-189961D01*
X-185961D02*
X-182761D01*
X-166561D02*
X-163161D01*
X-156161D02*
X-153761D01*
X-149161D02*
X-146761D01*
X-141961D02*
X-138561D01*
X-132561D02*
X-128161D01*
X-112361D02*
X-109961D01*
X-105161D02*
X-101561D01*
X-82161D02*
X-79961D01*
X-52361D02*
X-50161D01*
X-197361Y93594D02*
X-189961D01*
X-185961D02*
X-182561D01*
X-166761D02*
X-163361D01*
X-155761D02*
X-153761D01*
X-149161D02*
X-146761D01*
X-141561D02*
X-138361D01*
X-132561D02*
X-127961D01*
X-112361D02*
X-109961D01*
X-104561D02*
X-101561D01*
X-82161D02*
X-79961D01*
X-52361D02*
X-50161D01*
X-197561Y93794D02*
X-189961D01*
X-185961D02*
X-182361D01*
X-166761D02*
X-163761D01*
X-155361D02*
X-153761D01*
X-149161D02*
X-146761D01*
X-141161D02*
X-138161D01*
X-132761D02*
X-130561D01*
X-130161D02*
X-127961D01*
X-112361D02*
X-109961D01*
X-104361D02*
X-101361D01*
X-82161D02*
X-79961D01*
X-52361D02*
X-50161D01*
X-197761Y93994D02*
X-189961D01*
X-185961D02*
X-182161D01*
X-166961D02*
X-163961D01*
X-154961D02*
X-153761D01*
X-149161D02*
X-146761D01*
X-140961D02*
X-138161D01*
X-132761D02*
X-130561D01*
X-130161D02*
X-127961D01*
X-112361D02*
X-109961D01*
X-104161D02*
X-101361D01*
X-82161D02*
X-79961D01*
X-52361D02*
X-50161D01*
X-197961Y94194D02*
X-189961D01*
X-185961D02*
X-181961D01*
X-167161D02*
X-164161D01*
X-154761D02*
X-153761D01*
X-149161D02*
X-146761D01*
X-140761D02*
X-138161D01*
X-132961D02*
X-130561D01*
X-130161D02*
X-127761D01*
X-112361D02*
X-109961D01*
X-103961D02*
X-101161D01*
X-82161D02*
X-79961D01*
X-52361D02*
X-50161D01*
X-198161Y94394D02*
X-189961D01*
X-185961D02*
X-181761D01*
X-167161D02*
X-164361D01*
X-154361D02*
X-153761D01*
X-149161D02*
X-146761D01*
X-140761D02*
X-137961D01*
X-132961D02*
X-130761D01*
X-129961D02*
X-127761D01*
X-112361D02*
X-109961D01*
X-103761D02*
X-101161D01*
X-82161D02*
X-79961D01*
X-52361D02*
X-50161D01*
X-198361Y94594D02*
X-189961D01*
X-185961D02*
X-181561D01*
X-167361D02*
X-164561D01*
X-154161D02*
X-153761D01*
X-149161D02*
X-146761D01*
X-140561D02*
X-137961D01*
X-132961D02*
X-130761D01*
X-129961D02*
X-127761D01*
X-112361D02*
X-109961D01*
X-103761D02*
X-101161D01*
X-82161D02*
X-79961D01*
X-52361D02*
X-50161D01*
X-198561Y94794D02*
X-189961D01*
X-185961D02*
X-181361D01*
X-167561D02*
X-164761D01*
X-153961D02*
X-153761D01*
X-149161D02*
X-146761D01*
X-140361D02*
X-137961D01*
X-133161D02*
X-130961D01*
X-129761D02*
X-127561D01*
X-112361D02*
X-109961D01*
X-103561D02*
X-101161D01*
X-82161D02*
X-79961D01*
X-52361D02*
X-50161D01*
X-198761Y94994D02*
X-189961D01*
X-185961D02*
X-181161D01*
X-167561D02*
X-164961D01*
X-149161D02*
X-146761D01*
X-140361D02*
X-137961D01*
X-133161D02*
X-130961D01*
X-129761D02*
X-127561D01*
X-112361D02*
X-109961D01*
X-103561D02*
X-100961D01*
X-92761D02*
X-90361D01*
X-82161D02*
X-79961D01*
X-76761D02*
X-74761D01*
X-62961D02*
X-60561D01*
X-52361D02*
X-50161D01*
X-31961D02*
X-29161D01*
X-20361D02*
X-17361D01*
X-198961Y95194D02*
X-189961D01*
X-185961D02*
X-180961D01*
X-167761D02*
X-165161D01*
X-149161D02*
X-146761D01*
X-140361D02*
X-137761D01*
X-133361D02*
X-130961D01*
X-129761D02*
X-127361D01*
X-112361D02*
X-109961D01*
X-103561D02*
X-100961D01*
X-93561D02*
X-89561D01*
X-82161D02*
X-79961D01*
X-77561D02*
X-73961D01*
X-63761D02*
X-59761D01*
X-52361D02*
X-50161D01*
X-32761D02*
X-28161D01*
X-21161D02*
X-16361D01*
X-199161Y95394D02*
X-189961D01*
X-185961D02*
X-180761D01*
X-167761D02*
X-165161D01*
X-149161D02*
X-146761D01*
X-140161D02*
X-137761D01*
X-133361D02*
X-131161D01*
X-129561D02*
X-127361D01*
X-112361D02*
X-109961D01*
X-103361D02*
X-100961D01*
X-94161D02*
X-88961D01*
X-82161D02*
X-79961D01*
X-77961D02*
X-73561D01*
X-64361D02*
X-59161D01*
X-53961D02*
X-45761D01*
X-42961D02*
X-40761D01*
X-33361D02*
X-27561D01*
X-21761D02*
X-15561D01*
X-199361Y95594D02*
X-189961D01*
X-185961D02*
X-180561D01*
X-167761D02*
X-165361D01*
X-149161D02*
X-146761D01*
X-140161D02*
X-137761D01*
X-133361D02*
X-131161D01*
X-129561D02*
X-127361D01*
X-112361D02*
X-109961D01*
X-103361D02*
X-100961D01*
X-94561D02*
X-88561D01*
X-82161D02*
X-79961D01*
X-78361D02*
X-73161D01*
X-64761D02*
X-58761D01*
X-53961D02*
X-45761D01*
X-42961D02*
X-40761D01*
X-33761D02*
X-26961D01*
X-22161D02*
X-14961D01*
X-199561Y95794D02*
X-189961D01*
X-185961D02*
X-180361D01*
X-167961D02*
X-165361D01*
X-149161D02*
X-146761D01*
X-140161D02*
X-137761D01*
X-133561D02*
X-131161D01*
X-129561D02*
X-127161D01*
X-112361D02*
X-109961D01*
X-103361D02*
X-100961D01*
X-94961D02*
X-88361D01*
X-82161D02*
X-79961D01*
X-78761D02*
X-72961D01*
X-65161D02*
X-58561D01*
X-53961D02*
X-45761D01*
X-42961D02*
X-40761D01*
X-34161D02*
X-26761D01*
X-22561D02*
X-14761D01*
X-199761Y95994D02*
X-189961D01*
X-185961D02*
X-180161D01*
X-167961D02*
X-165561D01*
X-149161D02*
X-146761D01*
X-140161D02*
X-137761D01*
X-133561D02*
X-131361D01*
X-129361D02*
X-127161D01*
X-112361D02*
X-109961D01*
X-103361D02*
X-100961D01*
X-95161D02*
X-87961D01*
X-82161D02*
X-79961D01*
X-78961D02*
X-72561D01*
X-65361D02*
X-58161D01*
X-53961D02*
X-45761D01*
X-42961D02*
X-40761D01*
X-34561D02*
X-26761D01*
X-22761D02*
X-14761D01*
X-199961Y96194D02*
X-189961D01*
X-185961D02*
X-179961D01*
X-167961D02*
X-165561D01*
X-149161D02*
X-146761D01*
X-140161D02*
X-137761D01*
X-133561D02*
X-131361D01*
X-129361D02*
X-127161D01*
X-112361D02*
X-109961D01*
X-103361D02*
X-100961D01*
X-95361D02*
X-87761D01*
X-82161D02*
X-79961D01*
X-79161D02*
X-72361D01*
X-65561D02*
X-57961D01*
X-53961D02*
X-45761D01*
X-42961D02*
X-40761D01*
X-34761D02*
X-26761D01*
X-22961D02*
X-14761D01*
X-200161Y96394D02*
X-189961D01*
X-185961D02*
X-179761D01*
X-168161D02*
X-165561D01*
X-149161D02*
X-146761D01*
X-140161D02*
X-137761D01*
X-133761D02*
X-131361D01*
X-129161D02*
X-126961D01*
X-112361D02*
X-109961D01*
X-103361D02*
X-100961D01*
X-95561D02*
X-87561D01*
X-82161D02*
X-79961D01*
X-79361D02*
X-72161D01*
X-65761D02*
X-57761D01*
X-53961D02*
X-45761D01*
X-42961D02*
X-40761D01*
X-34961D02*
X-26761D01*
X-23161D02*
X-14761D01*
X-200361Y96594D02*
X-189961D01*
X-185961D02*
X-179561D01*
X-168161D02*
X-165761D01*
X-149161D02*
X-146761D01*
X-140161D02*
X-137761D01*
X-133761D02*
X-131561D01*
X-129161D02*
X-126961D01*
X-112361D02*
X-109961D01*
X-103361D02*
X-100961D01*
X-95761D02*
X-87361D01*
X-82161D02*
X-79961D01*
X-79561D02*
X-71961D01*
X-65961D02*
X-57561D01*
X-53961D02*
X-45761D01*
X-42961D02*
X-40761D01*
X-35161D02*
X-26761D01*
X-23361D02*
X-14761D01*
X-200561Y96794D02*
X-189961D01*
X-185961D02*
X-179361D01*
X-168161D02*
X-165761D01*
X-149161D02*
X-146761D01*
X-140161D02*
X-137761D01*
X-133961D02*
X-131561D01*
X-129161D02*
X-126761D01*
X-112361D02*
X-109961D01*
X-103361D02*
X-100961D01*
X-95961D02*
X-92361D01*
X-90761D02*
X-87161D01*
X-82161D02*
X-79961D01*
X-79561D02*
X-77161D01*
X-75361D02*
X-71961D01*
X-66161D02*
X-62561D01*
X-60961D02*
X-57361D01*
X-53961D02*
X-45761D01*
X-42961D02*
X-40761D01*
X-35361D02*
X-31561D01*
X-29361D02*
X-26761D01*
X-23361D02*
X-19761D01*
X-17361D02*
X-14761D01*
X-200761Y96994D02*
X-189961D01*
X-185961D02*
X-179161D01*
X-168361D02*
X-165761D01*
X-149161D02*
X-146761D01*
X-140161D02*
X-137761D01*
X-133961D02*
X-131761D01*
X-128961D02*
X-126761D01*
X-112361D02*
X-109961D01*
X-103361D02*
X-100961D01*
X-96161D02*
X-92961D01*
X-90161D02*
X-86961D01*
X-82161D02*
X-79961D01*
X-79761D02*
X-77761D01*
X-74761D02*
X-71761D01*
X-66361D02*
X-63161D01*
X-60361D02*
X-57161D01*
X-52361D02*
X-50161D01*
X-42961D02*
X-40761D01*
X-35561D02*
X-32161D01*
X-28361D02*
X-26761D01*
X-23561D02*
X-20561D01*
X-16361D02*
X-14761D01*
X-200961Y97194D02*
X-189961D01*
X-185961D02*
X-178961D01*
X-168361D02*
X-165961D01*
X-149161D02*
X-146761D01*
X-140161D02*
X-137761D01*
X-133961D02*
X-131761D01*
X-128961D02*
X-126761D01*
X-112361D02*
X-109961D01*
X-103561D02*
X-100961D01*
X-96361D02*
X-93361D01*
X-89761D02*
X-86761D01*
X-82161D02*
X-77961D01*
X-74561D02*
X-71561D01*
X-66561D02*
X-63561D01*
X-59961D02*
X-56961D01*
X-52361D02*
X-50161D01*
X-42961D02*
X-40761D01*
X-35761D02*
X-32761D01*
X-27761D02*
X-26761D01*
X-23561D02*
X-20961D01*
X-15761D02*
X-14761D01*
X-201161Y97394D02*
X-189961D01*
X-185961D02*
X-178761D01*
X-168361D02*
X-165961D01*
X-149161D02*
X-146761D01*
X-140361D02*
X-137761D01*
X-134161D02*
X-131761D01*
X-128961D02*
X-126561D01*
X-112361D02*
X-109961D01*
X-103561D02*
X-101161D01*
X-96361D02*
X-93761D01*
X-89361D02*
X-86761D01*
X-82161D02*
X-78361D01*
X-74161D02*
X-71561D01*
X-66561D02*
X-63961D01*
X-59561D02*
X-56961D01*
X-52361D02*
X-50161D01*
X-42961D02*
X-40761D01*
X-35961D02*
X-32961D01*
X-27361D02*
X-26761D01*
X-23761D02*
X-21161D01*
X-15361D02*
X-14761D01*
X-201361Y97594D02*
X-189961D01*
X-185961D02*
X-178561D01*
X-168361D02*
X-165961D01*
X-149161D02*
X-146761D01*
X-140361D02*
X-137961D01*
X-134161D02*
X-131961D01*
X-128761D02*
X-126561D01*
X-112361D02*
X-109961D01*
X-103561D02*
X-101161D01*
X-96561D02*
X-93961D01*
X-89161D02*
X-86561D01*
X-82161D02*
X-78561D01*
X-73961D02*
X-71361D01*
X-66761D02*
X-64161D01*
X-59361D02*
X-56761D01*
X-52361D02*
X-50161D01*
X-42961D02*
X-40761D01*
X-35961D02*
X-33361D01*
X-26961D02*
X-26761D01*
X-23761D02*
X-21361D01*
X-14961D02*
X-14761D01*
X-201561Y97794D02*
X-189961D01*
X-185961D02*
X-178361D01*
X-168361D02*
X-165961D01*
X-149161D02*
X-146761D01*
X-140361D02*
X-137961D01*
X-134361D02*
X-131961D01*
X-128761D02*
X-126361D01*
X-112361D02*
X-109961D01*
X-103761D02*
X-101161D01*
X-96761D02*
X-94161D01*
X-88961D02*
X-86361D01*
X-82161D02*
X-78761D01*
X-73761D02*
X-71161D01*
X-66961D02*
X-64361D01*
X-59161D02*
X-56561D01*
X-52361D02*
X-50161D01*
X-42961D02*
X-40761D01*
X-36161D02*
X-33561D01*
X-23761D02*
X-21561D01*
X-201761Y97994D02*
X-189961D01*
X-185961D02*
X-178161D01*
X-168361D02*
X-165961D01*
X-149161D02*
X-146761D01*
X-140561D02*
X-137961D01*
X-134361D02*
X-131961D01*
X-128761D02*
X-126361D01*
X-112361D02*
X-109961D01*
X-103761D02*
X-101161D01*
X-96761D02*
X-94361D01*
X-88961D02*
X-86361D01*
X-82161D02*
X-78961D01*
X-73561D02*
X-71161D01*
X-66961D02*
X-64561D01*
X-59161D02*
X-56561D01*
X-52361D02*
X-50161D01*
X-42961D02*
X-40761D01*
X-36361D02*
X-33761D01*
X-23961D02*
X-21561D01*
X-201961Y98194D02*
X-189961D01*
X-185961D02*
X-177961D01*
X-168561D02*
X-166161D01*
X-149161D02*
X-146761D01*
X-140761D02*
X-137961D01*
X-134361D02*
X-132161D01*
X-128561D02*
X-126361D01*
X-112361D02*
X-109961D01*
X-103961D02*
X-101361D01*
X-96961D02*
X-94361D01*
X-88761D02*
X-86161D01*
X-82161D02*
X-78961D01*
X-73561D02*
X-70961D01*
X-67161D02*
X-64561D01*
X-58961D02*
X-56361D01*
X-52361D02*
X-50161D01*
X-42961D02*
X-40761D01*
X-36361D02*
X-33961D01*
X-23961D02*
X-21761D01*
X-202161Y98394D02*
X-189961D01*
X-185961D02*
X-177761D01*
X-168561D02*
X-166161D01*
X-149161D02*
X-146761D01*
X-140761D02*
X-138161D01*
X-134561D02*
X-132161D01*
X-128561D02*
X-126161D01*
X-112361D02*
X-109961D01*
X-104161D02*
X-101361D01*
X-96961D02*
X-94561D01*
X-88561D02*
X-86161D01*
X-82161D02*
X-79161D01*
X-73361D02*
X-70961D01*
X-67161D02*
X-64761D01*
X-58761D02*
X-56361D01*
X-52361D02*
X-50161D01*
X-42961D02*
X-40761D01*
X-36561D02*
X-33961D01*
X-23961D02*
X-21761D01*
X-202361Y98594D02*
X-189961D01*
X-185961D02*
X-177561D01*
X-168561D02*
X-166161D01*
X-149161D02*
X-146761D01*
X-140961D02*
X-138161D01*
X-134561D02*
X-132361D01*
X-128361D02*
X-126161D01*
X-112361D02*
X-109961D01*
X-104361D02*
X-101561D01*
X-96961D02*
X-94561D01*
X-88561D02*
X-86161D01*
X-82161D02*
X-79361D01*
X-73161D02*
X-70961D01*
X-67161D02*
X-64761D01*
X-58761D02*
X-56361D01*
X-52361D02*
X-50161D01*
X-42961D02*
X-40761D01*
X-36561D02*
X-34161D01*
X-23961D02*
X-21761D01*
X-202561Y98794D02*
X-189961D01*
X-185961D02*
X-177361D01*
X-168561D02*
X-166161D01*
X-149161D02*
X-146761D01*
X-141161D02*
X-138161D01*
X-134561D02*
X-132361D01*
X-128361D02*
X-126161D01*
X-112361D02*
X-109961D01*
X-104761D02*
X-101561D01*
X-97161D02*
X-94761D01*
X-88361D02*
X-85961D01*
X-82161D02*
X-79361D01*
X-73161D02*
X-70761D01*
X-67361D02*
X-64961D01*
X-58561D02*
X-56161D01*
X-52361D02*
X-50161D01*
X-42961D02*
X-40761D01*
X-36561D02*
X-34361D01*
X-23961D02*
X-21761D01*
X-202761Y98994D02*
X-189961D01*
X-185961D02*
X-177161D01*
X-168561D02*
X-166161D01*
X-149161D02*
X-146761D01*
X-141561D02*
X-138361D01*
X-134761D02*
X-132361D01*
X-128361D02*
X-125961D01*
X-112361D02*
X-109961D01*
X-105161D02*
X-101761D01*
X-97161D02*
X-94761D01*
X-88361D02*
X-85961D01*
X-82161D02*
X-79561D01*
X-72961D02*
X-70761D01*
X-67361D02*
X-64961D01*
X-58561D02*
X-56161D01*
X-52361D02*
X-50161D01*
X-42961D02*
X-40761D01*
X-36761D02*
X-34361D01*
X-23961D02*
X-21761D01*
X-202961Y99194D02*
X-189961D01*
X-185961D02*
X-176961D01*
X-168561D02*
X-166161D01*
X-149161D02*
X-146761D01*
X-141961D02*
X-138361D01*
X-134761D02*
X-132561D01*
X-128161D02*
X-125961D01*
X-112361D02*
X-109961D01*
X-105761D02*
X-101961D01*
X-97161D02*
X-94961D01*
X-88161D02*
X-85961D01*
X-82161D02*
X-79561D01*
X-72961D02*
X-70761D01*
X-67361D02*
X-65161D01*
X-58361D02*
X-56161D01*
X-52361D02*
X-50161D01*
X-42961D02*
X-40761D01*
X-36761D02*
X-34561D01*
X-23961D02*
X-21761D01*
X-203161Y99394D02*
X-189961D01*
X-185961D02*
X-176761D01*
X-168561D02*
X-166161D01*
X-159561D02*
X-153361D01*
X-149161D02*
X-146761D01*
X-142561D02*
X-138561D01*
X-134961D02*
X-132561D01*
X-128161D02*
X-125761D01*
X-112361D02*
X-102161D01*
X-97361D02*
X-94961D01*
X-88161D02*
X-85761D01*
X-82161D02*
X-79561D01*
X-72961D02*
X-70561D01*
X-67561D02*
X-65161D01*
X-58361D02*
X-55961D01*
X-52361D02*
X-50161D01*
X-42961D02*
X-40761D01*
X-36761D02*
X-34561D01*
X-23961D02*
X-21561D01*
X-203361Y99594D02*
X-189961D01*
X-185961D02*
X-176561D01*
X-168561D02*
X-166161D01*
X-159561D02*
X-153361D01*
X-149161D02*
X-138761D01*
X-134961D02*
X-132561D01*
X-128161D02*
X-125761D01*
X-112361D02*
X-102361D01*
X-97361D02*
X-95161D01*
X-88161D02*
X-85761D01*
X-82161D02*
X-79761D01*
X-72761D02*
X-70561D01*
X-67561D02*
X-65361D01*
X-58361D02*
X-55961D01*
X-52361D02*
X-50161D01*
X-42961D02*
X-40761D01*
X-36961D02*
X-34561D01*
X-23961D02*
X-21561D01*
X-203561Y99794D02*
X-189961D01*
X-185961D02*
X-176361D01*
X-168561D02*
X-166161D01*
X-159561D02*
X-153361D01*
X-149161D02*
X-138961D01*
X-134961D02*
X-132761D01*
X-127961D02*
X-125761D01*
X-112361D02*
X-102561D01*
X-97361D02*
X-95161D01*
X-87961D02*
X-85761D01*
X-82161D02*
X-79761D01*
X-72761D02*
X-70561D01*
X-67561D02*
X-65361D01*
X-58161D02*
X-55961D01*
X-52361D02*
X-50161D01*
X-42961D02*
X-40761D01*
X-36961D02*
X-34761D01*
X-23961D02*
X-21361D01*
X-203761Y99994D02*
X-189961D01*
X-185961D02*
X-176161D01*
X-168561D02*
X-166161D01*
X-159561D02*
X-153361D01*
X-149161D02*
X-139161D01*
X-135161D02*
X-132761D01*
X-127961D02*
X-125561D01*
X-112361D02*
X-102761D01*
X-97361D02*
X-95161D01*
X-87961D02*
X-85761D01*
X-82161D02*
X-79761D01*
X-72761D02*
X-70561D01*
X-67561D02*
X-65361D01*
X-58161D02*
X-55961D01*
X-52361D02*
X-50161D01*
X-42961D02*
X-40761D01*
X-36961D02*
X-34761D01*
X-23761D02*
X-21161D01*
X-203961Y100194D02*
X-189961D01*
X-185961D02*
X-175961D01*
X-168561D02*
X-166161D01*
X-159561D02*
X-153361D01*
X-149161D02*
X-139361D01*
X-135161D02*
X-132961D01*
X-127761D02*
X-125561D01*
X-112361D02*
X-103161D01*
X-97361D02*
X-95161D01*
X-87961D02*
X-85761D01*
X-82161D02*
X-79761D01*
X-72761D02*
X-70561D01*
X-67561D02*
X-65361D01*
X-58161D02*
X-55961D01*
X-52361D02*
X-50161D01*
X-42961D02*
X-40761D01*
X-36961D02*
X-34761D01*
X-23761D02*
X-20761D01*
X-204161Y100394D02*
X-189961D01*
X-185961D02*
X-175761D01*
X-168561D02*
X-166161D01*
X-159561D02*
X-153361D01*
X-149161D02*
X-139561D01*
X-135161D02*
X-132961D01*
X-127761D02*
X-125361D01*
X-112361D02*
X-103761D01*
X-97561D02*
X-95161D01*
X-87961D02*
X-85561D01*
X-82161D02*
X-79761D01*
X-72761D02*
X-70361D01*
X-67761D02*
X-65361D01*
X-58161D02*
X-55761D01*
X-52361D02*
X-50161D01*
X-42961D02*
X-40761D01*
X-36961D02*
X-34761D01*
X-23761D02*
X-20361D01*
X-204361Y100594D02*
X-189961D01*
X-185961D02*
X-175561D01*
X-168561D02*
X-166161D01*
X-159561D02*
X-153361D01*
X-149161D02*
X-139761D01*
X-135361D02*
X-132961D01*
X-127761D02*
X-125361D01*
X-112361D02*
X-103561D01*
X-97561D02*
X-95361D01*
X-87761D02*
X-85561D01*
X-82161D02*
X-79961D01*
X-72561D02*
X-70361D01*
X-67761D02*
X-65561D01*
X-57961D02*
X-55761D01*
X-52361D02*
X-50161D01*
X-42961D02*
X-40761D01*
X-37161D02*
X-34961D01*
X-23561D02*
X-19761D01*
X-204561Y100794D02*
X-189961D01*
X-185961D02*
X-175361D01*
X-168561D02*
X-166161D01*
X-159561D02*
X-153361D01*
X-149161D02*
X-140161D01*
X-135361D02*
X-133161D01*
X-127561D02*
X-125361D01*
X-112361D02*
X-103161D01*
X-97561D02*
X-95361D01*
X-87761D02*
X-85561D01*
X-82161D02*
X-79961D01*
X-72561D02*
X-70361D01*
X-67761D02*
X-65561D01*
X-57961D02*
X-55761D01*
X-52361D02*
X-50161D01*
X-42961D02*
X-40761D01*
X-37161D02*
X-34961D01*
X-23561D02*
X-18961D01*
X-204761Y100994D02*
X-189961D01*
X-185961D02*
X-175161D01*
X-168561D02*
X-166161D01*
X-159561D02*
X-153361D01*
X-149161D02*
X-140561D01*
X-135561D02*
X-133161D01*
X-127561D02*
X-125161D01*
X-112361D02*
X-102961D01*
X-97561D02*
X-95361D01*
X-87761D02*
X-85561D01*
X-82161D02*
X-79961D01*
X-72561D02*
X-70361D01*
X-67761D02*
X-65561D01*
X-57961D02*
X-55761D01*
X-52361D02*
X-50161D01*
X-42961D02*
X-40761D01*
X-37161D02*
X-34961D01*
X-23361D02*
X-17961D01*
X-204961Y101194D02*
X-189961D01*
X-185961D02*
X-174961D01*
X-168561D02*
X-166161D01*
X-159561D02*
X-153361D01*
X-149161D02*
X-141161D01*
X-135561D02*
X-133161D01*
X-127561D02*
X-125161D01*
X-112361D02*
X-102761D01*
X-97561D02*
X-95361D01*
X-87761D02*
X-85561D01*
X-82161D02*
X-79961D01*
X-72561D02*
X-70361D01*
X-67761D02*
X-65561D01*
X-57961D02*
X-55761D01*
X-52361D02*
X-50161D01*
X-42961D02*
X-40761D01*
X-37161D02*
X-34961D01*
X-23161D02*
X-17361D01*
X-205161Y101394D02*
X-189961D01*
X-185961D02*
X-174761D01*
X-168561D02*
X-166161D01*
X-155761D02*
X-153361D01*
X-149161D02*
X-142161D01*
X-135561D02*
X-133361D01*
X-127361D02*
X-125161D01*
X-112361D02*
X-109961D01*
X-106361D02*
X-102561D01*
X-97561D02*
X-95361D01*
X-87761D02*
X-85561D01*
X-82161D02*
X-79961D01*
X-72561D02*
X-70361D01*
X-67761D02*
X-65561D01*
X-57961D02*
X-55761D01*
X-52361D02*
X-50161D01*
X-42961D02*
X-40761D01*
X-37161D02*
X-34961D01*
X-22961D02*
X-16561D01*
X-205361Y101594D02*
X-189961D01*
X-185961D02*
X-174561D01*
X-168361D02*
X-165961D01*
X-155761D02*
X-153361D01*
X-149161D02*
X-146761D01*
X-135761D02*
X-133361D01*
X-127361D02*
X-124961D01*
X-112361D02*
X-109961D01*
X-105561D02*
X-102361D01*
X-97561D02*
X-95361D01*
X-87761D02*
X-85561D01*
X-82161D02*
X-79961D01*
X-72561D02*
X-70361D01*
X-67761D02*
X-65561D01*
X-57961D02*
X-55761D01*
X-52361D02*
X-50161D01*
X-42961D02*
X-40761D01*
X-37161D02*
X-34961D01*
X-22761D02*
X-16161D01*
X-205561Y101794D02*
X-189961D01*
X-185961D02*
X-174361D01*
X-168361D02*
X-165961D01*
X-155761D02*
X-153361D01*
X-149161D02*
X-146761D01*
X-135761D02*
X-133361D01*
X-127161D02*
X-124961D01*
X-112361D02*
X-109961D01*
X-105161D02*
X-102161D01*
X-97561D02*
X-95361D01*
X-87761D02*
X-85561D01*
X-82161D02*
X-79961D01*
X-72561D02*
X-70361D01*
X-67761D02*
X-65561D01*
X-57961D02*
X-55761D01*
X-52361D02*
X-50161D01*
X-42961D02*
X-40761D01*
X-37161D02*
X-34961D01*
X-22361D02*
X-15761D01*
X-205761Y101994D02*
X-189961D01*
X-185961D02*
X-174161D01*
X-168361D02*
X-165961D01*
X-155761D02*
X-153361D01*
X-149161D02*
X-146761D01*
X-135961D02*
X-133561D01*
X-127161D02*
X-124761D01*
X-112361D02*
X-109961D01*
X-104761D02*
X-102161D01*
X-97561D02*
X-95361D01*
X-87761D02*
X-85561D01*
X-82161D02*
X-79961D01*
X-72561D02*
X-70361D01*
X-67761D02*
X-65561D01*
X-57961D02*
X-55761D01*
X-52361D02*
X-50161D01*
X-42961D02*
X-40761D01*
X-37161D02*
X-34961D01*
X-21961D02*
X-15361D01*
X-205961Y102194D02*
X-189961D01*
X-185961D02*
X-173961D01*
X-168361D02*
X-165961D01*
X-155761D02*
X-153361D01*
X-149161D02*
X-146761D01*
X-135961D02*
X-124761D01*
X-112361D02*
X-109961D01*
X-104561D02*
X-101961D01*
X-97561D02*
X-95361D01*
X-87761D02*
X-85561D01*
X-82161D02*
X-79961D01*
X-72561D02*
X-70361D01*
X-67761D02*
X-65561D01*
X-57961D02*
X-55761D01*
X-52361D02*
X-50161D01*
X-42961D02*
X-40761D01*
X-37161D02*
X-34961D01*
X-21561D02*
X-15161D01*
X-206161Y102394D02*
X-189961D01*
X-185961D02*
X-173761D01*
X-168361D02*
X-165961D01*
X-155761D02*
X-153361D01*
X-149161D02*
X-146761D01*
X-135961D02*
X-124761D01*
X-112361D02*
X-109961D01*
X-104361D02*
X-101761D01*
X-97561D02*
X-95361D01*
X-87761D02*
X-85561D01*
X-82161D02*
X-79961D01*
X-72561D02*
X-70361D01*
X-67761D02*
X-65561D01*
X-57961D02*
X-55761D01*
X-52361D02*
X-50161D01*
X-42961D02*
X-40761D01*
X-37161D02*
X-34961D01*
X-20961D02*
X-14961D01*
X-206361Y102594D02*
X-189961D01*
X-185961D02*
X-173561D01*
X-168361D02*
X-165761D01*
X-155761D02*
X-153361D01*
X-149161D02*
X-146761D01*
X-136161D02*
X-124561D01*
X-112361D02*
X-109961D01*
X-104361D02*
X-101761D01*
X-97561D02*
X-95361D01*
X-87761D02*
X-85561D01*
X-82161D02*
X-79961D01*
X-72561D02*
X-70361D01*
X-67761D02*
X-65561D01*
X-57961D02*
X-55761D01*
X-52361D02*
X-50161D01*
X-42961D02*
X-40761D01*
X-37161D02*
X-34961D01*
X-20161D02*
X-14761D01*
X-206561Y102794D02*
X-189961D01*
X-185961D02*
X-173361D01*
X-168161D02*
X-165761D01*
X-155761D02*
X-153361D01*
X-149161D02*
X-146761D01*
X-136161D02*
X-124561D01*
X-112361D02*
X-109961D01*
X-104161D02*
X-101561D01*
X-97561D02*
X-95361D01*
X-87761D02*
X-85561D01*
X-82161D02*
X-79961D01*
X-72561D02*
X-70361D01*
X-67761D02*
X-65561D01*
X-57961D02*
X-55761D01*
X-52361D02*
X-50161D01*
X-42961D02*
X-40761D01*
X-37161D02*
X-34961D01*
X-19361D02*
X-14561D01*
X-206761Y102994D02*
X-189961D01*
X-185961D02*
X-173161D01*
X-168161D02*
X-165761D01*
X-155761D02*
X-153361D01*
X-149161D02*
X-146761D01*
X-136161D02*
X-124561D01*
X-112361D02*
X-109961D01*
X-103961D02*
X-101561D01*
X-97561D02*
X-95361D01*
X-87761D02*
X-85561D01*
X-82161D02*
X-79961D01*
X-72561D02*
X-70361D01*
X-67761D02*
X-65561D01*
X-57961D02*
X-55761D01*
X-52361D02*
X-50161D01*
X-42961D02*
X-40761D01*
X-37161D02*
X-34961D01*
X-18561D02*
X-14361D01*
X-206961Y103194D02*
X-189961D01*
X-185961D02*
X-172961D01*
X-168161D02*
X-165561D01*
X-155761D02*
X-153361D01*
X-149161D02*
X-146761D01*
X-136361D02*
X-124361D01*
X-112361D02*
X-109961D01*
X-103761D02*
X-101361D01*
X-97561D02*
X-95361D01*
X-87761D02*
X-85561D01*
X-82161D02*
X-79961D01*
X-72561D02*
X-70361D01*
X-67761D02*
X-65561D01*
X-57961D02*
X-55761D01*
X-52361D02*
X-50161D01*
X-42961D02*
X-40761D01*
X-37161D02*
X-34961D01*
X-17961D02*
X-14361D01*
X-207161Y103394D02*
X-189961D01*
X-185961D02*
X-172761D01*
X-167961D02*
X-165561D01*
X-155761D02*
X-153361D01*
X-149161D02*
X-146761D01*
X-136361D02*
X-124361D01*
X-112361D02*
X-109961D01*
X-103761D02*
X-101161D01*
X-97561D02*
X-95161D01*
X-87961D02*
X-85561D01*
X-82161D02*
X-79761D01*
X-72761D02*
X-70361D01*
X-67761D02*
X-65361D01*
X-58161D02*
X-55761D01*
X-52361D02*
X-50161D01*
X-42961D02*
X-40761D01*
X-36961D02*
X-34761D01*
X-17361D02*
X-14161D01*
X-207361Y103594D02*
X-189961D01*
X-185961D02*
X-172561D01*
X-167961D02*
X-165561D01*
X-155761D02*
X-153361D01*
X-149161D02*
X-146761D01*
X-136561D02*
X-124161D01*
X-112361D02*
X-109961D01*
X-103561D02*
X-101161D01*
X-97361D02*
X-95161D01*
X-87961D02*
X-85761D01*
X-82161D02*
X-79761D01*
X-72761D02*
X-70561D01*
X-67561D02*
X-65361D01*
X-58161D02*
X-55961D01*
X-52361D02*
X-50161D01*
X-42961D02*
X-40761D01*
X-36961D02*
X-34761D01*
X-16961D02*
X-14161D01*
X-207561Y103794D02*
X-189961D01*
X-185961D02*
X-172361D01*
X-167961D02*
X-165361D01*
X-155761D02*
X-153361D01*
X-149161D02*
X-146761D01*
X-136561D02*
X-124161D01*
X-112361D02*
X-109961D01*
X-103561D02*
X-100961D01*
X-97361D02*
X-95161D01*
X-87961D02*
X-85761D01*
X-82161D02*
X-79761D01*
X-72761D02*
X-70561D01*
X-67561D02*
X-65361D01*
X-58161D02*
X-55961D01*
X-52361D02*
X-50161D01*
X-42961D02*
X-40761D01*
X-36961D02*
X-34761D01*
X-16761D02*
X-14161D01*
X-207761Y103994D02*
X-189961D01*
X-185961D02*
X-172161D01*
X-167761D02*
X-165361D01*
X-155761D02*
X-153361D01*
X-149161D02*
X-146761D01*
X-136561D02*
X-124161D01*
X-112361D02*
X-109961D01*
X-103361D02*
X-100961D01*
X-97361D02*
X-95161D01*
X-87961D02*
X-85761D01*
X-82161D02*
X-79761D01*
X-72761D02*
X-70561D01*
X-67561D02*
X-65361D01*
X-58161D02*
X-55961D01*
X-52361D02*
X-50161D01*
X-42961D02*
X-40761D01*
X-36961D02*
X-34761D01*
X-16561D02*
X-13961D01*
X-207961Y104194D02*
X-190161D01*
X-185961D02*
X-171961D01*
X-167761D02*
X-165161D01*
X-155761D02*
X-153361D01*
X-149161D02*
X-146761D01*
X-136761D02*
X-134361D01*
X-126361D02*
X-123961D01*
X-112361D02*
X-109961D01*
X-103361D02*
X-100761D01*
X-97361D02*
X-95161D01*
X-88161D02*
X-85761D01*
X-82161D02*
X-79761D01*
X-72761D02*
X-70561D01*
X-67561D02*
X-65361D01*
X-58361D02*
X-55961D01*
X-52361D02*
X-50161D01*
X-42961D02*
X-40761D01*
X-36961D02*
X-34561D01*
X-16361D02*
X-13961D01*
X-208161Y104394D02*
X-190361D01*
X-185961D02*
X-171761D01*
X-167761D02*
X-165161D01*
X-155761D02*
X-153361D01*
X-149161D02*
X-146761D01*
X-136761D02*
X-134361D01*
X-126361D02*
X-123961D01*
X-112361D02*
X-109961D01*
X-103161D02*
X-100761D01*
X-97361D02*
X-94961D01*
X-88161D02*
X-85761D01*
X-82161D02*
X-79561D01*
X-72961D02*
X-70561D01*
X-67561D02*
X-65161D01*
X-58361D02*
X-55961D01*
X-52361D02*
X-50161D01*
X-42961D02*
X-40761D01*
X-36761D02*
X-34561D01*
X-16361D02*
X-13961D01*
X-208361Y104594D02*
X-190561D01*
X-185961D02*
X-171561D01*
X-167561D02*
X-164961D01*
X-155761D02*
X-153361D01*
X-149161D02*
X-146761D01*
X-136961D02*
X-134361D01*
X-126161D02*
X-123761D01*
X-112361D02*
X-109961D01*
X-103161D02*
X-100561D01*
X-97161D02*
X-94961D01*
X-88161D02*
X-85961D01*
X-82161D02*
X-79561D01*
X-72961D02*
X-70761D01*
X-67361D02*
X-65161D01*
X-58361D02*
X-56161D01*
X-52361D02*
X-50161D01*
X-42961D02*
X-40761D01*
X-36761D02*
X-34561D01*
X-16161D02*
X-13961D01*
X-208561Y104794D02*
X-190761D01*
X-185961D02*
X-171361D01*
X-167561D02*
X-164761D01*
X-155761D02*
X-153361D01*
X-149161D02*
X-146761D01*
X-136961D02*
X-134561D01*
X-126161D02*
X-123761D01*
X-112361D02*
X-109961D01*
X-102961D02*
X-100561D01*
X-97161D02*
X-94761D01*
X-88361D02*
X-85961D01*
X-82161D02*
X-79561D01*
X-72961D02*
X-70761D01*
X-67361D02*
X-64961D01*
X-58561D02*
X-56161D01*
X-52361D02*
X-50161D01*
X-42961D02*
X-40761D01*
X-36761D02*
X-34361D01*
X-16161D02*
X-13961D01*
X-208761Y104994D02*
X-190961D01*
X-185961D02*
X-171161D01*
X-167361D02*
X-164561D01*
X-155761D02*
X-153361D01*
X-149161D02*
X-146761D01*
X-136961D02*
X-134561D01*
X-126161D02*
X-123761D01*
X-112361D02*
X-109961D01*
X-102961D02*
X-100361D01*
X-97161D02*
X-94761D01*
X-88361D02*
X-85961D01*
X-82161D02*
X-79361D01*
X-73161D02*
X-70761D01*
X-67361D02*
X-64961D01*
X-58561D02*
X-56161D01*
X-52361D02*
X-50161D01*
X-42961D02*
X-40761D01*
X-36561D02*
X-34361D01*
X-16161D02*
X-13961D01*
X-208961Y105194D02*
X-191161D01*
X-185961D02*
X-170961D01*
X-167161D02*
X-164561D01*
X-155761D02*
X-153361D01*
X-149161D02*
X-146761D01*
X-137161D02*
X-134761D01*
X-125961D02*
X-123561D01*
X-112361D02*
X-109961D01*
X-102761D02*
X-100361D01*
X-96961D02*
X-94561D01*
X-88561D02*
X-86161D01*
X-82161D02*
X-79361D01*
X-73161D02*
X-70961D01*
X-67161D02*
X-64761D01*
X-58761D02*
X-56361D01*
X-52361D02*
X-50161D01*
X-42961D02*
X-40761D01*
X-36561D02*
X-34161D01*
X-16161D02*
X-13961D01*
X-209161Y105394D02*
X-191361D01*
X-185961D02*
X-170761D01*
X-167161D02*
X-164361D01*
X-155761D02*
X-153361D01*
X-149161D02*
X-146761D01*
X-137161D02*
X-134761D01*
X-125961D02*
X-123561D01*
X-112361D02*
X-109961D01*
X-102761D02*
X-100161D01*
X-96961D02*
X-94561D01*
X-88561D02*
X-86161D01*
X-82161D02*
X-79161D01*
X-73361D02*
X-70961D01*
X-67161D02*
X-64761D01*
X-58761D02*
X-56361D01*
X-52361D02*
X-50161D01*
X-42961D02*
X-40761D01*
X-36561D02*
X-33961D01*
X-16161D02*
X-13961D01*
X-209361Y105594D02*
X-191561D01*
X-185961D02*
X-170561D01*
X-166961D02*
X-163961D01*
X-155761D02*
X-153361D01*
X-149161D02*
X-146761D01*
X-137161D02*
X-134761D01*
X-125961D02*
X-123561D01*
X-112361D02*
X-109961D01*
X-102561D02*
X-100161D01*
X-96961D02*
X-94361D01*
X-88761D02*
X-86361D01*
X-82161D02*
X-78961D01*
X-73561D02*
X-70961D01*
X-67161D02*
X-64561D01*
X-58961D02*
X-56561D01*
X-52161D02*
X-49961D01*
X-42961D02*
X-40761D01*
X-36361D02*
X-33961D01*
X-16161D02*
X-13961D01*
X-209561Y105794D02*
X-191761D01*
X-185961D02*
X-170361D01*
X-166761D02*
X-163761D01*
X-155761D02*
X-153361D01*
X-149161D02*
X-146761D01*
X-137361D02*
X-134961D01*
X-125761D02*
X-123361D01*
X-112361D02*
X-109961D01*
X-102561D02*
X-99961D01*
X-96761D02*
X-94361D01*
X-88961D02*
X-86361D01*
X-82161D02*
X-78961D01*
X-73561D02*
X-71161D01*
X-66961D02*
X-64561D01*
X-59161D02*
X-56561D01*
X-52161D02*
X-49961D01*
X-42961D02*
X-40761D01*
X-36361D02*
X-33761D01*
X-16361D02*
X-13961D01*
X-209761Y105994D02*
X-191961D01*
X-185961D02*
X-170161D01*
X-166761D02*
X-163561D01*
X-155761D02*
X-153361D01*
X-149161D02*
X-146761D01*
X-137361D02*
X-134961D01*
X-125761D02*
X-123361D01*
X-112361D02*
X-109961D01*
X-102361D02*
X-99961D01*
X-96761D02*
X-94161D01*
X-88961D02*
X-86361D01*
X-82161D02*
X-78761D01*
X-73761D02*
X-71161D01*
X-66961D02*
X-64361D01*
X-59161D02*
X-56561D01*
X-52161D02*
X-49961D01*
X-42961D02*
X-40761D01*
X-36161D02*
X-33561D01*
X-23961D02*
X-23761D01*
X-16361D02*
X-14161D01*
X-209961Y106194D02*
X-192161D01*
X-185961D02*
X-169961D01*
X-166561D02*
X-163161D01*
X-156161D02*
X-153361D01*
X-149161D02*
X-146761D01*
X-137561D02*
X-134961D01*
X-125561D02*
X-123161D01*
X-112361D02*
X-109961D01*
X-102361D02*
X-99761D01*
X-96561D02*
X-93961D01*
X-89161D02*
X-86561D01*
X-82161D02*
X-78561D01*
X-73961D02*
X-71361D01*
X-66761D02*
X-64161D01*
X-59361D02*
X-56761D01*
X-52161D02*
X-49761D01*
X-42961D02*
X-40761D01*
X-35961D02*
X-33361D01*
X-26961D02*
X-26761D01*
X-23961D02*
X-23361D01*
X-16561D02*
X-14161D01*
X-210161Y106394D02*
X-192361D01*
X-185961D02*
X-169761D01*
X-166361D02*
X-162761D01*
X-156561D02*
X-153361D01*
X-149161D02*
X-146761D01*
X-137561D02*
X-135161D01*
X-125561D02*
X-123161D01*
X-112361D02*
X-109961D01*
X-102161D02*
X-99761D01*
X-96361D02*
X-93761D01*
X-89361D02*
X-86761D01*
X-82161D02*
X-78361D01*
X-74161D02*
X-71561D01*
X-66561D02*
X-63961D01*
X-59561D02*
X-56961D01*
X-52161D02*
X-49561D01*
X-42961D02*
X-40761D01*
X-35961D02*
X-32961D01*
X-27361D02*
X-26761D01*
X-23961D02*
X-22761D01*
X-16761D02*
X-14161D01*
X-210361Y106594D02*
X-192561D01*
X-185961D02*
X-169561D01*
X-166161D02*
X-162161D01*
X-157161D02*
X-153361D01*
X-149161D02*
X-146761D01*
X-137561D02*
X-135161D01*
X-125561D02*
X-123161D01*
X-112361D02*
X-109961D01*
X-102161D02*
X-99561D01*
X-96361D02*
X-93361D01*
X-89761D02*
X-86761D01*
X-82161D02*
X-78161D01*
X-74361D02*
X-71561D01*
X-66561D02*
X-63561D01*
X-59961D02*
X-56961D01*
X-51961D02*
X-48961D01*
X-42961D02*
X-40761D01*
X-35761D02*
X-32761D01*
X-27761D02*
X-26761D01*
X-23961D02*
X-22361D01*
X-16961D02*
X-14361D01*
X-210561Y106794D02*
X-192761D01*
X-185961D02*
X-169361D01*
X-165961D02*
X-161161D01*
X-158161D02*
X-153361D01*
X-149161D02*
X-146761D01*
X-137761D02*
X-135161D01*
X-125361D02*
X-122961D01*
X-112361D02*
X-109961D01*
X-101961D02*
X-99561D01*
X-96161D02*
X-92961D01*
X-90161D02*
X-86961D01*
X-82161D02*
X-79961D01*
X-79761D02*
X-77761D01*
X-74761D02*
X-71761D01*
X-66361D02*
X-63161D01*
X-60361D02*
X-57161D01*
X-51961D02*
X-45761D01*
X-42961D02*
X-40761D01*
X-35561D02*
X-32161D01*
X-28361D02*
X-26761D01*
X-23961D02*
X-21561D01*
X-17361D02*
X-14561D01*
X-210761Y106994D02*
X-192961D01*
X-185961D02*
X-169161D01*
X-165761D02*
X-153561D01*
X-149161D02*
X-146761D01*
X-137761D02*
X-135361D01*
X-125361D02*
X-122961D01*
X-112361D02*
X-109961D01*
X-101961D02*
X-99361D01*
X-95961D02*
X-92361D01*
X-90761D02*
X-87161D01*
X-82161D02*
X-79961D01*
X-79561D02*
X-77161D01*
X-75361D02*
X-71961D01*
X-66161D02*
X-62561D01*
X-60961D02*
X-57361D01*
X-51761D02*
X-45761D01*
X-42961D02*
X-40761D01*
X-35361D02*
X-31561D01*
X-29361D02*
X-26761D01*
X-23961D02*
X-20561D01*
X-18161D02*
X-14561D01*
X-210961Y107194D02*
X-193161D01*
X-185961D02*
X-168961D01*
X-165561D02*
X-153761D01*
X-149161D02*
X-146761D01*
X-137961D02*
X-135361D01*
X-125361D02*
X-122761D01*
X-112361D02*
X-109961D01*
X-101761D02*
X-99161D01*
X-95761D02*
X-87361D01*
X-82161D02*
X-79961D01*
X-79561D02*
X-71961D01*
X-65961D02*
X-57561D01*
X-51761D02*
X-45761D01*
X-42961D02*
X-40761D01*
X-35161D02*
X-26761D01*
X-23961D02*
X-14761D01*
X-211161Y107394D02*
X-193361D01*
X-185961D02*
X-168761D01*
X-165161D02*
X-154161D01*
X-149161D02*
X-146761D01*
X-137961D02*
X-135561D01*
X-125161D02*
X-122761D01*
X-112361D02*
X-109961D01*
X-101761D02*
X-99161D01*
X-95561D02*
X-87561D01*
X-82161D02*
X-79961D01*
X-79361D02*
X-72161D01*
X-65761D02*
X-57761D01*
X-51561D02*
X-45761D01*
X-42961D02*
X-40761D01*
X-34961D02*
X-26761D01*
X-23961D02*
X-14961D01*
X-211361Y107594D02*
X-193561D01*
X-185961D02*
X-168561D01*
X-164961D02*
X-154561D01*
X-149161D02*
X-146761D01*
X-137961D02*
X-135561D01*
X-125161D02*
X-122761D01*
X-112361D02*
X-109961D01*
X-101561D02*
X-98961D01*
X-95361D02*
X-87761D01*
X-82161D02*
X-79961D01*
X-79161D02*
X-72361D01*
X-65561D02*
X-57961D01*
X-51361D02*
X-45761D01*
X-42961D02*
X-40761D01*
X-34761D02*
X-26761D01*
X-23961D02*
X-15161D01*
X-211561Y107794D02*
X-193761D01*
X-185961D02*
X-168361D01*
X-164561D02*
X-154961D01*
X-149161D02*
X-146761D01*
X-138161D02*
X-135561D01*
X-125161D02*
X-122561D01*
X-112361D02*
X-109961D01*
X-101561D02*
X-98961D01*
X-95161D02*
X-87961D01*
X-82161D02*
X-79961D01*
X-78961D02*
X-72561D01*
X-65361D02*
X-58161D01*
X-51161D02*
X-45761D01*
X-42961D02*
X-40761D01*
X-34561D02*
X-26761D01*
X-23961D02*
X-15361D01*
X-211761Y107994D02*
X-193961D01*
X-185961D02*
X-168161D01*
X-164161D02*
X-155361D01*
X-149161D02*
X-146761D01*
X-138161D02*
X-135761D01*
X-124961D02*
X-122561D01*
X-112361D02*
X-109961D01*
X-101361D02*
X-98761D01*
X-94961D02*
X-88361D01*
X-82161D02*
X-79961D01*
X-78761D02*
X-72961D01*
X-65161D02*
X-58561D01*
X-50761D02*
X-45761D01*
X-42961D02*
X-40761D01*
X-34161D02*
X-26761D01*
X-23961D02*
X-15761D01*
X-185761Y108194D02*
X-167961D01*
X-163761D02*
X-155761D01*
X-149161D02*
X-146761D01*
X-138161D02*
X-135761D01*
X-124961D02*
X-122561D01*
X-112361D02*
X-109961D01*
X-101361D02*
X-98761D01*
X-94561D02*
X-88561D01*
X-82161D02*
X-79961D01*
X-78361D02*
X-73161D01*
X-64761D02*
X-58761D01*
X-50361D02*
X-45761D01*
X-42961D02*
X-40761D01*
X-33761D02*
X-26961D01*
X-23561D02*
X-15961D01*
X-185561Y108394D02*
X-167761D01*
X-163161D02*
X-156361D01*
X-149161D02*
X-146761D01*
X-138361D02*
X-135761D01*
X-124761D02*
X-122361D01*
X-112361D02*
X-109961D01*
X-101161D02*
X-98561D01*
X-94161D02*
X-88961D01*
X-82161D02*
X-79961D01*
X-77961D02*
X-73561D01*
X-64361D02*
X-59161D01*
X-49361D02*
X-45761D01*
X-42961D02*
X-40761D01*
X-33361D02*
X-27561D01*
X-22961D02*
X-16361D01*
X-185361Y108594D02*
X-167561D01*
X-162561D02*
X-157161D01*
X-93561D02*
X-89561D01*
X-77561D02*
X-73961D01*
X-63761D02*
X-59761D01*
X-32761D02*
X-28161D01*
X-21961D02*
X-16961D01*
X-185161Y108794D02*
X-167361D01*
X-161361D02*
X-158361D01*
X-92761D02*
X-90361D01*
X-76761D02*
X-74761D01*
X-62961D02*
X-60561D01*
X-31961D02*
X-29361D01*
X-20761D02*
X-17961D01*
X-184961Y108994D02*
X-167161D01*
X-184761Y109194D02*
X-166961D01*
X-184561Y109394D02*
X-166761D01*
X-184361Y109594D02*
X-166561D01*
X-184161Y109794D02*
X-166361D01*
X-183961Y109994D02*
X-166161D01*
X-183761Y110194D02*
X-165961D01*
X-183561Y110394D02*
X-165761D01*
X-183361Y110594D02*
X-165561D01*
X-183161Y110794D02*
X-165361D01*
X-182961Y110994D02*
X-165161D01*
X-182761Y111194D02*
X-164961D01*
X-182561Y111394D02*
X-164761D01*
X-182361Y111594D02*
X-164561D01*
X-182161Y111794D02*
X-164361D01*
X-181961Y111994D02*
X-164161D01*
X-215761Y112194D02*
X-197961D01*
X-215561Y112394D02*
X-197761D01*
X-215361Y112594D02*
X-197561D01*
X-215161Y112794D02*
X-197361D01*
X-214961Y112994D02*
X-197161D01*
X-214761Y113194D02*
X-196961D01*
X-214561Y113394D02*
X-196761D01*
X-214361Y113594D02*
X-196561D01*
X-214161Y113794D02*
X-196361D01*
X-213961Y113994D02*
X-196161D01*
X-213761Y114194D02*
X-195961D01*
X-213561Y114394D02*
X-195761D01*
X-213361Y114594D02*
X-195561D01*
X-213161Y114794D02*
X-195361D01*
X-212961Y114994D02*
X-195161D01*
X-212761Y115194D02*
X-194961D01*
X-212561Y115394D02*
X-194761D01*
X-212361Y115594D02*
X-194561D01*
X-212161Y115794D02*
X-194361D01*
X-211961Y115994D02*
X-194161D01*
X-211761Y116194D02*
X-193961D01*
X-185961D02*
X-168161D01*
X-211561Y116394D02*
X-193961D01*
X-186161D02*
X-168361D01*
X-211361Y116594D02*
X-193961D01*
X-186361D02*
X-168561D01*
X-211161Y116794D02*
X-193961D01*
X-186561D02*
X-168761D01*
X-210961Y116994D02*
X-193961D01*
X-186761D02*
X-168961D01*
X-210761Y117194D02*
X-193961D01*
X-186961D02*
X-169161D01*
X-210561Y117394D02*
X-193961D01*
X-187161D02*
X-169361D01*
X-210361Y117594D02*
X-193961D01*
X-187361D02*
X-169561D01*
X-210161Y117794D02*
X-193961D01*
X-187561D02*
X-169761D01*
X-209961Y117994D02*
X-193961D01*
X-187761D02*
X-169961D01*
X-209761Y118194D02*
X-193961D01*
X-187961D02*
X-170161D01*
X-209561Y118394D02*
X-193961D01*
X-188161D02*
X-170361D01*
X-209361Y118594D02*
X-193961D01*
X-188361D02*
X-170561D01*
X-209161Y118794D02*
X-193961D01*
X-188561D02*
X-170761D01*
X-208961Y118994D02*
X-193961D01*
X-188761D02*
X-170961D01*
X-208761Y119194D02*
X-193961D01*
X-188961D02*
X-171161D01*
X-208561Y119394D02*
X-193961D01*
X-189161D02*
X-171361D01*
X-208361Y119594D02*
X-193961D01*
X-189361D02*
X-171561D01*
X-208161Y119794D02*
X-193961D01*
X-189561D02*
X-171761D01*
X-207961Y119994D02*
X-193961D01*
X-189761D02*
X-171961D01*
X-207761Y120194D02*
X-193961D01*
X-189961D02*
X-172161D01*
X-207561Y120394D02*
X-193961D01*
X-189961D02*
X-172361D01*
X-207361Y120594D02*
X-193961D01*
X-189961D02*
X-172561D01*
X-207161Y120794D02*
X-193961D01*
X-189961D02*
X-172761D01*
X-206961Y120994D02*
X-193961D01*
X-189961D02*
X-172961D01*
X-206761Y121194D02*
X-193961D01*
X-189961D02*
X-173161D01*
X-206561Y121394D02*
X-193961D01*
X-189961D02*
X-173361D01*
X-206361Y121594D02*
X-193961D01*
X-189961D02*
X-173561D01*
X-206161Y121794D02*
X-193961D01*
X-189961D02*
X-173761D01*
X-205961Y121994D02*
X-193961D01*
X-189961D02*
X-173961D01*
X-158561D02*
X-157561D01*
X-127161D02*
X-126161D01*
X-84961D02*
X-83961D01*
X-60761D02*
X-59161D01*
X-31361D02*
X-29761D01*
X-205761Y122194D02*
X-193961D01*
X-189961D02*
X-174161D01*
X-169561D02*
X-167561D01*
X-158561D02*
X-157561D01*
X-127161D02*
X-126161D01*
X-84961D02*
X-83961D01*
X-61361D02*
X-59161D01*
X-31961D02*
X-29761D01*
X-205561Y122394D02*
X-193961D01*
X-189961D02*
X-174361D01*
X-170161D02*
X-166761D01*
X-158561D02*
X-157561D01*
X-127161D02*
X-126161D01*
X-84961D02*
X-83961D01*
X-61561D02*
X-59161D01*
X-32161D02*
X-29761D01*
X-205361Y122594D02*
X-193961D01*
X-189961D02*
X-174561D01*
X-170561D02*
X-166361D01*
X-158561D02*
X-157561D01*
X-127161D02*
X-126161D01*
X-84961D02*
X-83961D01*
X-61761D02*
X-59161D01*
X-32361D02*
X-29761D01*
X-205161Y122794D02*
X-193961D01*
X-189961D02*
X-174761D01*
X-170761D02*
X-166361D01*
X-158561D02*
X-157561D01*
X-127161D02*
X-126161D01*
X-88961D02*
X-87961D01*
X-84961D02*
X-83961D01*
X-61761D02*
X-60561D01*
X-32361D02*
X-31161D01*
X-22761D02*
X-21761D01*
X-204961Y122994D02*
X-193961D01*
X-189961D02*
X-174961D01*
X-170961D02*
X-169361D01*
X-167761D02*
X-166361D01*
X-158561D02*
X-157561D01*
X-127161D02*
X-126161D01*
X-88961D02*
X-87961D01*
X-84961D02*
X-83961D01*
X-61761D02*
X-60761D01*
X-32361D02*
X-31361D01*
X-22761D02*
X-21761D01*
X-204761Y123194D02*
X-193961D01*
X-189961D02*
X-175161D01*
X-170961D02*
X-169761D01*
X-166961D02*
X-166361D01*
X-127161D02*
X-126161D01*
X-88961D02*
X-87961D01*
X-61961D02*
X-60961D01*
X-32561D02*
X-31561D01*
X-22761D02*
X-21761D01*
X-204561Y123394D02*
X-193961D01*
X-189961D02*
X-175361D01*
X-171161D02*
X-169961D01*
X-166561D02*
X-166361D01*
X-127161D02*
X-126161D01*
X-88961D02*
X-87961D01*
X-61961D02*
X-60961D01*
X-32561D02*
X-31561D01*
X-22761D02*
X-21761D01*
X-204361Y123594D02*
X-193961D01*
X-189961D02*
X-175561D01*
X-171161D02*
X-170161D01*
X-127161D02*
X-126161D01*
X-88961D02*
X-87961D01*
X-61961D02*
X-60961D01*
X-32561D02*
X-31561D01*
X-22761D02*
X-21761D01*
X-204161Y123794D02*
X-193961D01*
X-189961D02*
X-175761D01*
X-171361D02*
X-170361D01*
X-127161D02*
X-126161D01*
X-88961D02*
X-87961D01*
X-61961D02*
X-60961D01*
X-32561D02*
X-31561D01*
X-22761D02*
X-21761D01*
X-203961Y123994D02*
X-193961D01*
X-189961D02*
X-175961D01*
X-171361D02*
X-170361D01*
X-127161D02*
X-126161D01*
X-88961D02*
X-87961D01*
X-61961D02*
X-60961D01*
X-32561D02*
X-31561D01*
X-22761D02*
X-21761D01*
X-203761Y124194D02*
X-193961D01*
X-189961D02*
X-176161D01*
X-171361D02*
X-170361D01*
X-162761D02*
X-161161D01*
X-154161D02*
X-152761D01*
X-147161D02*
X-145761D01*
X-141161D02*
X-139561D01*
X-135361D02*
X-133961D01*
X-127161D02*
X-126161D01*
X-124961D02*
X-123561D01*
X-119561D02*
X-117761D01*
X-113161D02*
X-111361D01*
X-103161D02*
X-101761D01*
X-97361D02*
X-95761D01*
X-88961D02*
X-87961D01*
X-80161D02*
X-78761D01*
X-76361D02*
X-75161D01*
X-70361D02*
X-68961D01*
X-61961D02*
X-60961D01*
X-57161D02*
X-55561D01*
X-49961D02*
X-48761D01*
X-43561D02*
X-41761D01*
X-38161D02*
X-36361D01*
X-32561D02*
X-31561D01*
X-27561D02*
X-26161D01*
X-22761D02*
X-21761D01*
X-203561Y124394D02*
X-193961D01*
X-189961D02*
X-176361D01*
X-171361D02*
X-170361D01*
X-163361D02*
X-160561D01*
X-158561D02*
X-157561D01*
X-154761D02*
X-152161D01*
X-149361D02*
X-148361D01*
X-147561D02*
X-145361D01*
X-141761D02*
X-138961D01*
X-135961D02*
X-133361D01*
X-127161D02*
X-126161D01*
X-125361D02*
X-123161D01*
X-120361D02*
X-117161D01*
X-113761D02*
X-110761D01*
X-105361D02*
X-104361D01*
X-103561D02*
X-101361D01*
X-97761D02*
X-95361D01*
X-89561D02*
X-85961D01*
X-84961D02*
X-83961D01*
X-82161D02*
X-81161D01*
X-80561D02*
X-78361D01*
X-76961D02*
X-74761D01*
X-70961D02*
X-68361D01*
X-62761D02*
X-59361D01*
X-57561D02*
X-55161D01*
X-52161D02*
X-51161D01*
X-50561D02*
X-48761D01*
X-44161D02*
X-41161D01*
X-38961D02*
X-35761D01*
X-33361D02*
X-29961D01*
X-28161D02*
X-25561D01*
X-23361D02*
X-19761D01*
X-19361D02*
X-18161D01*
X-14961D02*
X-13761D01*
X-203361Y124594D02*
X-193961D01*
X-189961D02*
X-176561D01*
X-171361D02*
X-170361D01*
X-163561D02*
X-160361D01*
X-158561D02*
X-157561D01*
X-154961D02*
X-151961D01*
X-149361D02*
X-148361D01*
X-147961D02*
X-145161D01*
X-141961D02*
X-138761D01*
X-136161D02*
X-133161D01*
X-127161D02*
X-126161D01*
X-125761D02*
X-122961D01*
X-120561D02*
X-116961D01*
X-113961D02*
X-110561D01*
X-105361D02*
X-104361D01*
X-103961D02*
X-101161D01*
X-98161D02*
X-94961D01*
X-89561D02*
X-85961D01*
X-84961D02*
X-83961D01*
X-82161D02*
X-81161D01*
X-80761D02*
X-78161D01*
X-77161D02*
X-74561D01*
X-71161D02*
X-68161D01*
X-62761D02*
X-59361D01*
X-57961D02*
X-54761D01*
X-52161D02*
X-51161D01*
X-50761D02*
X-48761D01*
X-44361D02*
X-40961D01*
X-39161D02*
X-35561D01*
X-33361D02*
X-29961D01*
X-28361D02*
X-25361D01*
X-23361D02*
X-19761D01*
X-19161D02*
X-18161D01*
X-14961D02*
X-13961D01*
X-203161Y124794D02*
X-193961D01*
X-189961D02*
X-176761D01*
X-171361D02*
X-170161D01*
X-163961D02*
X-160361D01*
X-158561D02*
X-157561D01*
X-155361D02*
X-151561D01*
X-149361D02*
X-148361D01*
X-148161D02*
X-144961D01*
X-142361D02*
X-138761D01*
X-136561D02*
X-132761D01*
X-127161D02*
X-126161D01*
X-125961D02*
X-122761D01*
X-120561D02*
X-116761D01*
X-114161D02*
X-110561D01*
X-105361D02*
X-104361D01*
X-104161D02*
X-100961D01*
X-98361D02*
X-94761D01*
X-89561D02*
X-85961D01*
X-84961D02*
X-83961D01*
X-82161D02*
X-81161D01*
X-80961D02*
X-77961D01*
X-77361D02*
X-74361D01*
X-71561D02*
X-67761D01*
X-62761D02*
X-59361D01*
X-58161D02*
X-54561D01*
X-52161D02*
X-51161D01*
X-50961D02*
X-48761D01*
X-44561D02*
X-40961D01*
X-39161D02*
X-35361D01*
X-33361D02*
X-29961D01*
X-28761D02*
X-24961D01*
X-23361D02*
X-19761D01*
X-19161D02*
X-17961D01*
X-14961D02*
X-13961D01*
X-202961Y124994D02*
X-193961D01*
X-189961D02*
X-176961D01*
X-171361D02*
X-170161D01*
X-164161D02*
X-162561D01*
X-161161D02*
X-160361D01*
X-158561D02*
X-157561D01*
X-155561D02*
X-154161D01*
X-152961D02*
X-151561D01*
X-149361D02*
X-147361D01*
X-146361D02*
X-144961D01*
X-142561D02*
X-140961D01*
X-139561D02*
X-138761D01*
X-136761D02*
X-135361D01*
X-134161D02*
X-132761D01*
X-127161D02*
X-125161D01*
X-124161D02*
X-122761D01*
X-120561D02*
X-119761D01*
X-117961D02*
X-116561D01*
X-114361D02*
X-112961D01*
X-111361D02*
X-110561D01*
X-105361D02*
X-103361D01*
X-102361D02*
X-100961D01*
X-98561D02*
X-97161D01*
X-95961D02*
X-94561D01*
X-89561D02*
X-85961D01*
X-84961D02*
X-83961D01*
X-82161D02*
X-80161D01*
X-79161D02*
X-77961D01*
X-77561D02*
X-76561D01*
X-75561D02*
X-74361D01*
X-71761D02*
X-70361D01*
X-69161D02*
X-67761D01*
X-62761D02*
X-59361D01*
X-58361D02*
X-56961D01*
X-55761D02*
X-54361D01*
X-52161D02*
X-50161D01*
X-48961D02*
X-48761D01*
X-44761D02*
X-43361D01*
X-41761D02*
X-40961D01*
X-39161D02*
X-38361D01*
X-36561D02*
X-35161D01*
X-33361D02*
X-29961D01*
X-28961D02*
X-27561D01*
X-26361D02*
X-24961D01*
X-23361D02*
X-19761D01*
X-18961D02*
X-17961D01*
X-15161D02*
X-13961D01*
X-202761Y125194D02*
X-193961D01*
X-189961D02*
X-177161D01*
X-171161D02*
X-169961D01*
X-164161D02*
X-162961D01*
X-160561D02*
X-160361D01*
X-158561D02*
X-157561D01*
X-155561D02*
X-154361D01*
X-152561D02*
X-151361D01*
X-149361D02*
X-147761D01*
X-145961D02*
X-144761D01*
X-142561D02*
X-141361D01*
X-138961D02*
X-138761D01*
X-136761D02*
X-135561D01*
X-133761D02*
X-132561D01*
X-127161D02*
X-125561D01*
X-123761D02*
X-122561D01*
X-120561D02*
X-120361D01*
X-117561D02*
X-116561D01*
X-114561D02*
X-113361D01*
X-110761D02*
X-110561D01*
X-105361D02*
X-103761D01*
X-101961D02*
X-100761D01*
X-98761D02*
X-97361D01*
X-95761D02*
X-94361D01*
X-88961D02*
X-87961D01*
X-84961D02*
X-83961D01*
X-82161D02*
X-80561D01*
X-78961D02*
X-76961D01*
X-75361D02*
X-74161D01*
X-71761D02*
X-70561D01*
X-68761D02*
X-67561D01*
X-61961D02*
X-60961D01*
X-58561D02*
X-57161D01*
X-55561D02*
X-54161D01*
X-52161D02*
X-50561D01*
X-44961D02*
X-43761D01*
X-41161D02*
X-40961D01*
X-39161D02*
X-38961D01*
X-36161D02*
X-35161D01*
X-32561D02*
X-31561D01*
X-28961D02*
X-27761D01*
X-25961D02*
X-24761D01*
X-22761D02*
X-21761D01*
X-18961D02*
X-17961D01*
X-15161D02*
X-14161D01*
X-202561Y125394D02*
X-193961D01*
X-189961D02*
X-177361D01*
X-171161D02*
X-169361D01*
X-164361D02*
X-163161D01*
X-158561D02*
X-157561D01*
X-155761D02*
X-154761D01*
X-152361D02*
X-151161D01*
X-149361D02*
X-147961D01*
X-145761D02*
X-144761D01*
X-142761D02*
X-141561D01*
X-136961D02*
X-135961D01*
X-133561D02*
X-132361D01*
X-127161D02*
X-125761D01*
X-123561D02*
X-122561D01*
X-117361D02*
X-116361D01*
X-114561D02*
X-113561D01*
X-105361D02*
X-103961D01*
X-101761D02*
X-100761D01*
X-98761D02*
X-97561D01*
X-95561D02*
X-94361D01*
X-88961D02*
X-87961D01*
X-84961D02*
X-83961D01*
X-82161D02*
X-80761D01*
X-78761D02*
X-77161D01*
X-75161D02*
X-74161D01*
X-71961D02*
X-70961D01*
X-68561D02*
X-67361D01*
X-61961D02*
X-60961D01*
X-58561D02*
X-57361D01*
X-55361D02*
X-54161D01*
X-52161D02*
X-50761D01*
X-44961D02*
X-43961D01*
X-35961D02*
X-34961D01*
X-32561D02*
X-31561D01*
X-29161D02*
X-28161D01*
X-25761D02*
X-24561D01*
X-22761D02*
X-21761D01*
X-18961D02*
X-17761D01*
X-15361D02*
X-14161D01*
X-202361Y125594D02*
X-193961D01*
X-189961D02*
X-177561D01*
X-170961D02*
X-168561D01*
X-164361D02*
X-163361D01*
X-158561D02*
X-157561D01*
X-155761D02*
X-154761D01*
X-152161D02*
X-151161D01*
X-149361D02*
X-148161D01*
X-145761D02*
X-144561D01*
X-142761D02*
X-141761D01*
X-136961D02*
X-135961D01*
X-133361D02*
X-132361D01*
X-127161D02*
X-125961D01*
X-123561D02*
X-122361D01*
X-117361D02*
X-116361D01*
X-114561D02*
X-113561D01*
X-105361D02*
X-104161D01*
X-101761D02*
X-100561D01*
X-98961D02*
X-97761D01*
X-95361D02*
X-94161D01*
X-88961D02*
X-87961D01*
X-84961D02*
X-83961D01*
X-82161D02*
X-80961D01*
X-78761D02*
X-77361D01*
X-75161D02*
X-73961D01*
X-71961D02*
X-70961D01*
X-68361D02*
X-67361D01*
X-61961D02*
X-60961D01*
X-58761D02*
X-57561D01*
X-55161D02*
X-53961D01*
X-52161D02*
X-50761D01*
X-44961D02*
X-43961D01*
X-35961D02*
X-34961D01*
X-32561D02*
X-31561D01*
X-29161D02*
X-28161D01*
X-25561D02*
X-24561D01*
X-22761D02*
X-21761D01*
X-18761D02*
X-17761D01*
X-15361D02*
X-14361D01*
X-202161Y125794D02*
X-193961D01*
X-189961D02*
X-177761D01*
X-170761D02*
X-167561D01*
X-164561D02*
X-163561D01*
X-158561D02*
X-157561D01*
X-155961D02*
X-154961D01*
X-152161D02*
X-151161D01*
X-149361D02*
X-148161D01*
X-145561D02*
X-144561D01*
X-142961D02*
X-141961D01*
X-137161D02*
X-136161D01*
X-133361D02*
X-132361D01*
X-127161D02*
X-125961D01*
X-123361D02*
X-122361D01*
X-117161D02*
X-116161D01*
X-114561D02*
X-113561D01*
X-105361D02*
X-104161D01*
X-101561D02*
X-100561D01*
X-98961D02*
X-97961D01*
X-95161D02*
X-94161D01*
X-88961D02*
X-87961D01*
X-84961D02*
X-83961D01*
X-82161D02*
X-80961D01*
X-78561D02*
X-77361D01*
X-74961D02*
X-73961D01*
X-72161D02*
X-71161D01*
X-68361D02*
X-67361D01*
X-61961D02*
X-60961D01*
X-58761D02*
X-57761D01*
X-54961D02*
X-53961D01*
X-52161D02*
X-50961D01*
X-44961D02*
X-43961D01*
X-35761D02*
X-34761D01*
X-32561D02*
X-31561D01*
X-29361D02*
X-28361D01*
X-25561D02*
X-24561D01*
X-22761D02*
X-21761D01*
X-18761D02*
X-17561D01*
X-15361D02*
X-14361D01*
X-201961Y125994D02*
X-193961D01*
X-189961D02*
X-177961D01*
X-170561D02*
X-167161D01*
X-164561D02*
X-163561D01*
X-158561D02*
X-157561D01*
X-155961D02*
X-154961D01*
X-151961D02*
X-150961D01*
X-149361D02*
X-148361D01*
X-145561D02*
X-144561D01*
X-142961D02*
X-141961D01*
X-137161D02*
X-136161D01*
X-133161D02*
X-132161D01*
X-127161D02*
X-126161D01*
X-123361D02*
X-122361D01*
X-117161D02*
X-116161D01*
X-114561D02*
X-113561D01*
X-105361D02*
X-104361D01*
X-101561D02*
X-100561D01*
X-98961D02*
X-97961D01*
X-95161D02*
X-94161D01*
X-88961D02*
X-87961D01*
X-84961D02*
X-83961D01*
X-82161D02*
X-81161D01*
X-78561D02*
X-77561D01*
X-74961D02*
X-73961D01*
X-72161D02*
X-71161D01*
X-68161D02*
X-67161D01*
X-61961D02*
X-60961D01*
X-58761D02*
X-57761D01*
X-54961D02*
X-53961D01*
X-52161D02*
X-50961D01*
X-44961D02*
X-43961D01*
X-35761D02*
X-34761D01*
X-32561D02*
X-31561D01*
X-29361D02*
X-28361D01*
X-25361D02*
X-24361D01*
X-22761D02*
X-21761D01*
X-18561D02*
X-17561D01*
X-15561D02*
X-14361D01*
X-201761Y126194D02*
X-193961D01*
X-189961D02*
X-178161D01*
X-170161D02*
X-166761D01*
X-164561D02*
X-163561D01*
X-158561D02*
X-157561D01*
X-155961D02*
X-155161D01*
X-151961D02*
X-150961D01*
X-149361D02*
X-148361D01*
X-145561D02*
X-144561D01*
X-142961D02*
X-141961D01*
X-137161D02*
X-136361D01*
X-133161D02*
X-132161D01*
X-127161D02*
X-126161D01*
X-123361D02*
X-122361D01*
X-117161D02*
X-116161D01*
X-114561D02*
X-113361D01*
X-105361D02*
X-104361D01*
X-101561D02*
X-100561D01*
X-99161D02*
X-97961D01*
X-95161D02*
X-93961D01*
X-88961D02*
X-87961D01*
X-84961D02*
X-83961D01*
X-82161D02*
X-81161D01*
X-78561D02*
X-77561D01*
X-74961D02*
X-73961D01*
X-72161D02*
X-71361D01*
X-68161D02*
X-67161D01*
X-61961D02*
X-60961D01*
X-58961D02*
X-57761D01*
X-54961D02*
X-53761D01*
X-52161D02*
X-51161D01*
X-44961D02*
X-43761D01*
X-35761D02*
X-34761D01*
X-32561D02*
X-31561D01*
X-29361D02*
X-28561D01*
X-25361D02*
X-24361D01*
X-22761D02*
X-21761D01*
X-18561D02*
X-17361D01*
X-15561D02*
X-14561D01*
X-201561Y126394D02*
X-193961D01*
X-189961D02*
X-178361D01*
X-169561D02*
X-166561D01*
X-164761D02*
X-163761D01*
X-158561D02*
X-157561D01*
X-156161D02*
X-155161D01*
X-151961D02*
X-150961D01*
X-149361D02*
X-148361D01*
X-145561D02*
X-144561D01*
X-143161D02*
X-142161D01*
X-137361D02*
X-136361D01*
X-133161D02*
X-132161D01*
X-127161D02*
X-126161D01*
X-123361D02*
X-122361D01*
X-119361D02*
X-116161D01*
X-114361D02*
X-113161D01*
X-105361D02*
X-104361D01*
X-101561D02*
X-100561D01*
X-99161D02*
X-98161D01*
X-94961D02*
X-93961D01*
X-88961D02*
X-87961D01*
X-84961D02*
X-83961D01*
X-82161D02*
X-81161D01*
X-78561D02*
X-77561D01*
X-74961D02*
X-73961D01*
X-72361D02*
X-71361D01*
X-68161D02*
X-67161D01*
X-61961D02*
X-60961D01*
X-58961D02*
X-57961D01*
X-54761D02*
X-53761D01*
X-52161D02*
X-51161D01*
X-44761D02*
X-43561D01*
X-37961D02*
X-34761D01*
X-32561D02*
X-31561D01*
X-29561D02*
X-28561D01*
X-25361D02*
X-24361D01*
X-22761D02*
X-21761D01*
X-18361D02*
X-17361D01*
X-15761D02*
X-14561D01*
X-201361Y126594D02*
X-193961D01*
X-189961D02*
X-178561D01*
X-168561D02*
X-166361D01*
X-164761D02*
X-163761D01*
X-158561D02*
X-157561D01*
X-156161D02*
X-150961D01*
X-149361D02*
X-148361D01*
X-145561D02*
X-144561D01*
X-143161D02*
X-142161D01*
X-137361D02*
X-132161D01*
X-127161D02*
X-126161D01*
X-123361D02*
X-122361D01*
X-119961D02*
X-116161D01*
X-114361D02*
X-112561D01*
X-105361D02*
X-104361D01*
X-101561D02*
X-100561D01*
X-99161D02*
X-98161D01*
X-94961D02*
X-93961D01*
X-88961D02*
X-87961D01*
X-84961D02*
X-83961D01*
X-82161D02*
X-81161D01*
X-78561D02*
X-77561D01*
X-74961D02*
X-73961D01*
X-72361D02*
X-67161D01*
X-61961D02*
X-60961D01*
X-58961D02*
X-57961D01*
X-54761D02*
X-53761D01*
X-52161D02*
X-51161D01*
X-44761D02*
X-42961D01*
X-38561D02*
X-34761D01*
X-32561D02*
X-31561D01*
X-29561D02*
X-24361D01*
X-22761D02*
X-21761D01*
X-18361D02*
X-17361D01*
X-15761D02*
X-14761D01*
X-201161Y126794D02*
X-193961D01*
X-189961D02*
X-178761D01*
X-167961D02*
X-166161D01*
X-164761D02*
X-163761D01*
X-158561D02*
X-157561D01*
X-156161D02*
X-150961D01*
X-149361D02*
X-148361D01*
X-145561D02*
X-144561D01*
X-143161D02*
X-142161D01*
X-137361D02*
X-132161D01*
X-127161D02*
X-126161D01*
X-123361D02*
X-122361D01*
X-120361D02*
X-116161D01*
X-114161D02*
X-111761D01*
X-105361D02*
X-104361D01*
X-101561D02*
X-100561D01*
X-99161D02*
X-98161D01*
X-94961D02*
X-93961D01*
X-88961D02*
X-87961D01*
X-84961D02*
X-83961D01*
X-82161D02*
X-81161D01*
X-78561D02*
X-77561D01*
X-74961D02*
X-73961D01*
X-72361D02*
X-67161D01*
X-61961D02*
X-60961D01*
X-58961D02*
X-57961D01*
X-54761D02*
X-53761D01*
X-52161D02*
X-51161D01*
X-44561D02*
X-42161D01*
X-38961D02*
X-34761D01*
X-32561D02*
X-31561D01*
X-29561D02*
X-24361D01*
X-22761D02*
X-21761D01*
X-18361D02*
X-17161D01*
X-15761D02*
X-14761D01*
X-200961Y126994D02*
X-193961D01*
X-189961D02*
X-178961D01*
X-167561D02*
X-166161D01*
X-164761D02*
X-163761D01*
X-158561D02*
X-157561D01*
X-156161D02*
X-150961D01*
X-149361D02*
X-148361D01*
X-145561D02*
X-144561D01*
X-143161D02*
X-142161D01*
X-137361D02*
X-132161D01*
X-127161D02*
X-126161D01*
X-123361D02*
X-122361D01*
X-120561D02*
X-116161D01*
X-113761D02*
X-111161D01*
X-105361D02*
X-104361D01*
X-101561D02*
X-100561D01*
X-99161D02*
X-98161D01*
X-94961D02*
X-93961D01*
X-88961D02*
X-87961D01*
X-84961D02*
X-83961D01*
X-82161D02*
X-81161D01*
X-78561D02*
X-77561D01*
X-74961D02*
X-73961D01*
X-72361D02*
X-67161D01*
X-61961D02*
X-60961D01*
X-58961D02*
X-57961D01*
X-54761D02*
X-53761D01*
X-52161D02*
X-51161D01*
X-44161D02*
X-41561D01*
X-39161D02*
X-34761D01*
X-32561D02*
X-31561D01*
X-29561D02*
X-24361D01*
X-22761D02*
X-21761D01*
X-18161D02*
X-17161D01*
X-15961D02*
X-14761D01*
X-200761Y127194D02*
X-193961D01*
X-189961D02*
X-179161D01*
X-167161D02*
X-165961D01*
X-164761D02*
X-163761D01*
X-158561D02*
X-157561D01*
X-156161D02*
X-150961D01*
X-149361D02*
X-148361D01*
X-145561D02*
X-144561D01*
X-143161D02*
X-142161D01*
X-137361D02*
X-132161D01*
X-127161D02*
X-126161D01*
X-123361D02*
X-122361D01*
X-120761D02*
X-119161D01*
X-117161D02*
X-116161D01*
X-113361D02*
X-110761D01*
X-105361D02*
X-104361D01*
X-101561D02*
X-100561D01*
X-99161D02*
X-98161D01*
X-94961D02*
X-93961D01*
X-88961D02*
X-87961D01*
X-84961D02*
X-83961D01*
X-82161D02*
X-81161D01*
X-78561D02*
X-77561D01*
X-74961D02*
X-73961D01*
X-72361D02*
X-67161D01*
X-61961D02*
X-60961D01*
X-58961D02*
X-57961D01*
X-54761D02*
X-53761D01*
X-52161D02*
X-51161D01*
X-43761D02*
X-41161D01*
X-39361D02*
X-37761D01*
X-35761D02*
X-34761D01*
X-32561D02*
X-31561D01*
X-29561D02*
X-24361D01*
X-22761D02*
X-21761D01*
X-18161D02*
X-16961D01*
X-15961D02*
X-14961D01*
X-200561Y127394D02*
X-193961D01*
X-189961D02*
X-179361D01*
X-167161D02*
X-165961D01*
X-164761D02*
X-163761D01*
X-158561D02*
X-157561D01*
X-156161D02*
X-155161D01*
X-149361D02*
X-148361D01*
X-145561D02*
X-144561D01*
X-143161D02*
X-142161D01*
X-137361D02*
X-136361D01*
X-127161D02*
X-126161D01*
X-123361D02*
X-122361D01*
X-120761D02*
X-119561D01*
X-117161D02*
X-116161D01*
X-112561D02*
X-110561D01*
X-105361D02*
X-104361D01*
X-101561D02*
X-100561D01*
X-99161D02*
X-98161D01*
X-94961D02*
X-93961D01*
X-88961D02*
X-87961D01*
X-84961D02*
X-83961D01*
X-82161D02*
X-81161D01*
X-78561D02*
X-77561D01*
X-74961D02*
X-73961D01*
X-72361D02*
X-71361D01*
X-61961D02*
X-60961D01*
X-58961D02*
X-57961D01*
X-54761D02*
X-53761D01*
X-52161D02*
X-51161D01*
X-42961D02*
X-40961D01*
X-39361D02*
X-38161D01*
X-35761D02*
X-34761D01*
X-32561D02*
X-31561D01*
X-29561D02*
X-28561D01*
X-22761D02*
X-21761D01*
X-17961D02*
X-16961D01*
X-16161D02*
X-14961D01*
X-200361Y127594D02*
X-193961D01*
X-189961D02*
X-179561D01*
X-166961D02*
X-165961D01*
X-164761D02*
X-163761D01*
X-158561D02*
X-157561D01*
X-156161D02*
X-155161D01*
X-149361D02*
X-148361D01*
X-145561D02*
X-144561D01*
X-143161D02*
X-142161D01*
X-137361D02*
X-136361D01*
X-127161D02*
X-126161D01*
X-123361D02*
X-122361D01*
X-120761D02*
X-119761D01*
X-117161D02*
X-116161D01*
X-111961D02*
X-110361D01*
X-105361D02*
X-104361D01*
X-101561D02*
X-100561D01*
X-99161D02*
X-98161D01*
X-94961D02*
X-93961D01*
X-88961D02*
X-87961D01*
X-84961D02*
X-83961D01*
X-82161D02*
X-81161D01*
X-78561D02*
X-77561D01*
X-74961D02*
X-73961D01*
X-72361D02*
X-71361D01*
X-61961D02*
X-60961D01*
X-58961D02*
X-57961D01*
X-54761D02*
X-53761D01*
X-52161D02*
X-51161D01*
X-42361D02*
X-40761D01*
X-39361D02*
X-38361D01*
X-35761D02*
X-34761D01*
X-32561D02*
X-31561D01*
X-29561D02*
X-28561D01*
X-22761D02*
X-21761D01*
X-17961D02*
X-16761D01*
X-16161D02*
X-15161D01*
X-200161Y127794D02*
X-193961D01*
X-189961D02*
X-179761D01*
X-166961D02*
X-165961D01*
X-164761D02*
X-163761D01*
X-158561D02*
X-157561D01*
X-156161D02*
X-155161D01*
X-149361D02*
X-148361D01*
X-145561D02*
X-144561D01*
X-143161D02*
X-142161D01*
X-137361D02*
X-136361D01*
X-127161D02*
X-126161D01*
X-123361D02*
X-122361D01*
X-120961D02*
X-119961D01*
X-117161D02*
X-116161D01*
X-111361D02*
X-110361D01*
X-105361D02*
X-104361D01*
X-101561D02*
X-100561D01*
X-99161D02*
X-98161D01*
X-94961D02*
X-93961D01*
X-88961D02*
X-87961D01*
X-84961D02*
X-83961D01*
X-82161D02*
X-81161D01*
X-78561D02*
X-77561D01*
X-74961D02*
X-73961D01*
X-72361D02*
X-71361D01*
X-61961D02*
X-60961D01*
X-58961D02*
X-57961D01*
X-54761D02*
X-53761D01*
X-52161D02*
X-51161D01*
X-41761D02*
X-40761D01*
X-39561D02*
X-38561D01*
X-35761D02*
X-34761D01*
X-32561D02*
X-31561D01*
X-29561D02*
X-28561D01*
X-22761D02*
X-21761D01*
X-17761D02*
X-16761D01*
X-16161D02*
X-15161D01*
X-199961Y127994D02*
X-193961D01*
X-189961D02*
X-179961D01*
X-166961D02*
X-165961D01*
X-164561D02*
X-163561D01*
X-158561D02*
X-157561D01*
X-155961D02*
X-154961D01*
X-149361D02*
X-148361D01*
X-145561D02*
X-144561D01*
X-142961D02*
X-141961D01*
X-137161D02*
X-136161D01*
X-127161D02*
X-126161D01*
X-123361D02*
X-122361D01*
X-120961D02*
X-119961D01*
X-117161D02*
X-116161D01*
X-111361D02*
X-110161D01*
X-105361D02*
X-104361D01*
X-101561D02*
X-100561D01*
X-99161D02*
X-97961D01*
X-95161D02*
X-93961D01*
X-88961D02*
X-87961D01*
X-84961D02*
X-83961D01*
X-82161D02*
X-81161D01*
X-78561D02*
X-77561D01*
X-74961D02*
X-73961D01*
X-72161D02*
X-71161D01*
X-61961D02*
X-60961D01*
X-58961D02*
X-57761D01*
X-54961D02*
X-53761D01*
X-52161D02*
X-51161D01*
X-41761D02*
X-40561D01*
X-39561D02*
X-38561D01*
X-35761D02*
X-34761D01*
X-32561D02*
X-31561D01*
X-29361D02*
X-28361D01*
X-22761D02*
X-21761D01*
X-17761D02*
X-16761D01*
X-16361D02*
X-15161D01*
X-199761Y128194D02*
X-193961D01*
X-189961D02*
X-180161D01*
X-166961D02*
X-165961D01*
X-164561D02*
X-163561D01*
X-158561D02*
X-157561D01*
X-155961D02*
X-154961D01*
X-149361D02*
X-148361D01*
X-145561D02*
X-144561D01*
X-142961D02*
X-141961D01*
X-137161D02*
X-136161D01*
X-127161D02*
X-126161D01*
X-123361D02*
X-122361D01*
X-120961D02*
X-119961D01*
X-117361D02*
X-116161D01*
X-111161D02*
X-110161D01*
X-105361D02*
X-104361D01*
X-101561D02*
X-100561D01*
X-98961D02*
X-97961D01*
X-95161D02*
X-94161D01*
X-88961D02*
X-87961D01*
X-84961D02*
X-83961D01*
X-82161D02*
X-81161D01*
X-78561D02*
X-77561D01*
X-74961D02*
X-73961D01*
X-72161D02*
X-71161D01*
X-61961D02*
X-60961D01*
X-58761D02*
X-57761D01*
X-54961D02*
X-53961D01*
X-52161D02*
X-51161D01*
X-41561D02*
X-40561D01*
X-39561D02*
X-38561D01*
X-35961D02*
X-34761D01*
X-32561D02*
X-31561D01*
X-29361D02*
X-28361D01*
X-22761D02*
X-21761D01*
X-17761D02*
X-16561D01*
X-16361D02*
X-15361D01*
X-199561Y128394D02*
X-193961D01*
X-189961D02*
X-180361D01*
X-166961D02*
X-165961D01*
X-164561D02*
X-163561D01*
X-158561D02*
X-157561D01*
X-155961D02*
X-154961D01*
X-149361D02*
X-148361D01*
X-145561D02*
X-144561D01*
X-142961D02*
X-141961D01*
X-137161D02*
X-136161D01*
X-127161D02*
X-126161D01*
X-123361D02*
X-122361D01*
X-120961D02*
X-119961D01*
X-117361D02*
X-116161D01*
X-111161D02*
X-110161D01*
X-105361D02*
X-104361D01*
X-101561D02*
X-100561D01*
X-98961D02*
X-97961D01*
X-95161D02*
X-94161D01*
X-88961D02*
X-87961D01*
X-84961D02*
X-83961D01*
X-82161D02*
X-81161D01*
X-78561D02*
X-77561D01*
X-74961D02*
X-73961D01*
X-72161D02*
X-71161D01*
X-61961D02*
X-60961D01*
X-58761D02*
X-57761D01*
X-54961D02*
X-53961D01*
X-52161D02*
X-51161D01*
X-41561D02*
X-40561D01*
X-39561D02*
X-38561D01*
X-35961D02*
X-34761D01*
X-32561D02*
X-31561D01*
X-29361D02*
X-28361D01*
X-22761D02*
X-21761D01*
X-17561D02*
X-15361D01*
X-199361Y128594D02*
X-193961D01*
X-189961D02*
X-180561D01*
X-167161D02*
X-166161D01*
X-164361D02*
X-163361D01*
X-158561D02*
X-157561D01*
X-155761D02*
X-154761D01*
X-149361D02*
X-148361D01*
X-145561D02*
X-144561D01*
X-142761D02*
X-141761D01*
X-136961D02*
X-135961D01*
X-127161D02*
X-126161D01*
X-123361D02*
X-122361D01*
X-120961D02*
X-119961D01*
X-117561D02*
X-116161D01*
X-111161D02*
X-110161D01*
X-105361D02*
X-104361D01*
X-101561D02*
X-100561D01*
X-98961D02*
X-97761D01*
X-95361D02*
X-94161D01*
X-88961D02*
X-87961D01*
X-84961D02*
X-83961D01*
X-82161D02*
X-81161D01*
X-78561D02*
X-77561D01*
X-74961D02*
X-73961D01*
X-71961D02*
X-70961D01*
X-61961D02*
X-60961D01*
X-58761D02*
X-57561D01*
X-55161D02*
X-53961D01*
X-52161D02*
X-51161D01*
X-41561D02*
X-40561D01*
X-39561D02*
X-38561D01*
X-36161D02*
X-34761D01*
X-32561D02*
X-31561D01*
X-29161D02*
X-28161D01*
X-22761D02*
X-21761D01*
X-17561D02*
X-15561D01*
X-199161Y128794D02*
X-193961D01*
X-189961D02*
X-180761D01*
X-171361D02*
X-171161D01*
X-167361D02*
X-166161D01*
X-164361D02*
X-163161D01*
X-158561D02*
X-157561D01*
X-155761D02*
X-154561D01*
X-151361D02*
X-151161D01*
X-149361D02*
X-148361D01*
X-145561D02*
X-144561D01*
X-142761D02*
X-141561D01*
X-136961D02*
X-135761D01*
X-132561D02*
X-132361D01*
X-127161D02*
X-126161D01*
X-123361D02*
X-122361D01*
X-120961D02*
X-119761D01*
X-117561D02*
X-116161D01*
X-114561D02*
X-114361D01*
X-111361D02*
X-110161D01*
X-105361D02*
X-104361D01*
X-101561D02*
X-100561D01*
X-98761D02*
X-97561D01*
X-95561D02*
X-94361D01*
X-88961D02*
X-87761D01*
X-84961D02*
X-83961D01*
X-82161D02*
X-81161D01*
X-78561D02*
X-77561D01*
X-74961D02*
X-73961D01*
X-71961D02*
X-70761D01*
X-67561D02*
X-67361D01*
X-61961D02*
X-60961D01*
X-58561D02*
X-57361D01*
X-55361D02*
X-54161D01*
X-52161D02*
X-51161D01*
X-44961D02*
X-44761D01*
X-41761D02*
X-40561D01*
X-39561D02*
X-38361D01*
X-36161D02*
X-34761D01*
X-32561D02*
X-31561D01*
X-29161D02*
X-27961D01*
X-24761D02*
X-24561D01*
X-22761D02*
X-21561D01*
X-17361D02*
X-15561D01*
X-198961Y128994D02*
X-193961D01*
X-189961D02*
X-180961D01*
X-171361D02*
X-170561D01*
X-167561D02*
X-166161D01*
X-164161D02*
X-162961D01*
X-160561D02*
X-160361D01*
X-158561D02*
X-157561D01*
X-155561D02*
X-154361D01*
X-151761D02*
X-151161D01*
X-149361D02*
X-148361D01*
X-145561D02*
X-144561D01*
X-142561D02*
X-141361D01*
X-138961D02*
X-138761D01*
X-136761D02*
X-135561D01*
X-132961D02*
X-132361D01*
X-127161D02*
X-126161D01*
X-123361D02*
X-122361D01*
X-120761D02*
X-119561D01*
X-117961D02*
X-116161D01*
X-114561D02*
X-113961D01*
X-111361D02*
X-110361D01*
X-105361D02*
X-104361D01*
X-101561D02*
X-100561D01*
X-98761D02*
X-97361D01*
X-95761D02*
X-94361D01*
X-88761D02*
X-87561D01*
X-84961D02*
X-83961D01*
X-82161D02*
X-81161D01*
X-78561D02*
X-77561D01*
X-74961D02*
X-73961D01*
X-71761D02*
X-70561D01*
X-67961D02*
X-67361D01*
X-61961D02*
X-60961D01*
X-58561D02*
X-57161D01*
X-55561D02*
X-54161D01*
X-52161D02*
X-51161D01*
X-44961D02*
X-44361D01*
X-41761D02*
X-40761D01*
X-39361D02*
X-38161D01*
X-36561D02*
X-34761D01*
X-32561D02*
X-31561D01*
X-28961D02*
X-27761D01*
X-25161D02*
X-24561D01*
X-22561D02*
X-21361D01*
X-17361D02*
X-15561D01*
X-198761Y129194D02*
X-193961D01*
X-189961D02*
X-181161D01*
X-171361D02*
X-169761D01*
X-167961D02*
X-166361D01*
X-164161D02*
X-162561D01*
X-161161D02*
X-160361D01*
X-158561D02*
X-157561D01*
X-155561D02*
X-153961D01*
X-152361D02*
X-151161D01*
X-149361D02*
X-148361D01*
X-145561D02*
X-144561D01*
X-142561D02*
X-140961D01*
X-139561D02*
X-138761D01*
X-136761D02*
X-135161D01*
X-133561D02*
X-132361D01*
X-127161D02*
X-126161D01*
X-123361D02*
X-122361D01*
X-120761D02*
X-119361D01*
X-118161D02*
X-116161D01*
X-114561D02*
X-113361D01*
X-111761D02*
X-110361D01*
X-105361D02*
X-104361D01*
X-101561D02*
X-100561D01*
X-98561D02*
X-97161D01*
X-95961D02*
X-94561D01*
X-88761D02*
X-85961D01*
X-84961D02*
X-83961D01*
X-82161D02*
X-81161D01*
X-78561D02*
X-77561D01*
X-74961D02*
X-73961D01*
X-71761D02*
X-70161D01*
X-68561D02*
X-67361D01*
X-61961D02*
X-60961D01*
X-58361D02*
X-56961D01*
X-55761D02*
X-54361D01*
X-52161D02*
X-51161D01*
X-44961D02*
X-43761D01*
X-42161D02*
X-40761D01*
X-39361D02*
X-37961D01*
X-36761D02*
X-34761D01*
X-32561D02*
X-31561D01*
X-28961D02*
X-27361D01*
X-25761D02*
X-24561D01*
X-22561D02*
X-19761D01*
X-17161D02*
X-15761D01*
X-198561Y129394D02*
X-193961D01*
X-189961D02*
X-181361D01*
X-171361D02*
X-166561D01*
X-163961D02*
X-160361D01*
X-158561D02*
X-157561D01*
X-155361D02*
X-151161D01*
X-149361D02*
X-148361D01*
X-145561D02*
X-144561D01*
X-142361D02*
X-138761D01*
X-136561D02*
X-132361D01*
X-127161D02*
X-126161D01*
X-123361D02*
X-122361D01*
X-120561D02*
X-117361D01*
X-117161D02*
X-116161D01*
X-114561D02*
X-110561D01*
X-105361D02*
X-104361D01*
X-101561D02*
X-100561D01*
X-98361D02*
X-94761D01*
X-88561D02*
X-85961D01*
X-84961D02*
X-83961D01*
X-82161D02*
X-81161D01*
X-78561D02*
X-77561D01*
X-74961D02*
X-73961D01*
X-71561D02*
X-67361D01*
X-61961D02*
X-60961D01*
X-58161D02*
X-54561D01*
X-52161D02*
X-51161D01*
X-44961D02*
X-40961D01*
X-39161D02*
X-35961D01*
X-35761D02*
X-34761D01*
X-32561D02*
X-31561D01*
X-28761D02*
X-24561D01*
X-22361D02*
X-19761D01*
X-17161D02*
X-15761D01*
X-198361Y129594D02*
X-193961D01*
X-189961D02*
X-181561D01*
X-171361D02*
X-166761D01*
X-163761D02*
X-160361D01*
X-158561D02*
X-157561D01*
X-154961D02*
X-151361D01*
X-149361D02*
X-148361D01*
X-145561D02*
X-144561D01*
X-142161D02*
X-138761D01*
X-136161D02*
X-132561D01*
X-127161D02*
X-126161D01*
X-123361D02*
X-122361D01*
X-120361D02*
X-117561D01*
X-117161D02*
X-116161D01*
X-114561D02*
X-110761D01*
X-105361D02*
X-104361D01*
X-101561D02*
X-100561D01*
X-98161D02*
X-94961D01*
X-88361D02*
X-85961D01*
X-84961D02*
X-83961D01*
X-82161D02*
X-81161D01*
X-78561D02*
X-77561D01*
X-74961D02*
X-73961D01*
X-71161D02*
X-67561D01*
X-61961D02*
X-60961D01*
X-57961D02*
X-54761D01*
X-52161D02*
X-51161D01*
X-44961D02*
X-41161D01*
X-38961D02*
X-36161D01*
X-35761D02*
X-34761D01*
X-32561D02*
X-31561D01*
X-28361D02*
X-24761D01*
X-22161D02*
X-19761D01*
X-17161D02*
X-15961D01*
X-198161Y129794D02*
X-193961D01*
X-189961D02*
X-181761D01*
X-170961D02*
X-167161D01*
X-163361D02*
X-160561D01*
X-158561D02*
X-157561D01*
X-154561D02*
X-151761D01*
X-149361D02*
X-148361D01*
X-145561D02*
X-144561D01*
X-141761D02*
X-138961D01*
X-135761D02*
X-132961D01*
X-127161D02*
X-126161D01*
X-123361D02*
X-122361D01*
X-120161D02*
X-117761D01*
X-117161D02*
X-116161D01*
X-114161D02*
X-111161D01*
X-105361D02*
X-104361D01*
X-101561D02*
X-100561D01*
X-97761D02*
X-95361D01*
X-87961D02*
X-85961D01*
X-84961D02*
X-83961D01*
X-82161D02*
X-81161D01*
X-78561D02*
X-77561D01*
X-74961D02*
X-73961D01*
X-70761D02*
X-67961D01*
X-61961D02*
X-60961D01*
X-57561D02*
X-55161D01*
X-52161D02*
X-51161D01*
X-44561D02*
X-41561D01*
X-38761D02*
X-36361D01*
X-35761D02*
X-34761D01*
X-32561D02*
X-31561D01*
X-27961D02*
X-25161D01*
X-21761D02*
X-19761D01*
X-17161D02*
X-15961D01*
X-197961Y129994D02*
X-193961D01*
X-189961D02*
X-181961D01*
X-170161D02*
X-167961D01*
X-162761D02*
X-161161D01*
X-154161D02*
X-152361D01*
X-141161D02*
X-139561D01*
X-135361D02*
X-133561D01*
X-119761D02*
X-118361D01*
X-113561D02*
X-111561D01*
X-97361D02*
X-95761D01*
X-70361D02*
X-68561D01*
X-57161D02*
X-55561D01*
X-43961D02*
X-41961D01*
X-38361D02*
X-36961D01*
X-27561D02*
X-25761D01*
X-17161D02*
X-16161D01*
X-197761Y130194D02*
X-193961D01*
X-189961D02*
X-182161D01*
X-17161D02*
X-16161D01*
X-197561Y130394D02*
X-193961D01*
X-189961D02*
X-182361D01*
X-17361D02*
X-16161D01*
X-197361Y130594D02*
X-193961D01*
X-189961D02*
X-182561D01*
X-17361D02*
X-16361D01*
X-197161Y130794D02*
X-193961D01*
X-189961D02*
X-182761D01*
X-17361D02*
X-16361D01*
X-196961Y130994D02*
X-193961D01*
X-189961D02*
X-182961D01*
X-17361D02*
X-16561D01*
X-196761Y131194D02*
X-193961D01*
X-189961D02*
X-183161D01*
X-17761D02*
X-16561D01*
X-196561Y131394D02*
X-193961D01*
X-189961D02*
X-183361D01*
X-18761D02*
X-16761D01*
X-196361Y131594D02*
X-193961D01*
X-189961D02*
X-183561D01*
X-18761D02*
X-16761D01*
X-196161Y131794D02*
X-193961D01*
X-189961D02*
X-183761D01*
X-18761D02*
X-16961D01*
X-195961Y131994D02*
X-193961D01*
X-189961D02*
X-183961D01*
X-18761D02*
X-17361D01*
X-195761Y132194D02*
X-193961D01*
X-189961D02*
X-184161D01*
X-195561Y132394D02*
X-193961D01*
X-189961D02*
X-184361D01*
X-195361Y132594D02*
X-193961D01*
X-189961D02*
X-184561D01*
X-195161Y132794D02*
X-193961D01*
X-189961D02*
X-184761D01*
X-194961Y132994D02*
X-193961D01*
X-189961D02*
X-184961D01*
X-194761Y133194D02*
X-193961D01*
X-189961D02*
X-185161D01*
X-194561Y133394D02*
X-193961D01*
X-189961D02*
X-185361D01*
X-194361Y133594D02*
X-193961D01*
X-189961D02*
X-185561D01*
X-194161Y133794D02*
X-193961D01*
X-189961D02*
X-185761D01*
X-189961Y133994D02*
X-185961D01*
X-189961Y134194D02*
X-186161D01*
X-189961Y134394D02*
X-186361D01*
X-189961Y134594D02*
X-186561D01*
X-189961Y134794D02*
X-186761D01*
X-189961Y134994D02*
X-186961D01*
X-189961Y135194D02*
X-187161D01*
X-189961Y135394D02*
X-187361D01*
X-189961Y135594D02*
X-187561D01*
X-189961Y135794D02*
X-187761D01*
X-189961Y135994D02*
X-187961D01*
X-189961Y136194D02*
X-188161D01*
X-189961Y136394D02*
X-188361D01*
X-189961Y136594D02*
X-188561D01*
X-189961Y136794D02*
X-188761D01*
X-189961Y136994D02*
X-188961D01*
X-189961Y137194D02*
X-189161D01*
X-189961Y137394D02*
X-189361D01*
X-189961Y137594D02*
X-189561D01*
X-189961Y137794D02*
X-189761D01*
M02*
