G04 Layer_Color=8421504*
%FSLAX25Y25*%
%MOIN*%
G70*
G01*
G75*
%ADD10R,0.08268X0.11811*%
%ADD11R,0.03150X0.06299*%
%ADD12R,0.03543X0.01654*%
%ADD13R,0.06693X0.09331*%
%ADD14R,0.11000X0.02900*%
%ADD15R,0.19685X0.07874*%
%ADD16R,0.02520X0.02520*%
%ADD17R,0.02520X0.02520*%
%ADD18R,0.02362X0.02165*%
%ADD19R,0.05709X0.05118*%
%ADD20R,0.13504X0.07205*%
%ADD21O,0.00787X0.03543*%
%ADD22O,0.03543X0.00787*%
%ADD23R,0.11024X0.11024*%
%ADD24R,0.02165X0.02362*%
%ADD25R,0.02953X0.03937*%
%ADD26O,0.03543X0.00984*%
%ADD27O,0.00984X0.03543*%
%ADD28P,0.03563X4X180.0*%
%ADD29O,0.05512X0.01772*%
%ADD30R,0.05118X0.07087*%
%ADD31R,0.04331X0.03937*%
%ADD32R,0.13583X0.13583*%
%ADD33O,0.03347X0.00984*%
%ADD34O,0.00984X0.03347*%
%ADD35O,0.00984X0.03150*%
%ADD36R,0.07087X0.05118*%
%ADD37P,0.22828X4X180.0*%
G04:AMPARAMS|DCode=38|XSize=11.81mil|YSize=47.24mil|CornerRadius=0mil|HoleSize=0mil|Usage=FLASHONLY|Rotation=135.000|XOffset=0mil|YOffset=0mil|HoleType=Round|Shape=Round|*
%AMOVALD38*
21,1,0.03543,0.01181,0.00000,0.00000,225.0*
1,1,0.01181,0.01253,0.01253*
1,1,0.01181,-0.01253,-0.01253*
%
%ADD38OVALD38*%

G04:AMPARAMS|DCode=39|XSize=11.81mil|YSize=47.24mil|CornerRadius=0mil|HoleSize=0mil|Usage=FLASHONLY|Rotation=225.000|XOffset=0mil|YOffset=0mil|HoleType=Round|Shape=Round|*
%AMOVALD39*
21,1,0.03543,0.01181,0.00000,0.00000,315.0*
1,1,0.01181,-0.01253,0.01253*
1,1,0.01181,0.01253,-0.01253*
%
%ADD39OVALD39*%

%ADD40R,0.02900X0.11000*%
%ADD41R,0.03937X0.04331*%
%ADD42R,0.03937X0.02362*%
%ADD43R,0.03543X0.02362*%
%ADD44P,0.03563X4X90.0*%
G04:AMPARAMS|DCode=45|XSize=11.81mil|YSize=70.87mil|CornerRadius=0mil|HoleSize=0mil|Usage=FLASHONLY|Rotation=45.000|XOffset=0mil|YOffset=0mil|HoleType=Round|Shape=Round|*
%AMOVALD45*
21,1,0.05905,0.01181,0.00000,0.00000,135.0*
1,1,0.01181,0.02088,-0.02088*
1,1,0.01181,-0.02088,0.02088*
%
%ADD45OVALD45*%

G04:AMPARAMS|DCode=46|XSize=11.81mil|YSize=70.87mil|CornerRadius=0mil|HoleSize=0mil|Usage=FLASHONLY|Rotation=315.000|XOffset=0mil|YOffset=0mil|HoleType=Round|Shape=Round|*
%AMOVALD46*
21,1,0.05905,0.01181,0.00000,0.00000,45.0*
1,1,0.01181,-0.02088,-0.02088*
1,1,0.01181,0.02088,0.02088*
%
%ADD46OVALD46*%

%ADD47O,0.04528X0.02362*%
%ADD48R,0.04528X0.02756*%
%ADD49R,0.04921X0.02756*%
%ADD50R,0.16142X0.07756*%
%ADD51R,0.05512X0.14567*%
%ADD52R,0.02362X0.03937*%
%ADD53R,0.07874X0.01968*%
%ADD54R,0.07087X0.14370*%
%ADD55R,0.10039X0.06102*%
%ADD56R,0.09331X0.06693*%
%ADD57R,0.01654X0.03543*%
%ADD58R,0.03740X0.02362*%
%ADD59R,0.06693X0.05709*%
%ADD60R,0.05512X0.04724*%
%ADD61R,0.10236X0.10236*%
%ADD62O,0.03740X0.00984*%
%ADD63O,0.00984X0.03740*%
%ADD64R,0.03937X0.02953*%
%ADD65R,0.09252X0.20079*%
%ADD127C,0.03500*%
D10*
X114862Y160433D02*
D03*
X80020D02*
D03*
D11*
X104823Y149016D02*
D03*
X99902D02*
D03*
X94980D02*
D03*
X90059D02*
D03*
D12*
X-202815Y100886D02*
D03*
Y98327D02*
D03*
Y95768D02*
D03*
Y93209D02*
D03*
X-190886Y100886D02*
D03*
Y98327D02*
D03*
Y95768D02*
D03*
Y93209D02*
D03*
X-143642Y77461D02*
D03*
Y80020D02*
D03*
Y82579D02*
D03*
Y85138D02*
D03*
X-155571Y77461D02*
D03*
Y80020D02*
D03*
Y82579D02*
D03*
Y85138D02*
D03*
X-175256D02*
D03*
Y82579D02*
D03*
Y80020D02*
D03*
Y77461D02*
D03*
X-163327Y85138D02*
D03*
Y82579D02*
D03*
Y80020D02*
D03*
Y77461D02*
D03*
Y19390D02*
D03*
Y21949D02*
D03*
Y24508D02*
D03*
Y27067D02*
D03*
X-175256Y19390D02*
D03*
Y21949D02*
D03*
Y24508D02*
D03*
Y27067D02*
D03*
X-155571D02*
D03*
Y24508D02*
D03*
Y21949D02*
D03*
Y19390D02*
D03*
X-143642Y27067D02*
D03*
Y24508D02*
D03*
Y21949D02*
D03*
Y19390D02*
D03*
X-81555Y23524D02*
D03*
Y20965D02*
D03*
Y18406D02*
D03*
Y15846D02*
D03*
X-69626Y23524D02*
D03*
Y20965D02*
D03*
Y18406D02*
D03*
Y15846D02*
D03*
D13*
X-195177Y97047D02*
D03*
X-151279Y81299D02*
D03*
X-170965D02*
D03*
Y23228D02*
D03*
X-151279D02*
D03*
X-77264Y19685D02*
D03*
D14*
X177000Y55000D02*
D03*
X193000D02*
D03*
X177000Y50000D02*
D03*
X193000D02*
D03*
X177000Y45000D02*
D03*
X193000D02*
D03*
X177000Y40000D02*
D03*
X193000D02*
D03*
X177000Y35000D02*
D03*
X193000D02*
D03*
X247905Y-17559D02*
D03*
Y-22559D02*
D03*
Y-27559D02*
D03*
X263906Y-17559D02*
D03*
Y-27559D02*
D03*
Y-32559D02*
D03*
Y-22559D02*
D03*
X247905Y-32559D02*
D03*
Y-37559D02*
D03*
X263906D02*
D03*
X177000Y17500D02*
D03*
Y12500D02*
D03*
Y7500D02*
D03*
X193000Y17500D02*
D03*
Y7500D02*
D03*
Y2500D02*
D03*
Y12500D02*
D03*
X177000Y2500D02*
D03*
Y-2500D02*
D03*
X193000D02*
D03*
X247905Y37559D02*
D03*
Y32559D02*
D03*
Y27559D02*
D03*
X263906Y37559D02*
D03*
Y27559D02*
D03*
Y22559D02*
D03*
Y32559D02*
D03*
X247905Y22559D02*
D03*
Y17559D02*
D03*
X263906D02*
D03*
D15*
X46063Y-99606D02*
D03*
Y-60236D02*
D03*
D16*
X-111378Y127559D02*
D03*
X-115000D02*
D03*
X-91693D02*
D03*
X-95315D02*
D03*
X-156063Y56693D02*
D03*
X-159685D02*
D03*
X108425Y-34449D02*
D03*
X112047D02*
D03*
X43937Y165551D02*
D03*
X40315D02*
D03*
X125157Y146653D02*
D03*
X128779D02*
D03*
X107126Y143701D02*
D03*
X103504D02*
D03*
X134016Y131496D02*
D03*
X137638D02*
D03*
X147795Y72047D02*
D03*
X151417D02*
D03*
X224252Y16732D02*
D03*
X220630D02*
D03*
X35394Y-156102D02*
D03*
X39016D02*
D03*
X-91378Y155512D02*
D03*
X-87756D02*
D03*
X-91378Y151575D02*
D03*
X-87756D02*
D03*
X-115315Y155512D02*
D03*
X-118937D02*
D03*
X-115315Y151575D02*
D03*
X-118937D02*
D03*
X-198976Y87402D02*
D03*
X-202598D02*
D03*
X-165512Y-114567D02*
D03*
X-169134D02*
D03*
X-222284Y-136811D02*
D03*
X-218661D02*
D03*
X-173071D02*
D03*
X-169449D02*
D03*
X-123858D02*
D03*
X-120236D02*
D03*
X-74646D02*
D03*
X-71024D02*
D03*
X-191890Y75197D02*
D03*
X-195512D02*
D03*
X-196221Y66535D02*
D03*
X-199843D02*
D03*
X-200945Y56299D02*
D03*
X-204567D02*
D03*
X-193071Y42520D02*
D03*
X-196693D02*
D03*
X-193071Y51181D02*
D03*
X-196693D02*
D03*
X-193071Y46850D02*
D03*
X-196693D02*
D03*
X-191890Y79528D02*
D03*
X-195512D02*
D03*
X-91693Y96063D02*
D03*
X-95315D02*
D03*
X45906Y151772D02*
D03*
X42283D02*
D03*
X116811Y-13000D02*
D03*
X113189D02*
D03*
D17*
X-92520Y139921D02*
D03*
Y143543D02*
D03*
X-114173Y139921D02*
D03*
Y143543D02*
D03*
X-163386Y47087D02*
D03*
Y43465D02*
D03*
X-161417Y70551D02*
D03*
Y66929D02*
D03*
X-187992Y30669D02*
D03*
Y34291D02*
D03*
X117126Y-53307D02*
D03*
Y-56929D02*
D03*
X105315Y-62165D02*
D03*
Y-65787D02*
D03*
X51968Y140984D02*
D03*
Y137362D02*
D03*
X175984Y87638D02*
D03*
Y84016D02*
D03*
X151307Y88976D02*
D03*
Y92598D02*
D03*
X112992Y50551D02*
D03*
Y54173D02*
D03*
X105000Y53000D02*
D03*
Y56622D02*
D03*
X85000Y56811D02*
D03*
Y53189D02*
D03*
X81000Y56811D02*
D03*
Y53189D02*
D03*
X82000Y14189D02*
D03*
Y17811D02*
D03*
X175197Y-135000D02*
D03*
Y-138622D02*
D03*
X127165Y-117087D02*
D03*
Y-120709D02*
D03*
X123228Y-117087D02*
D03*
Y-120709D02*
D03*
X116929Y-117087D02*
D03*
Y-120709D02*
D03*
X112992Y-117087D02*
D03*
Y-120709D02*
D03*
X105905Y-117087D02*
D03*
Y-120709D02*
D03*
X101969Y-117087D02*
D03*
Y-120709D02*
D03*
X95669Y-117087D02*
D03*
Y-120709D02*
D03*
X60039Y-155945D02*
D03*
Y-152323D02*
D03*
X-209842Y97087D02*
D03*
Y93465D02*
D03*
X-233465Y28898D02*
D03*
Y32520D02*
D03*
X-161417Y-11654D02*
D03*
Y-8032D02*
D03*
X-200787Y-1142D02*
D03*
Y-4764D02*
D03*
X-185039Y-8032D02*
D03*
Y-11654D02*
D03*
X-95000Y-689D02*
D03*
Y-4311D02*
D03*
X91732Y-117087D02*
D03*
Y-120709D02*
D03*
X116142Y112047D02*
D03*
Y108425D02*
D03*
X112205Y112047D02*
D03*
Y108425D02*
D03*
X74213Y-160276D02*
D03*
Y-156653D02*
D03*
X-173228Y113622D02*
D03*
Y110000D02*
D03*
X-178150Y113622D02*
D03*
Y110000D02*
D03*
X-93504Y89567D02*
D03*
Y85945D02*
D03*
X-102362Y85473D02*
D03*
Y81850D02*
D03*
X-98425Y81535D02*
D03*
Y77913D02*
D03*
D18*
Y144587D02*
D03*
Y140847D02*
D03*
X-103347D02*
D03*
Y144587D02*
D03*
X-108268D02*
D03*
Y140847D02*
D03*
X-125984Y102854D02*
D03*
Y99114D02*
D03*
Y110728D02*
D03*
Y106988D02*
D03*
X-177165Y35531D02*
D03*
Y39272D02*
D03*
X-181496Y35531D02*
D03*
Y39272D02*
D03*
X32677Y138681D02*
D03*
Y134941D02*
D03*
X200472Y139370D02*
D03*
Y143110D02*
D03*
X195472Y139370D02*
D03*
Y143110D02*
D03*
X190472Y139370D02*
D03*
Y143110D02*
D03*
X245472Y139469D02*
D03*
Y143209D02*
D03*
X240472Y139469D02*
D03*
Y143209D02*
D03*
X250472Y103110D02*
D03*
Y99370D02*
D03*
X254331Y103051D02*
D03*
Y99311D02*
D03*
X245472Y103110D02*
D03*
Y99370D02*
D03*
X240472Y103110D02*
D03*
Y99370D02*
D03*
X200472Y103110D02*
D03*
Y99370D02*
D03*
X195472Y103110D02*
D03*
Y99370D02*
D03*
X190472Y103110D02*
D03*
Y99370D02*
D03*
X157480Y133760D02*
D03*
Y130020D02*
D03*
X162402Y120177D02*
D03*
Y123917D02*
D03*
X157480Y120177D02*
D03*
Y123917D02*
D03*
X143307Y75098D02*
D03*
Y71358D02*
D03*
X250472Y-103110D02*
D03*
Y-99370D02*
D03*
X245472Y-103110D02*
D03*
Y-99370D02*
D03*
X240472Y-103110D02*
D03*
Y-99370D02*
D03*
X200472Y-103110D02*
D03*
Y-99370D02*
D03*
X195472Y-103110D02*
D03*
Y-99370D02*
D03*
X190472Y-103110D02*
D03*
Y-99370D02*
D03*
X242913Y-142421D02*
D03*
Y-138681D02*
D03*
X237972Y-142480D02*
D03*
Y-138740D02*
D03*
X200472Y-138435D02*
D03*
Y-142175D02*
D03*
X195472Y-138484D02*
D03*
Y-142224D02*
D03*
X190472Y-138484D02*
D03*
Y-142224D02*
D03*
X170276Y-134941D02*
D03*
Y-138681D02*
D03*
Y-147539D02*
D03*
Y-143799D02*
D03*
X-63386Y20965D02*
D03*
Y24705D02*
D03*
X-53150Y5118D02*
D03*
Y8858D02*
D03*
X-29528Y65059D02*
D03*
Y68799D02*
D03*
X-95472Y151673D02*
D03*
Y155413D02*
D03*
X-111221Y151673D02*
D03*
Y155413D02*
D03*
X-209842Y88878D02*
D03*
Y85138D02*
D03*
X-116000Y-9130D02*
D03*
Y-12870D02*
D03*
X-146850Y3051D02*
D03*
Y-689D02*
D03*
X-232283Y-141831D02*
D03*
Y-145571D02*
D03*
X235827Y-31398D02*
D03*
Y-27657D02*
D03*
X-32480Y2165D02*
D03*
Y5906D02*
D03*
X-39370Y15945D02*
D03*
Y19685D02*
D03*
X-106299Y81890D02*
D03*
Y85630D02*
D03*
X-98425Y89468D02*
D03*
Y85728D02*
D03*
X32677Y146949D02*
D03*
Y143209D02*
D03*
X55000Y43130D02*
D03*
Y46870D02*
D03*
Y28130D02*
D03*
Y31870D02*
D03*
Y13130D02*
D03*
Y16870D02*
D03*
D19*
X-132874Y108071D02*
D03*
Y101772D02*
D03*
X-112205Y88779D02*
D03*
Y82480D02*
D03*
D20*
X-136811Y41850D02*
D03*
Y63661D02*
D03*
D21*
X-172638Y65059D02*
D03*
X-174213D02*
D03*
X-175787D02*
D03*
X-177362D02*
D03*
X-178937D02*
D03*
X-180512D02*
D03*
X-182087D02*
D03*
X-183661D02*
D03*
Y49114D02*
D03*
X-182087D02*
D03*
X-180512D02*
D03*
X-178937D02*
D03*
X-177362D02*
D03*
X-175787D02*
D03*
X-174213D02*
D03*
X-172638D02*
D03*
D22*
X-186122Y62598D02*
D03*
Y61024D02*
D03*
Y59449D02*
D03*
Y57874D02*
D03*
Y56299D02*
D03*
Y54724D02*
D03*
Y53150D02*
D03*
Y51575D02*
D03*
X-170177D02*
D03*
Y53150D02*
D03*
Y54724D02*
D03*
Y56299D02*
D03*
Y57874D02*
D03*
Y59449D02*
D03*
Y61024D02*
D03*
Y62598D02*
D03*
D23*
X-178150Y57087D02*
D03*
D24*
X-172047Y71260D02*
D03*
X-168307D02*
D03*
X-193012Y38189D02*
D03*
X-196752D02*
D03*
X131004Y47244D02*
D03*
X134744D02*
D03*
X133957Y127559D02*
D03*
X137697D02*
D03*
X176083Y97638D02*
D03*
X179823D02*
D03*
X151476Y76378D02*
D03*
X147736D02*
D03*
X138610Y75827D02*
D03*
X134870D02*
D03*
X243209Y-88583D02*
D03*
X239469D02*
D03*
X156398Y-104331D02*
D03*
X152657D02*
D03*
X156398Y-108268D02*
D03*
X152657D02*
D03*
X51279Y-143110D02*
D03*
X47539D02*
D03*
X-75689Y151575D02*
D03*
X-71949D02*
D03*
X-131004D02*
D03*
X-134744D02*
D03*
X-175098Y-21654D02*
D03*
X-171358D02*
D03*
X-140130Y10000D02*
D03*
X-143870D02*
D03*
X-139130Y3000D02*
D03*
X-142870D02*
D03*
X-165453Y-118898D02*
D03*
X-169193D02*
D03*
X-165453Y-123228D02*
D03*
X-169193D02*
D03*
Y-127559D02*
D03*
X-165453D02*
D03*
X187106Y-164370D02*
D03*
X190847D02*
D03*
X193012Y-159449D02*
D03*
X196752D02*
D03*
X-191929Y70866D02*
D03*
X-195669D02*
D03*
X-200886Y61024D02*
D03*
X-204626D02*
D03*
X-191831Y83858D02*
D03*
X-195571D02*
D03*
X-200886Y51181D02*
D03*
X-204626D02*
D03*
X-200886Y46850D02*
D03*
X-204626D02*
D03*
X-171358Y103937D02*
D03*
X-175098D02*
D03*
X-180118D02*
D03*
X-183858D02*
D03*
X-118316Y91748D02*
D03*
X-122057D02*
D03*
X-75689Y72835D02*
D03*
X-71949D02*
D03*
X-34350Y-115157D02*
D03*
X-30610D02*
D03*
X128839Y-11811D02*
D03*
X125098D02*
D03*
X-34350Y-100394D02*
D03*
X-30610D02*
D03*
X41240Y121850D02*
D03*
X37500D02*
D03*
X73917D02*
D03*
X77658D02*
D03*
X83760Y122047D02*
D03*
X87500D02*
D03*
D25*
X-216496Y49563D02*
D03*
Y38626D02*
D03*
X-220512Y49563D02*
D03*
Y38626D02*
D03*
D26*
X96586Y-43602D02*
D03*
Y-45571D02*
D03*
Y-47539D02*
D03*
Y-49508D02*
D03*
Y-51476D02*
D03*
Y-53445D02*
D03*
X112334D02*
D03*
Y-51476D02*
D03*
Y-49508D02*
D03*
Y-47539D02*
D03*
Y-45571D02*
D03*
Y-43602D02*
D03*
D27*
X99539Y-56398D02*
D03*
X101507D02*
D03*
X103476D02*
D03*
X105444D02*
D03*
X107413D02*
D03*
X109381D02*
D03*
Y-40650D02*
D03*
X107413D02*
D03*
X105444D02*
D03*
X103476D02*
D03*
X101507D02*
D03*
X99539D02*
D03*
D28*
X150887Y18997D02*
D03*
X148326Y16436D02*
D03*
X150100Y10336D02*
D03*
X147538Y7774D02*
D03*
X84000Y36000D02*
D03*
X81439Y33439D02*
D03*
D29*
X37598Y76575D02*
D03*
Y74016D02*
D03*
Y71457D02*
D03*
Y68898D02*
D03*
Y66339D02*
D03*
Y63779D02*
D03*
Y61221D02*
D03*
X60827Y76575D02*
D03*
Y74016D02*
D03*
Y71457D02*
D03*
Y68898D02*
D03*
Y66339D02*
D03*
Y63779D02*
D03*
Y61221D02*
D03*
X37598Y101181D02*
D03*
Y98622D02*
D03*
Y96063D02*
D03*
Y93504D02*
D03*
Y90945D02*
D03*
Y88386D02*
D03*
Y85827D02*
D03*
X60827Y101181D02*
D03*
Y98622D02*
D03*
Y96063D02*
D03*
Y93504D02*
D03*
Y90945D02*
D03*
Y88386D02*
D03*
Y85827D02*
D03*
D30*
X47638Y158465D02*
D03*
X36614D02*
D03*
X229921Y26575D02*
D03*
X218898D02*
D03*
X-195472Y127953D02*
D03*
X-184449D02*
D03*
X-195472Y118110D02*
D03*
X-184449D02*
D03*
X-195472Y137795D02*
D03*
X-184449D02*
D03*
X-195472Y147638D02*
D03*
X-184449D02*
D03*
D31*
X55118Y153937D02*
D03*
Y147244D02*
D03*
X76000Y25346D02*
D03*
Y18654D02*
D03*
X-151575Y-23819D02*
D03*
Y-30512D02*
D03*
X-232283Y-152165D02*
D03*
Y-158858D02*
D03*
X183858Y91535D02*
D03*
Y84842D02*
D03*
D32*
X118110Y127953D02*
D03*
X-103347Y111811D02*
D03*
D33*
X108366Y121063D02*
D03*
Y123031D02*
D03*
Y125000D02*
D03*
Y126969D02*
D03*
Y128937D02*
D03*
Y130905D02*
D03*
Y132874D02*
D03*
Y134843D02*
D03*
X127854D02*
D03*
Y132874D02*
D03*
Y130905D02*
D03*
Y128937D02*
D03*
Y126969D02*
D03*
Y125000D02*
D03*
Y123031D02*
D03*
Y121063D02*
D03*
X-93602Y104921D02*
D03*
Y106890D02*
D03*
Y108858D02*
D03*
Y110827D02*
D03*
Y112795D02*
D03*
Y114764D02*
D03*
Y116732D02*
D03*
Y118701D02*
D03*
X-113091D02*
D03*
Y116732D02*
D03*
Y114764D02*
D03*
Y112795D02*
D03*
Y110827D02*
D03*
Y108858D02*
D03*
Y106890D02*
D03*
Y104921D02*
D03*
D34*
X111221Y137697D02*
D03*
X113189D02*
D03*
X115157D02*
D03*
X117126D02*
D03*
X119095D02*
D03*
X121063D02*
D03*
X123031D02*
D03*
X125000D02*
D03*
X123031Y118209D02*
D03*
X121063D02*
D03*
X119095D02*
D03*
X117126D02*
D03*
X115157D02*
D03*
X113189D02*
D03*
X111221D02*
D03*
X-110236Y102067D02*
D03*
X-108268D02*
D03*
X-106299D02*
D03*
X-104331D02*
D03*
X-102362D02*
D03*
X-100394D02*
D03*
X-98425D02*
D03*
X-96457Y121555D02*
D03*
X-98425D02*
D03*
X-100394D02*
D03*
X-102362D02*
D03*
X-104331D02*
D03*
X-106299D02*
D03*
X-108268D02*
D03*
X-110236D02*
D03*
D35*
X125000Y118209D02*
D03*
X-96457Y102067D02*
D03*
D36*
X262795Y81299D02*
D03*
Y70276D02*
D03*
X168827Y80354D02*
D03*
Y91378D02*
D03*
X158984D02*
D03*
Y80354D02*
D03*
X125520D02*
D03*
Y91378D02*
D03*
X196063Y-27165D02*
D03*
Y-38189D02*
D03*
X205512Y-27165D02*
D03*
Y-38189D02*
D03*
X67126Y-161614D02*
D03*
Y-150591D02*
D03*
X-152559Y126181D02*
D03*
Y115157D02*
D03*
X-161614Y136221D02*
D03*
Y125197D02*
D03*
X-170669Y136221D02*
D03*
Y125197D02*
D03*
X-183071Y23228D02*
D03*
Y12205D02*
D03*
X-191929Y23228D02*
D03*
Y12205D02*
D03*
X-200787Y23228D02*
D03*
Y12205D02*
D03*
X-192913Y0D02*
D03*
Y-11024D02*
D03*
X265748Y-98819D02*
D03*
Y-109843D02*
D03*
X-100000Y9488D02*
D03*
Y20512D02*
D03*
X-90000Y9488D02*
D03*
Y20512D02*
D03*
X-110000Y9488D02*
D03*
Y20512D02*
D03*
X-45079Y136221D02*
D03*
Y125197D02*
D03*
X-36024Y136221D02*
D03*
Y125197D02*
D03*
X-54134Y125984D02*
D03*
Y114961D02*
D03*
X115677Y80354D02*
D03*
Y91378D02*
D03*
X-45079Y98425D02*
D03*
Y87402D02*
D03*
X-36024Y98425D02*
D03*
Y87402D02*
D03*
X-54134Y108661D02*
D03*
Y97638D02*
D03*
X-88583Y43701D02*
D03*
Y54724D02*
D03*
X-78740Y43701D02*
D03*
Y54724D02*
D03*
X-68898Y43701D02*
D03*
Y54724D02*
D03*
D37*
X220472Y78740D02*
D03*
Y-78740D02*
D03*
D38*
X217967Y65377D02*
D03*
X216157Y67187D02*
D03*
X214348Y68997D02*
D03*
X212538Y70806D02*
D03*
X210729Y72616D02*
D03*
X208919Y74425D02*
D03*
X207110Y76235D02*
D03*
X222978Y92103D02*
D03*
X224787Y90293D02*
D03*
X226597Y88484D02*
D03*
X228407Y86674D02*
D03*
X230216Y84865D02*
D03*
X232026Y83055D02*
D03*
X233835Y81246D02*
D03*
X207110Y-81246D02*
D03*
X208919Y-83055D02*
D03*
X210729Y-84865D02*
D03*
X212538Y-86674D02*
D03*
X214348Y-88484D02*
D03*
X216157Y-90293D02*
D03*
X217967Y-92103D02*
D03*
X233835Y-76235D02*
D03*
X232026Y-74425D02*
D03*
X230216Y-72616D02*
D03*
X228407Y-70806D02*
D03*
X226597Y-68997D02*
D03*
X224787Y-67187D02*
D03*
X222978Y-65377D02*
D03*
D39*
X207110Y81246D02*
D03*
X208919Y83055D02*
D03*
X210729Y84865D02*
D03*
X212538Y86674D02*
D03*
X214348Y88484D02*
D03*
X216157Y90293D02*
D03*
X217967Y92103D02*
D03*
X233835Y76235D02*
D03*
X232026Y74425D02*
D03*
X230216Y72616D02*
D03*
X228407Y70806D02*
D03*
X226597Y68997D02*
D03*
X224787Y67187D02*
D03*
X222978Y65377D02*
D03*
X217967Y-65377D02*
D03*
X216157Y-67187D02*
D03*
X214348Y-68997D02*
D03*
X212538Y-70806D02*
D03*
X210729Y-72616D02*
D03*
X208919Y-74425D02*
D03*
X207110Y-76235D02*
D03*
X222978Y-92103D02*
D03*
X224787Y-90293D02*
D03*
X226597Y-88484D02*
D03*
X228407Y-86674D02*
D03*
X230216Y-84865D02*
D03*
X232026Y-83055D02*
D03*
X233835Y-81246D02*
D03*
D40*
X255472Y129240D02*
D03*
Y113240D02*
D03*
X250472Y129240D02*
D03*
Y113240D02*
D03*
X245472Y129240D02*
D03*
Y113240D02*
D03*
X240472Y129240D02*
D03*
Y113240D02*
D03*
X235472Y129240D02*
D03*
Y113240D02*
D03*
X205472Y129240D02*
D03*
Y113240D02*
D03*
X200472Y129240D02*
D03*
Y113240D02*
D03*
X195472Y129240D02*
D03*
Y113240D02*
D03*
X190472Y129240D02*
D03*
Y113240D02*
D03*
X185472Y129240D02*
D03*
Y113240D02*
D03*
X235472Y-129240D02*
D03*
Y-113240D02*
D03*
X240472Y-129240D02*
D03*
Y-113240D02*
D03*
X245472Y-129240D02*
D03*
Y-113240D02*
D03*
X250472Y-129240D02*
D03*
Y-113240D02*
D03*
X255472Y-129240D02*
D03*
Y-113240D02*
D03*
X185472Y-129240D02*
D03*
Y-113240D02*
D03*
X190472Y-129240D02*
D03*
Y-113240D02*
D03*
X195472Y-129240D02*
D03*
Y-113240D02*
D03*
X200472Y-129240D02*
D03*
Y-113240D02*
D03*
X205472Y-129240D02*
D03*
Y-113240D02*
D03*
D41*
X158465Y138583D02*
D03*
X165157D02*
D03*
X56299Y-162402D02*
D03*
X49606D02*
D03*
X-203346Y130512D02*
D03*
X-210039D02*
D03*
X-203346Y123622D02*
D03*
X-210039D02*
D03*
X-203346Y116732D02*
D03*
X-210039D02*
D03*
X-203346Y109843D02*
D03*
X-210039D02*
D03*
X-180512Y0D02*
D03*
X-173819D02*
D03*
X201378Y-19685D02*
D03*
X208071D02*
D03*
X-97047Y57087D02*
D03*
X-103740D02*
D03*
X-97047Y49213D02*
D03*
X-103740D02*
D03*
X-97047Y41339D02*
D03*
X-103740D02*
D03*
D42*
X142913Y134646D02*
D03*
X152362Y138386D02*
D03*
Y130905D02*
D03*
X40276Y45000D02*
D03*
X49724Y48740D02*
D03*
Y41260D02*
D03*
X40276Y30000D02*
D03*
X49724Y33740D02*
D03*
Y26260D02*
D03*
X40276Y15000D02*
D03*
X49724Y18740D02*
D03*
Y11260D02*
D03*
X181890Y-158465D02*
D03*
X172441Y-162205D02*
D03*
Y-154724D02*
D03*
X54823Y-155905D02*
D03*
Y-152165D02*
D03*
Y-148425D02*
D03*
X43996D02*
D03*
Y-155905D02*
D03*
X-54080Y18701D02*
D03*
X-44631Y22441D02*
D03*
Y14961D02*
D03*
X-47047Y3937D02*
D03*
X-37598Y7677D02*
D03*
Y197D02*
D03*
X-178642Y-8071D02*
D03*
Y-11811D02*
D03*
Y-15551D02*
D03*
X-167815D02*
D03*
Y-8071D02*
D03*
X-130724Y-9000D02*
D03*
X-121276Y-5260D02*
D03*
Y-12740D02*
D03*
X-109724Y-10000D02*
D03*
X-100276Y-6260D02*
D03*
Y-13740D02*
D03*
X-112724Y-28000D02*
D03*
X-103276Y-24260D02*
D03*
Y-31740D02*
D03*
X-127165Y-38583D02*
D03*
X-136614Y-42323D02*
D03*
Y-34843D02*
D03*
X-130724Y-24000D02*
D03*
X-121276Y-20260D02*
D03*
Y-27740D02*
D03*
X134870Y89606D02*
D03*
Y85866D02*
D03*
Y82126D02*
D03*
X145697D02*
D03*
Y85866D02*
D03*
Y89606D02*
D03*
D43*
X143110Y120866D02*
D03*
X152165Y124606D02*
D03*
Y117126D02*
D03*
D44*
X123281Y52719D02*
D03*
X120719Y55281D02*
D03*
X83719Y9281D02*
D03*
X86281Y6719D02*
D03*
X212000Y62000D02*
D03*
X214561Y59439D02*
D03*
X227719Y-61719D02*
D03*
X230281Y-64281D02*
D03*
D45*
X139498Y13597D02*
D03*
X140890Y14989D02*
D03*
X136714Y10813D02*
D03*
X138106Y12205D02*
D03*
X131147Y5245D02*
D03*
X132538Y6637D02*
D03*
X129755Y3853D02*
D03*
X135322Y9421D02*
D03*
X133930Y8029D02*
D03*
X126971Y1070D02*
D03*
X128363Y2461D02*
D03*
X121403Y-4498D02*
D03*
X122795Y-3106D02*
D03*
X120011Y-5890D02*
D03*
X125579Y-322D02*
D03*
X124187Y-1714D02*
D03*
X109989Y45890D02*
D03*
X108597Y44498D02*
D03*
X107205Y43106D02*
D03*
X105813Y41714D02*
D03*
X100245Y36147D02*
D03*
X101637Y37538D02*
D03*
X98853Y34755D02*
D03*
X104421Y40322D02*
D03*
X103029Y38930D02*
D03*
X97461Y33363D02*
D03*
X96070Y31971D02*
D03*
X90502Y26403D02*
D03*
X91894Y27795D02*
D03*
X89110Y25011D02*
D03*
X94678Y30579D02*
D03*
X93286Y29187D02*
D03*
D46*
X140890Y25011D02*
D03*
X139498Y26403D02*
D03*
X136714Y29187D02*
D03*
X135322Y30579D02*
D03*
X138106Y27795D02*
D03*
X132538Y33363D02*
D03*
X133930Y31971D02*
D03*
X131147Y34755D02*
D03*
X129755Y36147D02*
D03*
X128363Y37538D02*
D03*
X101637Y2461D02*
D03*
X100245Y3853D02*
D03*
X103029Y1070D02*
D03*
X97461Y6637D02*
D03*
X98853Y5245D02*
D03*
X108597Y-4498D02*
D03*
X107205Y-3106D02*
D03*
X109989Y-5890D02*
D03*
X104421Y-322D02*
D03*
X105813Y-1714D02*
D03*
X125579Y40322D02*
D03*
X124187Y41714D02*
D03*
X126971Y38930D02*
D03*
X120011Y45890D02*
D03*
X122795Y43106D02*
D03*
X121403Y44498D02*
D03*
X94678Y9421D02*
D03*
X90502Y13597D02*
D03*
X96070Y8029D02*
D03*
X91894Y12205D02*
D03*
X89110Y14989D02*
D03*
X93286Y10813D02*
D03*
D47*
X244390Y7500D02*
D03*
Y2500D02*
D03*
Y-2500D02*
D03*
Y-7500D02*
D03*
D48*
X267421Y7500D02*
D03*
Y-2500D02*
D03*
Y-7500D02*
D03*
D49*
Y2500D02*
D03*
D50*
X257165Y5000D02*
D03*
Y-5000D02*
D03*
D51*
X227953Y-23622D02*
D03*
X216929D02*
D03*
X134772Y104567D02*
D03*
X145795D02*
D03*
D52*
X91732Y-134646D02*
D03*
X99213D02*
D03*
X95472Y-125197D02*
D03*
X45866Y146161D02*
D03*
X42126D02*
D03*
X38386D02*
D03*
Y135335D02*
D03*
X45866D02*
D03*
D53*
X-77559Y-82284D02*
D03*
Y-79134D02*
D03*
Y-72835D02*
D03*
Y-69685D02*
D03*
X-60236Y-91732D02*
D03*
Y-88583D02*
D03*
Y-82284D02*
D03*
Y-79134D02*
D03*
Y-72835D02*
D03*
Y-69685D02*
D03*
Y-12992D02*
D03*
Y-9843D02*
D03*
Y-16142D02*
D03*
Y-3543D02*
D03*
D03*
Y-6693D02*
D03*
Y-41339D02*
D03*
Y-38189D02*
D03*
Y-47638D02*
D03*
Y-19291D02*
D03*
Y-22441D02*
D03*
Y-35039D02*
D03*
Y-31890D02*
D03*
Y-44488D02*
D03*
Y-25591D02*
D03*
Y-28740D02*
D03*
Y-63386D02*
D03*
Y-60236D02*
D03*
Y-66535D02*
D03*
Y-53937D02*
D03*
Y-50787D02*
D03*
Y-57087D02*
D03*
Y-75984D02*
D03*
Y-85433D02*
D03*
Y-94882D02*
D03*
X-77559Y-3543D02*
D03*
Y-6693D02*
D03*
Y-12992D02*
D03*
Y-9843D02*
D03*
Y-16142D02*
D03*
Y-41339D02*
D03*
Y-38189D02*
D03*
Y-44488D02*
D03*
Y-19291D02*
D03*
Y-22441D02*
D03*
Y-25591D02*
D03*
Y-28740D02*
D03*
Y-31890D02*
D03*
Y-35039D02*
D03*
Y-50787D02*
D03*
Y-47638D02*
D03*
Y-57087D02*
D03*
Y-53937D02*
D03*
Y-60236D02*
D03*
Y-63386D02*
D03*
Y-66535D02*
D03*
Y-85433D02*
D03*
Y-88583D02*
D03*
Y-75984D02*
D03*
Y-91732D02*
D03*
Y-94882D02*
D03*
D54*
X-49213Y59842D02*
D03*
Y38583D02*
D03*
D55*
X-221555Y143701D02*
D03*
X-205610D02*
D03*
D56*
X-224410Y22933D02*
D03*
D57*
X-228248Y18642D02*
D03*
X-225689D02*
D03*
X-223130D02*
D03*
X-220571D02*
D03*
X-228248Y30571D02*
D03*
X-225689D02*
D03*
X-223130D02*
D03*
X-220571D02*
D03*
D58*
X-125374Y6000D02*
D03*
X-134626Y2260D02*
D03*
Y9740D02*
D03*
X-136374Y-13150D02*
D03*
X-145626Y-16890D02*
D03*
Y-9410D02*
D03*
D59*
X-222342Y-142717D02*
D03*
X-191043D02*
D03*
X-222342Y-160433D02*
D03*
X-191043D02*
D03*
X-173130Y-142717D02*
D03*
X-141831D02*
D03*
X-173130Y-160433D02*
D03*
X-141831D02*
D03*
X-123917Y-142717D02*
D03*
X-92618D02*
D03*
X-123917Y-160433D02*
D03*
X-92618D02*
D03*
X-74705Y-142717D02*
D03*
X-43406D02*
D03*
X-74705Y-160433D02*
D03*
X-43406D02*
D03*
D60*
X99331Y58150D02*
D03*
Y51850D02*
D03*
X90669Y58150D02*
D03*
Y51850D02*
D03*
D61*
X222441Y-1969D02*
D03*
D62*
X214665Y-6890D02*
D03*
Y-4921D02*
D03*
Y-2953D02*
D03*
Y-984D02*
D03*
Y984D02*
D03*
Y2953D02*
D03*
X230217D02*
D03*
Y984D02*
D03*
Y-984D02*
D03*
Y-2953D02*
D03*
Y-4921D02*
D03*
Y-6890D02*
D03*
D63*
X217520Y5807D02*
D03*
X219488D02*
D03*
X221457D02*
D03*
X223425D02*
D03*
X225394D02*
D03*
X227362D02*
D03*
Y-9744D02*
D03*
X225394D02*
D03*
X223425D02*
D03*
X221457D02*
D03*
X219488D02*
D03*
X217520D02*
D03*
D64*
X-172091Y99252D02*
D03*
Y95236D02*
D03*
X-183028Y99252D02*
D03*
Y95236D02*
D03*
D65*
X-66043Y135039D02*
D03*
X-82382D02*
D03*
X-66043Y88583D02*
D03*
X-82382D02*
D03*
X-140650Y135039D02*
D03*
X-124311D02*
D03*
D127*
X17500Y-7500D02*
D03*
Y-2500D02*
D03*
Y22500D02*
D03*
Y27500D02*
D03*
X-17500Y-47500D02*
D03*
Y-42500D02*
D03*
X17500Y-52500D02*
D03*
Y-47500D02*
D03*
Y-67500D02*
D03*
Y-62500D02*
D03*
Y117500D02*
D03*
Y122500D02*
D03*
Y102500D02*
D03*
Y112500D02*
D03*
Y107500D02*
D03*
X12500Y122500D02*
D03*
Y107500D02*
D03*
X17500Y77500D02*
D03*
Y82500D02*
D03*
Y67500D02*
D03*
Y72500D02*
D03*
Y92500D02*
D03*
Y97500D02*
D03*
Y87500D02*
D03*
X12500Y112500D02*
D03*
Y117500D02*
D03*
Y97500D02*
D03*
Y102500D02*
D03*
X7500Y97500D02*
D03*
X12500Y72500D02*
D03*
Y77500D02*
D03*
Y67500D02*
D03*
Y87500D02*
D03*
Y92500D02*
D03*
Y82500D02*
D03*
X17500Y42500D02*
D03*
Y47500D02*
D03*
Y32500D02*
D03*
Y37500D02*
D03*
Y57500D02*
D03*
Y62500D02*
D03*
Y52500D02*
D03*
Y7500D02*
D03*
Y12500D02*
D03*
Y2500D02*
D03*
Y17500D02*
D03*
X12500Y42500D02*
D03*
Y47500D02*
D03*
Y32500D02*
D03*
Y37500D02*
D03*
Y57500D02*
D03*
Y62500D02*
D03*
Y52500D02*
D03*
Y12500D02*
D03*
Y17500D02*
D03*
Y7500D02*
D03*
Y27500D02*
D03*
X7500D02*
D03*
X12500Y22500D02*
D03*
X7500Y117500D02*
D03*
Y122500D02*
D03*
Y102500D02*
D03*
Y112500D02*
D03*
Y107500D02*
D03*
Y72500D02*
D03*
Y77500D02*
D03*
Y67500D02*
D03*
Y87500D02*
D03*
Y92500D02*
D03*
Y82500D02*
D03*
X2500Y112500D02*
D03*
Y117500D02*
D03*
Y102500D02*
D03*
Y107500D02*
D03*
Y122500D02*
D03*
Y77500D02*
D03*
Y82500D02*
D03*
Y72500D02*
D03*
Y92500D02*
D03*
Y97500D02*
D03*
Y87500D02*
D03*
X7500Y42500D02*
D03*
Y47500D02*
D03*
Y32500D02*
D03*
Y37500D02*
D03*
Y57500D02*
D03*
Y62500D02*
D03*
Y52500D02*
D03*
Y17500D02*
D03*
Y22500D02*
D03*
Y12500D02*
D03*
Y2500D02*
D03*
Y7500D02*
D03*
X2500Y2500D02*
D03*
Y47500D02*
D03*
Y52500D02*
D03*
Y37500D02*
D03*
Y42500D02*
D03*
Y62500D02*
D03*
Y67500D02*
D03*
Y57500D02*
D03*
Y12500D02*
D03*
Y17500D02*
D03*
Y7500D02*
D03*
Y27500D02*
D03*
Y32500D02*
D03*
Y22500D02*
D03*
X17500Y-22500D02*
D03*
Y-17500D02*
D03*
Y-32500D02*
D03*
Y-27500D02*
D03*
Y-12500D02*
D03*
Y-57500D02*
D03*
Y-42500D02*
D03*
Y-37500D02*
D03*
X12500Y-17500D02*
D03*
Y-12500D02*
D03*
Y-27500D02*
D03*
Y-22500D02*
D03*
Y-2500D02*
D03*
Y2500D02*
D03*
Y-7500D02*
D03*
Y-52500D02*
D03*
Y-47500D02*
D03*
Y-57500D02*
D03*
Y-37500D02*
D03*
Y-32500D02*
D03*
Y-42500D02*
D03*
X17500Y-82500D02*
D03*
Y-77500D02*
D03*
Y-92500D02*
D03*
Y-87500D02*
D03*
Y-72500D02*
D03*
Y-117500D02*
D03*
Y-112500D02*
D03*
Y-122500D02*
D03*
Y-102500D02*
D03*
Y-97500D02*
D03*
Y-107500D02*
D03*
X12500Y-82500D02*
D03*
Y-77500D02*
D03*
Y-92500D02*
D03*
Y-87500D02*
D03*
Y-67500D02*
D03*
Y-62500D02*
D03*
Y-72500D02*
D03*
Y-122500D02*
D03*
Y-117500D02*
D03*
Y-102500D02*
D03*
Y-97500D02*
D03*
Y-112500D02*
D03*
X7500Y-22500D02*
D03*
Y-17500D02*
D03*
Y-32500D02*
D03*
Y-27500D02*
D03*
Y-7500D02*
D03*
Y-2500D02*
D03*
Y-12500D02*
D03*
Y-57500D02*
D03*
Y-52500D02*
D03*
Y-62500D02*
D03*
Y-42500D02*
D03*
Y-37500D02*
D03*
Y-47500D02*
D03*
X2500Y-17500D02*
D03*
Y-12500D02*
D03*
Y-27500D02*
D03*
Y-22500D02*
D03*
Y-2500D02*
D03*
Y-7500D02*
D03*
Y-52500D02*
D03*
Y-47500D02*
D03*
Y-57500D02*
D03*
Y-37500D02*
D03*
Y-32500D02*
D03*
Y-42500D02*
D03*
X7500Y-87500D02*
D03*
Y-82500D02*
D03*
Y-97500D02*
D03*
Y-92500D02*
D03*
Y-72500D02*
D03*
Y-67500D02*
D03*
Y-77500D02*
D03*
Y-107500D02*
D03*
Y-102500D02*
D03*
X12500Y-107500D02*
D03*
X7500Y-117500D02*
D03*
Y-112500D02*
D03*
Y-122500D02*
D03*
X2500Y-82500D02*
D03*
Y-77500D02*
D03*
Y-92500D02*
D03*
Y-87500D02*
D03*
Y-67500D02*
D03*
Y-62500D02*
D03*
Y-72500D02*
D03*
Y-117500D02*
D03*
Y-112500D02*
D03*
Y-122500D02*
D03*
Y-102500D02*
D03*
Y-97500D02*
D03*
Y-107500D02*
D03*
X-2500Y112500D02*
D03*
Y122500D02*
D03*
Y117500D02*
D03*
Y107500D02*
D03*
Y82500D02*
D03*
Y87500D02*
D03*
Y72500D02*
D03*
Y77500D02*
D03*
Y97500D02*
D03*
Y102500D02*
D03*
Y92500D02*
D03*
X-7500Y117500D02*
D03*
Y122500D02*
D03*
Y107500D02*
D03*
Y112500D02*
D03*
Y102500D02*
D03*
Y77500D02*
D03*
Y82500D02*
D03*
Y72500D02*
D03*
Y92500D02*
D03*
Y97500D02*
D03*
Y87500D02*
D03*
X-2500Y47500D02*
D03*
Y52500D02*
D03*
Y37500D02*
D03*
Y42500D02*
D03*
Y62500D02*
D03*
Y67500D02*
D03*
Y57500D02*
D03*
Y12500D02*
D03*
Y17500D02*
D03*
Y7500D02*
D03*
Y27500D02*
D03*
Y32500D02*
D03*
Y22500D02*
D03*
X-7500Y47500D02*
D03*
Y52500D02*
D03*
Y37500D02*
D03*
Y42500D02*
D03*
Y62500D02*
D03*
Y67500D02*
D03*
Y57500D02*
D03*
Y12500D02*
D03*
Y17500D02*
D03*
X-2500Y2500D02*
D03*
X-7500Y27500D02*
D03*
Y32500D02*
D03*
Y22500D02*
D03*
X-12500Y102500D02*
D03*
Y107500D02*
D03*
Y92500D02*
D03*
Y97500D02*
D03*
Y117500D02*
D03*
Y122500D02*
D03*
Y112500D02*
D03*
Y67500D02*
D03*
Y72500D02*
D03*
Y62500D02*
D03*
Y82500D02*
D03*
Y87500D02*
D03*
Y77500D02*
D03*
X-17500Y102500D02*
D03*
Y107500D02*
D03*
Y92500D02*
D03*
Y97500D02*
D03*
Y117500D02*
D03*
Y122500D02*
D03*
Y112500D02*
D03*
Y67500D02*
D03*
Y72500D02*
D03*
Y62500D02*
D03*
Y82500D02*
D03*
Y87500D02*
D03*
Y77500D02*
D03*
X-12500Y37500D02*
D03*
Y42500D02*
D03*
Y27500D02*
D03*
Y32500D02*
D03*
Y52500D02*
D03*
Y57500D02*
D03*
Y47500D02*
D03*
X-7500Y7500D02*
D03*
X-12500Y12500D02*
D03*
X-7500Y2500D02*
D03*
X-12500Y7500D02*
D03*
Y22500D02*
D03*
Y2500D02*
D03*
X-17500Y37500D02*
D03*
Y42500D02*
D03*
Y27500D02*
D03*
Y32500D02*
D03*
Y52500D02*
D03*
Y57500D02*
D03*
Y47500D02*
D03*
Y17500D02*
D03*
Y22500D02*
D03*
X-12500Y17500D02*
D03*
X-17500Y7500D02*
D03*
Y12500D02*
D03*
Y2500D02*
D03*
X-2500Y-22500D02*
D03*
Y-17500D02*
D03*
Y-32500D02*
D03*
Y-27500D02*
D03*
Y-7500D02*
D03*
Y-2500D02*
D03*
Y-12500D02*
D03*
Y-57500D02*
D03*
Y-52500D02*
D03*
Y-62500D02*
D03*
Y-42500D02*
D03*
Y-37500D02*
D03*
Y-47500D02*
D03*
X-7500Y-22500D02*
D03*
Y-17500D02*
D03*
Y-32500D02*
D03*
Y-27500D02*
D03*
Y-7500D02*
D03*
Y-2500D02*
D03*
Y-12500D02*
D03*
Y-57500D02*
D03*
Y-52500D02*
D03*
Y-62500D02*
D03*
Y-42500D02*
D03*
Y-37500D02*
D03*
Y-47500D02*
D03*
X-2500Y-87500D02*
D03*
Y-82500D02*
D03*
Y-97500D02*
D03*
Y-92500D02*
D03*
Y-67500D02*
D03*
Y-77500D02*
D03*
Y-107500D02*
D03*
Y-102500D02*
D03*
Y-112500D02*
D03*
Y-122500D02*
D03*
Y-117500D02*
D03*
X-7500Y-122500D02*
D03*
Y-87500D02*
D03*
Y-82500D02*
D03*
Y-97500D02*
D03*
Y-92500D02*
D03*
Y-72500D02*
D03*
Y-67500D02*
D03*
Y-77500D02*
D03*
Y-117500D02*
D03*
Y-107500D02*
D03*
Y-102500D02*
D03*
Y-112500D02*
D03*
X-12500Y-22500D02*
D03*
Y-17500D02*
D03*
Y-32500D02*
D03*
Y-27500D02*
D03*
Y-7500D02*
D03*
Y-2500D02*
D03*
Y-12500D02*
D03*
Y-42500D02*
D03*
Y-37500D02*
D03*
Y-47500D02*
D03*
Y-52500D02*
D03*
X-17500D02*
D03*
X-12500Y-57500D02*
D03*
X-17500Y-22500D02*
D03*
Y-17500D02*
D03*
Y-32500D02*
D03*
Y-27500D02*
D03*
Y-7500D02*
D03*
Y-2500D02*
D03*
Y-12500D02*
D03*
Y-37500D02*
D03*
Y-57500D02*
D03*
X-12500Y-82500D02*
D03*
Y-77500D02*
D03*
Y-92500D02*
D03*
Y-87500D02*
D03*
Y-67500D02*
D03*
Y-62500D02*
D03*
Y-72500D02*
D03*
Y-117500D02*
D03*
Y-112500D02*
D03*
Y-122500D02*
D03*
Y-102500D02*
D03*
Y-97500D02*
D03*
Y-107500D02*
D03*
X-17500Y-82500D02*
D03*
Y-77500D02*
D03*
Y-92500D02*
D03*
Y-87500D02*
D03*
Y-72500D02*
D03*
Y-117500D02*
D03*
Y-112500D02*
D03*
Y-122500D02*
D03*
Y-102500D02*
D03*
Y-97500D02*
D03*
Y-107500D02*
D03*
X-2500Y-72500D02*
D03*
X-17500Y-62500D02*
D03*
Y-67500D02*
D03*
M02*
