G04 Layer_Color=128*
%FSLAX25Y25*%
%MOIN*%
G70*
G01*
G75*
%ADD10R,0.08268X0.11811*%
%ADD11R,0.03150X0.06299*%
%ADD16R,0.02520X0.02520*%
%ADD17R,0.02520X0.02520*%
%ADD18R,0.02362X0.02165*%
%ADD24R,0.02165X0.02362*%
%ADD29O,0.05512X0.01772*%
%ADD42R,0.03937X0.02362*%
%ADD52R,0.02362X0.03937*%
%ADD104R,0.07874X0.07874*%
%ADD105R,0.07087X0.07480*%
%ADD106R,0.01575X0.05315*%
%ADD107R,0.04724X0.03937*%
%ADD108R,0.07480X0.05315*%
%ADD109R,0.06102X0.05315*%
%ADD110R,0.04606X0.07087*%
%ADD111R,0.02953X0.04331*%
%ADD112R,0.03347X0.04331*%
%ADD113R,0.02165X0.01181*%
%ADD114R,0.02165X0.01575*%
%ADD115R,0.02362X0.03740*%
%ADD116R,0.16535X0.02362*%
%ADD117R,0.07874X0.02362*%
%ADD118O,0.01772X0.05512*%
%ADD119R,0.01181X0.02165*%
%ADD120R,0.01575X0.02165*%
%ADD121R,0.00906X0.03937*%
D10*
X176476Y-160433D02*
D03*
X211319D02*
D03*
D11*
X201279Y-149016D02*
D03*
X196358D02*
D03*
X191437D02*
D03*
X186516D02*
D03*
D16*
X-188819Y-12000D02*
D03*
X-185197D02*
D03*
X-188811Y-16000D02*
D03*
X-185189D02*
D03*
X104189Y123000D02*
D03*
X107811D02*
D03*
X63976Y66929D02*
D03*
X67598D02*
D03*
X124843Y0D02*
D03*
X121221D02*
D03*
D17*
X112205Y74646D02*
D03*
Y71024D02*
D03*
X127165Y-98583D02*
D03*
Y-102205D02*
D03*
X123228Y-98583D02*
D03*
Y-102205D02*
D03*
X116929Y-98583D02*
D03*
Y-102205D02*
D03*
X112992Y-98583D02*
D03*
Y-102205D02*
D03*
X105905Y-98583D02*
D03*
Y-102205D02*
D03*
X101969Y-98583D02*
D03*
Y-102205D02*
D03*
X95669Y-98583D02*
D03*
Y-102205D02*
D03*
X91732Y-98583D02*
D03*
Y-102205D02*
D03*
X39874Y-130457D02*
D03*
Y-126835D02*
D03*
X44000Y-130457D02*
D03*
Y-126835D02*
D03*
X133858Y133701D02*
D03*
Y130079D02*
D03*
D18*
X194095Y82579D02*
D03*
Y78839D02*
D03*
X-51181Y83760D02*
D03*
Y80020D02*
D03*
X-155512Y139862D02*
D03*
Y143602D02*
D03*
X-51181Y139862D02*
D03*
Y143602D02*
D03*
X102362Y80413D02*
D03*
Y84153D02*
D03*
X106299D02*
D03*
Y80413D02*
D03*
X117126Y74705D02*
D03*
Y70965D02*
D03*
X121063Y74705D02*
D03*
Y70965D02*
D03*
X198031Y82677D02*
D03*
Y78937D02*
D03*
X145669Y-79823D02*
D03*
Y-83563D02*
D03*
X140748Y-79823D02*
D03*
Y-83563D02*
D03*
X122047Y-106004D02*
D03*
Y-109744D02*
D03*
X118110Y-106004D02*
D03*
Y-109744D02*
D03*
X111811Y-106004D02*
D03*
Y-109744D02*
D03*
X128347Y-106004D02*
D03*
Y-109744D02*
D03*
X107087Y-106004D02*
D03*
Y-109744D02*
D03*
X96850Y-106004D02*
D03*
Y-109744D02*
D03*
X100787Y-106004D02*
D03*
Y-109744D02*
D03*
X90551Y-106004D02*
D03*
Y-109744D02*
D03*
X159843Y-125689D02*
D03*
Y-129429D02*
D03*
X112992Y-120768D02*
D03*
Y-117028D02*
D03*
X105905Y-120768D02*
D03*
Y-117028D02*
D03*
X101969Y-120768D02*
D03*
Y-117028D02*
D03*
X95669D02*
D03*
Y-120768D02*
D03*
X91732Y-117028D02*
D03*
Y-120768D02*
D03*
X123228D02*
D03*
Y-117028D02*
D03*
X127165Y-120768D02*
D03*
Y-117028D02*
D03*
X116929Y-120768D02*
D03*
Y-117028D02*
D03*
D24*
X10728Y160433D02*
D03*
X6988D02*
D03*
X10728Y156496D02*
D03*
X6988D02*
D03*
X10728Y150591D02*
D03*
X6988D02*
D03*
X-219870Y58000D02*
D03*
X-216130D02*
D03*
X-219870Y54000D02*
D03*
X-216130D02*
D03*
X-191831Y83858D02*
D03*
X-195571D02*
D03*
X-193996Y79528D02*
D03*
X-197736D02*
D03*
X-195571Y75197D02*
D03*
X-191831D02*
D03*
X106201Y49213D02*
D03*
X102461D02*
D03*
X106201Y45276D02*
D03*
X102461D02*
D03*
X106201Y41339D02*
D03*
X102461D02*
D03*
X106201Y37402D02*
D03*
X102461D02*
D03*
X159350Y-135827D02*
D03*
X155610D02*
D03*
X18799Y146063D02*
D03*
X15059D02*
D03*
X18799Y142126D02*
D03*
X15059D02*
D03*
D29*
X46386Y73161D02*
D03*
Y75721D02*
D03*
Y78280D02*
D03*
Y80839D02*
D03*
X69614Y73161D02*
D03*
Y75721D02*
D03*
Y78280D02*
D03*
Y80839D02*
D03*
X78786Y56323D02*
D03*
Y58882D02*
D03*
Y61441D02*
D03*
Y64000D02*
D03*
Y66559D02*
D03*
Y69118D02*
D03*
Y71677D02*
D03*
X102014Y56323D02*
D03*
Y58882D02*
D03*
Y61441D02*
D03*
Y64000D02*
D03*
Y66559D02*
D03*
Y69118D02*
D03*
Y71677D02*
D03*
X139992Y66075D02*
D03*
Y63516D02*
D03*
Y60957D02*
D03*
Y58398D02*
D03*
Y55839D02*
D03*
Y53280D02*
D03*
Y50721D02*
D03*
Y48161D02*
D03*
Y45602D02*
D03*
Y43043D02*
D03*
Y40484D02*
D03*
Y37925D02*
D03*
X116764Y66075D02*
D03*
Y63516D02*
D03*
Y60957D02*
D03*
Y58398D02*
D03*
Y55839D02*
D03*
Y53280D02*
D03*
Y50721D02*
D03*
Y48161D02*
D03*
Y45602D02*
D03*
Y43043D02*
D03*
Y40484D02*
D03*
Y37925D02*
D03*
D42*
X-56299Y83661D02*
D03*
X-65748Y87402D02*
D03*
Y79921D02*
D03*
X-150394Y139764D02*
D03*
X-140945Y136024D02*
D03*
Y143504D02*
D03*
X-56299Y139764D02*
D03*
X-65748Y143504D02*
D03*
Y136024D02*
D03*
D52*
X146653Y-124016D02*
D03*
X154134D02*
D03*
X150394Y-133465D02*
D03*
D104*
X177004Y157563D02*
D03*
X239996D02*
D03*
D105*
X79724Y-162598D02*
D03*
X27165D02*
D03*
D106*
X69095Y-152067D02*
D03*
D03*
X66535D02*
D03*
X63976D02*
D03*
X61417D02*
D03*
X58858D02*
D03*
X42717D02*
D03*
D03*
X40157D02*
D03*
X37598D02*
D03*
X35039D02*
D03*
X32480D02*
D03*
D107*
X78878Y126181D02*
D03*
Y140748D02*
D03*
D108*
X65098Y122343D02*
D03*
X41594D02*
D03*
D109*
X78189Y164469D02*
D03*
D110*
X33622Y163583D02*
D03*
D111*
X38386Y164961D02*
D03*
D112*
X42520D02*
D03*
X46850D02*
D03*
X51181D02*
D03*
X55512D02*
D03*
X59842D02*
D03*
X64173D02*
D03*
X68504D02*
D03*
D113*
X17185Y150591D02*
D03*
Y152559D02*
D03*
Y156496D02*
D03*
Y158465D02*
D03*
X20216Y150591D02*
D03*
Y152559D02*
D03*
Y156496D02*
D03*
Y158465D02*
D03*
X25256Y137205D02*
D03*
Y139173D02*
D03*
Y143110D02*
D03*
Y145079D02*
D03*
X28287Y137205D02*
D03*
Y139173D02*
D03*
Y143110D02*
D03*
Y145079D02*
D03*
X-195335Y-32677D02*
D03*
Y-34646D02*
D03*
Y-38583D02*
D03*
Y-40551D02*
D03*
X-198366Y-32677D02*
D03*
Y-34646D02*
D03*
Y-38583D02*
D03*
Y-40551D02*
D03*
Y-21654D02*
D03*
Y-19685D02*
D03*
Y-15748D02*
D03*
Y-13780D02*
D03*
X-195335Y-15748D02*
D03*
Y-13780D02*
D03*
Y-19685D02*
D03*
Y-21654D02*
D03*
D114*
X17185Y154528D02*
D03*
X20216D02*
D03*
X25256Y141142D02*
D03*
X28287D02*
D03*
X-195335Y-36614D02*
D03*
X-198366D02*
D03*
Y-17717D02*
D03*
X-195335D02*
D03*
D115*
X-205000Y70626D02*
D03*
X-208740Y61374D02*
D03*
X-201260D02*
D03*
D116*
X264173Y59055D02*
D03*
Y122047D02*
D03*
Y-122047D02*
D03*
Y-59055D02*
D03*
D117*
X255906Y110236D02*
D03*
Y78740D02*
D03*
Y74803D02*
D03*
Y86614D02*
D03*
Y82677D02*
D03*
Y66929D02*
D03*
Y62992D02*
D03*
Y70866D02*
D03*
Y106299D02*
D03*
Y102362D02*
D03*
Y118110D02*
D03*
Y114173D02*
D03*
Y94488D02*
D03*
Y90551D02*
D03*
Y98425D02*
D03*
Y-82677D02*
D03*
Y-102362D02*
D03*
Y-106299D02*
D03*
Y-94488D02*
D03*
Y-98425D02*
D03*
Y-114173D02*
D03*
Y-118110D02*
D03*
Y-110236D02*
D03*
Y-70866D02*
D03*
Y-74803D02*
D03*
Y-62992D02*
D03*
Y-66929D02*
D03*
Y-86614D02*
D03*
Y-90551D02*
D03*
Y-78740D02*
D03*
D118*
X139567Y-90354D02*
D03*
X142126D02*
D03*
X144685D02*
D03*
X147244D02*
D03*
X149803D02*
D03*
X152362D02*
D03*
X154921D02*
D03*
X139567Y-113583D02*
D03*
X142126D02*
D03*
X144685D02*
D03*
X147244D02*
D03*
X149803D02*
D03*
X152362D02*
D03*
X154921D02*
D03*
D119*
X137795Y-130256D02*
D03*
X135827D02*
D03*
X131890D02*
D03*
X129921D02*
D03*
X137795Y-127224D02*
D03*
X135827D02*
D03*
X131890D02*
D03*
X129921D02*
D03*
X59055Y-136279D02*
D03*
X61024D02*
D03*
X64961D02*
D03*
X66929D02*
D03*
X59055Y-139311D02*
D03*
X61024D02*
D03*
X64961D02*
D03*
X66929D02*
D03*
X33661Y-141201D02*
D03*
X35630D02*
D03*
X33661Y-144232D02*
D03*
X35630D02*
D03*
X39567D02*
D03*
X41535D02*
D03*
Y-141201D02*
D03*
X39567D02*
D03*
X96850Y-128405D02*
D03*
X98819D02*
D03*
X102756D02*
D03*
X104724D02*
D03*
X96850Y-131437D02*
D03*
X98819D02*
D03*
X102756D02*
D03*
X104724D02*
D03*
X122047D02*
D03*
X120079D02*
D03*
X116142D02*
D03*
X122047Y-128405D02*
D03*
X120079D02*
D03*
X116142D02*
D03*
X114173D02*
D03*
Y-131437D02*
D03*
D120*
X133858Y-130256D02*
D03*
Y-127224D02*
D03*
X62992Y-136279D02*
D03*
Y-139311D02*
D03*
X37598Y-141201D02*
D03*
Y-144232D02*
D03*
X100787Y-128405D02*
D03*
Y-131437D02*
D03*
X118110D02*
D03*
Y-128405D02*
D03*
D121*
X100000Y-141535D02*
D03*
X101575D02*
D03*
X103150D02*
D03*
X104724D02*
D03*
X106299D02*
D03*
X107874D02*
D03*
X109449D02*
D03*
X111024D02*
D03*
X112598D02*
D03*
X114173D02*
D03*
X115748D02*
D03*
X117323D02*
D03*
X118898D02*
D03*
X120472D02*
D03*
X122047D02*
D03*
X123622D02*
D03*
X125197D02*
D03*
X126772D02*
D03*
X128347D02*
D03*
M02*
