G04 Layer_Color=16711935*
%FSLAX25Y25*%
%MOIN*%
G70*
G01*
G75*
%ADD128R,0.08768X0.12311*%
%ADD129R,0.03650X0.06799*%
%ADD134R,0.03020X0.03020*%
%ADD135R,0.03020X0.03020*%
%ADD136R,0.02862X0.02665*%
%ADD142R,0.02665X0.02862*%
%ADD147O,0.06012X0.02272*%
%ADD160R,0.04437X0.02862*%
%ADD170R,0.02862X0.04437*%
%ADD185C,0.26091*%
%ADD186C,0.23728*%
%ADD187C,0.04043*%
%ADD188C,0.08500*%
%ADD189R,0.08500X0.08500*%
%ADD190C,0.07587*%
%ADD191C,0.08768*%
%ADD192C,0.06799*%
%ADD193C,0.07980*%
%ADD194C,0.07193*%
G04:AMPARAMS|DCode=195|XSize=123.11mil|YSize=123.11mil|CornerRadius=61.55mil|HoleSize=0mil|Usage=FLASHONLY|Rotation=0.000|XOffset=0mil|YOffset=0mil|HoleType=Round|Shape=RoundedRectangle|*
%AMROUNDEDRECTD195*
21,1,0.12311,0.00000,0,0,0.0*
21,1,0.00000,0.12311,0,0,0.0*
1,1,0.12311,0.00000,0.00000*
1,1,0.12311,0.00000,0.00000*
1,1,0.12311,0.00000,0.00000*
1,1,0.12311,0.00000,0.00000*
%
%ADD195ROUNDEDRECTD195*%
%ADD196C,0.09949*%
%ADD197C,0.04831*%
%ADD198C,0.11130*%
%ADD199C,0.02468*%
%ADD200C,0.17429*%
%ADD201C,0.00500*%
%ADD202C,0.03256*%
%ADD203C,0.02862*%
%ADD204C,0.03162*%
%ADD205C,0.05500*%
%ADD206R,0.08374X0.08374*%
%ADD207R,0.07587X0.07980*%
%ADD208R,0.02075X0.05815*%
%ADD209R,0.05224X0.04437*%
%ADD210R,0.07980X0.05815*%
%ADD211R,0.06602X0.05815*%
%ADD212R,0.05106X0.07587*%
%ADD213R,0.03453X0.04831*%
%ADD214R,0.03847X0.04831*%
%ADD215R,0.02665X0.01681*%
%ADD216R,0.02665X0.02075*%
%ADD217R,0.02862X0.04240*%
%ADD218R,0.17035X0.02862*%
%ADD219R,0.08374X0.02862*%
%ADD220O,0.02272X0.06012*%
%ADD221R,0.01681X0.02665*%
%ADD222R,0.02075X0.02665*%
%ADD223R,0.01405X0.04437*%
%ADD224C,0.16248*%
G36*
X-138779Y158465D02*
X-176181D01*
Y166339D01*
X-138779D01*
Y158465D01*
D02*
G37*
D128*
X176476Y-160433D02*
D03*
X211319D02*
D03*
D129*
X201279Y-149016D02*
D03*
X196358D02*
D03*
X191437D02*
D03*
X186516D02*
D03*
D134*
X-188819Y-12000D02*
D03*
X-185197D02*
D03*
X-188811Y-16000D02*
D03*
X-185189D02*
D03*
X104189Y123000D02*
D03*
X107811D02*
D03*
X63976Y66929D02*
D03*
X67598D02*
D03*
X124843Y0D02*
D03*
X121221D02*
D03*
D135*
X112205Y74646D02*
D03*
Y71024D02*
D03*
X127165Y-98583D02*
D03*
Y-102205D02*
D03*
X123228Y-98583D02*
D03*
Y-102205D02*
D03*
X116929Y-98583D02*
D03*
Y-102205D02*
D03*
X112992Y-98583D02*
D03*
Y-102205D02*
D03*
X105905Y-98583D02*
D03*
Y-102205D02*
D03*
X101969Y-98583D02*
D03*
Y-102205D02*
D03*
X95669Y-98583D02*
D03*
Y-102205D02*
D03*
X91732Y-98583D02*
D03*
Y-102205D02*
D03*
X39874Y-130457D02*
D03*
Y-126835D02*
D03*
X44000Y-130457D02*
D03*
Y-126835D02*
D03*
X133858Y133701D02*
D03*
Y130079D02*
D03*
D136*
X194095Y82579D02*
D03*
Y78839D02*
D03*
X-51181Y83760D02*
D03*
Y80020D02*
D03*
X-155512Y139862D02*
D03*
Y143602D02*
D03*
X-51181Y139862D02*
D03*
Y143602D02*
D03*
X102362Y80413D02*
D03*
Y84153D02*
D03*
X106299D02*
D03*
Y80413D02*
D03*
X117126Y74705D02*
D03*
Y70965D02*
D03*
X121063Y74705D02*
D03*
Y70965D02*
D03*
X198031Y82677D02*
D03*
Y78937D02*
D03*
X145669Y-79823D02*
D03*
Y-83563D02*
D03*
X140748Y-79823D02*
D03*
Y-83563D02*
D03*
X122047Y-106004D02*
D03*
Y-109744D02*
D03*
X118110Y-106004D02*
D03*
Y-109744D02*
D03*
X111811Y-106004D02*
D03*
Y-109744D02*
D03*
X128347Y-106004D02*
D03*
Y-109744D02*
D03*
X107087Y-106004D02*
D03*
Y-109744D02*
D03*
X96850Y-106004D02*
D03*
Y-109744D02*
D03*
X100787Y-106004D02*
D03*
Y-109744D02*
D03*
X90551Y-106004D02*
D03*
Y-109744D02*
D03*
X159843Y-125689D02*
D03*
Y-129429D02*
D03*
X112992Y-120768D02*
D03*
Y-117028D02*
D03*
X105905Y-120768D02*
D03*
Y-117028D02*
D03*
X101969Y-120768D02*
D03*
Y-117028D02*
D03*
X95669D02*
D03*
Y-120768D02*
D03*
X91732Y-117028D02*
D03*
Y-120768D02*
D03*
X123228D02*
D03*
Y-117028D02*
D03*
X127165Y-120768D02*
D03*
Y-117028D02*
D03*
X116929Y-120768D02*
D03*
Y-117028D02*
D03*
D142*
X10728Y160433D02*
D03*
X6988D02*
D03*
X10728Y156496D02*
D03*
X6988D02*
D03*
X10728Y150591D02*
D03*
X6988D02*
D03*
X-219870Y58000D02*
D03*
X-216130D02*
D03*
X-219870Y54000D02*
D03*
X-216130D02*
D03*
X-191831Y83858D02*
D03*
X-195571D02*
D03*
X-193996Y79528D02*
D03*
X-197736D02*
D03*
X-195571Y75197D02*
D03*
X-191831D02*
D03*
X106201Y49213D02*
D03*
X102461D02*
D03*
X106201Y45276D02*
D03*
X102461D02*
D03*
X106201Y41339D02*
D03*
X102461D02*
D03*
X106201Y37402D02*
D03*
X102461D02*
D03*
X159350Y-135827D02*
D03*
X155610D02*
D03*
X18799Y146063D02*
D03*
X15059D02*
D03*
X18799Y142126D02*
D03*
X15059D02*
D03*
D147*
X46386Y73161D02*
D03*
Y75721D02*
D03*
Y78280D02*
D03*
Y80839D02*
D03*
X69614Y73161D02*
D03*
Y75721D02*
D03*
Y78280D02*
D03*
Y80839D02*
D03*
X78786Y56323D02*
D03*
Y58882D02*
D03*
Y61441D02*
D03*
Y64000D02*
D03*
Y66559D02*
D03*
Y69118D02*
D03*
Y71677D02*
D03*
X102014Y56323D02*
D03*
Y58882D02*
D03*
Y61441D02*
D03*
Y64000D02*
D03*
Y66559D02*
D03*
Y69118D02*
D03*
Y71677D02*
D03*
X139992Y66075D02*
D03*
Y63516D02*
D03*
Y60957D02*
D03*
Y58398D02*
D03*
Y55839D02*
D03*
Y53280D02*
D03*
Y50721D02*
D03*
Y48161D02*
D03*
Y45602D02*
D03*
Y43043D02*
D03*
Y40484D02*
D03*
Y37925D02*
D03*
X116764Y66075D02*
D03*
Y63516D02*
D03*
Y60957D02*
D03*
Y58398D02*
D03*
Y55839D02*
D03*
Y53280D02*
D03*
Y50721D02*
D03*
Y48161D02*
D03*
Y45602D02*
D03*
Y43043D02*
D03*
Y40484D02*
D03*
Y37925D02*
D03*
D160*
X-56299Y83661D02*
D03*
X-65748Y87402D02*
D03*
Y79921D02*
D03*
X-150394Y139764D02*
D03*
X-140945Y136024D02*
D03*
Y143504D02*
D03*
X-56299Y139764D02*
D03*
X-65748Y143504D02*
D03*
Y136024D02*
D03*
D170*
X146653Y-124016D02*
D03*
X154134D02*
D03*
X150394Y-133465D02*
D03*
D185*
X262205Y151575D02*
D03*
Y-151575D02*
D03*
X-249606Y151575D02*
D03*
Y-151575D02*
D03*
D186*
X-13386Y-155512D02*
D03*
X151969D02*
D03*
Y155512D02*
D03*
D187*
X-259126Y62992D02*
D03*
X-258858Y111811D02*
D03*
D188*
X-230315Y74803D02*
D03*
Y62992D02*
D03*
Y51181D02*
D03*
X-242126Y74803D02*
D03*
Y62992D02*
D03*
D189*
Y51181D02*
D03*
D190*
X-252953Y-120079D02*
D03*
X-242953D02*
D03*
X-252953Y-60879D02*
D03*
X-242953D02*
D03*
X-232953D02*
D03*
X47087Y113189D02*
D03*
X57087D02*
D03*
X67087D02*
D03*
X37087D02*
D03*
X77087D02*
D03*
X87087D02*
D03*
D191*
X-217953Y-109479D02*
D03*
Y-71479D02*
D03*
Y-125079D02*
D03*
Y-55879D02*
D03*
D192*
X-181953Y-66479D02*
D03*
Y-74479D02*
D03*
Y-82479D02*
D03*
Y-98479D02*
D03*
Y-106479D02*
D03*
Y-114479D02*
D03*
X-191953Y-70479D02*
D03*
Y-78479D02*
D03*
Y-86479D02*
D03*
Y-94479D02*
D03*
Y-102479D02*
D03*
Y-110479D02*
D03*
D193*
X135531Y-145669D02*
D03*
X92815D02*
D03*
D194*
X135531Y-163386D02*
D03*
X92815D02*
D03*
D195*
X-229528Y130512D02*
D03*
X-248031D02*
D03*
X-246063Y111811D02*
D03*
X-229528Y93110D02*
D03*
X-248031D02*
D03*
D196*
X-222441Y111811D02*
D03*
D197*
X-210630Y-33465D02*
D03*
Y-25591D02*
D03*
Y-1969D02*
D03*
Y-9843D02*
D03*
Y-17717D02*
D03*
X-216535Y-13780D02*
D03*
Y-21654D02*
D03*
Y-31496D02*
D03*
Y-3937D02*
D03*
D198*
X-224410Y8150D02*
D03*
Y-43583D02*
D03*
D199*
X-68898Y6299D02*
D03*
Y-104724D02*
D03*
D200*
X-249606Y25591D02*
D03*
D201*
X0Y132050D02*
D03*
X12000Y-132050D02*
D03*
D202*
X-63976Y75055D02*
D03*
X183366Y-16929D02*
D03*
X-197146Y99016D02*
D03*
X-193209D02*
D03*
X-197146Y95079D02*
D03*
X-193209D02*
D03*
X-149311Y79331D02*
D03*
X-153248D02*
D03*
X-149311Y83268D02*
D03*
X-153248D02*
D03*
X-172933D02*
D03*
X-168996D02*
D03*
X-172933Y79331D02*
D03*
X-168996D02*
D03*
X-175984Y59252D02*
D03*
Y54921D02*
D03*
X-180315Y59252D02*
D03*
Y54921D02*
D03*
X-168996Y21260D02*
D03*
X-172933D02*
D03*
X-168996Y25197D02*
D03*
X-172933D02*
D03*
X272933Y139370D02*
D03*
X247724Y71457D02*
D03*
X156496Y-14764D02*
D03*
X121063Y150590D02*
D03*
X124016Y142945D02*
D03*
X113189Y144685D02*
D03*
X118110Y143701D02*
D03*
X100394Y133858D02*
D03*
X-10000Y105000D02*
D03*
X113779Y123622D02*
D03*
Y127953D02*
D03*
Y132283D02*
D03*
X118110Y123622D02*
D03*
Y127953D02*
D03*
Y132283D02*
D03*
X122441Y123622D02*
D03*
Y127953D02*
D03*
Y132283D02*
D03*
X-99016Y116142D02*
D03*
Y111811D02*
D03*
Y107480D02*
D03*
X-103347Y116142D02*
D03*
Y111811D02*
D03*
Y107480D02*
D03*
X-107677Y116142D02*
D03*
Y111811D02*
D03*
Y107480D02*
D03*
X-226378Y20965D02*
D03*
Y24902D02*
D03*
X-222441Y20965D02*
D03*
Y24902D02*
D03*
X224606Y197D02*
D03*
Y-4134D02*
D03*
X220276Y197D02*
D03*
Y-4134D02*
D03*
X-153248Y25197D02*
D03*
X-149311D02*
D03*
X-153248Y21260D02*
D03*
X-149311D02*
D03*
X-75295Y21654D02*
D03*
X-79232D02*
D03*
X-75295Y17717D02*
D03*
X-79232D02*
D03*
X-121063Y-23622D02*
D03*
X187992Y-158465D02*
D03*
X196850Y-154527D02*
D03*
X191929Y-154528D02*
D03*
X164370Y-145669D02*
D03*
X166339Y-135827D02*
D03*
X4921Y-147638D02*
D03*
X13780Y-151575D02*
D03*
X10827Y-148622D02*
D03*
X-10000Y45000D02*
D03*
X-116142Y-32480D02*
D03*
X-234252Y-79724D02*
D03*
X-15000Y40000D02*
D03*
X-115157Y-36417D02*
D03*
X-234252Y-84646D02*
D03*
X109449Y-130709D02*
D03*
X-241142Y-136811D02*
D03*
X-161000Y-114000D02*
D03*
X-92520Y-8858D02*
D03*
X-95472Y-11811D02*
D03*
X-86614Y34449D02*
D03*
X-63976Y35433D02*
D03*
X-60039D02*
D03*
X-67913D02*
D03*
X10000Y-115000D02*
D03*
X275984Y-42913D02*
D03*
X-70000Y-54090D02*
D03*
Y-50634D02*
D03*
X-34000Y-50509D02*
D03*
X-92519Y-21654D02*
D03*
X-92000Y-25744D02*
D03*
X-91172Y-31737D02*
D03*
Y-35192D02*
D03*
X-96457Y3937D02*
D03*
X-44291Y-89573D02*
D03*
X-44488Y-93307D02*
D03*
X28450Y21560D02*
D03*
X31496Y24606D02*
D03*
X-21000Y55000D02*
D03*
X-10000Y-70000D02*
D03*
X15000Y-45000D02*
D03*
Y-35000D02*
D03*
X21604Y-36811D02*
D03*
X0Y0D02*
D03*
X5000Y5000D02*
D03*
X266732Y132874D02*
D03*
X259842Y132874D02*
D03*
X252953Y138779D02*
D03*
X265748Y95472D02*
D03*
X250000Y66929D02*
D03*
X262795Y62992D02*
D03*
X239764Y32677D02*
D03*
Y37402D02*
D03*
X234646Y-17717D02*
D03*
X20000Y20000D02*
D03*
X74803Y-6890D02*
D03*
X-30512Y-143701D02*
D03*
X-27559Y-140748D02*
D03*
X88795Y-125879D02*
D03*
X79528Y-121949D02*
D03*
X271654Y-132874D02*
D03*
X132874Y-134843D02*
D03*
X110630Y24016D02*
D03*
X156920Y61584D02*
D03*
X151969Y61811D02*
D03*
X135039Y51575D02*
D03*
X132239Y59360D02*
D03*
X119291Y28346D02*
D03*
X87500Y17500D02*
D03*
X173622Y62205D02*
D03*
X197244Y68110D02*
D03*
X200394Y72441D02*
D03*
X194504Y73867D02*
D03*
X98425Y113189D02*
D03*
X191929Y85630D02*
D03*
X156496Y106299D02*
D03*
X152559Y105629D02*
D03*
X161417Y105315D02*
D03*
X166339Y106288D02*
D03*
X159449Y-115157D02*
D03*
X20079Y-128740D02*
D03*
X20866Y-120079D02*
D03*
X-156693Y-116142D02*
D03*
X-160236Y-118898D02*
D03*
X56299Y-142913D02*
D03*
X61811Y-143307D02*
D03*
X-154331Y394D02*
D03*
X54724Y70472D02*
D03*
X142913Y131102D02*
D03*
X136811Y-113976D02*
D03*
X147638Y-96457D02*
D03*
X136811Y-119095D02*
D03*
X146653Y-119094D02*
D03*
X142224Y-98425D02*
D03*
X138189Y-100984D02*
D03*
X64862Y-111909D02*
D03*
X78740Y-131299D02*
D03*
X79035Y-126476D02*
D03*
X61622Y-114362D02*
D03*
X66535Y-108071D02*
D03*
X69488Y-105217D02*
D03*
X26673Y-39370D02*
D03*
X-10000Y-40000D02*
D03*
X62000Y-99000D02*
D03*
X32480Y-39370D02*
D03*
X29724Y-36319D02*
D03*
X21457Y-42126D02*
D03*
X-5000Y-40000D02*
D03*
X-10000Y-35000D02*
D03*
X-5000Y-50000D02*
D03*
X-27000Y-33000D02*
D03*
X-15000Y-45000D02*
D03*
X-43000Y-78981D02*
D03*
Y-82437D02*
D03*
X-46000Y-76000D02*
D03*
X-100000Y-42520D02*
D03*
X-99606Y-90551D02*
D03*
X-107480Y-37402D02*
D03*
X-10000Y-100000D02*
D03*
X-92000Y-82437D02*
D03*
Y-78981D02*
D03*
X0Y-100000D02*
D03*
X-94000Y-91885D02*
D03*
Y-88429D02*
D03*
X-93000Y-54000D02*
D03*
X-83661Y-9843D02*
D03*
X-57087Y23622D02*
D03*
X-69021Y-10827D02*
D03*
X51181Y-138779D02*
D03*
X47244Y-108268D02*
D03*
X34449Y29528D02*
D03*
X75787Y90551D02*
D03*
X72835Y93504D02*
D03*
X44094Y64961D02*
D03*
X10000Y80000D02*
D03*
X15000Y85000D02*
D03*
X44094Y68898D02*
D03*
X120472Y85039D02*
D03*
X273622Y-112205D02*
D03*
X268898Y-85827D02*
D03*
X274016Y-94488D02*
D03*
Y-102756D02*
D03*
Y-85433D02*
D03*
X175590Y-10630D02*
D03*
X175197Y-14379D02*
D03*
X171260Y-21080D02*
D03*
X165354Y-20669D02*
D03*
X181496Y69685D02*
D03*
X170795Y75039D02*
D03*
X188189Y71260D02*
D03*
X144882Y19291D02*
D03*
X114961Y-787D02*
D03*
X116142Y11811D02*
D03*
X121063Y-11811D02*
D03*
X109252Y-12795D02*
D03*
X166339Y124016D02*
D03*
X-181102Y6890D02*
D03*
X-185039D02*
D03*
X-189961D02*
D03*
X-193898D02*
D03*
X-198819D02*
D03*
X-202756D02*
D03*
X-181102Y17717D02*
D03*
X-185039D02*
D03*
X-188976D02*
D03*
X-192913D02*
D03*
X-196850D02*
D03*
X-200787D02*
D03*
X-204724D02*
D03*
X-209646D02*
D03*
X-179134Y142717D02*
D03*
Y147638D02*
D03*
Y137795D02*
D03*
X-162500Y56299D02*
D03*
X-188500Y43000D02*
D03*
X-196457Y59449D02*
D03*
X-188500Y77500D02*
D03*
X131024Y63976D02*
D03*
X123031Y14764D02*
D03*
X98000Y122500D02*
D03*
X5000Y115000D02*
D03*
X91000Y-2000D02*
D03*
X89000Y1000D02*
D03*
X84942Y-13097D02*
D03*
X82000Y-10000D02*
D03*
X79970Y-6890D02*
D03*
X87000Y-16390D02*
D03*
X70866Y-8858D02*
D03*
X161417Y-20669D02*
D03*
X162402Y-9843D02*
D03*
X160433Y-5906D02*
D03*
X147638Y59449D02*
D03*
X179126Y113240D02*
D03*
X-67913Y31496D02*
D03*
X-63976D02*
D03*
X-60039D02*
D03*
X-69500Y-46000D02*
D03*
X-96457Y-27559D02*
D03*
X-129000Y-78000D02*
D03*
X-120768Y-36319D02*
D03*
X-58000Y67500D02*
D03*
X-34500Y66000D02*
D03*
X-33465Y61311D02*
D03*
X-35000Y53000D02*
D03*
X-15000Y105000D02*
D03*
X-10000Y110000D02*
D03*
Y115000D02*
D03*
Y120000D02*
D03*
X-85000Y-2500D02*
D03*
X-66929Y-8858D02*
D03*
X-70000Y-65000D02*
D03*
X-15000Y-30000D02*
D03*
X-165354Y-134252D02*
D03*
X-120000Y-94000D02*
D03*
X-104000Y-101000D02*
D03*
X-212000Y-119000D02*
D03*
X-38000Y-103000D02*
D03*
X-31000Y-127465D02*
D03*
X-191732Y-152756D02*
D03*
X-141732Y-153150D02*
D03*
X-42913Y-154331D02*
D03*
X-92126Y-151575D02*
D03*
X-5000Y10000D02*
D03*
X-39370Y-136811D02*
D03*
X20000Y-115000D02*
D03*
X-22500Y-12500D02*
D03*
X231890Y12598D02*
D03*
X238583Y-22677D02*
D03*
X216535Y9449D02*
D03*
X220079Y10236D02*
D03*
X224016D02*
D03*
X272047Y-37795D02*
D03*
X216000Y-127000D02*
D03*
X228000Y-126000D02*
D03*
X179000Y-119000D02*
D03*
X228000Y-120000D02*
D03*
X181114Y-113366D02*
D03*
X154331Y27953D02*
D03*
X164370Y-2953D02*
D03*
X216535Y16929D02*
D03*
X263779Y87598D02*
D03*
X214000Y138000D02*
D03*
X226000Y124000D02*
D03*
X210000Y118000D02*
D03*
X209972Y114000D02*
D03*
X132000Y119000D02*
D03*
X113709Y96693D02*
D03*
X15000Y40000D02*
D03*
X117646Y96693D02*
D03*
X138000Y119000D02*
D03*
X123551Y96693D02*
D03*
X84000Y97000D02*
D03*
X87500Y98500D02*
D03*
X100394Y104331D02*
D03*
X10000Y-20000D02*
D03*
Y-5000D02*
D03*
X4921Y19921D02*
D03*
X20000Y5000D02*
D03*
X0Y-15000D02*
D03*
Y15000D02*
D03*
X131890Y72835D02*
D03*
X125000Y74803D02*
D03*
X108793Y10302D02*
D03*
X84646Y87598D02*
D03*
X76772Y-1969D02*
D03*
X126969Y11811D02*
D03*
X105315Y16732D02*
D03*
X149530Y54195D02*
D03*
X145000Y54000D02*
D03*
X20669Y-10827D02*
D03*
X-41000Y-48000D02*
D03*
X-125000Y9000D02*
D03*
X-123574Y60574D02*
D03*
X-133858Y28543D02*
D03*
Y24606D02*
D03*
X-137795D02*
D03*
X-133858Y20669D02*
D03*
X-135000Y-4000D02*
D03*
X-103000Y-19000D02*
D03*
X-113000Y39000D02*
D03*
X-114000Y58000D02*
D03*
X-126000Y49000D02*
D03*
Y56000D02*
D03*
X-152000Y53000D02*
D03*
X-117000Y71000D02*
D03*
X-121000Y68000D02*
D03*
X-137795Y28543D02*
D03*
X-96457Y35433D02*
D03*
X-100394D02*
D03*
Y31496D02*
D03*
X-104331Y35433D02*
D03*
X5000Y-85000D02*
D03*
X-169587Y68110D02*
D03*
X-194488Y88189D02*
D03*
X-229331Y34449D02*
D03*
X-185039Y87598D02*
D03*
X-36013Y-139184D02*
D03*
X-189961Y89370D02*
D03*
X-190945Y55118D02*
D03*
X111771Y8283D02*
D03*
X-192520Y60630D02*
D03*
X-202756Y40945D02*
D03*
X-171653Y35827D02*
D03*
X-103347Y155512D02*
D03*
X-67913Y156496D02*
D03*
X-75787Y155512D02*
D03*
X-130905D02*
D03*
X-63976Y150591D02*
D03*
X-125000Y151575D02*
D03*
X-79724Y72835D02*
D03*
X-100000Y72000D02*
D03*
X-94000Y-44628D02*
D03*
Y-41172D02*
D03*
X-63976Y11811D02*
D03*
Y16732D02*
D03*
X59000Y28000D02*
D03*
X60000Y43000D02*
D03*
X40000Y34000D02*
D03*
Y49000D02*
D03*
X86982Y33018D02*
D03*
X83000Y30000D02*
D03*
X77000Y14000D02*
D03*
X84000Y25000D02*
D03*
X81000Y22000D02*
D03*
X101000Y25000D02*
D03*
X78740Y75787D02*
D03*
X109252Y56102D02*
D03*
X-89000Y-95000D02*
D03*
X-88000Y-86000D02*
D03*
X-90000Y-49500D02*
D03*
X-88000Y-39000D02*
D03*
X-87500Y-28500D02*
D03*
X-36000Y-40000D02*
D03*
X-52000Y-57000D02*
D03*
X20000Y-70000D02*
D03*
X5000Y-55000D02*
D03*
X10000Y-50000D02*
D03*
X-10000Y-85000D02*
D03*
X-47244Y79921D02*
D03*
X-43307D02*
D03*
X-39370D02*
D03*
X108110Y112047D02*
D03*
X104331Y127953D02*
D03*
X-162401Y60040D02*
D03*
X-166142Y63976D02*
D03*
X166858Y75039D02*
D03*
X160953D02*
D03*
X240915Y1742D02*
D03*
X127488Y96693D02*
D03*
X238976Y-7087D02*
D03*
X-96457Y31496D02*
D03*
X-104331D02*
D03*
X-161811Y88583D02*
D03*
X-157480Y49213D02*
D03*
X-167717Y44488D02*
D03*
X-163386Y35039D02*
D03*
X-143307Y90551D02*
D03*
X-138583Y33858D02*
D03*
X-137795Y78740D02*
D03*
Y82677D02*
D03*
Y86614D02*
D03*
X-133858Y78740D02*
D03*
Y82677D02*
D03*
Y86614D02*
D03*
X-137795Y20669D02*
D03*
X-35433Y143701D02*
D03*
X-39370D02*
D03*
X-43307D02*
D03*
X-47244D02*
D03*
X-159449D02*
D03*
X-163386D02*
D03*
X-167323D02*
D03*
X-171260D02*
D03*
X-211417Y69685D02*
D03*
X-208268Y65354D02*
D03*
X-203543Y74803D02*
D03*
X-203921Y81995D02*
D03*
X-10000Y5000D02*
D03*
X20000Y-55000D02*
D03*
Y-25000D02*
D03*
X0Y30000D02*
D03*
Y-30000D02*
D03*
X-20000Y120000D02*
D03*
X-15000D02*
D03*
X-20000Y115000D02*
D03*
X-15000D02*
D03*
X-20000Y110000D02*
D03*
X-15000D02*
D03*
X-20000Y105000D02*
D03*
X-35433Y79921D02*
D03*
X5000Y50000D02*
D03*
X42795Y95000D02*
D03*
X157016Y75039D02*
D03*
X210000Y133768D02*
D03*
X177076Y124016D02*
D03*
X240158Y-32677D02*
D03*
Y-37716D02*
D03*
Y17323D02*
D03*
X272047Y-32677D02*
D03*
X271654Y22559D02*
D03*
X240158Y22441D02*
D03*
X271654Y17717D02*
D03*
X185039Y55118D02*
D03*
X181102Y122047D02*
D03*
X111221Y66929D02*
D03*
X177165Y129921D02*
D03*
X173228Y132874D02*
D03*
X269685Y94488D02*
D03*
X271654Y-44291D02*
D03*
X263779Y108268D02*
D03*
X265748Y-70866D02*
D03*
X264961Y-116929D02*
D03*
X-181000Y-19500D02*
D03*
X-34000Y-54215D02*
D03*
X-98032Y-79528D02*
D03*
X5000Y-70000D02*
D03*
X-35893Y-66361D02*
D03*
X-32187Y-66500D02*
D03*
X-43307Y-73228D02*
D03*
X-43000Y-69522D02*
D03*
X-97000Y-54000D02*
D03*
X-101575Y-54528D02*
D03*
X49000Y-113000D02*
D03*
X182087Y28543D02*
D03*
X184055Y-6890D02*
D03*
X207677Y65945D02*
D03*
X264764Y41339D02*
D03*
X262795Y46260D02*
D03*
X267717D02*
D03*
X261024Y-13386D02*
D03*
X133071Y138976D02*
D03*
X92000Y100000D02*
D03*
X97000Y101000D02*
D03*
X49213Y121063D02*
D03*
X70500Y42500D02*
D03*
X73000Y46000D02*
D03*
X82677Y82677D02*
D03*
X53150Y88583D02*
D03*
X47244Y95256D02*
D03*
X49213Y87598D02*
D03*
X160433Y-103347D02*
D03*
X134843Y-90551D02*
D03*
X93504Y64961D02*
D03*
X111221Y150591D02*
D03*
X31496Y100394D02*
D03*
X39764Y80709D02*
D03*
X53000Y75000D02*
D03*
X63976Y57087D02*
D03*
X107283Y63976D02*
D03*
X76500Y44500D02*
D03*
X-29528Y154528D02*
D03*
Y150591D02*
D03*
X984Y165354D02*
D03*
Y161417D02*
D03*
X6890Y138779D02*
D03*
X107480Y75984D02*
D03*
X259842Y-126969D02*
D03*
X264764Y-93504D02*
D03*
X230315Y-104331D02*
D03*
X-38189Y33071D02*
D03*
X196457Y-79528D02*
D03*
X-67000Y-68000D02*
D03*
X-52756Y-66535D02*
D03*
X-69291Y-59055D02*
D03*
X-120866Y-1181D02*
D03*
X-190157Y-30315D02*
D03*
X25984Y164173D02*
D03*
X101181Y139370D02*
D03*
X165354Y134646D02*
D03*
X246063Y-81496D02*
D03*
X245669Y146850D02*
D03*
X272638Y134843D02*
D03*
X20866Y132972D02*
D03*
D203*
X118504Y-124409D02*
D03*
X64961Y-5906D02*
D03*
X169291Y-14764D02*
D03*
X150591Y-19685D02*
D03*
X10000Y-110000D02*
D03*
X15000Y-115000D02*
D03*
X10000Y15000D02*
D03*
Y20000D02*
D03*
X28732Y-66656D02*
D03*
Y-63344D02*
D03*
X31496Y-44884D02*
D03*
Y-48196D02*
D03*
X5000Y-45000D02*
D03*
X-29998Y-36974D02*
D03*
X5000Y-50000D02*
D03*
X-32340Y-39316D02*
D03*
X-394Y-50394D02*
D03*
X0Y-55000D02*
D03*
X-35079Y-43937D02*
D03*
X-37421Y-46279D02*
D03*
X0Y20000D02*
D03*
Y25000D02*
D03*
X5000Y15000D02*
D03*
Y10000D02*
D03*
X-22Y-119977D02*
D03*
X10000Y-120000D02*
D03*
Y-60000D02*
D03*
Y-55000D02*
D03*
X23778Y0D02*
D03*
X27234D02*
D03*
X-5000Y-69448D02*
D03*
X15000Y-110000D02*
D03*
Y-50000D02*
D03*
Y-55000D02*
D03*
X15110Y-9890D02*
D03*
X15000Y-5000D02*
D03*
X10000Y-15000D02*
D03*
Y-10000D02*
D03*
X228898Y31905D02*
D03*
X125984Y-77756D02*
D03*
X182087Y-83661D02*
D03*
X173228Y-123031D02*
D03*
X-20000Y-95000D02*
D03*
X0Y40000D02*
D03*
X-10000Y30000D02*
D03*
X5000Y110000D02*
D03*
X10000Y75000D02*
D03*
X46063Y85039D02*
D03*
X160433Y97441D02*
D03*
X164370D02*
D03*
X168827Y97638D02*
D03*
X-13386Y-126772D02*
D03*
X100394Y-124409D02*
D03*
X100787Y-113386D02*
D03*
X90551D02*
D03*
X96850D02*
D03*
X107087D02*
D03*
X128347D02*
D03*
X122047D02*
D03*
X-15000Y-40000D02*
D03*
X-10000Y-55000D02*
D03*
Y-65000D02*
D03*
Y-60000D02*
D03*
X-5000Y-105000D02*
D03*
X5000D02*
D03*
Y30000D02*
D03*
X-187008Y80610D02*
D03*
X10000Y120000D02*
D03*
Y-75000D02*
D03*
Y-70000D02*
D03*
X-20000Y35000D02*
D03*
Y40000D02*
D03*
X-23900Y59000D02*
D03*
X-21000Y92500D02*
D03*
X-5000Y100000D02*
D03*
Y95000D02*
D03*
X0Y100000D02*
D03*
X-20000D02*
D03*
X-15000D02*
D03*
X-10000Y80000D02*
D03*
X0Y85000D02*
D03*
X-5000D02*
D03*
Y80000D02*
D03*
X-22500Y27500D02*
D03*
X-15000Y30000D02*
D03*
X-10000Y-20000D02*
D03*
X-10156Y-15000D02*
D03*
X-5000D02*
D03*
X0Y-5000D02*
D03*
X15000Y35000D02*
D03*
Y45000D02*
D03*
X10000Y40000D02*
D03*
X25000Y104000D02*
D03*
X22000Y101516D02*
D03*
X10000Y125000D02*
D03*
X15000Y120000D02*
D03*
X20000Y115000D02*
D03*
X15000Y125000D02*
D03*
X0Y-10000D02*
D03*
X20000Y-105000D02*
D03*
X-5000Y20000D02*
D03*
Y15000D02*
D03*
X-10000Y10000D02*
D03*
Y14672D02*
D03*
X-5000Y-100000D02*
D03*
X-5110Y-10110D02*
D03*
X20000Y40000D02*
D03*
X10000Y35000D02*
D03*
X5000Y40000D02*
D03*
X-10000Y-95000D02*
D03*
X23900Y80000D02*
D03*
Y75000D02*
D03*
X25000Y70000D02*
D03*
X10000Y-100000D02*
D03*
X-10000Y-90000D02*
D03*
X118110Y-113386D02*
D03*
X111811D02*
D03*
X4978Y-114978D02*
D03*
X5000Y-110000D02*
D03*
X0Y-115000D02*
D03*
Y-65000D02*
D03*
Y-70000D02*
D03*
X5000Y-90000D02*
D03*
X10000D02*
D03*
Y-105000D02*
D03*
X15000Y-80000D02*
D03*
Y-85000D02*
D03*
X-15000Y-65000D02*
D03*
Y-35000D02*
D03*
X0Y-85000D02*
D03*
Y-90000D02*
D03*
X-68110Y-33465D02*
D03*
X-68504Y-22047D02*
D03*
X-49606Y-28740D02*
D03*
X-51181Y-16535D02*
D03*
X-46457Y-38583D02*
D03*
X34449Y34350D02*
D03*
X37992Y-42126D02*
D03*
D204*
X64961Y35433D02*
D03*
X61024Y13780D02*
D03*
D205*
X-167323Y-984D02*
D03*
X-160433D02*
D03*
D206*
X177004Y157563D02*
D03*
X239996D02*
D03*
D207*
X79724Y-162598D02*
D03*
X27165D02*
D03*
D208*
X69095Y-152067D02*
D03*
D03*
X66535D02*
D03*
X63976D02*
D03*
X61417D02*
D03*
X58858D02*
D03*
X42717D02*
D03*
D03*
X40157D02*
D03*
X37598D02*
D03*
X35039D02*
D03*
X32480D02*
D03*
D209*
X78878Y126181D02*
D03*
Y140748D02*
D03*
D210*
X65098Y122343D02*
D03*
X41594D02*
D03*
D211*
X78189Y164469D02*
D03*
D212*
X33622Y163583D02*
D03*
D213*
X38386Y164961D02*
D03*
D214*
X42520D02*
D03*
X46850D02*
D03*
X51181D02*
D03*
X55512D02*
D03*
X59842D02*
D03*
X64173D02*
D03*
X68504D02*
D03*
D215*
X17185Y150591D02*
D03*
Y152559D02*
D03*
Y156496D02*
D03*
Y158465D02*
D03*
X20216Y150591D02*
D03*
Y152559D02*
D03*
Y156496D02*
D03*
Y158465D02*
D03*
X25256Y137205D02*
D03*
Y139173D02*
D03*
Y143110D02*
D03*
Y145079D02*
D03*
X28287Y137205D02*
D03*
Y139173D02*
D03*
Y143110D02*
D03*
Y145079D02*
D03*
X-195335Y-32677D02*
D03*
Y-34646D02*
D03*
Y-38583D02*
D03*
Y-40551D02*
D03*
X-198366Y-32677D02*
D03*
Y-34646D02*
D03*
Y-38583D02*
D03*
Y-40551D02*
D03*
Y-21654D02*
D03*
Y-19685D02*
D03*
Y-15748D02*
D03*
Y-13780D02*
D03*
X-195335Y-15748D02*
D03*
Y-13780D02*
D03*
Y-19685D02*
D03*
Y-21654D02*
D03*
D216*
X17185Y154528D02*
D03*
X20216D02*
D03*
X25256Y141142D02*
D03*
X28287D02*
D03*
X-195335Y-36614D02*
D03*
X-198366D02*
D03*
Y-17717D02*
D03*
X-195335D02*
D03*
D217*
X-205000Y70626D02*
D03*
X-208740Y61374D02*
D03*
X-201260D02*
D03*
D218*
X264173Y59055D02*
D03*
Y122047D02*
D03*
Y-122047D02*
D03*
Y-59055D02*
D03*
D219*
X255906Y110236D02*
D03*
Y78740D02*
D03*
Y74803D02*
D03*
Y86614D02*
D03*
Y82677D02*
D03*
Y66929D02*
D03*
Y62992D02*
D03*
Y70866D02*
D03*
Y106299D02*
D03*
Y102362D02*
D03*
Y118110D02*
D03*
Y114173D02*
D03*
Y94488D02*
D03*
Y90551D02*
D03*
Y98425D02*
D03*
Y-82677D02*
D03*
Y-102362D02*
D03*
Y-106299D02*
D03*
Y-94488D02*
D03*
Y-98425D02*
D03*
Y-114173D02*
D03*
Y-118110D02*
D03*
Y-110236D02*
D03*
Y-70866D02*
D03*
Y-74803D02*
D03*
Y-62992D02*
D03*
Y-66929D02*
D03*
Y-86614D02*
D03*
Y-90551D02*
D03*
Y-78740D02*
D03*
D220*
X139567Y-90354D02*
D03*
X142126D02*
D03*
X144685D02*
D03*
X147244D02*
D03*
X149803D02*
D03*
X152362D02*
D03*
X154921D02*
D03*
X139567Y-113583D02*
D03*
X142126D02*
D03*
X144685D02*
D03*
X147244D02*
D03*
X149803D02*
D03*
X152362D02*
D03*
X154921D02*
D03*
D221*
X137795Y-130256D02*
D03*
X135827D02*
D03*
X131890D02*
D03*
X129921D02*
D03*
X137795Y-127224D02*
D03*
X135827D02*
D03*
X131890D02*
D03*
X129921D02*
D03*
X59055Y-136279D02*
D03*
X61024D02*
D03*
X64961D02*
D03*
X66929D02*
D03*
X59055Y-139311D02*
D03*
X61024D02*
D03*
X64961D02*
D03*
X66929D02*
D03*
X33661Y-141201D02*
D03*
X35630D02*
D03*
X33661Y-144232D02*
D03*
X35630D02*
D03*
X39567D02*
D03*
X41535D02*
D03*
Y-141201D02*
D03*
X39567D02*
D03*
X96850Y-128405D02*
D03*
X98819D02*
D03*
X102756D02*
D03*
X104724D02*
D03*
X96850Y-131437D02*
D03*
X98819D02*
D03*
X102756D02*
D03*
X104724D02*
D03*
X122047D02*
D03*
X120079D02*
D03*
X116142D02*
D03*
X122047Y-128405D02*
D03*
X120079D02*
D03*
X116142D02*
D03*
X114173D02*
D03*
Y-131437D02*
D03*
D222*
X133858Y-130256D02*
D03*
Y-127224D02*
D03*
X62992Y-136279D02*
D03*
Y-139311D02*
D03*
X37598Y-141201D02*
D03*
Y-144232D02*
D03*
X100787Y-128405D02*
D03*
Y-131437D02*
D03*
X118110D02*
D03*
Y-128405D02*
D03*
D223*
X100000Y-141535D02*
D03*
X101575D02*
D03*
X103150D02*
D03*
X104724D02*
D03*
X106299D02*
D03*
X107874D02*
D03*
X109449D02*
D03*
X111024D02*
D03*
X112598D02*
D03*
X114173D02*
D03*
X115748D02*
D03*
X117323D02*
D03*
X118898D02*
D03*
X120472D02*
D03*
X122047D02*
D03*
X123622D02*
D03*
X125197D02*
D03*
X126772D02*
D03*
X128347D02*
D03*
D224*
X-13386Y155512D02*
D03*
M02*
