M48
;Layer_Color=9474304
;FILE_FORMAT=2:4
INCH,TZ
;TYPE=PLATED
T2F00S00C0.0118
T3F00S00C0.0138
T4F00S00C0.0157
T5F00S00C0.0276
T6F00S00C0.0280
T7F00S00C0.0315
T9F00S00C0.0354
T10F00S00C0.0400
T11F00S00C0.0433
T12F00S00C0.0472
T13F00S00C0.0500
T14F00S00C0.0512
T15F00S00C0.0551
T16F00S00C0.0618
T17F00S00C0.0630
T18F00S00C0.0827
T19F00S00C0.0906
T20F00S00C0.1181
T21F00S00C0.1220
T22F00S00C0.1280
;TYPE=NON_PLATED
T1F00S00C0.0500
%
T02
X-1339Y-12677
X-2Y-11998
X1000Y-12000
X9911Y-14813
X12008Y-14931
X10039Y-12441
X17323Y-12303
X18209Y-8366
X12598Y-7776
X12835Y-11339
X12205
X11811
X11181
X10709
X10079
X15059Y-1969
X16929Y-1476
X22890Y3191
X3445Y3435
X2000Y4000
X1000
X500
X0
X1000Y3500
X1500
X500Y3000
X0Y2500
Y2000
X-500
Y1500
X-1000Y1467
Y1000
X500
Y1500
X1000
Y2000
X-1000Y3000
X-1500
X-2250Y2750
X-2000Y3500
Y4000
X-1016Y-1500
X-500
X-511Y-1011
X0Y-1000
Y-500
X1000Y-1000
Y-1500
X1511Y-989
X1500Y-500
X2378Y0
X2723
X6496Y-591
X3799Y-4213
X3150Y-4488
Y-4820
X2873Y-6334
Y-6666
X1000Y-7000
Y-7500
X1500Y-8000
Y-8500
X1000Y-9000
X500
X0
Y-8500
Y-7000
Y-6500
X-500Y-6945
X-1000Y-6500
X-1500
X-1000Y-6000
Y-5500
X0
X-39Y-5039
X500Y-5000
Y-4500
X1500Y-5000
Y-5500
X1000
Y-6000
Y-10000
Y-10500
X500
Y-11000
X498Y-11498
X0Y-11500
X-500Y-10500
Y-10000
X-1000Y-9500
Y-9000
X-2000Y-9500
X1000Y-11000
X1500
Y-11500
X2000Y-10500
X9055Y-11339
X9685
X-1500Y-4000
Y-3500
X-3000Y-3697
X-3234Y-3932
X-3508Y-4394
X-3742Y-4628
X-4646Y-3858
X-4961Y-2874
X-5118Y-1654
X-1000Y-2000
X-6850Y-2205
X-6811Y-3346
X-18701Y8061
X-1000Y8000
X-500
Y8500
X0
Y10000
X-500
Y9500
X-1500Y10000
X-2000
X-2100Y9250
X-2390Y5900
X1000Y7500
X2390
Y8000
X2500Y7000
Y10400
X2200Y10152
X2000Y11500
X1500Y12000
Y12500
X1000
Y12000
X500Y11000
X4606Y8504
X1500Y4500
X16043Y9744
X16437
X16883Y9764
T03
X-24114Y-13681
X-21429Y-15126
X-20429
X-20929Y-16126
X-19929
X-17929
X-18429Y-15126
X-16429
X-15429
X-15929Y-16126
X-14929
X-13429Y-15126
X-11429
X-10429
X-10929Y-16126
X-9929
X-8429Y-15126
X-6429
X-6929Y-16126
X-5929
X-14429Y-13126
X-16535Y-13425
X-16024Y-11890
X-15669Y-11614
X-21200Y-11900
X-3100Y-12746
X-2756Y-14075
X-3051Y-14370
X-3601Y-13918
X-3937Y-13681
X-5429Y-15126
X-4929Y-16126
X-2929
X71
X1071
X1083Y-14862
X1378Y-15157
X492Y-14764
X2008Y-12874
X2087Y-12008
X5118Y-13878
X5630Y-14291
X6181Y-14331
X6909Y-15691
X7874Y-13130
X7904Y-12648
X7953Y-12195
X8880Y-12588
X3425Y-16142
X10071Y-16126
X11071
X12071
X12500Y-14862
X10512Y-14816
X10945Y-13071
X13287Y-13484
X13681Y-11909
X14665Y-11909
X15945Y-11516
X17900Y-11900
X16634Y-13583
X16437Y-14567
X16571Y-15126
X19193Y-15453
X19685Y-15453
X20071Y-16126
X20571Y-15126
X21571
X22571
X23571
X24571
X24071Y-16126
X23071
X22071
Y-14126
X21071
X21600Y-12700
X22800Y-12600
Y-12000
X23071Y-14126
X25071
X18799Y-15846
X25984Y-12697
X26496Y-11693
X27165Y-13287
X27362Y-11220
X27402Y-10276
Y-9449
Y-8543
X26890Y-8583
X26476Y-9350
X27165Y-4429
X27598Y-4291
X27205Y-3780
Y-3268
X25571Y-3126
X26071Y-4126
X26102Y-1339
X27165Y1772
Y2256
X24016Y2244
Y1732
X23976Y3268
Y3740
X24092Y174
X23898Y-709
X23465Y-1772
X23858Y-2268
X24016Y-3268
Y-3772
X24071Y-4126
X23071
X22071
X25071
X24606Y-8150
X24071Y-8126
X23031Y-10433
X22571Y-11126
X21571
X21071Y-10126
X22071
X18571Y-9126
X17571
X16043Y-10335
X14764Y-9646
X14222Y-9843
X13819Y-10098
X13484Y-9055
X13681Y-11398
X18111Y-11337
X19646Y-7953
X18337Y-1693
X17520Y-1438
X17559Y-1063
X18406Y-689
X16043Y-591
X16240Y-984
X15650Y-1476
X16142Y-2067
X16535
X17126Y-2108
X12106Y-1181
X10925Y-1280
X11496Y-79
X11177Y828
X10879Y1030
X11614Y1181
X12303Y1476
X12697Y1181
X11929Y2835
X11063Y2402
X10532Y1673
X14488Y1929
X18209Y2854
X21654Y945
X22008Y1024
X22402
X22461Y20
X22028
Y-413
X22461
X9100Y-200
X8900Y100
X7677Y-197
X7480Y-689
X7997Y-689
X8200Y-1000
X8494Y-1310
X8700Y-1639
X7087Y-886
X7700Y1400
X8100Y2200
X8400Y2500
X8300Y3000
X8698Y3302
X8750Y1750
X5900Y2800
X4000Y3400
X3445Y2953
X3150Y2461
X2845Y2156
X2000Y2000
Y500
X500
X0Y0
X-1000Y500
X-500Y1000
X0Y1500
X492Y1992
X0Y3000
X1500Y4000
X-1500
X-3819Y3307
X-2250Y-1250
X0Y-1500
Y-3000
X-1500
X-1000Y-3500
Y-4000
X-500
Y-5000
X1000
X500Y-5500
Y-7000
X2000
Y-5500
X2146Y-4213
X2160Y-3681
X2667Y-3937
X3248
X2972Y-3632
X1500Y-3500
Y-4500
X2000Y-2500
X2071Y-2126
X2067Y-1083
X1000Y-500
Y-2000
X-1500Y-4500
X-2700Y-3300
X-3400Y-5051
Y-5422
X-3589Y-6636
X-3219Y-6650
X-4300Y-6952
X-4331Y-7323
X-4300Y-7898
Y-8244
X-4429Y-8957
X-4449Y-9331
X-3800Y-10300
X-1000Y-10000
X0
X500Y-8500
X-1000
Y-7000
X-5276Y-6654
X1000Y-11500
X2000
X3571Y-11126
X4724Y-10827
X4900Y-11300
X6162Y-11436
X6486Y-11191
X6654Y-10807
X6949Y-10522
X6200Y-9900
X3071Y-10126
X-8929
X-9400Y-9189
Y-8843
X-9200Y-8244
Y-7898
X-9300Y-5400
X-9700
X-9400Y-4463
Y-4117
X-9117Y-3519
Y-3174
X-9200Y-2574
X-9252Y-2165
X-9547Y-1181
X-9252Y-886
X-8366Y-984
X-8500Y-250
X-9646Y394
Y3150
X-10039
X-10433
Y3543
X-10039
X-9646
X-8661Y3445
X-6791Y3543
Y3150
X-6398
X-6004
Y3543
X-6398
X-5709Y2362
X-7530Y2165
Y1772
X-7923
Y2165
X-6902Y-1083
X-6693Y-886
X-7000Y-5063
Y-5409
Y-6500
X-6700Y-6800
X-10400Y-10100
X-12000Y-9400
X-12429Y-9126
X-13429Y-7126
X-14429
X-15429Y-5126
X-16429
X-17429
X-18429
X-19429
X-20429
X-20929Y-6126
X-20429Y-9126
X-17929Y-4126
X-16929
X-15929
X-19016Y-3031
X-18996Y689
X-19390
X-19882
X-20276
X-20472Y1772
X-20079
X-19685
X-19291
X-18898
X-18504
X-18110
Y689
X-18504
X-17293Y2126
Y2520
X-16900
Y2126
X-15325
X-14931
Y2520
X-15325
X-13780Y2461
Y2067
X-13386
Y2461
Y2854
X-13780
X-13858Y3386
X-16339Y3504
X-17165Y3583
X-20276Y4094
X-20965Y1772
X-15433Y39
X-13500Y-400
X-12087Y-118
X-12500Y900
X-12106Y-2362
X-12429Y-3126
X-11614Y-3248
X-11516Y-3642
X-10748Y-3740
X-10300Y-1900
X-22429Y-1126
X-22929Y-126
X-24929
X-25429Y-1126
X-24929Y-2126
X-25429Y-3126
X-24929Y-4126
X-23425Y-7972
Y-8465
X-23929Y-10126
X-24929
X-25929Y1874
Y3874
X-24929
X-22933Y3445
X-22638Y2490
X-22244
Y2096
X-22638
X-25429Y4874
X-24929Y5874
Y7874
X-25929
Y9874
X-25429Y10874
X-25929Y11874
Y13874
X-23929
X-22929
X-23429Y14874
X-22929Y15874
X-21929
X-21429Y14874
X-23929Y11874
X-23429Y10874
X-23929Y9874
X-21929
X-19715Y9902
Y9508
X-19321
Y9902
X-19449Y8819
X-18996Y8937
X-18504Y8760
X-18850Y7750
X-17293Y7933
X-16900
Y8327
X-17293
X-16181Y8858
X-15325Y8327
X-14931
Y7933
X-15325
X-13780Y7874
X-13386
Y8268
Y8661
X-13780
Y8268
X-12929Y7874
X-12100Y6800
X-11700Y7100
X-11429Y6874
X-10429
X-9429
X-7972Y7283
X-6398
X-5929Y5874
X-7429Y8874
X-7480Y10827
X-7087
X-6693
X-6299
Y11614
X-6693
X-7087
X-7480
X-7429Y12874
X-7579Y15551
X-6398Y15059
X-10039Y13583
X-10630
X-10768Y11614
Y11181
Y10748
X-10335
Y11181
Y11614
X-9902
Y11181
Y10748
X-10630Y9154
X-11319Y9449
X-11900Y9700
X-11625Y10117
X-13189Y11614
X-13583
X-13976
X-14370
X-16142Y11811
X-16535
X-16929
X-17323
X-17717
X-17913Y12303
Y12795
Y13287
Y13780
Y14272
Y14764
X-17929Y15874
X-18929
X-19929
X-20929
X-17126Y14370
X-16732
X-16339
X-15945
X-13091Y15551
X-14331Y9055
X-16959Y6811
X-16614Y6398
X-16240Y6004
X-16250Y5630
X-15748Y4921
X-16772Y4449
X-17598Y5492
X-18032
Y5925
X-17598
X-19252Y6063
X-19646Y5945
X-19094Y5512
X-18850Y4300
X-20827Y6535
X-21142Y6969
X-20354Y7480
X-20392Y8200
X-12357Y6057
X-10929Y5874
X-11429Y4874
X-13429
X-3500Y5300
X-3346Y6131
X-3450Y6600
X-3543Y7992
X-3937
X-4331
X-4724
X-4331Y10532
X-4724Y11811
Y14370
X-4331
X-3937
X-3543
X-2953Y15059
Y15453
X98Y16142
Y16535
X2598Y16417
X4290Y15670
X5472Y16043
X5118Y12972
X4685
X4921Y12106
X4724Y9526
X4280Y9500
X4921Y8760
X5315Y8858
X5300Y7500
X5472Y7047
X4409Y6890
Y6496
X4000Y4900
X6000Y4300
X7050Y4250
X7300Y4600
X7650Y4450
X6398Y5709
X9350Y6496
X8268Y8268
X7579Y9055
X7283Y9350
X8400Y9700
X8750Y9850
X9200Y10000
X9700Y10100
X9843Y11319
X9800Y12250
X9071Y15874
X2087Y13297
X689Y13878
X500Y11500
X-1000
X-1500
Y11000
X-2000
Y10500
X-1500
X-1000
Y11000
Y12000
X-1500
X-2000
Y11500
X-2100Y5500
X-1000Y4500
X500Y5000
X1000Y8000
X1500Y8500
X3976Y8071
X3150Y10039
X10039Y10433
X10811Y11205
X11378Y12362
X11811
X12244
Y12795
Y13228
X11811
Y12795
X11378
Y13228
X11319Y14468
X11811Y14370
X12402Y14294
X12106Y15059
X11122Y15059
X10071Y15874
X10118Y13937
X10039Y13386
X10433Y12795
X13200Y11900
X13800
X14291Y13110
X13307Y13898
X13071Y15874
X17071
X19071
X19571Y14874
X20571
X21571
X22571
X23571
X24567Y14685
X25295Y13878
X22071Y13874
X21400Y13800
X21000Y13377
Y11800
X20997Y11400
X22071Y9874
X23071
X22600Y12400
X18110Y12205
X17708Y12402
X17717Y12992
X17323Y13287
X16535Y13465
X16634Y12402
Y10629
X16142Y10532
X15650Y10630
X15256Y10563
X12749Y9669
X12355
X11765
X11371
X12047Y8504
X12500Y7480
X13189Y7283
X13102Y6398
X13224Y5936
X13504Y5157
X14500Y5400
X14953Y5419
X14764Y5945
X15197Y6181
X15692Y6158
X15702Y7504
X16095
X16686
X17080
X17362Y6220
X18150Y6969
X18819Y7126
X19450Y7387
X20039Y7244
X19724Y6811
X20768Y6594
X19193Y8563
X17913Y11324
X10748Y7598
X10728Y6398
X11122Y6693
X25000
X24772Y7146
X26280Y6299
Y4626
X26772
X26476Y4134
X26575Y9547
X26969Y9449
X26673Y13287
X25984Y13287
X27264Y13484
X27293Y13937
T04
X-19173Y-15276
X-14173Y-15315
X-9213Y-15157
X-4291Y-15433
X3957Y-16240
X4429
X26575Y-7087
X23189Y1260
X21654Y1693
X16437Y-295
X15433Y2795
X10100Y2500
X-3600Y-4000
X-4100Y-4800
X-5200Y-5700
X-4600Y-7600
X-6929Y-5906
X-6950Y-4600
X-9000Y-4950
X-8800Y-3900
X-8750Y-2850
X-9646Y-2756
X-10000Y-4252
X-10157Y-5453
X-9803Y-7953
X-9961Y-9055
X-8900Y-9500
X-8800Y-8600
X-12900Y-7800
X-12077Y-3632
X-18100Y-1950
X-16100Y-11400
X-11300Y3900
X-6398Y1673
Y1181
X-5800Y6750
X-10000Y7200
X-11400Y5800
X-12600Y5600
Y4900
X-15200Y5300
X-12992Y9252
X-12500Y15157
X-10335Y15551
X-6791Y15650
X-4331Y11811
X-4724Y11417
Y10925
Y10532
X8465Y8760
X7874Y7579
X10925Y5610
X18504Y5512
X26378Y8760
Y10827
T05
X-21063Y-3346
Y-2559
Y-1772
Y-984
Y-197
X-21654Y-394
Y-1378
Y-2165
Y-3150
T06
X-16732Y-98
X-16043
T07
X-6890Y-10472
T09
X-19195Y-11048
Y-10248
Y-9448
Y-8648
Y-7848
Y-7048
X-18195Y-7448
Y-8248
Y-9848
Y-10648
Y-11448
Y-6648
T10
X-24213Y5118
Y6299
Y7480
X-23031Y7480
Y6299
Y5118
X3709Y11319
X4709
X5709
X6709
X7709
X8709
T11
X9281Y-16339
X13553
T12
X-6890Y630
T13
X-25295Y-12008
X-24295
Y-6088
X-23295
X-25295
T14
X9281Y-14567
X13553
T15
X-22244Y11181
T16
X-21795Y-12508
Y-5588
T17
X-25886Y11181
T18
X-24961Y2559
T19
X-22441Y-4358
Y815
T20
X-25913Y6299
T21
X-24961Y-15157
X-1339Y-15551
X15197
X26220Y-15157
X-24961Y15157
X-1339Y15551
X15197
X26220Y15157
T22
X-21795Y-10948
Y-7148
T01
X1200Y-13205
X0Y13205
M30
