M48
;Layer_Color=9474304
;FILE_FORMAT=2:5
INCH,TZ
;TYPE=PLATED
T2F00S00C0.01181
T3F00S00C0.01378
T4F00S00C0.01575
T5F00S00C0.02756
T6F00S00C0.02800
T7F00S00C0.03150
T9F00S00C0.03543
T10F00S00C0.04000
T11F00S00C0.04331
T12F00S00C0.04724
T13F00S00C0.05000
T14F00S00C0.05118
T15F00S00C0.05512
T16F00S00C0.06181
T17F00S00C0.06299
T18F00S00C0.08268
T19F00S00C0.09055
T20F00S00C0.11811
T21F00S00C0.12205
T22F00S00C0.12800
;TYPE=NON_PLATED
T1F00S00C0.05000
%
T02
X-13386Y-126772
X-22Y-119977
X10000Y-120000
X100394Y-124409
X173228Y-123031
X182087Y-83661
X125984Y-77756
X128347Y-113386
X122047
X118110
X111811
X107087
X100787
X150591Y-19685
X169291Y-14764
X228898Y31905
X64961Y-5906
X27234Y0
X23778
X15000Y-5000
X15110Y-9890
X10000Y-10000
Y-15000
X0Y-10000
Y-5000
X-5110Y-10110
X-5000Y-15000
X-10156
X-10000Y-20000
X-15000Y-35000
Y-40000
X-32340Y-39316
X-29998Y-36974
X-35079Y-43937
X-37421Y-46279
X-46457Y-38583
X-49606Y-28740
X-51181Y-16535
X-10000Y10000
Y14672
X-5000Y15000
Y20000
X0
Y25000
X5000Y30000
Y40000
X10000
Y35000
X15000
X20000Y40000
X0
X-20000
Y35000
X-15000Y30000
X-10000
X-22500Y27500
X5000Y15000
Y10000
X10000Y15000
Y20000
X5000Y-45000
Y-50000
X-394Y-50394
X0Y-55000
Y-65000
Y-70000
X-5000Y-69448
X-10000Y-65000
X-15000
X-10000Y-60000
Y-55000
X10000
X15000
Y-50000
X10000Y-60000
Y-70000
Y-75000
X15000Y-80000
Y-85000
X10000Y-90000
X5000
X0
Y-85000
X-10000Y-90000
Y-95000
X-5000Y-100000
Y-105000
X5000
X10000
Y-100000
Y-110000
X5000
X4978Y-114978
X0Y-115000
X15000
Y-110000
X20000Y-105000
X28732Y-66656
Y-63344
X31496Y-48196
Y-44884
X-20000Y-95000
X90551Y-113386
X96850
X-68110Y-33465
X-68504Y-22047
X-187008Y80610
X-10000Y80000
X-5000
Y85000
X0
Y100000
X-5000
Y95000
X-15000Y100000
X-20000
X-21000Y92500
X-23900Y59000
X10000Y75000
X23900
Y80000
X25000Y70000
Y104000
X22000Y101516
X20000Y115000
X15000Y120000
Y125000
X10000
Y120000
X5000Y110000
X46063Y85039
X15000Y45000
X160433Y97441
X164370
X168827Y97638
T03
X-241142Y-136811
X-214291Y-151260
X-204291
X-209291Y-161260
X-199291
X-179291
X-184291Y-151260
X-164291
X-154291
X-159291Y-161260
X-149291
X-134291Y-151260
X-114291
X-104291
X-109291Y-161260
X-99291
X-84291Y-151260
X-64291
X-69291Y-161260
X-59291
X-144291Y-131260
X-165354Y-134252
X-160236Y-118898
X-156693Y-116142
X-212000Y-119000
X-31000Y-127465
X-27559Y-140748
X-30512Y-143701
X-36013Y-139184
X-39370Y-136811
X-54291Y-151260
X-49291Y-161260
X-29291
X709
X10709
X10827Y-148622
X13780Y-151575
X4921Y-147638
X20079Y-128740
X20866Y-120079
X51181Y-138779
X56299Y-142913
X61811Y-143307
X69095Y-156905
X78740Y-131299
X79035Y-126476
X79528Y-121949
X88795Y-125879
X34252Y-161417
X100709Y-161260
X110709
X120709
X125000Y-148622
X132874Y-134843
X136811Y-119095
X146653Y-119094
X159449Y-115157
X179000Y-119000
X166339Y-135827
X164370Y-145669
X165709Y-151260
X191929Y-154528
X196850Y-154527
X200709Y-161260
X205709Y-151260
X215709
X225709
X235709
X245709
X240709Y-161260
X230709
X220709
Y-141260
X210709
X216000Y-127000
X228000Y-126000
Y-120000
X230709Y-141260
X250709
X187992Y-158465
X104724Y-145669
X109449Y-130709
X259842Y-126969
X264961Y-116929
X271654Y-132874
X273622Y-112205
X274016Y-102756
Y-94488
Y-85433
X268898Y-85827
X264764Y-93504
X271654Y-44291
X275984Y-42913
X272047Y-37795
Y-32677
X255709Y-31260
X260709Y-41260
X261024Y-13386
X271654Y17717
Y22559
X240158Y22441
Y17323
X239764Y32677
Y37402
X240915Y1742
X238976Y-7087
X234646Y-17717
X238583Y-22677
X240158Y-32677
Y-37716
X240709Y-41260
X230709
X220709
X250709
X246063Y-81496
X240709Y-81260
X230315Y-104331
X225709Y-111260
X215709
X210709Y-101260
X220709
X185709Y-91260
X175709
X160433Y-103347
X147638Y-96457
X142224Y-98425
X138189Y-100984
X134843Y-90551
X136811Y-113976
X181114Y-113366
X196457Y-79528
X196063Y-19685
X184055Y-6890
X175590Y-10630
X175197Y-14379
X171260Y-21080
X165354Y-20669
X161417
X156496Y-14764
X162402Y-9843
X160433Y-5906
X144882Y19291
X126969Y11811
X123031Y14764
X116142Y11811
X111771Y8283
X108793Y10302
X105315Y16732
X110630Y24016
X119291Y28346
X114961Y-787
X121063Y-11811
X109252Y-12795
X182087Y28543
X216535Y9449
X220079Y10236
X224016
X224606Y197
X220276
Y-4134
X224606
X91000Y-2000
X89000Y1000
X76772Y-1969
X74803Y-6890
X79970Y-6890
X82000Y-10000
X84942Y-13097
X87000Y-16390
X70866Y-8858
X77000Y14000
X81000Y22000
X84000Y25000
X83000Y30000
X86982Y33018
X87500Y17500
X59000Y28000
X40000Y34000
X34449Y29528
X31496Y24606
X28450Y21560
X20000Y20000
Y5000
X5000
X0Y0
X-10000Y5000
X-5000Y10000
X0Y15000
X4921Y19921
X0Y30000
X15000Y40000
X-15000
X-38189Y33071
X-22500Y-12500
X0Y-15000
Y-30000
X-15000
X-10000Y-35000
Y-40000
X-5000
Y-50000
X10000
X5000Y-55000
Y-70000
X20000
Y-55000
X21457Y-42126
X21604Y-36811
X26673Y-39370
X32480
X29724Y-36319
X15000Y-35000
Y-45000
X20000Y-25000
X20709Y-21260
X20669Y-10827
X10000Y-5000
Y-20000
X-15000Y-45000
X-27000Y-33000
X-34000Y-50509
Y-54215
X-35893Y-66361
X-32187Y-66500
X-43000Y-69522
X-43307Y-73228
X-43000Y-78981
Y-82437
X-44291Y-89573
X-44488Y-93307
X-38000Y-103000
X-10000Y-100000
X0
X5000Y-85000
X-10000
Y-70000
X-52756Y-66535
X10000Y-115000
X20000
X35709Y-111260
X47244Y-108268
X49000Y-113000
X61622Y-114362
X64862Y-111909
X66535Y-108071
X69488Y-105217
X62000Y-99000
X30709Y-101260
X-89291
X-94000Y-91885
Y-88429
X-92000Y-82437
Y-78981
X-93000Y-54000
X-97000
X-94000Y-44628
Y-41172
X-91172Y-35192
Y-31737
X-92000Y-25744
X-92519Y-21654
X-95472Y-11811
X-92520Y-8858
X-83661Y-9843
X-85000Y-2500
X-96457Y3937
Y31496
X-100394
X-104331
Y35433
X-100394
X-96457
X-86614Y34449
X-67913Y35433
Y31496
X-63976
X-60039
Y35433
X-63976
X-57087Y23622
X-75295Y21654
Y17717
X-79232
Y21654
X-69021Y-10827
X-66929Y-8858
X-70000Y-50634
Y-54090
Y-65000
X-67000Y-68000
X-104000Y-101000
X-120000Y-94000
X-124291Y-91260
X-134291Y-71260
X-144291
X-154291Y-51260
X-164291
X-174291
X-184291
X-194291
X-204291
X-209291Y-61260
X-204291Y-91260
X-179291Y-41260
X-169291
X-159291
X-190157Y-30315
X-189961Y6890
X-193898
X-198819
X-202756
X-204724Y17717
X-200787
X-196850
X-192913
X-188976
X-185039
X-181102
Y6890
X-185039
X-172933Y21260
Y25197
X-168996
Y21260
X-153248
X-149311
Y25197
X-153248
X-137795Y24606
Y20669
X-133858
Y24606
Y28543
X-137795
X-138583Y33858
X-163386Y35039
X-171653Y35827
X-202756Y40945
X-209646Y17717
X-154331Y394
X-135000Y-4000
X-120866Y-1181
X-125000Y9000
X-121063Y-23622
X-124291Y-31260
X-116142Y-32480
X-115157Y-36417
X-107480Y-37402
X-103000Y-19000
X-224291Y-11260
X-229291Y-1260
X-249291
X-254291Y-11260
X-249291Y-21260
X-254291Y-31260
X-249291Y-41260
X-234252Y-79724
Y-84646
X-239291Y-101260
X-249291
X-259291Y18740
Y38740
X-249291
X-229331Y34449
X-226378Y24902
X-222441
Y20965
X-226378
X-254291Y48740
X-249291Y58740
Y78740
X-259291
Y98740
X-254291Y108740
X-259291Y118740
Y138740
X-239291
X-229291
X-234291Y148740
X-229291Y158740
X-219291
X-214291Y148740
X-239291Y118740
X-234291Y108740
X-239291Y98740
X-219291
X-197146Y99016
Y95079
X-193209
Y99016
X-194488Y88189
X-189961Y89370
X-185039Y87598
X-188500Y77500
X-172933Y79331
X-168996
Y83268
X-172933
X-161811Y88583
X-153248Y83268
X-149311
Y79331
X-153248
X-137795Y78740
X-133858
Y82677
Y86614
X-137795
Y82677
X-129291Y78740
X-121000Y68000
X-117000Y71000
X-114291Y68740
X-104291
X-94291
X-79724Y72835
X-63976
X-59291Y58740
X-74291Y88740
X-74803Y108268
X-70866
X-66929
X-62992
Y116142
X-66929
X-70866
X-74803
X-74291Y128740
X-75787Y155512
X-63976Y150591
X-100394Y135827
X-106299
X-107677Y116142
Y111811
Y107480
X-103347
Y111811
Y116142
X-99016
Y111811
Y107480
X-106299Y91535
X-113189Y94488
X-119000Y97000
X-116247Y101165
X-131890Y116142
X-135827
X-139764
X-143701
X-161417Y118110
X-165354
X-169291
X-173228
X-177165
X-179134Y123031
Y127953
Y132874
Y137795
Y142717
Y147638
X-179291Y158740
X-189291
X-199291
X-209291
X-171260Y143701
X-167323
X-163386
X-159449
X-130905Y155512
X-143307Y90551
X-169587Y68110
X-166142Y63976
X-162401Y60040
X-162500Y56299
X-157480Y49213
X-167717Y44488
X-175984Y54921
X-180315
Y59252
X-175984
X-192520Y60630
X-196457Y59449
X-190945Y55118
X-188500Y43000
X-208268Y65354
X-211417Y69685
X-203543Y74803
X-203921Y81995
X-123574Y60574
X-109291Y58740
X-114291Y48740
X-134291
X-35000Y53000
X-33465Y61311
X-34500Y66000
X-35433Y79921
X-39370
X-43307
X-47244
X-43307Y105315
X-47244Y118110
Y143701
X-43307
X-39370
X-35433
X-29528Y150591
Y154528
X984Y161417
Y165354
X25984Y164173
X42900Y156700
X54724Y160433
X51181Y129724
X46850
X49213Y121063
X47244Y95256
X42795Y95000
X49213Y87598
X53150Y88583
X53000Y75000
X54724Y70472
X44094Y68898
Y64961
X40000Y49000
X60000Y43000
X70500Y42500
X73000Y46000
X76500Y44500
X63976Y57087
X93504Y64961
X82677Y82677
X75787Y90551
X72835Y93504
X84000Y97000
X87500Y98500
X92000Y100000
X97000Y101000
X98425Y113189
X98000Y122500
X90709Y158740
X6890Y138779
X5000Y115000
X-10000
X-15000
Y110000
X-20000
Y105000
X-15000
X-10000
Y110000
Y120000
X-15000
X-20000
Y115000
X-21000Y55000
X-10000Y45000
X5000Y50000
X10000Y80000
X15000Y85000
X39764Y80709
X31496Y100394
X100394Y104331
X108110Y112047
X113779Y123622
X118110
X122441
Y127953
Y132283
X118110
Y127953
X113779
Y132283
X113189Y144685
X118110Y143701
X124016Y142945
X121063Y150590
X111221Y150591
X100709Y158740
X101181Y139370
X100394Y133858
X104331Y127953
X132000Y119000
X138000
X142913Y131102
X133071Y138976
X130709Y158740
X170709
X190709
X195709Y148740
X205709
X215709
X225709
X235709
X245669Y146850
X252953Y138779
X220709Y138740
X214000Y138000
X210000Y133768
Y118000
X209972Y114000
X220709Y98740
X230709
X226000Y124000
X181102Y122047
X177076Y124016
X177165Y129921
X173228Y132874
X165354Y134646
X166339Y124016
Y106288
X161417Y105315
X156496Y106299
X152559Y105629
X127488Y96693
X123551
X117646
X113709
X120472Y85039
X125000Y74803
X131890Y72835
X131024Y63976
X132239Y59360
X135039Y51575
X145000Y54000
X149530Y54195
X147638Y59449
X151969Y61811
X156920Y61584
X157016Y75039
X160953
X166858
X170795
X173622Y62205
X181496Y69685
X188189Y71260
X194504Y73867
X200394Y72441
X197244Y68110
X207677Y65945
X191929Y85630
X179126Y113240
X107480Y75984
X107283Y63976
X111221Y66929
X250000
X247724Y71457
X262795Y62992
Y46260
X267717
X264764Y41339
X265748Y95472
X269685Y94488
X266732Y132874
X259842Y132874
X272638Y134843
X272933Y139370
T04
X-191732Y-152756
X-141732Y-153150
X-92126Y-151575
X-42913Y-154331
X39567Y-162402
X44291
X265748Y-70866
X231890Y12598
X216535Y16929
X164370Y-2953
X154331Y27953
X101000Y25000
X-36000Y-40000
X-41000Y-48000
X-52000Y-57000
X-46000Y-76000
X-69291Y-59055
X-69500Y-46000
X-90000Y-49500
X-88000Y-39000
X-87500Y-28500
X-96457Y-27559
X-100000Y-42520
X-101575Y-54528
X-98032Y-79528
X-99606Y-90551
X-89000Y-95000
X-88000Y-86000
X-129000Y-78000
X-120768Y-36319
X-181000Y-19500
X-161000Y-114000
X-113000Y39000
X-63976Y16732
Y11811
X-58000Y67500
X-100000Y72000
X-114000Y58000
X-126000Y56000
Y49000
X-152000Y53000
X-129921Y92520
X-125000Y151575
X-103347Y155512
X-67913Y156496
X-43307Y118110
X-47244Y114173
Y109252
Y105315
X84646Y87598
X78740Y75787
X109252Y56102
X185039Y55118
X263779Y87598
Y108268
T05
X-210630Y-33465
Y-25591
Y-17717
Y-9843
Y-1969
X-216535Y-3937
Y-13780
Y-21654
Y-31496
T06
X-167323Y-984
X-160433
T07
X-68898Y-104724
T09
X-191953Y-110479
Y-102479
Y-94479
Y-86479
Y-78479
Y-70479
X-181953Y-74479
Y-82479
Y-98479
Y-106479
Y-114479
Y-66479
T10
X-242126Y51181
Y62992
Y74803
X-230315Y74803
Y62992
Y51181
X37087Y113189
X47087
X57087
X67087
X77087
X87087
T11
X92815Y-163386
X135531
T12
X-68898Y6299
T13
X-252953Y-120079
X-242953
Y-60879
X-232953
X-252953
T14
X92815Y-145669
X135531
T15
X-222441Y111811
T16
X-217953Y-125079
Y-55879
T17
X-258858Y111811
T18
X-249606Y25591
T19
X-224410Y-43583
Y8150
T20
X-259126Y62992
T21
X-249606Y-151575
X-13386Y-155512
X151969
X262205Y-151575
X-249606Y151575
X-13386Y155512
X151969
X262205Y151575
T22
X-217953Y-109479
Y-71479
T01
X12000Y-132050
X0Y132050
M30
