G04 Layer_Color=65535*
%FSAX24Y24*%
%MOIN*%
G70*
G01*
G75*
%ADD24C,0.0039*%
%ADD25C,0.0079*%
D24*
X017564Y021690D02*
G03*
X017564Y021690I-000020J000000D01*
G01*
X014390Y013872D02*
G03*
X014390Y013872I-000020J000000D01*
G01*
X022392Y015965D02*
G03*
X022392Y015965I-000020J000000D01*
G01*
D25*
X017702Y021336D02*
Y021690D01*
Y019958D02*
Y020312D01*
X019041Y021336D02*
Y021690D01*
Y019958D02*
Y020312D01*
X017702Y021690D02*
X019041D01*
X017702Y019958D02*
X019041D01*
X016796Y020135D02*
Y019807D01*
X016862Y019741D01*
X016993D01*
X017059Y019807D01*
Y020135D01*
X017190Y019741D02*
X017321D01*
X017256D01*
Y020135D01*
X017190Y020069D01*
X016698Y015214D02*
Y014820D01*
X016895D01*
X016960Y014886D01*
Y015148D01*
X016895Y015214D01*
X016698D01*
X017354Y014820D02*
X017092D01*
X017354Y015082D01*
Y015148D01*
X017288Y015214D01*
X017157D01*
X017092Y015148D01*
X019454Y015115D02*
Y014722D01*
X019651D01*
X019716Y014787D01*
Y015050D01*
X019651Y015115D01*
X019454D01*
X019848Y014722D02*
X019979D01*
X019913D01*
Y015115D01*
X019848Y015050D01*
X020438Y017084D02*
Y017477D01*
X020569Y017346D01*
X020701Y017477D01*
Y017084D01*
X020832Y017477D02*
Y017084D01*
Y017281D01*
X021094D01*
Y017477D01*
Y017084D01*
X021488D02*
X021225D01*
X021488Y017346D01*
Y017412D01*
X021422Y017477D01*
X021291D01*
X021225Y017412D01*
X020537Y021710D02*
Y022103D01*
X020668Y021972D01*
X020799Y022103D01*
Y021710D01*
X020930Y022103D02*
Y021710D01*
Y021907D01*
X021193D01*
Y022103D01*
Y021710D01*
X021521D02*
Y022103D01*
X021324Y021907D01*
X021586D01*
X015123Y021808D02*
Y022202D01*
X015254Y022071D01*
X015386Y022202D01*
Y021808D01*
X015517Y022202D02*
Y021808D01*
Y022005D01*
X015779D01*
Y022202D01*
Y021808D01*
X015910Y022136D02*
X015976Y022202D01*
X016107D01*
X016173Y022136D01*
Y022071D01*
X016107Y022005D01*
X016042D01*
X016107D01*
X016173Y021939D01*
Y021874D01*
X016107Y021808D01*
X015976D01*
X015910Y021874D01*
X015123Y017182D02*
Y017576D01*
X015254Y017445D01*
X015386Y017576D01*
Y017182D01*
X015517Y017576D02*
Y017182D01*
Y017379D01*
X015779D01*
Y017576D01*
Y017182D01*
X015910D02*
X016042D01*
X015976D01*
Y017576D01*
X015910Y017510D01*
X020635Y019840D02*
Y019446D01*
X020897D01*
X020635Y020332D02*
Y020725D01*
X020832D01*
X020897Y020660D01*
Y020529D01*
X020832Y020463D01*
X020635D01*
X020766D02*
X020897Y020332D01*
X019592Y022008D02*
X019527Y022074D01*
X019396D01*
X019330Y022008D01*
Y021746D01*
X019396Y021680D01*
X019527D01*
X019592Y021746D01*
X019724Y021680D02*
X019855D01*
X019789D01*
Y022074D01*
X019724Y022008D01*
M02*
