G04 Layer_Color=8388736*
%FSAX24Y24*%
%MOIN*%
G70*
G01*
G75*
%ADD26C,0.0198*%
%ADD27C,0.0198*%
%ADD28R,0.0395X0.0237*%
%ADD29R,0.1989X0.1174*%
%ADD30R,0.0478X0.0336*%
%ADD31R,0.0316X0.0297*%
%ADD32R,0.0332X0.0332*%
%ADD33C,0.0080*%
%ADD34C,0.1261*%
%ADD35C,0.0356*%
%ADD36C,0.0434*%
D26*
X018637Y021178D02*
G03*
X018371Y021444I-000266J000000D01*
G01*
D02*
G03*
X018106Y021178I000000J-000266D01*
G01*
X018371Y020913D02*
G03*
X018637Y021178I000000J000266D01*
G01*
X018106D02*
G03*
X018371Y020913I000266J000000D01*
G01*
D27*
X018637Y021178D02*
D03*
X018106D02*
D03*
X018371Y021444D02*
D03*
Y020913D02*
D03*
D28*
X017948Y020676D02*
D03*
Y020420D02*
D03*
Y020165D02*
D03*
X018794Y020676D02*
D03*
Y020420D02*
D03*
Y020165D02*
D03*
D29*
X015418Y014919D02*
D03*
X021324D02*
D03*
D30*
X016157Y015753D02*
D03*
X015665D02*
D03*
X015172D02*
D03*
X014680D02*
D03*
X016157Y014084D02*
D03*
X015665D02*
D03*
X015172D02*
D03*
X014680D02*
D03*
X020586Y014084D02*
D03*
X021078D02*
D03*
X021570D02*
D03*
X022062D02*
D03*
X020586Y015753D02*
D03*
X021078D02*
D03*
X021570D02*
D03*
X022062D02*
D03*
D31*
X020241Y019466D02*
D03*
Y019840D02*
D03*
Y020342D02*
D03*
Y020716D02*
D03*
D32*
X019454Y021202D02*
D03*
Y020840D02*
D03*
D33*
X018371Y021178D02*
D03*
D34*
X022505Y017281D02*
D03*
Y022005D02*
D03*
X014237D02*
D03*
Y017281D02*
D03*
D35*
X016206Y015312D02*
D03*
Y014919D02*
D03*
Y014525D02*
D03*
X015812Y015312D02*
D03*
Y014919D02*
D03*
Y014525D02*
D03*
X015418Y015312D02*
D03*
Y014919D02*
D03*
Y014525D02*
D03*
X015025Y015312D02*
D03*
Y014919D02*
D03*
Y014525D02*
D03*
X014631Y015312D02*
D03*
Y014919D02*
D03*
Y014525D02*
D03*
X020537Y014525D02*
D03*
Y014919D02*
D03*
Y015312D02*
D03*
X020930Y014525D02*
D03*
Y014919D02*
D03*
Y015312D02*
D03*
X021324Y014525D02*
D03*
Y014919D02*
D03*
Y015312D02*
D03*
X021718Y014525D02*
D03*
Y014919D02*
D03*
Y015312D02*
D03*
X022111Y014525D02*
D03*
Y014919D02*
D03*
Y015312D02*
D03*
D36*
X017879Y015509D02*
D03*
X017387D02*
D03*
X016895Y014525D02*
D03*
X020044Y021513D02*
D03*
X018371Y022104D02*
D03*
X017485Y021218D02*
D03*
X018667Y013737D02*
D03*
Y018363D02*
D03*
X019356Y017970D02*
D03*
X019060Y017478D02*
D03*
X020143Y017576D02*
D03*
M02*
