G04 Layer_Physical_Order=1*
G04 Layer_Color=255*
%FSAX24Y24*%
%MOIN*%
G70*
G01*
G75*
%ADD10C,0.0118*%
%ADD11C,0.0118*%
%ADD12R,0.0315X0.0157*%
%ADD13R,0.1909X0.1094*%
%ADD14R,0.0398X0.0256*%
%ADD15R,0.0236X0.0217*%
%ADD16R,0.0252X0.0252*%
%ADD17C,0.0080*%
%ADD18C,0.0138*%
%ADD19C,0.0236*%
%ADD20C,0.1181*%
%ADD21C,0.0276*%
%ADD22C,0.0354*%
G36*
X023170Y013072D02*
X017512D01*
X017497Y013122D01*
X017528Y013143D01*
X018001Y013616D01*
X018038Y013671D01*
X018051Y013737D01*
Y015292D01*
X018077Y015311D01*
X018121Y015369D01*
X018149Y015437D01*
X018159Y015509D01*
X018149Y015581D01*
X018121Y015649D01*
X018077Y015707D01*
X018019Y015751D01*
X017951Y015779D01*
X017879Y015789D01*
X017807Y015779D01*
X017739Y015751D01*
X017681Y015707D01*
X017665Y015685D01*
X017602D01*
X017585Y015707D01*
X017527Y015751D01*
X017459Y015779D01*
X017387Y015789D01*
X017315Y015779D01*
X017247Y015751D01*
X017189Y015707D01*
X017145Y015649D01*
X017117Y015581D01*
X017107Y015509D01*
X017117Y015437D01*
X017145Y015369D01*
X017189Y015311D01*
X017215Y015292D01*
Y014601D01*
X017165Y014597D01*
X017137Y014665D01*
X017093Y014722D01*
X017035Y014767D01*
X016967Y014795D01*
X016895Y014804D01*
X016823Y014795D01*
X016755Y014767D01*
X016697Y014722D01*
X016653Y014665D01*
X016625Y014597D01*
X016615Y014525D01*
X016625Y014452D01*
X016653Y014385D01*
X016697Y014327D01*
X016723Y014308D01*
Y014006D01*
X016627Y013910D01*
X015963D01*
Y014312D01*
X014382D01*
Y013856D01*
X014508D01*
Y013688D01*
X014521Y013622D01*
X014559Y013566D01*
X014982Y013143D01*
X015013Y013122D01*
X014998Y013072D01*
X013572D01*
Y022670D01*
X023170D01*
Y013072D01*
D02*
G37*
G36*
X017681Y015311D02*
X017707Y015292D01*
Y013809D01*
X017335Y013437D01*
X017199D01*
X017180Y013483D01*
X017509Y013812D01*
X017546Y013868D01*
X017559Y013934D01*
Y015292D01*
X017585Y015311D01*
X017602Y015333D01*
X017665D01*
X017681Y015311D01*
D02*
G37*
%LPC*%
G36*
X021560Y016823D02*
X015281D01*
X015215Y016810D01*
X015159Y016773D01*
X014559Y016172D01*
X014521Y016116D01*
X014508Y016050D01*
Y015981D01*
X014382D01*
Y015525D01*
X015963D01*
Y015927D01*
X020779D01*
Y015525D01*
X022361D01*
Y015981D01*
X022234D01*
Y016149D01*
X022221Y016215D01*
X022184Y016271D01*
X021682Y016773D01*
X021626Y016810D01*
X021560Y016823D01*
D02*
G37*
G36*
X022361Y014312D02*
X020779D01*
Y013960D01*
X018832D01*
X018806Y013980D01*
X018739Y014007D01*
X018667Y014017D01*
X018594Y014007D01*
X018527Y013980D01*
X018469Y013935D01*
X018424Y013877D01*
X018397Y013810D01*
X018387Y013737D01*
X018397Y013665D01*
X018424Y013598D01*
X018469Y013540D01*
X018527Y013495D01*
X018594Y013467D01*
X018667Y013458D01*
X018739Y013467D01*
X018806Y013495D01*
X018832Y013515D01*
X020930D01*
X020930Y013515D01*
X021015Y013532D01*
X021088Y013580D01*
X021235Y013728D01*
X021235Y013728D01*
X021283Y013800D01*
X021295Y013856D01*
X022361D01*
Y014312D01*
D02*
G37*
G36*
X019404Y021428D02*
X019228D01*
Y021252D01*
X019404D01*
Y021428D01*
D02*
G37*
G36*
X019680D02*
X019504D01*
Y021252D01*
X019680D01*
Y021428D01*
D02*
G37*
G36*
X020191Y019416D02*
X020023D01*
Y019257D01*
X020191D01*
Y019416D01*
D02*
G37*
G36*
X018371Y021606D02*
X018309Y021594D01*
X018301Y021588D01*
X018263Y021583D01*
X018162Y021542D01*
X018075Y021475D01*
X018008Y021388D01*
X017966Y021287D01*
X017961Y021249D01*
X017956Y021240D01*
X017943Y021178D01*
X017956Y021116D01*
X017961Y021108D01*
X017966Y021070D01*
X018008Y020969D01*
X018057Y020905D01*
X018032Y020855D01*
X017691D01*
Y020819D01*
X017338D01*
X017338Y020819D01*
X017283Y020808D01*
X017237Y020777D01*
X017237Y020777D01*
X016794Y020334D01*
X016763Y020288D01*
X016752Y020233D01*
X016752Y020233D01*
Y018659D01*
X016752Y018659D01*
X016763Y018604D01*
X016794Y018558D01*
X017975Y017377D01*
X017975Y017377D01*
X018021Y017346D01*
X018076Y017335D01*
X018076Y017335D01*
X018820D01*
X018863Y017280D01*
X018920Y017235D01*
X018988Y017208D01*
X019060Y017198D01*
X019133Y017208D01*
X019200Y017235D01*
X019258Y017280D01*
X019302Y017338D01*
X019330Y017405D01*
X019340Y017478D01*
X019330Y017550D01*
X019302Y017617D01*
X019277Y017650D01*
X019304Y017697D01*
X019356Y017690D01*
X019428Y017700D01*
X019495Y017728D01*
X019553Y017772D01*
X019598Y017830D01*
X019626Y017897D01*
X019635Y017970D01*
X019626Y018042D01*
X019598Y018109D01*
X019553Y018167D01*
X019495Y018212D01*
X019428Y018240D01*
X019356Y018249D01*
X019283Y018240D01*
X019216Y018212D01*
X019158Y018167D01*
X019116Y018112D01*
X018877D01*
X018860Y018162D01*
X018864Y018166D01*
X018909Y018224D01*
X018937Y018291D01*
X018946Y018363D01*
X018937Y018436D01*
X018909Y018503D01*
X018864Y018561D01*
X018806Y018605D01*
X018739Y018633D01*
X018667Y018643D01*
X018594Y018633D01*
X018527Y018605D01*
X018469Y018561D01*
X018427Y018506D01*
X018234D01*
X017628Y019111D01*
Y019944D01*
X017674Y019987D01*
X017691Y019986D01*
Y019986D01*
X018206D01*
Y020242D01*
Y020498D01*
Y020752D01*
X018247Y020780D01*
X018263Y020773D01*
X018301Y020768D01*
X018309Y020763D01*
X018371Y020750D01*
X018433Y020763D01*
X018442Y020768D01*
X018480Y020773D01*
X018495Y020780D01*
X018537Y020752D01*
Y020498D01*
Y020470D01*
X018794D01*
Y020370D01*
X018537D01*
Y020242D01*
Y019986D01*
X019052D01*
Y020022D01*
X019483D01*
X019483Y020022D01*
X019538Y020033D01*
X019584Y020064D01*
X019720Y020199D01*
X020023D01*
Y020133D01*
X020099D01*
Y020048D01*
X020023D01*
Y019632D01*
Y019516D01*
X020241D01*
Y019466D01*
X020291D01*
Y019257D01*
X020459D01*
X020492Y019221D01*
Y018127D01*
X020212Y017846D01*
X020143Y017856D01*
X020071Y017846D01*
X020003Y017818D01*
X019945Y017774D01*
X019901Y017716D01*
X019873Y017648D01*
X019863Y017576D01*
X019873Y017504D01*
X019901Y017436D01*
X019945Y017378D01*
X020003Y017334D01*
X020071Y017306D01*
X020143Y017296D01*
X020215Y017306D01*
X020283Y017334D01*
X020341Y017378D01*
X020385Y017436D01*
X020413Y017504D01*
X020422Y017576D01*
X020413Y017645D01*
X020736Y017967D01*
X020736Y017967D01*
X020767Y018013D01*
X020778Y018068D01*
Y020529D01*
X020778Y020529D01*
X020767Y020583D01*
X020736Y020630D01*
X020736Y020630D01*
X020549Y020817D01*
X020503Y020848D01*
X020459Y020856D01*
Y020924D01*
X020023D01*
Y020858D01*
X019680D01*
Y021152D01*
X019228D01*
Y020976D01*
Y020819D01*
X019052D01*
Y020855D01*
X018710D01*
X018686Y020905D01*
X018734Y020969D01*
X018776Y021070D01*
X018781Y021108D01*
X018787Y021116D01*
X018799Y021178D01*
X018787Y021240D01*
X018781Y021249D01*
X018776Y021287D01*
X018734Y021388D01*
X018668Y021475D01*
X018581Y021542D01*
X018480Y021583D01*
X018442Y021588D01*
X018433Y021594D01*
X018371Y021606D01*
D02*
G37*
%LPD*%
G36*
X017975Y017869D02*
X017975Y017869D01*
X018021Y017838D01*
X018076Y017827D01*
X018076Y017827D01*
X019101D01*
X019120Y017799D01*
X019092Y017753D01*
X019060Y017757D01*
X018988Y017748D01*
X018920Y017720D01*
X018863Y017675D01*
X018820Y017620D01*
X018135D01*
X017059Y018696D01*
X017063Y018710D01*
X017118Y018726D01*
X017975Y017869D01*
D02*
G37*
D10*
X018637Y021178D02*
G03*
X018371Y021444I-000266J000000D01*
G01*
D02*
G03*
X018106Y021178I000000J-000266D01*
G01*
X018371Y020913D02*
G03*
X018637Y021178I000000J000266D01*
G01*
X018106D02*
G03*
X018371Y020913I000266J000000D01*
G01*
D11*
X018637Y021178D02*
D03*
X018106D02*
D03*
X018371Y021444D02*
D03*
Y020913D02*
D03*
D12*
X017948Y020676D02*
D03*
Y020420D02*
D03*
Y020165D02*
D03*
X018794Y020676D02*
D03*
Y020420D02*
D03*
Y020165D02*
D03*
D13*
X015418Y014919D02*
D03*
X021324D02*
D03*
D14*
X016157Y015753D02*
D03*
X015665D02*
D03*
X015172D02*
D03*
X014680D02*
D03*
X016157Y014084D02*
D03*
X015665D02*
D03*
X015172D02*
D03*
X014680D02*
D03*
X020586Y014084D02*
D03*
X021078D02*
D03*
X021570D02*
D03*
X022062D02*
D03*
X020586Y015753D02*
D03*
X021078D02*
D03*
X021570D02*
D03*
X022062D02*
D03*
D15*
X020241Y019466D02*
D03*
Y019840D02*
D03*
Y020342D02*
D03*
Y020716D02*
D03*
D16*
X019454Y021202D02*
D03*
Y020840D02*
D03*
D17*
X018637Y021178D02*
X019430D01*
X018371Y021444D02*
Y022104D01*
Y020548D02*
Y020913D01*
X017525Y021178D02*
X018106D01*
X018499Y020420D02*
X018794D01*
X018371Y020548D02*
X018499Y020420D01*
X019430Y021178D02*
X019454Y021202D01*
X017485Y021218D02*
X017525Y021178D01*
X018794Y020676D02*
X019291D01*
X018794Y020165D02*
X019483D01*
X018174Y018363D02*
X018667D01*
X017485Y019052D02*
X018174Y018363D01*
X017485Y019052D02*
Y020037D01*
X018076Y017970D02*
X019356D01*
X017190Y018856D02*
X018076Y017970D01*
X016895Y018659D02*
X018076Y017478D01*
X019060D01*
X017338Y020676D02*
X017948D01*
X016895Y020233D02*
X017338Y020676D01*
X016895Y018659D02*
Y020233D01*
X017613Y020165D02*
X017948D01*
X017485Y020037D02*
X017613Y020165D01*
X017476Y020420D02*
X017948D01*
X017190Y020135D02*
X017476Y020420D01*
X017190Y018856D02*
Y020135D01*
X020241Y020716D02*
X020448D01*
X020635Y020529D01*
Y018068D02*
Y020529D01*
X020143Y017576D02*
X020635Y018068D01*
X019454Y020840D02*
X019578Y020716D01*
X020241D01*
Y019840D02*
Y020342D01*
X019661D02*
X020241D01*
X019483Y020165D02*
X019661Y020342D01*
X019291Y020676D02*
X019454Y020840D01*
D18*
X021245Y016375D02*
X021570Y016050D01*
X015497Y016375D02*
X021245D01*
X015172Y016050D02*
X015497Y016375D01*
X021560Y016651D02*
X022062Y016149D01*
X015281Y016651D02*
X021560D01*
X014680Y016050D02*
X015281Y016651D01*
X017407Y013265D02*
X017879Y013737D01*
X015104Y013265D02*
X017407D01*
X014680Y013688D02*
X015104Y013265D01*
X016954Y013501D02*
X017387Y013934D01*
X015458Y013501D02*
X016954D01*
X015172Y013787D02*
X015458Y013501D01*
X020930Y016100D02*
X021078Y015952D01*
X015812Y016100D02*
X020930D01*
X015665Y015952D02*
X015812Y016100D01*
X022062Y015753D02*
Y016149D01*
X014680Y015753D02*
Y016050D01*
X021570Y015753D02*
Y016050D01*
X015172Y015753D02*
Y016050D01*
X021078Y015753D02*
Y015952D01*
X015665Y015753D02*
Y015952D01*
X017879Y013737D02*
Y015509D01*
X017387Y013934D02*
Y015509D01*
X016895Y013934D02*
Y014525D01*
X016698Y013737D02*
X016895Y013934D01*
X015812Y013737D02*
X016698D01*
X015172Y013787D02*
Y014084D01*
X014680Y013688D02*
Y014084D01*
X015665Y013885D02*
X015812Y013737D01*
X015665Y013885D02*
Y014084D01*
D19*
X018667Y013737D02*
X020930D01*
X021078Y013885D01*
Y014084D01*
X021570D02*
X022062D01*
X021078D02*
X021570D01*
D20*
X022505Y017281D02*
D03*
Y022005D02*
D03*
X014237D02*
D03*
Y017281D02*
D03*
D21*
X016206Y015312D02*
D03*
Y014919D02*
D03*
Y014525D02*
D03*
X015812Y015312D02*
D03*
Y014919D02*
D03*
Y014525D02*
D03*
X015418Y015312D02*
D03*
Y014919D02*
D03*
Y014525D02*
D03*
X015025Y015312D02*
D03*
Y014919D02*
D03*
Y014525D02*
D03*
X014631Y015312D02*
D03*
Y014919D02*
D03*
Y014525D02*
D03*
X020537Y014525D02*
D03*
Y014919D02*
D03*
Y015312D02*
D03*
X020930Y014525D02*
D03*
Y014919D02*
D03*
Y015312D02*
D03*
X021324Y014525D02*
D03*
Y014919D02*
D03*
Y015312D02*
D03*
X021718Y014525D02*
D03*
Y014919D02*
D03*
Y015312D02*
D03*
X022111Y014525D02*
D03*
Y014919D02*
D03*
Y015312D02*
D03*
D22*
X017879Y015509D02*
D03*
X017387D02*
D03*
X016895Y014525D02*
D03*
X020044Y021513D02*
D03*
X018371Y022104D02*
D03*
X017485Y021218D02*
D03*
X018667Y013737D02*
D03*
Y018363D02*
D03*
X019356Y017970D02*
D03*
X019060Y017478D02*
D03*
X020143Y017576D02*
D03*
M02*
