M48
;Layer_Color=9474304
;FILE_FORMAT=2:4
INCH
;TYPE=PLATED
T1F00S00C0.0157
T2F00S00C0.0197
T3F00S00C0.0236
T4F00S00C0.0906
%
T01
X014631Y014525
X015025
X015418
Y014919
Y015312
X015025
Y014919
X014631
Y015312
X015812
Y014919
X016206
Y015312
Y014525
X015812
X020537Y014525
Y014919
Y015312
X020930
Y014919
Y014525
X021324
Y014919
Y015312
X021718
Y014919
Y014525
X022111
Y014919
Y015312
T02
X016895Y014525
X017387Y015509
X017879
X018667Y013737
X019060Y017478
X019356Y017970
X018667Y018363
X020143Y017576
X020044Y021513
X018371Y022104
X017485Y021218
T03
X018371Y021178
T04
X022505Y017281
Y022005
X014237
Y017281
M30
